M48
; DRILL file {KiCad 8.0.5} date 2024-12-15T00:02:40-0600
; FORMAT={-:-/ absolute / metric / decimal}
; #@! TF.CreationDate,2024-12-15T00:02:40-06:00
; #@! TF.GenerationSoftware,Kicad,Pcbnew,8.0.5
; #@! TF.FileFunction,Plated,1,2,PTH
FMAT,2
METRIC
; #@! TA.AperFunction,Plated,PTH,ComponentDrill
T1C0.700
; #@! TA.AperFunction,Plated,PTH,ComponentDrill
T2C0.950
; #@! TA.AperFunction,Plated,PTH,ComponentDrill
T3C1.000
; #@! TA.AperFunction,Plated,PTH,ComponentDrill
T4C1.520
%
G90
G05
T1
X165.35Y-113.15
X170.85Y-101.4
X173.35Y-86.15
X181.1Y-86.15
T2
X127.575Y-91.4
X127.575Y-93.9
X127.575Y-96.4
X127.575Y-98.9
X127.575Y-101.4
X127.575Y-103.9
X177.3Y-103.15
X177.3Y-105.65
X177.3Y-108.15
X177.325Y-114.65
X177.325Y-117.15
X177.325Y-119.65
X177.35Y-91.65
X177.35Y-94.15
X177.35Y-96.65
X185.1Y-91.65
X185.1Y-94.15
X185.1Y-96.65
X185.1Y-103.15
X185.1Y-105.65
X185.1Y-108.15
X185.125Y-114.65
X185.125Y-117.15
X185.125Y-119.65
T3
X127.3Y-115.95
X132.27Y-79.65
X132.27Y-82.19
X134.81Y-79.65
X134.81Y-82.19
X134.9Y-115.95
X137.35Y-79.65
X137.35Y-82.19
X139.89Y-79.65
X139.89Y-82.19
X142.43Y-79.65
X142.43Y-82.19
X144.97Y-79.65
X144.97Y-82.19
X147.51Y-79.65
X147.51Y-82.19
X150.05Y-79.65
X150.05Y-82.19
X152.59Y-79.65
X152.59Y-82.19
X155.13Y-79.65
X155.13Y-82.19
X157.67Y-79.65
X157.67Y-82.19
X160.21Y-79.65
X160.21Y-82.19
X162.75Y-79.65
X162.75Y-82.19
X165.29Y-79.65
X165.29Y-82.19
X167.83Y-79.65
X167.83Y-82.19
X170.37Y-79.65
X170.37Y-82.19
X172.91Y-79.65
X172.91Y-82.19
X175.45Y-79.65
X175.45Y-82.19
X177.99Y-79.65
X177.99Y-82.19
X180.53Y-79.65
X180.53Y-82.19
T4
X136.27Y-128.65
X141.35Y-128.65
X148.27Y-128.65
X153.35Y-128.65
X160.06Y-128.65
X165.14Y-128.65
X172.02Y-128.61
X177.1Y-128.61
M30
