G04 #@! TF.GenerationSoftware,KiCad,Pcbnew,8.0.5*
G04 #@! TF.CreationDate,2024-12-15T00:02:26-06:00*
G04 #@! TF.ProjectId,auxkit_HAT,6175786b-6974-45f4-9841-542e6b696361,rev?*
G04 #@! TF.SameCoordinates,Original*
G04 #@! TF.FileFunction,Copper,L1,Top*
G04 #@! TF.FilePolarity,Positive*
%FSLAX46Y46*%
G04 Gerber Fmt 4.6, Leading zero omitted, Abs format (unit mm)*
G04 Created by KiCad (PCBNEW 8.0.5) date 2024-12-15 00:02:26*
%MOMM*%
%LPD*%
G01*
G04 APERTURE LIST*
G04 Aperture macros list*
%AMRoundRect*
0 Rectangle with rounded corners*
0 $1 Rounding radius*
0 $2 $3 $4 $5 $6 $7 $8 $9 X,Y pos of 4 corners*
0 Add a 4 corners polygon primitive as box body*
4,1,4,$2,$3,$4,$5,$6,$7,$8,$9,$2,$3,0*
0 Add four circle primitives for the rounded corners*
1,1,$1+$1,$2,$3*
1,1,$1+$1,$4,$5*
1,1,$1+$1,$6,$7*
1,1,$1+$1,$8,$9*
0 Add four rect primitives between the rounded corners*
20,1,$1+$1,$2,$3,$4,$5,0*
20,1,$1+$1,$4,$5,$6,$7,0*
20,1,$1+$1,$6,$7,$8,$9,0*
20,1,$1+$1,$8,$9,$2,$3,0*%
G04 Aperture macros list end*
G04 #@! TA.AperFunction,NonConductor*
%ADD10C,0.200000*%
G04 #@! TD*
G04 #@! TA.AperFunction,ComponentPad*
%ADD11C,1.500000*%
G04 #@! TD*
G04 #@! TA.AperFunction,SMDPad,CuDef*
%ADD12RoundRect,0.250000X0.300000X-2.050000X0.300000X2.050000X-0.300000X2.050000X-0.300000X-2.050000X0*%
G04 #@! TD*
G04 #@! TA.AperFunction,SMDPad,CuDef*
%ADD13RoundRect,0.250000X2.375000X-2.025000X2.375000X2.025000X-2.375000X2.025000X-2.375000X-2.025000X0*%
G04 #@! TD*
G04 #@! TA.AperFunction,SMDPad,CuDef*
%ADD14RoundRect,0.250002X5.149998X-4.449998X5.149998X4.449998X-5.149998X4.449998X-5.149998X-4.449998X0*%
G04 #@! TD*
G04 #@! TA.AperFunction,ComponentPad*
%ADD15RoundRect,0.250000X-0.725000X0.600000X-0.725000X-0.600000X0.725000X-0.600000X0.725000X0.600000X0*%
G04 #@! TD*
G04 #@! TA.AperFunction,ComponentPad*
%ADD16O,1.950000X1.700000*%
G04 #@! TD*
G04 #@! TA.AperFunction,ComponentPad*
%ADD17C,3.000000*%
G04 #@! TD*
G04 #@! TA.AperFunction,ComponentPad*
%ADD18R,3.000000X3.000000*%
G04 #@! TD*
G04 #@! TA.AperFunction,SMDPad,CuDef*
%ADD19RoundRect,0.250000X0.350000X0.450000X-0.350000X0.450000X-0.350000X-0.450000X0.350000X-0.450000X0*%
G04 #@! TD*
G04 #@! TA.AperFunction,ComponentPad*
%ADD20R,1.700000X1.700000*%
G04 #@! TD*
G04 #@! TA.AperFunction,ComponentPad*
%ADD21O,1.700000X1.700000*%
G04 #@! TD*
G04 #@! TA.AperFunction,SMDPad,CuDef*
%ADD22RoundRect,0.250000X0.475000X-0.337500X0.475000X0.337500X-0.475000X0.337500X-0.475000X-0.337500X0*%
G04 #@! TD*
G04 #@! TA.AperFunction,SMDPad,CuDef*
%ADD23RoundRect,0.162500X0.162500X-0.837500X0.162500X0.837500X-0.162500X0.837500X-0.162500X-0.837500X0*%
G04 #@! TD*
G04 #@! TA.AperFunction,SMDPad,CuDef*
%ADD24RoundRect,0.250000X-0.475000X0.337500X-0.475000X-0.337500X0.475000X-0.337500X0.475000X0.337500X0*%
G04 #@! TD*
G04 #@! TA.AperFunction,SMDPad,CuDef*
%ADD25RoundRect,0.250000X0.450000X-0.350000X0.450000X0.350000X-0.450000X0.350000X-0.450000X-0.350000X0*%
G04 #@! TD*
G04 #@! TA.AperFunction,SMDPad,CuDef*
%ADD26RoundRect,0.250000X-0.350000X-0.450000X0.350000X-0.450000X0.350000X0.450000X-0.350000X0.450000X0*%
G04 #@! TD*
G04 #@! TA.AperFunction,ComponentPad*
%ADD27RoundRect,0.250000X0.725000X-0.600000X0.725000X0.600000X-0.725000X0.600000X-0.725000X-0.600000X0*%
G04 #@! TD*
G04 #@! TA.AperFunction,SMDPad,CuDef*
%ADD28RoundRect,0.462500X1.287500X-0.462500X1.287500X0.462500X-1.287500X0.462500X-1.287500X-0.462500X0*%
G04 #@! TD*
G04 #@! TA.AperFunction,SMDPad,CuDef*
%ADD29RoundRect,0.250000X-1.000000X-0.650000X1.000000X-0.650000X1.000000X0.650000X-1.000000X0.650000X0*%
G04 #@! TD*
G04 #@! TA.AperFunction,SMDPad,CuDef*
%ADD30RoundRect,0.250000X0.337500X0.475000X-0.337500X0.475000X-0.337500X-0.475000X0.337500X-0.475000X0*%
G04 #@! TD*
G04 #@! TA.AperFunction,SMDPad,CuDef*
%ADD31R,1.780000X2.000000*%
G04 #@! TD*
G04 #@! TA.AperFunction,SMDPad,CuDef*
%ADD32RoundRect,0.162500X0.447500X0.162500X-0.447500X0.162500X-0.447500X-0.162500X0.447500X-0.162500X0*%
G04 #@! TD*
G04 #@! TA.AperFunction,ComponentPad*
%ADD33R,2.000000X2.000000*%
G04 #@! TD*
G04 #@! TA.AperFunction,ComponentPad*
%ADD34C,2.000000*%
G04 #@! TD*
G04 #@! TA.AperFunction,Conductor*
%ADD35C,0.200000*%
G04 #@! TD*
G04 #@! TA.AperFunction,Conductor*
%ADD36C,1.500000*%
G04 #@! TD*
G04 APERTURE END LIST*
D10*
X123850000Y-77400000D02*
X188850000Y-77400000D01*
X188850000Y-133400000D01*
X123850000Y-133400000D01*
X123850000Y-77400000D01*
D11*
X165350000Y-113150000D03*
X170850000Y-101400000D03*
X173350000Y-86150000D03*
X181100000Y-86150000D03*
D12*
X141225000Y-121475000D03*
X142925000Y-121475000D03*
X144625000Y-121475000D03*
D13*
X141850000Y-114750000D03*
X147400000Y-114750000D03*
D14*
X144625000Y-112325000D03*
D13*
X141850000Y-109900000D03*
X147400000Y-109900000D03*
D12*
X146325000Y-121475000D03*
X148025000Y-121475000D03*
D15*
X177350000Y-91650000D03*
D16*
X177350000Y-94150000D03*
X177350000Y-96650000D03*
D17*
X177100000Y-128610000D03*
D18*
X172020000Y-128610000D03*
D19*
X171080000Y-119420000D03*
X169080000Y-119420000D03*
D20*
X132270000Y-82190000D03*
D21*
X132270000Y-79650000D03*
X134810000Y-82190000D03*
X134810000Y-79650000D03*
X137350000Y-82190000D03*
X137350000Y-79650000D03*
X139890000Y-82190000D03*
X139890000Y-79650000D03*
X142430000Y-82190000D03*
X142430000Y-79650000D03*
X144970000Y-82190000D03*
X144970000Y-79650000D03*
X147510000Y-82190000D03*
X147510000Y-79650000D03*
X150050000Y-82190000D03*
X150050000Y-79650000D03*
X152590000Y-82190000D03*
X152590000Y-79650000D03*
X155130000Y-82190000D03*
X155130000Y-79650000D03*
X157670000Y-82190000D03*
X157670000Y-79650000D03*
X160210000Y-82190000D03*
X160210000Y-79650000D03*
X162750000Y-82190000D03*
X162750000Y-79650000D03*
X165290000Y-82190000D03*
X165290000Y-79650000D03*
X167830000Y-82190000D03*
X167830000Y-79650000D03*
X170370000Y-82190000D03*
X170370000Y-79650000D03*
X172910000Y-82190000D03*
X172910000Y-79650000D03*
X175450000Y-82190000D03*
X175450000Y-79650000D03*
X177990000Y-82190000D03*
X177990000Y-79650000D03*
X180530000Y-82190000D03*
X180530000Y-79650000D03*
D22*
X137650000Y-123037500D03*
X137650000Y-120962500D03*
D23*
X158900000Y-116860000D03*
X159850000Y-116860000D03*
X160800000Y-116860000D03*
X160800000Y-113440000D03*
X159850000Y-113440000D03*
X158900000Y-113440000D03*
D24*
X163830000Y-119132500D03*
X163830000Y-121207500D03*
D25*
X160600000Y-110900000D03*
X160600000Y-108900000D03*
D26*
X169080000Y-121670000D03*
X171080000Y-121670000D03*
D27*
X127575000Y-103900000D03*
D16*
X127575000Y-101400000D03*
X127575000Y-98900000D03*
X127575000Y-96400000D03*
X127575000Y-93900000D03*
X127575000Y-91400000D03*
D28*
X154150000Y-118775000D03*
X154150000Y-113225000D03*
D15*
X177300000Y-103150000D03*
D16*
X177300000Y-105650000D03*
X177300000Y-108150000D03*
D18*
X160060000Y-128650000D03*
D17*
X165140000Y-128650000D03*
D29*
X151900000Y-122250000D03*
X155900000Y-122250000D03*
D15*
X177325000Y-114650000D03*
D16*
X177325000Y-117150000D03*
X177325000Y-119650000D03*
D15*
X185100000Y-103150000D03*
D16*
X185100000Y-105650000D03*
X185100000Y-108150000D03*
D30*
X153437500Y-110750000D03*
X151362500Y-110750000D03*
D31*
X171390000Y-116980000D03*
X168850000Y-116980000D03*
X166310000Y-116980000D03*
X163770000Y-116980000D03*
X163770000Y-109360000D03*
X166310000Y-109360000D03*
X168850000Y-109360000D03*
X171390000Y-109360000D03*
D18*
X136270000Y-128650000D03*
D17*
X141350000Y-128650000D03*
D15*
X185100000Y-91650000D03*
D16*
X185100000Y-94150000D03*
X185100000Y-96650000D03*
D19*
X160850000Y-119400000D03*
X158850000Y-119400000D03*
D24*
X166330000Y-119132500D03*
X166330000Y-121207500D03*
D32*
X158160000Y-110850000D03*
X158160000Y-108950000D03*
X155540000Y-109900000D03*
D15*
X185125000Y-114650000D03*
D16*
X185125000Y-117150000D03*
X185125000Y-119650000D03*
D18*
X148270000Y-128650000D03*
D17*
X153350000Y-128650000D03*
D33*
X127300000Y-115950000D03*
D34*
X134900000Y-115950000D03*
D35*
X165350000Y-113150000D02*
X163770000Y-113150000D01*
X163770000Y-113150000D02*
X163770000Y-109360000D01*
X163770000Y-114730000D02*
X163770000Y-113150000D01*
X171850000Y-95400000D02*
X171850000Y-85650000D01*
X172850000Y-84650000D02*
X179600000Y-84650000D01*
X179600000Y-84650000D02*
X181100000Y-86150000D01*
X170850000Y-96400000D02*
X171850000Y-95400000D01*
X171850000Y-85650000D02*
X172850000Y-84650000D01*
X127575000Y-96400000D02*
X170850000Y-96400000D01*
X172350000Y-98900000D02*
X173350000Y-97900000D01*
X127575000Y-98900000D02*
X172350000Y-98900000D01*
X173350000Y-97900000D02*
X173350000Y-86150000D01*
X170850000Y-101400000D02*
X127575000Y-101400000D01*
X174350000Y-106900000D02*
X174350000Y-97400000D01*
X174350000Y-97400000D02*
X175100000Y-96650000D01*
X175100000Y-96650000D02*
X177350000Y-96650000D01*
X173600000Y-107650000D02*
X174350000Y-106900000D01*
X166310000Y-107670000D02*
X166330000Y-107650000D01*
X166310000Y-107900000D02*
X166310000Y-107670000D01*
X166330000Y-107650000D02*
X173600000Y-107650000D01*
X166310000Y-107900000D02*
X166310000Y-107690000D01*
X166310000Y-109360000D02*
X166310000Y-107900000D01*
X180600000Y-82260000D02*
X180530000Y-82190000D01*
X181250000Y-82190000D02*
X180530000Y-82190000D01*
X181250000Y-82190000D02*
X180530000Y-82190000D01*
X158600000Y-109900000D02*
X158160000Y-109460000D01*
X186400000Y-109450000D02*
X185100000Y-108150000D01*
X161184744Y-109900000D02*
X161100000Y-109900000D01*
X133660000Y-80800000D02*
X134810000Y-79650000D01*
X159850000Y-114650000D02*
X160350000Y-115150000D01*
X161100000Y-109900000D02*
X158600000Y-109900000D01*
X171080000Y-117290000D02*
X171390000Y-116980000D01*
X185125000Y-117150000D02*
X186400000Y-115875000D01*
X159850000Y-113440000D02*
X159850000Y-114650000D01*
X185125000Y-117150000D02*
X185125000Y-119650000D01*
X160350000Y-115150000D02*
X163350000Y-115150000D01*
X185100000Y-108150000D02*
X177300000Y-108150000D01*
X171080000Y-119420000D02*
X171080000Y-117290000D01*
X163230000Y-109900000D02*
X161100000Y-109900000D01*
X127575000Y-91400000D02*
X133660000Y-85315000D01*
X186400000Y-115875000D02*
X186400000Y-109450000D01*
X158160000Y-109460000D02*
X158160000Y-108950000D01*
X163770000Y-109360000D02*
X163230000Y-109900000D01*
X163350000Y-115150000D02*
X163770000Y-114730000D01*
X177325000Y-119650000D02*
X185125000Y-119650000D01*
X177095000Y-119420000D02*
X177325000Y-119650000D01*
X171080000Y-119420000D02*
X177095000Y-119420000D01*
X133660000Y-85315000D02*
X133660000Y-80800000D01*
X153100000Y-107650000D02*
X166270000Y-107650000D01*
X127300000Y-115950000D02*
X128650000Y-115950000D01*
X151109314Y-116640686D02*
X151109314Y-112900430D01*
X166270000Y-107650000D02*
X166310000Y-107690000D01*
X150425000Y-117325000D02*
X151109314Y-116640686D01*
X152350000Y-111659744D02*
X152350000Y-108400000D01*
X128650000Y-115950000D02*
X130025000Y-117325000D01*
X185100000Y-96650000D02*
X177350000Y-96650000D01*
X130025000Y-117325000D02*
X150425000Y-117325000D01*
X152350000Y-108400000D02*
X153100000Y-107650000D01*
X151109314Y-112900430D02*
X152350000Y-111659744D01*
X157440000Y-115560000D02*
X157100000Y-115900000D01*
X157100000Y-115900000D02*
X157100000Y-120150000D01*
X170100000Y-120124314D02*
X170645686Y-120670000D01*
X170598654Y-115400000D02*
X170100000Y-115898654D01*
X125850000Y-95625000D02*
X127575000Y-93900000D01*
X171664744Y-120670000D02*
X171980000Y-120985256D01*
X153850000Y-123900000D02*
X153275000Y-124475000D01*
X165100000Y-115900000D02*
X164760000Y-115560000D01*
X165100000Y-122400000D02*
X165100000Y-115900000D01*
X172850000Y-115400000D02*
X170598654Y-115400000D01*
X125850000Y-117250000D02*
X125850000Y-95625000D01*
X157100000Y-120150000D02*
X156850000Y-120400000D01*
X164760000Y-115560000D02*
X157440000Y-115560000D01*
X170100000Y-115898654D02*
X170100000Y-120124314D01*
X165370000Y-122670000D02*
X165100000Y-122400000D01*
X171980000Y-122354744D02*
X171664744Y-122670000D01*
X141317372Y-117900000D02*
X126500000Y-117900000D01*
X154100000Y-120400000D02*
X153850000Y-120650000D01*
X171664744Y-122670000D02*
X165370000Y-122670000D01*
X126500000Y-117900000D02*
X125850000Y-117250000D01*
X156850000Y-120400000D02*
X154100000Y-120400000D01*
X153850000Y-120650000D02*
X153850000Y-123900000D01*
X142075000Y-118657628D02*
X141317372Y-117900000D01*
X142675000Y-124475000D02*
X142075000Y-123875000D01*
X142075000Y-123875000D02*
X142075000Y-118657628D01*
X170645686Y-120670000D02*
X171664744Y-120670000D01*
X171980000Y-120985256D02*
X171980000Y-122354744D01*
X153275000Y-124475000D02*
X142675000Y-124475000D01*
X177325000Y-117150000D02*
X174600000Y-117150000D01*
X174600000Y-117150000D02*
X172850000Y-115400000D01*
X169080000Y-119420000D02*
X169080000Y-117210000D01*
X169080000Y-117210000D02*
X168850000Y-116980000D01*
X169080000Y-119670000D02*
X169080000Y-119420000D01*
X171080000Y-121670000D02*
X169080000Y-119670000D01*
X168850000Y-109360000D02*
X168850000Y-111900000D01*
X166330000Y-117000000D02*
X166310000Y-116980000D01*
X166310000Y-114440000D02*
X166310000Y-116980000D01*
X168850000Y-111900000D02*
X166310000Y-114440000D01*
X168867500Y-121670000D02*
X169080000Y-121670000D01*
X166330000Y-119132500D02*
X166330000Y-117000000D01*
X166330000Y-119132500D02*
X168867500Y-121670000D01*
X154150000Y-118775000D02*
X151900000Y-121025000D01*
X144090256Y-124075000D02*
X142925000Y-122909744D01*
X151900000Y-122250000D02*
X150075000Y-124075000D01*
X150075000Y-124075000D02*
X144090256Y-124075000D01*
X142925000Y-122909744D02*
X142925000Y-121475000D01*
X151900000Y-121025000D02*
X151900000Y-122250000D01*
X163830000Y-117040000D02*
X163770000Y-116980000D01*
X163830000Y-119132500D02*
X163830000Y-117040000D01*
X139662500Y-123037500D02*
X141225000Y-121475000D01*
X141225000Y-121475000D02*
X141225000Y-128525000D01*
D36*
X148270000Y-128650000D02*
X141350000Y-128650000D01*
D35*
X141225000Y-128525000D02*
X141350000Y-128650000D01*
X137650000Y-123037500D02*
X139662500Y-123037500D01*
D36*
X172020000Y-128610000D02*
X165180000Y-128610000D01*
D35*
X165180000Y-128610000D02*
X165140000Y-128650000D01*
X146325000Y-121475000D02*
X146325000Y-120040256D01*
X148215256Y-118150000D02*
X150850000Y-118150000D01*
X155540000Y-111090000D02*
X157890000Y-113440000D01*
X155540000Y-109900000D02*
X155540000Y-111090000D01*
X155540000Y-109900000D02*
X154287500Y-109900000D01*
X154287500Y-109900000D02*
X153437500Y-110750000D01*
X153437500Y-110750000D02*
X153437500Y-112512500D01*
X150850000Y-118150000D02*
X154150000Y-114850000D01*
X153437500Y-112512500D02*
X154150000Y-113225000D01*
X146325000Y-120040256D02*
X148215256Y-118150000D01*
X154150000Y-114850000D02*
X154150000Y-113225000D01*
X157890000Y-113440000D02*
X158900000Y-113440000D01*
D36*
X160060000Y-128650000D02*
X153430000Y-128650000D01*
D35*
X160800000Y-113440000D02*
X160800000Y-111100000D01*
X160800000Y-111100000D02*
X160600000Y-110900000D01*
X160550000Y-110850000D02*
X160600000Y-110900000D01*
X158160000Y-110850000D02*
X160550000Y-110850000D01*
X158900000Y-116860000D02*
X159850000Y-116860000D01*
X160850000Y-116910000D02*
X160800000Y-116860000D01*
X160800000Y-116860000D02*
X159850000Y-116860000D01*
X160850000Y-119400000D02*
X160850000Y-116910000D01*
G04 #@! TA.AperFunction,Conductor*
G36*
X154745543Y-110220185D02*
G01*
X154789903Y-110270037D01*
X154792988Y-110276347D01*
X154792990Y-110276350D01*
X154878651Y-110362011D01*
X154987488Y-110415219D01*
X154987489Y-110415219D01*
X154987491Y-110415220D01*
X155058051Y-110425500D01*
X155115500Y-110425499D01*
X155182538Y-110445182D01*
X155228294Y-110497986D01*
X155239500Y-110549499D01*
X155239500Y-111129562D01*
X155259979Y-111205989D01*
X155265752Y-111215988D01*
X155299540Y-111274511D01*
X157649540Y-113624511D01*
X157705489Y-113680460D01*
X157705491Y-113680461D01*
X157705495Y-113680464D01*
X157774004Y-113720017D01*
X157774011Y-113720021D01*
X157850438Y-113740500D01*
X158250501Y-113740500D01*
X158317540Y-113760185D01*
X158363295Y-113812989D01*
X158374501Y-113864500D01*
X158374501Y-114311950D01*
X158384779Y-114382506D01*
X158384779Y-114382507D01*
X158384780Y-114382509D01*
X158437988Y-114491347D01*
X158437989Y-114491349D01*
X158523651Y-114577011D01*
X158632488Y-114630219D01*
X158632489Y-114630219D01*
X158632491Y-114630220D01*
X158703051Y-114640500D01*
X159096948Y-114640499D01*
X159096950Y-114640499D01*
X159125172Y-114636387D01*
X159167509Y-114630220D01*
X159276347Y-114577012D01*
X159276349Y-114577010D01*
X159287319Y-114566041D01*
X159348642Y-114532556D01*
X159418334Y-114537540D01*
X159462681Y-114566041D01*
X159473650Y-114577010D01*
X159473651Y-114577010D01*
X159473653Y-114577012D01*
X159479960Y-114580095D01*
X159531542Y-114627223D01*
X159546769Y-114681722D01*
X159548439Y-114681503D01*
X159549499Y-114689559D01*
X159560286Y-114729815D01*
X159569979Y-114765989D01*
X159592761Y-114805448D01*
X159609540Y-114834511D01*
X159609542Y-114834513D01*
X159822848Y-115047819D01*
X159856333Y-115109142D01*
X159851349Y-115178834D01*
X159809477Y-115234767D01*
X159744013Y-115259184D01*
X159735167Y-115259500D01*
X157400438Y-115259500D01*
X157324010Y-115279978D01*
X157255489Y-115319540D01*
X157255486Y-115319542D01*
X156859541Y-115715487D01*
X156859535Y-115715495D01*
X156819982Y-115784004D01*
X156819979Y-115784009D01*
X156799500Y-115860439D01*
X156799500Y-119974167D01*
X156779815Y-120041206D01*
X156763181Y-120061848D01*
X156761848Y-120063181D01*
X156700525Y-120096666D01*
X156674167Y-120099500D01*
X155714528Y-120099500D01*
X155647489Y-120079815D01*
X155601734Y-120027011D01*
X155591790Y-119957853D01*
X155620815Y-119894297D01*
X155677638Y-119857115D01*
X155700489Y-119849993D01*
X155711602Y-119846531D01*
X155849388Y-119763236D01*
X155963236Y-119649388D01*
X156046531Y-119511602D01*
X156094430Y-119357887D01*
X156100500Y-119291091D01*
X156100499Y-118258910D01*
X156100499Y-118258909D01*
X156100499Y-118258901D01*
X156094431Y-118192117D01*
X156094428Y-118192106D01*
X156046532Y-118038401D01*
X156046531Y-118038400D01*
X156046531Y-118038398D01*
X155963236Y-117900612D01*
X155963234Y-117900610D01*
X155963233Y-117900608D01*
X155849391Y-117786766D01*
X155833254Y-117777011D01*
X155711602Y-117703469D01*
X155557887Y-117655570D01*
X155557885Y-117655569D01*
X155557883Y-117655569D01*
X155511117Y-117651319D01*
X155491091Y-117649500D01*
X155491088Y-117649500D01*
X152808901Y-117649500D01*
X152742117Y-117655568D01*
X152742106Y-117655571D01*
X152588401Y-117703467D01*
X152450608Y-117786766D01*
X152336766Y-117900608D01*
X152253469Y-118038397D01*
X152205569Y-118192116D01*
X152199500Y-118258911D01*
X152199500Y-119291098D01*
X152205568Y-119357882D01*
X152205571Y-119357893D01*
X152253467Y-119511598D01*
X152253468Y-119511600D01*
X152253469Y-119511602D01*
X152284065Y-119562213D01*
X152336766Y-119649391D01*
X152450607Y-119763232D01*
X152450611Y-119763235D01*
X152450612Y-119763236D01*
X152474143Y-119777461D01*
X152493523Y-119789177D01*
X152540710Y-119840705D01*
X152552548Y-119909564D01*
X152525279Y-119973893D01*
X152517053Y-119982974D01*
X151715489Y-120784540D01*
X151659541Y-120840487D01*
X151659535Y-120840495D01*
X151619982Y-120909004D01*
X151619979Y-120909009D01*
X151610149Y-120945695D01*
X151601712Y-120977185D01*
X151599500Y-120985439D01*
X151599500Y-121025500D01*
X151579815Y-121092539D01*
X151527011Y-121138294D01*
X151475500Y-121149500D01*
X150845730Y-121149500D01*
X150815300Y-121152353D01*
X150815298Y-121152353D01*
X150687119Y-121197206D01*
X150687117Y-121197207D01*
X150577850Y-121277850D01*
X150497207Y-121387117D01*
X150497206Y-121387119D01*
X150452353Y-121515298D01*
X150452353Y-121515300D01*
X150449500Y-121545730D01*
X150449500Y-122954269D01*
X150452353Y-122984696D01*
X150452353Y-122984698D01*
X150452354Y-122984699D01*
X150497206Y-123112880D01*
X150500276Y-123121652D01*
X150497342Y-123122678D01*
X150508107Y-123175650D01*
X150482795Y-123240773D01*
X150472237Y-123252790D01*
X149986848Y-123738181D01*
X149925525Y-123771666D01*
X149899167Y-123774500D01*
X149191930Y-123774500D01*
X149124891Y-123754815D01*
X149079136Y-123702011D01*
X149068572Y-123637897D01*
X149074999Y-123574986D01*
X149075000Y-123574973D01*
X149075000Y-121725000D01*
X147899000Y-121725000D01*
X147831961Y-121705315D01*
X147786206Y-121652511D01*
X147775000Y-121601000D01*
X147775000Y-121349000D01*
X147794685Y-121281961D01*
X147847489Y-121236206D01*
X147899000Y-121225000D01*
X149074999Y-121225000D01*
X149074999Y-119375028D01*
X149074998Y-119375013D01*
X149064505Y-119272302D01*
X149009358Y-119105880D01*
X149009356Y-119105875D01*
X148917315Y-118956654D01*
X148793345Y-118832684D01*
X148644124Y-118740643D01*
X148644119Y-118740641D01*
X148497950Y-118692206D01*
X148440505Y-118652434D01*
X148413682Y-118587918D01*
X148425997Y-118519142D01*
X148473540Y-118467942D01*
X148536954Y-118450500D01*
X150889560Y-118450500D01*
X150889562Y-118450500D01*
X150965989Y-118430021D01*
X151034511Y-118390460D01*
X151090460Y-118334511D01*
X154390460Y-115034511D01*
X154430022Y-114965988D01*
X154450500Y-114889562D01*
X154450500Y-114810438D01*
X154450500Y-114474499D01*
X154470185Y-114407460D01*
X154522989Y-114361705D01*
X154574500Y-114350499D01*
X155491097Y-114350499D01*
X155557882Y-114344431D01*
X155557885Y-114344430D01*
X155557887Y-114344430D01*
X155711602Y-114296531D01*
X155849388Y-114213236D01*
X155963236Y-114099388D01*
X156046531Y-113961602D01*
X156094430Y-113807887D01*
X156100500Y-113741091D01*
X156100499Y-112708910D01*
X156100499Y-112708909D01*
X156100499Y-112708901D01*
X156094431Y-112642117D01*
X156094428Y-112642106D01*
X156046532Y-112488401D01*
X156046531Y-112488400D01*
X156046531Y-112488398D01*
X155963236Y-112350612D01*
X155963234Y-112350610D01*
X155963233Y-112350608D01*
X155849391Y-112236766D01*
X155810494Y-112213252D01*
X155711602Y-112153469D01*
X155557887Y-112105570D01*
X155557885Y-112105569D01*
X155557883Y-112105569D01*
X155511117Y-112101319D01*
X155491091Y-112099500D01*
X155491088Y-112099500D01*
X153862000Y-112099500D01*
X153794961Y-112079815D01*
X153749206Y-112027011D01*
X153738000Y-111975500D01*
X153738000Y-111796974D01*
X153757685Y-111729935D01*
X153810489Y-111684180D01*
X153850422Y-111673515D01*
X153859699Y-111672646D01*
X153859701Y-111672645D01*
X153859703Y-111672645D01*
X153916436Y-111652793D01*
X153987882Y-111627793D01*
X154097150Y-111547150D01*
X154177793Y-111437882D01*
X154200219Y-111373790D01*
X154222646Y-111309701D01*
X154222646Y-111309699D01*
X154225500Y-111279269D01*
X154225500Y-110438333D01*
X154245185Y-110371294D01*
X154261819Y-110350652D01*
X154375652Y-110236819D01*
X154436975Y-110203334D01*
X154463333Y-110200500D01*
X154678504Y-110200500D01*
X154745543Y-110220185D01*
G37*
G04 #@! TD.AperFunction*
G04 #@! TA.AperFunction,Conductor*
G36*
X167685848Y-120929165D02*
G01*
X167730195Y-120957666D01*
X168243181Y-121470652D01*
X168276666Y-121531975D01*
X168279500Y-121558333D01*
X168279500Y-122174269D01*
X168282353Y-122204699D01*
X168283964Y-122212073D01*
X168282698Y-122212349D01*
X168285861Y-122274327D01*
X168251130Y-122334954D01*
X168189136Y-122367179D01*
X168165258Y-122369500D01*
X167334154Y-122369500D01*
X167267115Y-122349815D01*
X167221360Y-122297011D01*
X167211416Y-122227853D01*
X167240441Y-122164297D01*
X167269055Y-122139962D01*
X167273345Y-122137315D01*
X167397315Y-122013345D01*
X167489356Y-121864124D01*
X167489358Y-121864119D01*
X167544505Y-121697697D01*
X167544506Y-121697690D01*
X167554999Y-121594986D01*
X167555000Y-121594973D01*
X167555000Y-121457500D01*
X165524500Y-121457500D01*
X165457461Y-121437815D01*
X165411706Y-121385011D01*
X165400500Y-121333500D01*
X165400500Y-121081500D01*
X165420185Y-121014461D01*
X165472989Y-120968706D01*
X165524500Y-120957500D01*
X167555137Y-120957500D01*
X167616156Y-120924181D01*
X167685848Y-120929165D01*
G37*
G04 #@! TD.AperFunction*
G04 #@! TA.AperFunction,Conductor*
G36*
X148136839Y-117645185D02*
G01*
X148182594Y-117697989D01*
X148192538Y-117767147D01*
X148163513Y-117830703D01*
X148104735Y-117868477D01*
X148101920Y-117869267D01*
X148100842Y-117869556D01*
X148099266Y-117869978D01*
X148030745Y-117909540D01*
X148030742Y-117909542D01*
X146952383Y-118987900D01*
X146891060Y-119021385D01*
X146823748Y-119017261D01*
X146709697Y-118977353D01*
X146679270Y-118974500D01*
X146679266Y-118974500D01*
X145970734Y-118974500D01*
X145970730Y-118974500D01*
X145940300Y-118977353D01*
X145940298Y-118977353D01*
X145812119Y-119022206D01*
X145812113Y-119022209D01*
X145745747Y-119071190D01*
X145680118Y-119095161D01*
X145611948Y-119079845D01*
X145566575Y-119036517D01*
X145517315Y-118956654D01*
X145393345Y-118832684D01*
X145244124Y-118740643D01*
X145244119Y-118740641D01*
X145077697Y-118685494D01*
X145077690Y-118685493D01*
X144974986Y-118675000D01*
X144875000Y-118675000D01*
X144875000Y-121601000D01*
X144855315Y-121668039D01*
X144802511Y-121713794D01*
X144751000Y-121725000D01*
X144499000Y-121725000D01*
X144431961Y-121705315D01*
X144386206Y-121652511D01*
X144375000Y-121601000D01*
X144375000Y-118674999D01*
X144275028Y-118675000D01*
X144275012Y-118675001D01*
X144172302Y-118685494D01*
X144005880Y-118740641D01*
X144005875Y-118740643D01*
X143856654Y-118832684D01*
X143732682Y-118956656D01*
X143683423Y-119036518D01*
X143631475Y-119083242D01*
X143562512Y-119094463D01*
X143504253Y-119071190D01*
X143437882Y-119022207D01*
X143437880Y-119022206D01*
X143309700Y-118977353D01*
X143279270Y-118974500D01*
X143279266Y-118974500D01*
X142570734Y-118974500D01*
X142570730Y-118974500D01*
X142540300Y-118977353D01*
X142532927Y-118978964D01*
X142532650Y-118977698D01*
X142470673Y-118980861D01*
X142410046Y-118946130D01*
X142377821Y-118884136D01*
X142375500Y-118860258D01*
X142375500Y-118618068D01*
X142375499Y-118618064D01*
X142371006Y-118601296D01*
X142365868Y-118582118D01*
X142355022Y-118541640D01*
X142315460Y-118473117D01*
X141679524Y-117837181D01*
X141646039Y-117775858D01*
X141651023Y-117706166D01*
X141692895Y-117650233D01*
X141758359Y-117625816D01*
X141767205Y-117625500D01*
X148069800Y-117625500D01*
X148136839Y-117645185D01*
G37*
G04 #@! TD.AperFunction*
G04 #@! TA.AperFunction,Conductor*
G36*
X159483445Y-107970185D02*
G01*
X159529200Y-108022989D01*
X159539144Y-108092147D01*
X159521945Y-108139597D01*
X159465643Y-108230875D01*
X159465641Y-108230880D01*
X159410494Y-108397302D01*
X159410493Y-108397309D01*
X159400000Y-108500013D01*
X159400000Y-108650000D01*
X161799999Y-108650000D01*
X161799999Y-108500028D01*
X161799998Y-108500013D01*
X161789505Y-108397302D01*
X161734358Y-108230880D01*
X161734356Y-108230875D01*
X161678055Y-108139597D01*
X161659615Y-108072204D01*
X161680538Y-108005541D01*
X161734180Y-107960771D01*
X161783594Y-107950500D01*
X162723196Y-107950500D01*
X162790235Y-107970185D01*
X162835990Y-108022989D01*
X162845934Y-108092147D01*
X162816909Y-108155703D01*
X162792087Y-108177602D01*
X162735447Y-108215447D01*
X162691132Y-108281769D01*
X162691131Y-108281770D01*
X162679500Y-108340247D01*
X162679500Y-109475500D01*
X162659815Y-109542539D01*
X162607011Y-109588294D01*
X162555500Y-109599500D01*
X161896011Y-109599500D01*
X161828972Y-109579815D01*
X161783217Y-109527011D01*
X161773273Y-109457853D01*
X161778305Y-109436495D01*
X161789505Y-109402694D01*
X161789506Y-109402690D01*
X161799999Y-109299986D01*
X161800000Y-109299973D01*
X161800000Y-109150000D01*
X159400001Y-109150000D01*
X159400001Y-109299986D01*
X159410494Y-109402697D01*
X159421694Y-109436496D01*
X159424096Y-109506324D01*
X159388364Y-109566366D01*
X159325844Y-109597559D01*
X159303988Y-109599500D01*
X158933222Y-109599500D01*
X158866183Y-109579815D01*
X158820428Y-109527011D01*
X158810484Y-109457853D01*
X158839509Y-109394297D01*
X158845541Y-109387819D01*
X158907011Y-109326348D01*
X158907012Y-109326347D01*
X158960220Y-109217509D01*
X158970500Y-109146949D01*
X158970499Y-108753052D01*
X158960220Y-108682491D01*
X158907012Y-108573653D01*
X158907010Y-108573651D01*
X158907010Y-108573650D01*
X158821348Y-108487988D01*
X158712511Y-108434780D01*
X158694869Y-108432210D01*
X158641949Y-108424500D01*
X158641943Y-108424500D01*
X157678049Y-108424500D01*
X157607493Y-108434779D01*
X157498650Y-108487989D01*
X157412988Y-108573651D01*
X157359780Y-108682488D01*
X157355925Y-108708951D01*
X157349500Y-108753051D01*
X157349500Y-108753055D01*
X157349500Y-108753056D01*
X157349500Y-109146950D01*
X157359779Y-109217506D01*
X157359779Y-109217507D01*
X157359780Y-109217509D01*
X157400101Y-109299986D01*
X157412989Y-109326349D01*
X157498651Y-109412011D01*
X157607488Y-109465219D01*
X157607489Y-109465219D01*
X157607491Y-109465220D01*
X157678051Y-109475500D01*
X157757904Y-109475499D01*
X157824942Y-109495183D01*
X157870698Y-109547986D01*
X157877678Y-109567402D01*
X157879979Y-109575989D01*
X157905376Y-109619978D01*
X157912458Y-109632244D01*
X157919539Y-109644510D01*
X158387848Y-110112819D01*
X158421333Y-110174142D01*
X158416349Y-110243834D01*
X158374477Y-110299767D01*
X158309013Y-110324184D01*
X158300167Y-110324500D01*
X157678049Y-110324500D01*
X157607493Y-110334779D01*
X157498650Y-110387989D01*
X157412988Y-110473651D01*
X157359780Y-110582488D01*
X157359780Y-110582491D01*
X157349500Y-110653051D01*
X157349500Y-110653055D01*
X157349500Y-110653056D01*
X157349500Y-111046950D01*
X157359779Y-111117506D01*
X157359779Y-111117507D01*
X157359780Y-111117509D01*
X157384687Y-111168456D01*
X157412989Y-111226349D01*
X157498651Y-111312011D01*
X157607488Y-111365219D01*
X157607489Y-111365219D01*
X157607491Y-111365220D01*
X157678051Y-111375500D01*
X158641948Y-111375499D01*
X158641950Y-111375499D01*
X158670172Y-111371387D01*
X158712509Y-111365220D01*
X158821347Y-111312012D01*
X158858859Y-111274500D01*
X158907010Y-111226350D01*
X158907010Y-111226348D01*
X158907012Y-111226347D01*
X158910097Y-111220037D01*
X158957226Y-111168456D01*
X159021496Y-111150500D01*
X159575500Y-111150500D01*
X159642539Y-111170185D01*
X159688294Y-111222989D01*
X159699500Y-111274500D01*
X159699500Y-111304269D01*
X159702353Y-111334699D01*
X159702353Y-111334701D01*
X159738458Y-111437880D01*
X159747207Y-111462882D01*
X159827850Y-111572150D01*
X159937118Y-111652793D01*
X159979845Y-111667744D01*
X160065299Y-111697646D01*
X160095730Y-111700500D01*
X160095734Y-111700500D01*
X160375500Y-111700500D01*
X160442539Y-111720185D01*
X160488294Y-111772989D01*
X160499500Y-111824500D01*
X160499500Y-112188504D01*
X160479815Y-112255543D01*
X160429963Y-112299903D01*
X160423652Y-112302988D01*
X160412681Y-112313959D01*
X160351358Y-112347444D01*
X160281666Y-112342460D01*
X160237319Y-112313959D01*
X160226348Y-112302988D01*
X160117511Y-112249780D01*
X160099869Y-112247210D01*
X160046949Y-112239500D01*
X160046943Y-112239500D01*
X159653049Y-112239500D01*
X159582493Y-112249779D01*
X159473650Y-112302989D01*
X159462681Y-112313959D01*
X159401358Y-112347444D01*
X159331666Y-112342460D01*
X159287319Y-112313959D01*
X159276348Y-112302988D01*
X159167511Y-112249780D01*
X159149869Y-112247210D01*
X159096949Y-112239500D01*
X159096943Y-112239500D01*
X158703049Y-112239500D01*
X158632493Y-112249779D01*
X158523650Y-112302989D01*
X158437988Y-112388651D01*
X158384780Y-112497488D01*
X158380925Y-112523951D01*
X158374500Y-112568051D01*
X158374500Y-112568056D01*
X158374500Y-113015500D01*
X158354815Y-113082539D01*
X158302011Y-113128294D01*
X158250500Y-113139500D01*
X158065833Y-113139500D01*
X157998794Y-113119815D01*
X157978152Y-113103181D01*
X155876819Y-111001848D01*
X155843334Y-110940525D01*
X155840500Y-110914167D01*
X155840500Y-110549499D01*
X155860185Y-110482460D01*
X155912989Y-110436705D01*
X155964500Y-110425499D01*
X156021950Y-110425499D01*
X156050172Y-110421387D01*
X156092509Y-110415220D01*
X156201347Y-110362012D01*
X156287012Y-110276347D01*
X156340220Y-110167509D01*
X156350500Y-110096949D01*
X156350499Y-109703052D01*
X156340220Y-109632491D01*
X156287012Y-109523653D01*
X156287010Y-109523651D01*
X156287010Y-109523650D01*
X156201348Y-109437988D01*
X156092511Y-109384780D01*
X156074869Y-109382210D01*
X156021949Y-109374500D01*
X156021943Y-109374500D01*
X155058049Y-109374500D01*
X154987493Y-109384779D01*
X154878650Y-109437989D01*
X154792990Y-109523650D01*
X154792988Y-109523652D01*
X154789903Y-109529963D01*
X154742774Y-109581544D01*
X154678504Y-109599500D01*
X154247938Y-109599500D01*
X154171510Y-109619978D01*
X154102990Y-109659539D01*
X154102989Y-109659540D01*
X153969568Y-109792959D01*
X153908247Y-109826443D01*
X153867364Y-109826426D01*
X153867212Y-109828058D01*
X153829270Y-109824500D01*
X153829266Y-109824500D01*
X153045734Y-109824500D01*
X153045730Y-109824500D01*
X153015300Y-109827353D01*
X153015298Y-109827353D01*
X152887119Y-109872206D01*
X152887117Y-109872207D01*
X152848133Y-109900979D01*
X152782503Y-109924949D01*
X152714333Y-109909633D01*
X152665266Y-109859892D01*
X152650500Y-109801208D01*
X152650500Y-108575833D01*
X152670185Y-108508794D01*
X152686819Y-108488152D01*
X153188152Y-107986819D01*
X153249475Y-107953334D01*
X153275833Y-107950500D01*
X159416406Y-107950500D01*
X159483445Y-107970185D01*
G37*
G04 #@! TD.AperFunction*
G04 #@! TA.AperFunction,Conductor*
G36*
X187052544Y-77709939D02*
G01*
X187173291Y-77759957D01*
X187185813Y-77765988D01*
X187373078Y-77869488D01*
X187463109Y-77919247D01*
X187474881Y-77926644D01*
X187733287Y-78109996D01*
X187744137Y-78118648D01*
X187903785Y-78261319D01*
X187980390Y-78329778D01*
X187990220Y-78339608D01*
X188201349Y-78575860D01*
X188210005Y-78586714D01*
X188232210Y-78618009D01*
X188393354Y-78845116D01*
X188400752Y-78856890D01*
X188534027Y-79098027D01*
X188549500Y-79158009D01*
X188549500Y-131682061D01*
X188534028Y-131742042D01*
X188400778Y-131983140D01*
X188393379Y-131994914D01*
X188210042Y-132253302D01*
X188201372Y-132264174D01*
X187990250Y-132500418D01*
X187980418Y-132510250D01*
X187744174Y-132721372D01*
X187733302Y-132730043D01*
X187474913Y-132913380D01*
X187463139Y-132920778D01*
X187185833Y-133074040D01*
X187173307Y-133080072D01*
X187149195Y-133090060D01*
X187101740Y-133099500D01*
X125698175Y-133099500D01*
X125650724Y-133090062D01*
X125650719Y-133090060D01*
X125626667Y-133080097D01*
X125614141Y-133074065D01*
X125336842Y-132920811D01*
X125325068Y-132913413D01*
X125325021Y-132913380D01*
X125066673Y-132730075D01*
X125055801Y-132721406D01*
X124819551Y-132510281D01*
X124809718Y-132500448D01*
X124668478Y-132342400D01*
X124598590Y-132264195D01*
X124589923Y-132253325D01*
X124589907Y-132253302D01*
X124406582Y-131994926D01*
X124399188Y-131983157D01*
X124301731Y-131806817D01*
X124245929Y-131705847D01*
X124239900Y-131693328D01*
X124235233Y-131682061D01*
X124212643Y-131627520D01*
X124159938Y-131500270D01*
X124150500Y-131452820D01*
X124150500Y-129939993D01*
X125994700Y-129939993D01*
X125994700Y-129940006D01*
X126013864Y-130171297D01*
X126013866Y-130171308D01*
X126070842Y-130396300D01*
X126164075Y-130608848D01*
X126291016Y-130803147D01*
X126291019Y-130803151D01*
X126291021Y-130803153D01*
X126448216Y-130973913D01*
X126448219Y-130973915D01*
X126448222Y-130973918D01*
X126631365Y-131116464D01*
X126631371Y-131116468D01*
X126631374Y-131116470D01*
X126719087Y-131163938D01*
X126817044Y-131216950D01*
X126835497Y-131226936D01*
X126872095Y-131239500D01*
X127055015Y-131302297D01*
X127055017Y-131302297D01*
X127055019Y-131302298D01*
X127283951Y-131340500D01*
X127283952Y-131340500D01*
X127516048Y-131340500D01*
X127516049Y-131340500D01*
X127744981Y-131302298D01*
X127964503Y-131226936D01*
X128168626Y-131116470D01*
X128351784Y-130973913D01*
X128508979Y-130803153D01*
X128635924Y-130608849D01*
X128729157Y-130396300D01*
X128786134Y-130171305D01*
X128789577Y-130129752D01*
X128805300Y-129940006D01*
X128805300Y-129939993D01*
X128786135Y-129708702D01*
X128786133Y-129708691D01*
X128729157Y-129483699D01*
X128635924Y-129271151D01*
X128508983Y-129076852D01*
X128508980Y-129076849D01*
X128508979Y-129076847D01*
X128351784Y-128906087D01*
X128351779Y-128906083D01*
X128351777Y-128906081D01*
X128168634Y-128763535D01*
X128168628Y-128763531D01*
X127964504Y-128653064D01*
X127964495Y-128653061D01*
X127744984Y-128577702D01*
X127573282Y-128549050D01*
X127516049Y-128539500D01*
X127283951Y-128539500D01*
X127238164Y-128547140D01*
X127055015Y-128577702D01*
X126835504Y-128653061D01*
X126835495Y-128653064D01*
X126631371Y-128763531D01*
X126631365Y-128763535D01*
X126448222Y-128906081D01*
X126448219Y-128906084D01*
X126448216Y-128906086D01*
X126448216Y-128906087D01*
X126405767Y-128952199D01*
X126291016Y-129076852D01*
X126164075Y-129271151D01*
X126070842Y-129483699D01*
X126013866Y-129708691D01*
X126013864Y-129708702D01*
X125994700Y-129939993D01*
X124150500Y-129939993D01*
X124150500Y-127102155D01*
X134270000Y-127102155D01*
X134270000Y-128400000D01*
X135550936Y-128400000D01*
X135539207Y-128428316D01*
X135510000Y-128575147D01*
X135510000Y-128724853D01*
X135539207Y-128871684D01*
X135550936Y-128900000D01*
X134270000Y-128900000D01*
X134270000Y-130197844D01*
X134276401Y-130257372D01*
X134276403Y-130257379D01*
X134326645Y-130392086D01*
X134326649Y-130392093D01*
X134412809Y-130507187D01*
X134412812Y-130507190D01*
X134527906Y-130593350D01*
X134527913Y-130593354D01*
X134662620Y-130643596D01*
X134662627Y-130643598D01*
X134722155Y-130649999D01*
X134722172Y-130650000D01*
X136020000Y-130650000D01*
X136020000Y-129369064D01*
X136048316Y-129380793D01*
X136195147Y-129410000D01*
X136344853Y-129410000D01*
X136491684Y-129380793D01*
X136520000Y-129369064D01*
X136520000Y-130650000D01*
X137817828Y-130650000D01*
X137817844Y-130649999D01*
X137877372Y-130643598D01*
X137877379Y-130643596D01*
X138012086Y-130593354D01*
X138012093Y-130593350D01*
X138127187Y-130507190D01*
X138127190Y-130507187D01*
X138213350Y-130392093D01*
X138213354Y-130392086D01*
X138263596Y-130257379D01*
X138263598Y-130257372D01*
X138269999Y-130197844D01*
X138270000Y-130197827D01*
X138270000Y-128900000D01*
X136989064Y-128900000D01*
X137000793Y-128871684D01*
X137030000Y-128724853D01*
X137030000Y-128575147D01*
X137000793Y-128428316D01*
X136989064Y-128400000D01*
X138270000Y-128400000D01*
X138270000Y-127102172D01*
X138269999Y-127102155D01*
X138263598Y-127042627D01*
X138263596Y-127042620D01*
X138213354Y-126907913D01*
X138213350Y-126907906D01*
X138127190Y-126792812D01*
X138127187Y-126792809D01*
X138012093Y-126706649D01*
X138012086Y-126706645D01*
X137877379Y-126656403D01*
X137877372Y-126656401D01*
X137817844Y-126650000D01*
X136520000Y-126650000D01*
X136520000Y-127930935D01*
X136491684Y-127919207D01*
X136344853Y-127890000D01*
X136195147Y-127890000D01*
X136048316Y-127919207D01*
X136020000Y-127930935D01*
X136020000Y-126650000D01*
X134722155Y-126650000D01*
X134662627Y-126656401D01*
X134662620Y-126656403D01*
X134527913Y-126706645D01*
X134527906Y-126706649D01*
X134412812Y-126792809D01*
X134412809Y-126792812D01*
X134326649Y-126907906D01*
X134326645Y-126907913D01*
X134276403Y-127042620D01*
X134276401Y-127042627D01*
X134270000Y-127102155D01*
X124150500Y-127102155D01*
X124150500Y-120575013D01*
X136425000Y-120575013D01*
X136425000Y-120712500D01*
X137400000Y-120712500D01*
X137900000Y-120712500D01*
X138874999Y-120712500D01*
X138874999Y-120575028D01*
X138874998Y-120575013D01*
X138864505Y-120472302D01*
X138809358Y-120305880D01*
X138809356Y-120305875D01*
X138717315Y-120156654D01*
X138593345Y-120032684D01*
X138444124Y-119940643D01*
X138444119Y-119940641D01*
X138277697Y-119885494D01*
X138277690Y-119885493D01*
X138174986Y-119875000D01*
X137900000Y-119875000D01*
X137900000Y-120712500D01*
X137400000Y-120712500D01*
X137400000Y-119875000D01*
X137125029Y-119875000D01*
X137125012Y-119875001D01*
X137022302Y-119885494D01*
X136855880Y-119940641D01*
X136855875Y-119940643D01*
X136706654Y-120032684D01*
X136582684Y-120156654D01*
X136490643Y-120305875D01*
X136490641Y-120305880D01*
X136435494Y-120472302D01*
X136435493Y-120472309D01*
X136425000Y-120575013D01*
X124150500Y-120575013D01*
X124150500Y-95585438D01*
X125549500Y-95585438D01*
X125549500Y-117289562D01*
X125552527Y-117300858D01*
X125569979Y-117365991D01*
X125569981Y-117365994D01*
X125606944Y-117430014D01*
X125606946Y-117430023D01*
X125606949Y-117430022D01*
X125609540Y-117434511D01*
X126259540Y-118084511D01*
X126315489Y-118140460D01*
X126315491Y-118140461D01*
X126315495Y-118140464D01*
X126378415Y-118176790D01*
X126384011Y-118180021D01*
X126460438Y-118200500D01*
X126539562Y-118200500D01*
X141141539Y-118200500D01*
X141208578Y-118220185D01*
X141229220Y-118236819D01*
X141738181Y-118745780D01*
X141771666Y-118807103D01*
X141774500Y-118833461D01*
X141774500Y-118860258D01*
X141754815Y-118927297D01*
X141702011Y-118973052D01*
X141632853Y-118982996D01*
X141610307Y-118977486D01*
X141609699Y-118977353D01*
X141579270Y-118974500D01*
X141579266Y-118974500D01*
X140870734Y-118974500D01*
X140870730Y-118974500D01*
X140840300Y-118977353D01*
X140840298Y-118977353D01*
X140712119Y-119022206D01*
X140712117Y-119022207D01*
X140602850Y-119102850D01*
X140522207Y-119212117D01*
X140522206Y-119212119D01*
X140477353Y-119340298D01*
X140477353Y-119340300D01*
X140474500Y-119370730D01*
X140474500Y-121749167D01*
X140454815Y-121816206D01*
X140438181Y-121836848D01*
X139574348Y-122700681D01*
X139513025Y-122734166D01*
X139486667Y-122737000D01*
X138696974Y-122737000D01*
X138629935Y-122717315D01*
X138584180Y-122664511D01*
X138573515Y-122624577D01*
X138572646Y-122615301D01*
X138572645Y-122615298D01*
X138572645Y-122615296D01*
X138542067Y-122527911D01*
X138527793Y-122487118D01*
X138447150Y-122377850D01*
X138337882Y-122297207D01*
X138337880Y-122297206D01*
X138273967Y-122274842D01*
X138217191Y-122234120D01*
X138191444Y-122169168D01*
X138204901Y-122100606D01*
X138253288Y-122050203D01*
X138275918Y-122040095D01*
X138444119Y-121984358D01*
X138444124Y-121984356D01*
X138593345Y-121892315D01*
X138717315Y-121768345D01*
X138809356Y-121619124D01*
X138809358Y-121619119D01*
X138864505Y-121452697D01*
X138864506Y-121452690D01*
X138874999Y-121349986D01*
X138875000Y-121349973D01*
X138875000Y-121212500D01*
X136425001Y-121212500D01*
X136425001Y-121349986D01*
X136435494Y-121452697D01*
X136490641Y-121619119D01*
X136490643Y-121619124D01*
X136582684Y-121768345D01*
X136706654Y-121892315D01*
X136855875Y-121984356D01*
X136855882Y-121984359D01*
X137024081Y-122040094D01*
X137081526Y-122079866D01*
X137108350Y-122144382D01*
X137096035Y-122213158D01*
X137048493Y-122264358D01*
X137026035Y-122274841D01*
X136984422Y-122289402D01*
X136962118Y-122297207D01*
X136962117Y-122297207D01*
X136962116Y-122297208D01*
X136852850Y-122377850D01*
X136772207Y-122487117D01*
X136772206Y-122487119D01*
X136727353Y-122615298D01*
X136727353Y-122615300D01*
X136724500Y-122645730D01*
X136724500Y-123429269D01*
X136727353Y-123459699D01*
X136727353Y-123459701D01*
X136769192Y-123579266D01*
X136772207Y-123587882D01*
X136852850Y-123697150D01*
X136962118Y-123777793D01*
X137000450Y-123791206D01*
X137090299Y-123822646D01*
X137120730Y-123825500D01*
X137120734Y-123825500D01*
X138179270Y-123825500D01*
X138209699Y-123822646D01*
X138209701Y-123822646D01*
X138273790Y-123800219D01*
X138337882Y-123777793D01*
X138447150Y-123697150D01*
X138527793Y-123587882D01*
X138572646Y-123459699D01*
X138573515Y-123450423D01*
X138599372Y-123385516D01*
X138656216Y-123344890D01*
X138696974Y-123338000D01*
X139702060Y-123338000D01*
X139702062Y-123338000D01*
X139778489Y-123317521D01*
X139847011Y-123277960D01*
X139902960Y-123222011D01*
X140262819Y-122862152D01*
X140324142Y-122828667D01*
X140393834Y-122833651D01*
X140449767Y-122875523D01*
X140474184Y-122940987D01*
X140474500Y-122949833D01*
X140474500Y-123579269D01*
X140477353Y-123609699D01*
X140477353Y-123609701D01*
X140522206Y-123737880D01*
X140522207Y-123737882D01*
X140602850Y-123847150D01*
X140712118Y-123927793D01*
X140781761Y-123952162D01*
X140841455Y-123973050D01*
X140898231Y-124013771D01*
X140923978Y-124078724D01*
X140924500Y-124090091D01*
X140924500Y-126910173D01*
X140904815Y-126977212D01*
X140852011Y-127022967D01*
X140837052Y-127028662D01*
X140784960Y-127044731D01*
X140726992Y-127062612D01*
X140497373Y-127173190D01*
X140497372Y-127173191D01*
X140286782Y-127316768D01*
X140099952Y-127490121D01*
X140099950Y-127490123D01*
X139941041Y-127689388D01*
X139813608Y-127910109D01*
X139720492Y-128147362D01*
X139720490Y-128147369D01*
X139663777Y-128395845D01*
X139644732Y-128649995D01*
X139644732Y-128650004D01*
X139663777Y-128904154D01*
X139711577Y-129113581D01*
X139720492Y-129152637D01*
X139810037Y-129380793D01*
X139813608Y-129389890D01*
X139840536Y-129436531D01*
X139941041Y-129610612D01*
X140099950Y-129809877D01*
X140286783Y-129983232D01*
X140497366Y-130126805D01*
X140497371Y-130126807D01*
X140497372Y-130126808D01*
X140497373Y-130126809D01*
X140589771Y-130171305D01*
X140726992Y-130237387D01*
X140726993Y-130237387D01*
X140726996Y-130237389D01*
X140970542Y-130312513D01*
X141222565Y-130350500D01*
X141477435Y-130350500D01*
X141729458Y-130312513D01*
X141973004Y-130237389D01*
X142154458Y-130150005D01*
X142202626Y-130126809D01*
X142202626Y-130126808D01*
X142202634Y-130126805D01*
X142413217Y-129983232D01*
X142600050Y-129809877D01*
X142729791Y-129647186D01*
X142786980Y-129607047D01*
X142826738Y-129600500D01*
X146445500Y-129600500D01*
X146512539Y-129620185D01*
X146558294Y-129672989D01*
X146569500Y-129724500D01*
X146569500Y-130169752D01*
X146581131Y-130228229D01*
X146581132Y-130228230D01*
X146625447Y-130294552D01*
X146691769Y-130338867D01*
X146691770Y-130338868D01*
X146750247Y-130350499D01*
X146750250Y-130350500D01*
X146750252Y-130350500D01*
X149789750Y-130350500D01*
X149789751Y-130350499D01*
X149804568Y-130347552D01*
X149848229Y-130338868D01*
X149848229Y-130338867D01*
X149848231Y-130338867D01*
X149914552Y-130294552D01*
X149958867Y-130228231D01*
X149958867Y-130228229D01*
X149958868Y-130228229D01*
X149970499Y-130169752D01*
X149970500Y-130169750D01*
X149970500Y-128649995D01*
X151644732Y-128649995D01*
X151644732Y-128650004D01*
X151663777Y-128904154D01*
X151711577Y-129113581D01*
X151720492Y-129152637D01*
X151810037Y-129380793D01*
X151813608Y-129389890D01*
X151840536Y-129436531D01*
X151941041Y-129610612D01*
X152099950Y-129809877D01*
X152286783Y-129983232D01*
X152497366Y-130126805D01*
X152497371Y-130126807D01*
X152497372Y-130126808D01*
X152497373Y-130126809D01*
X152589771Y-130171305D01*
X152726992Y-130237387D01*
X152726993Y-130237387D01*
X152726996Y-130237389D01*
X152970542Y-130312513D01*
X153222565Y-130350500D01*
X153477435Y-130350500D01*
X153729458Y-130312513D01*
X153973004Y-130237389D01*
X154154458Y-130150005D01*
X154202626Y-130126809D01*
X154202626Y-130126808D01*
X154202634Y-130126805D01*
X154413217Y-129983232D01*
X154600050Y-129809877D01*
X154729791Y-129647186D01*
X154786980Y-129607047D01*
X154826738Y-129600500D01*
X158235500Y-129600500D01*
X158302539Y-129620185D01*
X158348294Y-129672989D01*
X158359500Y-129724500D01*
X158359500Y-130169752D01*
X158371131Y-130228229D01*
X158371132Y-130228230D01*
X158415447Y-130294552D01*
X158481769Y-130338867D01*
X158481770Y-130338868D01*
X158540247Y-130350499D01*
X158540250Y-130350500D01*
X158540252Y-130350500D01*
X161579750Y-130350500D01*
X161579751Y-130350499D01*
X161594568Y-130347552D01*
X161638229Y-130338868D01*
X161638229Y-130338867D01*
X161638231Y-130338867D01*
X161704552Y-130294552D01*
X161748867Y-130228231D01*
X161748867Y-130228229D01*
X161748868Y-130228229D01*
X161760499Y-130169752D01*
X161760500Y-130169750D01*
X161760500Y-128649995D01*
X163434732Y-128649995D01*
X163434732Y-128650004D01*
X163453777Y-128904154D01*
X163501577Y-129113581D01*
X163510492Y-129152637D01*
X163600037Y-129380793D01*
X163603608Y-129389890D01*
X163630536Y-129436531D01*
X163731041Y-129610612D01*
X163889950Y-129809877D01*
X164076783Y-129983232D01*
X164287366Y-130126805D01*
X164287371Y-130126807D01*
X164287372Y-130126808D01*
X164287373Y-130126809D01*
X164379771Y-130171305D01*
X164516992Y-130237387D01*
X164516993Y-130237387D01*
X164516996Y-130237389D01*
X164760542Y-130312513D01*
X165012565Y-130350500D01*
X165267435Y-130350500D01*
X165519458Y-130312513D01*
X165763004Y-130237389D01*
X165944458Y-130150005D01*
X165992626Y-130126809D01*
X165992626Y-130126808D01*
X165992634Y-130126805D01*
X166203217Y-129983232D01*
X166390050Y-129809877D01*
X166548959Y-129610612D01*
X166548959Y-129610610D01*
X166551690Y-129607187D01*
X166608879Y-129567047D01*
X166648637Y-129560500D01*
X170195500Y-129560500D01*
X170262539Y-129580185D01*
X170308294Y-129632989D01*
X170319500Y-129684500D01*
X170319500Y-130129752D01*
X170331131Y-130188229D01*
X170331132Y-130188230D01*
X170375447Y-130254552D01*
X170441769Y-130298867D01*
X170441770Y-130298868D01*
X170500247Y-130310499D01*
X170500250Y-130310500D01*
X170500252Y-130310500D01*
X173539750Y-130310500D01*
X173539751Y-130310499D01*
X173554568Y-130307552D01*
X173598229Y-130298868D01*
X173598229Y-130298867D01*
X173598231Y-130298867D01*
X173664552Y-130254552D01*
X173708867Y-130188231D01*
X173708867Y-130188229D01*
X173708868Y-130188229D01*
X173720499Y-130129752D01*
X173720500Y-130129750D01*
X173720500Y-128609998D01*
X175094891Y-128609998D01*
X175094891Y-128610001D01*
X175115300Y-128895362D01*
X175176109Y-129174895D01*
X175276091Y-129442958D01*
X175413191Y-129694038D01*
X175413196Y-129694046D01*
X175519882Y-129836561D01*
X175519883Y-129836562D01*
X176414767Y-128941677D01*
X176426497Y-128969995D01*
X176509670Y-129094472D01*
X176615528Y-129200330D01*
X176740005Y-129283503D01*
X176768320Y-129295231D01*
X175873436Y-130190115D01*
X176015960Y-130296807D01*
X176015961Y-130296808D01*
X176267042Y-130433908D01*
X176267041Y-130433908D01*
X176535104Y-130533890D01*
X176814637Y-130594699D01*
X177099999Y-130615109D01*
X177100001Y-130615109D01*
X177385362Y-130594699D01*
X177664895Y-130533890D01*
X177932958Y-130433908D01*
X178184047Y-130296803D01*
X178326561Y-130190116D01*
X178326562Y-130190115D01*
X178076440Y-129939993D01*
X183994700Y-129939993D01*
X183994700Y-129940006D01*
X184013864Y-130171297D01*
X184013866Y-130171308D01*
X184070842Y-130396300D01*
X184164075Y-130608848D01*
X184291016Y-130803147D01*
X184291019Y-130803151D01*
X184291021Y-130803153D01*
X184448216Y-130973913D01*
X184448219Y-130973915D01*
X184448222Y-130973918D01*
X184631365Y-131116464D01*
X184631371Y-131116468D01*
X184631374Y-131116470D01*
X184719087Y-131163938D01*
X184817044Y-131216950D01*
X184835497Y-131226936D01*
X184872095Y-131239500D01*
X185055015Y-131302297D01*
X185055017Y-131302297D01*
X185055019Y-131302298D01*
X185283951Y-131340500D01*
X185283952Y-131340500D01*
X185516048Y-131340500D01*
X185516049Y-131340500D01*
X185744981Y-131302298D01*
X185964503Y-131226936D01*
X186168626Y-131116470D01*
X186351784Y-130973913D01*
X186508979Y-130803153D01*
X186635924Y-130608849D01*
X186729157Y-130396300D01*
X186786134Y-130171305D01*
X186789577Y-130129752D01*
X186805300Y-129940006D01*
X186805300Y-129939993D01*
X186786135Y-129708702D01*
X186786133Y-129708691D01*
X186729157Y-129483699D01*
X186635924Y-129271151D01*
X186508983Y-129076852D01*
X186508980Y-129076849D01*
X186508979Y-129076847D01*
X186351784Y-128906087D01*
X186351779Y-128906083D01*
X186351777Y-128906081D01*
X186168634Y-128763535D01*
X186168628Y-128763531D01*
X185964504Y-128653064D01*
X185964495Y-128653061D01*
X185744984Y-128577702D01*
X185573282Y-128549050D01*
X185516049Y-128539500D01*
X185283951Y-128539500D01*
X185238164Y-128547140D01*
X185055015Y-128577702D01*
X184835504Y-128653061D01*
X184835495Y-128653064D01*
X184631371Y-128763531D01*
X184631365Y-128763535D01*
X184448222Y-128906081D01*
X184448219Y-128906084D01*
X184448216Y-128906086D01*
X184448216Y-128906087D01*
X184405767Y-128952199D01*
X184291016Y-129076852D01*
X184164075Y-129271151D01*
X184070842Y-129483699D01*
X184013866Y-129708691D01*
X184013864Y-129708702D01*
X183994700Y-129939993D01*
X178076440Y-129939993D01*
X177431679Y-129295231D01*
X177459995Y-129283503D01*
X177584472Y-129200330D01*
X177690330Y-129094472D01*
X177773503Y-128969995D01*
X177785231Y-128941678D01*
X178680115Y-129836562D01*
X178680116Y-129836561D01*
X178786803Y-129694047D01*
X178923908Y-129442958D01*
X179023890Y-129174895D01*
X179084699Y-128895362D01*
X179105109Y-128610001D01*
X179105109Y-128609998D01*
X179084699Y-128324637D01*
X179023890Y-128045104D01*
X178923908Y-127777041D01*
X178786808Y-127525961D01*
X178786807Y-127525960D01*
X178680115Y-127383436D01*
X177785231Y-128278320D01*
X177773503Y-128250005D01*
X177690330Y-128125528D01*
X177584472Y-128019670D01*
X177459995Y-127936497D01*
X177431678Y-127924767D01*
X178326562Y-127029883D01*
X178326561Y-127029882D01*
X178184046Y-126923196D01*
X178184038Y-126923191D01*
X177932957Y-126786091D01*
X177932958Y-126786091D01*
X177664895Y-126686109D01*
X177385362Y-126625300D01*
X177100001Y-126604891D01*
X177099999Y-126604891D01*
X176814637Y-126625300D01*
X176535104Y-126686109D01*
X176267041Y-126786091D01*
X176015961Y-126923191D01*
X176015953Y-126923196D01*
X175873437Y-127029882D01*
X175873436Y-127029883D01*
X176768321Y-127924767D01*
X176740005Y-127936497D01*
X176615528Y-128019670D01*
X176509670Y-128125528D01*
X176426497Y-128250005D01*
X176414768Y-128278321D01*
X175519883Y-127383436D01*
X175519882Y-127383437D01*
X175413196Y-127525953D01*
X175413191Y-127525961D01*
X175276091Y-127777041D01*
X175176109Y-128045104D01*
X175115300Y-128324637D01*
X175094891Y-128609998D01*
X173720500Y-128609998D01*
X173720500Y-127090249D01*
X173720499Y-127090247D01*
X173708868Y-127031770D01*
X173708867Y-127031769D01*
X173664552Y-126965447D01*
X173598230Y-126921132D01*
X173598229Y-126921131D01*
X173539752Y-126909500D01*
X173539748Y-126909500D01*
X170500252Y-126909500D01*
X170500247Y-126909500D01*
X170441770Y-126921131D01*
X170441769Y-126921132D01*
X170375447Y-126965447D01*
X170331132Y-127031769D01*
X170331131Y-127031770D01*
X170319500Y-127090247D01*
X170319500Y-127535500D01*
X170299815Y-127602539D01*
X170247011Y-127648294D01*
X170195500Y-127659500D01*
X166584839Y-127659500D01*
X166517800Y-127639815D01*
X166487892Y-127612813D01*
X166458136Y-127575500D01*
X166390050Y-127490123D01*
X166203217Y-127316768D01*
X165992634Y-127173195D01*
X165992630Y-127173193D01*
X165992627Y-127173191D01*
X165992626Y-127173190D01*
X165763006Y-127062612D01*
X165763008Y-127062612D01*
X165519466Y-126987489D01*
X165519462Y-126987488D01*
X165519458Y-126987487D01*
X165398231Y-126969214D01*
X165267440Y-126949500D01*
X165267435Y-126949500D01*
X165012565Y-126949500D01*
X165012559Y-126949500D01*
X164858984Y-126972649D01*
X164760542Y-126987487D01*
X164760539Y-126987488D01*
X164760533Y-126987489D01*
X164516992Y-127062612D01*
X164287373Y-127173190D01*
X164287372Y-127173191D01*
X164076782Y-127316768D01*
X163889952Y-127490121D01*
X163889950Y-127490123D01*
X163731041Y-127689388D01*
X163603608Y-127910109D01*
X163510492Y-128147362D01*
X163510490Y-128147369D01*
X163453777Y-128395845D01*
X163434732Y-128649995D01*
X161760500Y-128649995D01*
X161760500Y-127130249D01*
X161760499Y-127130247D01*
X161748868Y-127071770D01*
X161748867Y-127071769D01*
X161704552Y-127005447D01*
X161638230Y-126961132D01*
X161638229Y-126961131D01*
X161579752Y-126949500D01*
X161579748Y-126949500D01*
X158540252Y-126949500D01*
X158540247Y-126949500D01*
X158481770Y-126961131D01*
X158481769Y-126961132D01*
X158415447Y-127005447D01*
X158371132Y-127071769D01*
X158371131Y-127071770D01*
X158359500Y-127130247D01*
X158359500Y-127575500D01*
X158339815Y-127642539D01*
X158287011Y-127688294D01*
X158235500Y-127699500D01*
X154826738Y-127699500D01*
X154759699Y-127679815D01*
X154729791Y-127652813D01*
X154600050Y-127490123D01*
X154413217Y-127316768D01*
X154202634Y-127173195D01*
X154202630Y-127173193D01*
X154202627Y-127173191D01*
X154202626Y-127173190D01*
X153973006Y-127062612D01*
X153973008Y-127062612D01*
X153729466Y-126987489D01*
X153729462Y-126987488D01*
X153729458Y-126987487D01*
X153608231Y-126969214D01*
X153477440Y-126949500D01*
X153477435Y-126949500D01*
X153222565Y-126949500D01*
X153222559Y-126949500D01*
X153068984Y-126972649D01*
X152970542Y-126987487D01*
X152970539Y-126987488D01*
X152970533Y-126987489D01*
X152726992Y-127062612D01*
X152497373Y-127173190D01*
X152497372Y-127173191D01*
X152286782Y-127316768D01*
X152099952Y-127490121D01*
X152099950Y-127490123D01*
X151941041Y-127689388D01*
X151813608Y-127910109D01*
X151720492Y-128147362D01*
X151720490Y-128147369D01*
X151663777Y-128395845D01*
X151644732Y-128649995D01*
X149970500Y-128649995D01*
X149970500Y-127130249D01*
X149970499Y-127130247D01*
X149958868Y-127071770D01*
X149958867Y-127071769D01*
X149914552Y-127005447D01*
X149848230Y-126961132D01*
X149848229Y-126961131D01*
X149789752Y-126949500D01*
X149789748Y-126949500D01*
X146750252Y-126949500D01*
X146750247Y-126949500D01*
X146691770Y-126961131D01*
X146691769Y-126961132D01*
X146625447Y-127005447D01*
X146581132Y-127071769D01*
X146581131Y-127071770D01*
X146569500Y-127130247D01*
X146569500Y-127575500D01*
X146549815Y-127642539D01*
X146497011Y-127688294D01*
X146445500Y-127699500D01*
X142826738Y-127699500D01*
X142759699Y-127679815D01*
X142729791Y-127652813D01*
X142600050Y-127490123D01*
X142413217Y-127316768D01*
X142202634Y-127173195D01*
X142202630Y-127173193D01*
X142202627Y-127173191D01*
X142202626Y-127173190D01*
X141973006Y-127062612D01*
X141973008Y-127062612D01*
X141729462Y-126987488D01*
X141729460Y-126987487D01*
X141729458Y-126987487D01*
X141631017Y-126972648D01*
X141567661Y-126943192D01*
X141530288Y-126884158D01*
X141525500Y-126850034D01*
X141525500Y-124090091D01*
X141545185Y-124023052D01*
X141597989Y-123977297D01*
X141608544Y-123973050D01*
X141609699Y-123972646D01*
X141658057Y-123955724D01*
X141727833Y-123952162D01*
X141788460Y-123986890D01*
X141806396Y-124010765D01*
X141808132Y-124013771D01*
X141809412Y-124015988D01*
X141834540Y-124059511D01*
X142434540Y-124659511D01*
X142490489Y-124715460D01*
X142490491Y-124715461D01*
X142490495Y-124715464D01*
X142559004Y-124755017D01*
X142559011Y-124755021D01*
X142635438Y-124775500D01*
X142635440Y-124775500D01*
X153314560Y-124775500D01*
X153314562Y-124775500D01*
X153390989Y-124755021D01*
X153459511Y-124715460D01*
X153515460Y-124659511D01*
X154090460Y-124084511D01*
X154130021Y-124015989D01*
X154150500Y-123939562D01*
X154150500Y-123510523D01*
X154170185Y-123443484D01*
X154222989Y-123397729D01*
X154292147Y-123387785D01*
X154355703Y-123416810D01*
X154362181Y-123422842D01*
X154431654Y-123492315D01*
X154580875Y-123584356D01*
X154580880Y-123584358D01*
X154747302Y-123639505D01*
X154747309Y-123639506D01*
X154850019Y-123649999D01*
X155649999Y-123649999D01*
X156150000Y-123649999D01*
X156949972Y-123649999D01*
X156949986Y-123649998D01*
X157052697Y-123639505D01*
X157219119Y-123584358D01*
X157219124Y-123584356D01*
X157368345Y-123492315D01*
X157492315Y-123368345D01*
X157584356Y-123219124D01*
X157584358Y-123219119D01*
X157639505Y-123052697D01*
X157639506Y-123052690D01*
X157649999Y-122949986D01*
X157650000Y-122949973D01*
X157650000Y-122500000D01*
X156150000Y-122500000D01*
X156150000Y-123649999D01*
X155649999Y-123649999D01*
X155650000Y-123649998D01*
X155650000Y-122124000D01*
X155669685Y-122056961D01*
X155722489Y-122011206D01*
X155774000Y-122000000D01*
X157649999Y-122000000D01*
X157649999Y-121594986D01*
X162605001Y-121594986D01*
X162615494Y-121697697D01*
X162670641Y-121864119D01*
X162670643Y-121864124D01*
X162762684Y-122013345D01*
X162886654Y-122137315D01*
X163035875Y-122229356D01*
X163035880Y-122229358D01*
X163202302Y-122284505D01*
X163202309Y-122284506D01*
X163305019Y-122294999D01*
X163579999Y-122294999D01*
X163580000Y-122294998D01*
X163580000Y-121457500D01*
X162605001Y-121457500D01*
X162605001Y-121594986D01*
X157649999Y-121594986D01*
X157649999Y-121550028D01*
X157649998Y-121550013D01*
X157639505Y-121447302D01*
X157584358Y-121280880D01*
X157584356Y-121280875D01*
X157492315Y-121131654D01*
X157368345Y-121007684D01*
X157219124Y-120915643D01*
X157219119Y-120915641D01*
X157061319Y-120863352D01*
X157003874Y-120823580D01*
X156977051Y-120759064D01*
X156989366Y-120690288D01*
X157029407Y-120647166D01*
X157028060Y-120645410D01*
X157034504Y-120640463D01*
X157034511Y-120640460D01*
X157090460Y-120584511D01*
X157340460Y-120334511D01*
X157371518Y-120280716D01*
X157380021Y-120265989D01*
X157400500Y-120189562D01*
X157400500Y-119899986D01*
X157750001Y-119899986D01*
X157760494Y-120002697D01*
X157815641Y-120169119D01*
X157815643Y-120169124D01*
X157907684Y-120318345D01*
X158031654Y-120442315D01*
X158180875Y-120534356D01*
X158180880Y-120534358D01*
X158347302Y-120589505D01*
X158347309Y-120589506D01*
X158450019Y-120599999D01*
X158599999Y-120599999D01*
X158600000Y-120599998D01*
X158600000Y-119650000D01*
X157750001Y-119650000D01*
X157750001Y-119899986D01*
X157400500Y-119899986D01*
X157400500Y-116075833D01*
X157420185Y-116008794D01*
X157436819Y-115988152D01*
X157528152Y-115896819D01*
X157589475Y-115863334D01*
X157615833Y-115860500D01*
X158250500Y-115860500D01*
X158317539Y-115880185D01*
X158363294Y-115932989D01*
X158374500Y-115984500D01*
X158374500Y-117731950D01*
X158384779Y-117802506D01*
X158384779Y-117802507D01*
X158384780Y-117802509D01*
X158406367Y-117846666D01*
X158437989Y-117911349D01*
X158516482Y-117989842D01*
X158549967Y-118051165D01*
X158544983Y-118120857D01*
X158503111Y-118176790D01*
X158441403Y-118200881D01*
X158347302Y-118210494D01*
X158180880Y-118265641D01*
X158180875Y-118265643D01*
X158031654Y-118357684D01*
X157907684Y-118481654D01*
X157815643Y-118630875D01*
X157815641Y-118630880D01*
X157760494Y-118797302D01*
X157760493Y-118797309D01*
X157750000Y-118900013D01*
X157750000Y-119150000D01*
X158976000Y-119150000D01*
X159043039Y-119169685D01*
X159088794Y-119222489D01*
X159100000Y-119274000D01*
X159100000Y-120599999D01*
X159249972Y-120599999D01*
X159249986Y-120599998D01*
X159352697Y-120589505D01*
X159519119Y-120534358D01*
X159519124Y-120534356D01*
X159668345Y-120442315D01*
X159792315Y-120318345D01*
X159884356Y-120169124D01*
X159884359Y-120169117D01*
X159899300Y-120124028D01*
X159939072Y-120066583D01*
X160003587Y-120039759D01*
X160072363Y-120052073D01*
X160116775Y-120089396D01*
X160177850Y-120172150D01*
X160287118Y-120252793D01*
X160324830Y-120265989D01*
X160415299Y-120297646D01*
X160445730Y-120300500D01*
X160445734Y-120300500D01*
X161254270Y-120300500D01*
X161284699Y-120297646D01*
X161284701Y-120297646D01*
X161367339Y-120268729D01*
X161412882Y-120252793D01*
X161522150Y-120172150D01*
X161602793Y-120062882D01*
X161633836Y-119974167D01*
X161647646Y-119934701D01*
X161647646Y-119934699D01*
X161650500Y-119904269D01*
X161650500Y-118895730D01*
X161647646Y-118865300D01*
X161647646Y-118865298D01*
X161610209Y-118758311D01*
X161602793Y-118737118D01*
X161522150Y-118627850D01*
X161412882Y-118547207D01*
X161412880Y-118547206D01*
X161284700Y-118502353D01*
X161262921Y-118500311D01*
X161198013Y-118474453D01*
X161157388Y-118417607D01*
X161150500Y-118376853D01*
X161150500Y-118074221D01*
X161170185Y-118007182D01*
X161186814Y-117986544D01*
X161262012Y-117911347D01*
X161315220Y-117802509D01*
X161325500Y-117731949D01*
X161325499Y-115988052D01*
X161325499Y-115988051D01*
X161325499Y-115984500D01*
X161345184Y-115917461D01*
X161397987Y-115871706D01*
X161449499Y-115860500D01*
X162555500Y-115860500D01*
X162622539Y-115880185D01*
X162668294Y-115932989D01*
X162679500Y-115984500D01*
X162679500Y-117999752D01*
X162691131Y-118058229D01*
X162691132Y-118058230D01*
X162735447Y-118124552D01*
X162801769Y-118168867D01*
X162801770Y-118168868D01*
X162860247Y-118180499D01*
X162860250Y-118180500D01*
X162860252Y-118180500D01*
X163052140Y-118180500D01*
X163119179Y-118200185D01*
X163164934Y-118252989D01*
X163174878Y-118322147D01*
X163145853Y-118385703D01*
X163125773Y-118404270D01*
X163032851Y-118472848D01*
X162982863Y-118540580D01*
X162952207Y-118582118D01*
X162941407Y-118612981D01*
X162907353Y-118710298D01*
X162907353Y-118710300D01*
X162904500Y-118740730D01*
X162904500Y-119524269D01*
X162907353Y-119554699D01*
X162907353Y-119554701D01*
X162945799Y-119664570D01*
X162952207Y-119682882D01*
X163032850Y-119792150D01*
X163142118Y-119872793D01*
X163206033Y-119895158D01*
X163262807Y-119935878D01*
X163288555Y-120000830D01*
X163275099Y-120069392D01*
X163226712Y-120119795D01*
X163204082Y-120129904D01*
X163035878Y-120185642D01*
X163035875Y-120185643D01*
X162886654Y-120277684D01*
X162762684Y-120401654D01*
X162670643Y-120550875D01*
X162670641Y-120550880D01*
X162615494Y-120717302D01*
X162615493Y-120717309D01*
X162605000Y-120820013D01*
X162605000Y-120957500D01*
X164675500Y-120957500D01*
X164742539Y-120977185D01*
X164788294Y-121029989D01*
X164799500Y-121081500D01*
X164799500Y-121333500D01*
X164779815Y-121400539D01*
X164727011Y-121446294D01*
X164675500Y-121457500D01*
X164080000Y-121457500D01*
X164080000Y-122294999D01*
X164354972Y-122294999D01*
X164354986Y-122294998D01*
X164457697Y-122284505D01*
X164630977Y-122227086D01*
X164631467Y-122228565D01*
X164692165Y-122219343D01*
X164755950Y-122247858D01*
X164794194Y-122306332D01*
X164799500Y-122342218D01*
X164799500Y-122439562D01*
X164812243Y-122487117D01*
X164819979Y-122515990D01*
X164819980Y-122515991D01*
X164849803Y-122567646D01*
X164859540Y-122584511D01*
X165185489Y-122910460D01*
X165238363Y-122940987D01*
X165254008Y-122950020D01*
X165254012Y-122950022D01*
X165330438Y-122970500D01*
X165330440Y-122970500D01*
X171704304Y-122970500D01*
X171704306Y-122970500D01*
X171780733Y-122950021D01*
X171849255Y-122910460D01*
X171905204Y-122854511D01*
X172220460Y-122539255D01*
X172225773Y-122530050D01*
X172229964Y-122522794D01*
X172229964Y-122522793D01*
X172260021Y-122470733D01*
X172280500Y-122394306D01*
X172280500Y-120945694D01*
X172260021Y-120869267D01*
X172233644Y-120823580D01*
X172220464Y-120800751D01*
X172220458Y-120800743D01*
X172164511Y-120744796D01*
X171849259Y-120429543D01*
X171849258Y-120429542D01*
X171849255Y-120429540D01*
X171841069Y-120424814D01*
X171814614Y-120409540D01*
X171777141Y-120387904D01*
X171728926Y-120337336D01*
X171715705Y-120268729D01*
X171741674Y-120203865D01*
X171751468Y-120192831D01*
X171752142Y-120192155D01*
X171752150Y-120192150D01*
X171832793Y-120082882D01*
X171861504Y-120000830D01*
X171877646Y-119954701D01*
X171877646Y-119954699D01*
X171880500Y-119924269D01*
X171880500Y-119844500D01*
X171900185Y-119777461D01*
X171952989Y-119731706D01*
X172004500Y-119720500D01*
X176041179Y-119720500D01*
X176108218Y-119740185D01*
X176153973Y-119792989D01*
X176162796Y-119820309D01*
X176189868Y-119956412D01*
X176189870Y-119956420D01*
X176257542Y-120119795D01*
X176269059Y-120147598D01*
X176299283Y-120192831D01*
X176384024Y-120319657D01*
X176530342Y-120465975D01*
X176530345Y-120465977D01*
X176702402Y-120580941D01*
X176893580Y-120660130D01*
X177096530Y-120700499D01*
X177096534Y-120700500D01*
X177096535Y-120700500D01*
X177553466Y-120700500D01*
X177553467Y-120700499D01*
X177756420Y-120660130D01*
X177947598Y-120580941D01*
X178119655Y-120465977D01*
X178265977Y-120319655D01*
X178380941Y-120147598D01*
X178430875Y-120027046D01*
X178474716Y-119972644D01*
X178541010Y-119950579D01*
X178545436Y-119950500D01*
X183904564Y-119950500D01*
X183971603Y-119970185D01*
X184017358Y-120022989D01*
X184019121Y-120027039D01*
X184033968Y-120062882D01*
X184057542Y-120119795D01*
X184069059Y-120147598D01*
X184099283Y-120192831D01*
X184184024Y-120319657D01*
X184330342Y-120465975D01*
X184330345Y-120465977D01*
X184502402Y-120580941D01*
X184693580Y-120660130D01*
X184896530Y-120700499D01*
X184896534Y-120700500D01*
X184896535Y-120700500D01*
X185353466Y-120700500D01*
X185353467Y-120700499D01*
X185556420Y-120660130D01*
X185747598Y-120580941D01*
X185919655Y-120465977D01*
X186065977Y-120319655D01*
X186180941Y-120147598D01*
X186260130Y-119956420D01*
X186300500Y-119753465D01*
X186300500Y-119546535D01*
X186260130Y-119343580D01*
X186180941Y-119152402D01*
X186065977Y-118980345D01*
X186065975Y-118980342D01*
X185919657Y-118834024D01*
X185804556Y-118757117D01*
X185747598Y-118719059D01*
X185726454Y-118710301D01*
X185556420Y-118639870D01*
X185556414Y-118639868D01*
X185525308Y-118633681D01*
X185463397Y-118601296D01*
X185428823Y-118540580D01*
X185425500Y-118512064D01*
X185425500Y-118287935D01*
X185445185Y-118220896D01*
X185497989Y-118175141D01*
X185525306Y-118166318D01*
X185556420Y-118160130D01*
X185747598Y-118080941D01*
X185919655Y-117965977D01*
X186065977Y-117819655D01*
X186180941Y-117647598D01*
X186260130Y-117456420D01*
X186300500Y-117253465D01*
X186300500Y-117046535D01*
X186260130Y-116843580D01*
X186180941Y-116652402D01*
X186180938Y-116652398D01*
X186178072Y-116647035D01*
X186180497Y-116645738D01*
X186163177Y-116590328D01*
X186181693Y-116522956D01*
X186199472Y-116500497D01*
X186640460Y-116059511D01*
X186666365Y-116014642D01*
X186680021Y-115990989D01*
X186700500Y-115914562D01*
X186700500Y-109410438D01*
X186693625Y-109384780D01*
X186680022Y-109334012D01*
X186640460Y-109265489D01*
X186174477Y-108799506D01*
X186140992Y-108738183D01*
X186145976Y-108668491D01*
X186153753Y-108653329D01*
X186153072Y-108652965D01*
X186155935Y-108647605D01*
X186155941Y-108647598D01*
X186235130Y-108456420D01*
X186275500Y-108253465D01*
X186275500Y-108046535D01*
X186235130Y-107843580D01*
X186155941Y-107652402D01*
X186040977Y-107480345D01*
X186040975Y-107480342D01*
X185894657Y-107334024D01*
X185808626Y-107276541D01*
X185722598Y-107219059D01*
X185653991Y-107190641D01*
X185531420Y-107139870D01*
X185531412Y-107139868D01*
X185328469Y-107099500D01*
X185328465Y-107099500D01*
X184871535Y-107099500D01*
X184871530Y-107099500D01*
X184668587Y-107139868D01*
X184668579Y-107139870D01*
X184477403Y-107219058D01*
X184305342Y-107334024D01*
X184159024Y-107480342D01*
X184044058Y-107652403D01*
X183994125Y-107772953D01*
X183950284Y-107827356D01*
X183883990Y-107849421D01*
X183879564Y-107849500D01*
X178520436Y-107849500D01*
X178453397Y-107829815D01*
X178407642Y-107777011D01*
X178405875Y-107772953D01*
X178386104Y-107725221D01*
X178355941Y-107652402D01*
X178240977Y-107480345D01*
X178240975Y-107480342D01*
X178094657Y-107334024D01*
X178008626Y-107276541D01*
X177922598Y-107219059D01*
X177853991Y-107190641D01*
X177731420Y-107139870D01*
X177731412Y-107139868D01*
X177528469Y-107099500D01*
X177528465Y-107099500D01*
X177071535Y-107099500D01*
X177071530Y-107099500D01*
X176868587Y-107139868D01*
X176868579Y-107139870D01*
X176677403Y-107219058D01*
X176505342Y-107334024D01*
X176359024Y-107480342D01*
X176244058Y-107652403D01*
X176164870Y-107843579D01*
X176164868Y-107843587D01*
X176124500Y-108046530D01*
X176124500Y-108253469D01*
X176164868Y-108456412D01*
X176164870Y-108456420D01*
X176213428Y-108573650D01*
X176244059Y-108647598D01*
X176258019Y-108668491D01*
X176359024Y-108819657D01*
X176505342Y-108965975D01*
X176505345Y-108965977D01*
X176677402Y-109080941D01*
X176868580Y-109160130D01*
X177071530Y-109200499D01*
X177071534Y-109200500D01*
X177071535Y-109200500D01*
X177528466Y-109200500D01*
X177528467Y-109200499D01*
X177731420Y-109160130D01*
X177922598Y-109080941D01*
X178094655Y-108965977D01*
X178240977Y-108819655D01*
X178355941Y-108647598D01*
X178405875Y-108527046D01*
X178449716Y-108472644D01*
X178516010Y-108450579D01*
X178520436Y-108450500D01*
X183879564Y-108450500D01*
X183946603Y-108470185D01*
X183992358Y-108522989D01*
X183994121Y-108527039D01*
X184044059Y-108647598D01*
X184058019Y-108668491D01*
X184159024Y-108819657D01*
X184305342Y-108965975D01*
X184305345Y-108965977D01*
X184477402Y-109080941D01*
X184668580Y-109160130D01*
X184871530Y-109200499D01*
X184871534Y-109200500D01*
X184871535Y-109200500D01*
X185328466Y-109200500D01*
X185328467Y-109200499D01*
X185531420Y-109160130D01*
X185563582Y-109146807D01*
X185633048Y-109139338D01*
X185695528Y-109170611D01*
X185698716Y-109173687D01*
X186063181Y-109538152D01*
X186096666Y-109599475D01*
X186099500Y-109625833D01*
X186099500Y-113485258D01*
X186079815Y-113552297D01*
X186027011Y-113598052D01*
X185957853Y-113607996D01*
X185935307Y-113602486D01*
X185934699Y-113602353D01*
X185904270Y-113599500D01*
X185904266Y-113599500D01*
X184345734Y-113599500D01*
X184345730Y-113599500D01*
X184315300Y-113602353D01*
X184315298Y-113602353D01*
X184187119Y-113647206D01*
X184187117Y-113647207D01*
X184077850Y-113727850D01*
X183997207Y-113837117D01*
X183997206Y-113837119D01*
X183952353Y-113965298D01*
X183952353Y-113965300D01*
X183949500Y-113995730D01*
X183949500Y-115304269D01*
X183952353Y-115334699D01*
X183952353Y-115334701D01*
X183997206Y-115462880D01*
X183997207Y-115462882D01*
X184077850Y-115572150D01*
X184187118Y-115652793D01*
X184206400Y-115659540D01*
X184315299Y-115697646D01*
X184345730Y-115700500D01*
X185850167Y-115700500D01*
X185917206Y-115720185D01*
X185962961Y-115772989D01*
X185972905Y-115842147D01*
X185943880Y-115905703D01*
X185937866Y-115912162D01*
X185774195Y-116075833D01*
X185723715Y-116126313D01*
X185662392Y-116159797D01*
X185592700Y-116154813D01*
X185588600Y-116153199D01*
X185556420Y-116139870D01*
X185556412Y-116139868D01*
X185353469Y-116099500D01*
X185353465Y-116099500D01*
X184896535Y-116099500D01*
X184896530Y-116099500D01*
X184693587Y-116139868D01*
X184693579Y-116139870D01*
X184502403Y-116219058D01*
X184330342Y-116334024D01*
X184184024Y-116480342D01*
X184069058Y-116652403D01*
X183989870Y-116843579D01*
X183989868Y-116843587D01*
X183949500Y-117046530D01*
X183949500Y-117253469D01*
X183989868Y-117456412D01*
X183989870Y-117456420D01*
X184060036Y-117625816D01*
X184069059Y-117647598D01*
X184102729Y-117697989D01*
X184184024Y-117819657D01*
X184330342Y-117965975D01*
X184330345Y-117965977D01*
X184502402Y-118080941D01*
X184693580Y-118160130D01*
X184724689Y-118166318D01*
X184786600Y-118198701D01*
X184821176Y-118259416D01*
X184824500Y-118287935D01*
X184824500Y-118512064D01*
X184804815Y-118579103D01*
X184752011Y-118624858D01*
X184724692Y-118633681D01*
X184693585Y-118639868D01*
X184693579Y-118639870D01*
X184502403Y-118719058D01*
X184330342Y-118834024D01*
X184184024Y-118980342D01*
X184069058Y-119152403D01*
X184044323Y-119212119D01*
X184019395Y-119272302D01*
X184019125Y-119272953D01*
X183975284Y-119327356D01*
X183908990Y-119349421D01*
X183904564Y-119349500D01*
X178545436Y-119349500D01*
X178478397Y-119329815D01*
X178432642Y-119277011D01*
X178430875Y-119272953D01*
X178380941Y-119152402D01*
X178265977Y-118980345D01*
X178265975Y-118980342D01*
X178119657Y-118834024D01*
X178004556Y-118757117D01*
X177947598Y-118719059D01*
X177926454Y-118710301D01*
X177756420Y-118639870D01*
X177756412Y-118639868D01*
X177553469Y-118599500D01*
X177553465Y-118599500D01*
X177096535Y-118599500D01*
X177096530Y-118599500D01*
X176893587Y-118639868D01*
X176893579Y-118639870D01*
X176702403Y-118719058D01*
X176530342Y-118834024D01*
X176384025Y-118980341D01*
X176384022Y-118980345D01*
X176327865Y-119064391D01*
X176274253Y-119109196D01*
X176224763Y-119119500D01*
X172004500Y-119119500D01*
X171937461Y-119099815D01*
X171891706Y-119047011D01*
X171880500Y-118995500D01*
X171880500Y-118915730D01*
X171877646Y-118885300D01*
X171877646Y-118885298D01*
X171832793Y-118757119D01*
X171832792Y-118757117D01*
X171818032Y-118737118D01*
X171752150Y-118647850D01*
X171642882Y-118567207D01*
X171642880Y-118567206D01*
X171514700Y-118522353D01*
X171492921Y-118520311D01*
X171428013Y-118494453D01*
X171387388Y-118437607D01*
X171380500Y-118396853D01*
X171380500Y-118304500D01*
X171400185Y-118237461D01*
X171452989Y-118191706D01*
X171504500Y-118180500D01*
X172299750Y-118180500D01*
X172299751Y-118180499D01*
X172314568Y-118177552D01*
X172358229Y-118168868D01*
X172358229Y-118168867D01*
X172358231Y-118168867D01*
X172424552Y-118124552D01*
X172468867Y-118058231D01*
X172468867Y-118058229D01*
X172468868Y-118058229D01*
X172480499Y-117999752D01*
X172480500Y-117999750D01*
X172480500Y-115960249D01*
X172480499Y-115960247D01*
X172468868Y-115901770D01*
X172468867Y-115901768D01*
X172463270Y-115893392D01*
X172442391Y-115826715D01*
X172460875Y-115759334D01*
X172512853Y-115712644D01*
X172566371Y-115700500D01*
X172674167Y-115700500D01*
X172741206Y-115720185D01*
X172761848Y-115736819D01*
X174415489Y-117390460D01*
X174484012Y-117430022D01*
X174560438Y-117450500D01*
X174639562Y-117450500D01*
X176104564Y-117450500D01*
X176171603Y-117470185D01*
X176217358Y-117522989D01*
X176219125Y-117527047D01*
X176260036Y-117625816D01*
X176269059Y-117647598D01*
X176302729Y-117697989D01*
X176384024Y-117819657D01*
X176530342Y-117965975D01*
X176530345Y-117965977D01*
X176702402Y-118080941D01*
X176893580Y-118160130D01*
X177054386Y-118192116D01*
X177096530Y-118200499D01*
X177096534Y-118200500D01*
X177096535Y-118200500D01*
X177553466Y-118200500D01*
X177553467Y-118200499D01*
X177756420Y-118160130D01*
X177947598Y-118080941D01*
X178119655Y-117965977D01*
X178265977Y-117819655D01*
X178380941Y-117647598D01*
X178460130Y-117456420D01*
X178500500Y-117253465D01*
X178500500Y-117046535D01*
X178460130Y-116843580D01*
X178380941Y-116652402D01*
X178265977Y-116480345D01*
X178265975Y-116480342D01*
X178119657Y-116334024D01*
X178074618Y-116303930D01*
X177959632Y-116227100D01*
X177914829Y-116173490D01*
X177906121Y-116104165D01*
X177936275Y-116041137D01*
X177995718Y-116004417D01*
X178028524Y-115999999D01*
X178099971Y-115999999D01*
X178099987Y-115999998D01*
X178202697Y-115989505D01*
X178369119Y-115934358D01*
X178369124Y-115934356D01*
X178518345Y-115842315D01*
X178642315Y-115718345D01*
X178734356Y-115569124D01*
X178734358Y-115569119D01*
X178789505Y-115402697D01*
X178789506Y-115402690D01*
X178799999Y-115299986D01*
X178800000Y-115299973D01*
X178800000Y-114900000D01*
X177729146Y-114900000D01*
X177767630Y-114833343D01*
X177800000Y-114712535D01*
X177800000Y-114587465D01*
X177767630Y-114466657D01*
X177729146Y-114400000D01*
X178799999Y-114400000D01*
X178799999Y-114000028D01*
X178799998Y-114000013D01*
X178789505Y-113897302D01*
X178734358Y-113730880D01*
X178734356Y-113730875D01*
X178642315Y-113581654D01*
X178518345Y-113457684D01*
X178369124Y-113365643D01*
X178369119Y-113365641D01*
X178202697Y-113310494D01*
X178202690Y-113310493D01*
X178099986Y-113300000D01*
X177575000Y-113300000D01*
X177575000Y-114245854D01*
X177508343Y-114207370D01*
X177387535Y-114175000D01*
X177262465Y-114175000D01*
X177141657Y-114207370D01*
X177075000Y-114245854D01*
X177075000Y-113300000D01*
X176550028Y-113300000D01*
X176550012Y-113300001D01*
X176447302Y-113310494D01*
X176280880Y-113365641D01*
X176280875Y-113365643D01*
X176131654Y-113457684D01*
X176007684Y-113581654D01*
X175915643Y-113730875D01*
X175915641Y-113730880D01*
X175860494Y-113897302D01*
X175860493Y-113897309D01*
X175850000Y-114000013D01*
X175850000Y-114400000D01*
X176920854Y-114400000D01*
X176882370Y-114466657D01*
X176850000Y-114587465D01*
X176850000Y-114712535D01*
X176882370Y-114833343D01*
X176920854Y-114900000D01*
X175850001Y-114900000D01*
X175850001Y-115299986D01*
X175860494Y-115402697D01*
X175915641Y-115569119D01*
X175915643Y-115569124D01*
X176007684Y-115718345D01*
X176131654Y-115842315D01*
X176280875Y-115934356D01*
X176280880Y-115934358D01*
X176447302Y-115989505D01*
X176447309Y-115989506D01*
X176550019Y-115999999D01*
X176621471Y-115999999D01*
X176688511Y-116019683D01*
X176734267Y-116072486D01*
X176744211Y-116141644D01*
X176715187Y-116205200D01*
X176690364Y-116227101D01*
X176530345Y-116334022D01*
X176530341Y-116334025D01*
X176384024Y-116480342D01*
X176269058Y-116652403D01*
X176229919Y-116746892D01*
X176225868Y-116756675D01*
X176219125Y-116772953D01*
X176175284Y-116827356D01*
X176108990Y-116849421D01*
X176104564Y-116849500D01*
X174775833Y-116849500D01*
X174708794Y-116829815D01*
X174688152Y-116813181D01*
X173034512Y-115159541D01*
X173034507Y-115159537D01*
X173018853Y-115150499D01*
X173018851Y-115150499D01*
X172974686Y-115125000D01*
X172965990Y-115119979D01*
X172940513Y-115113152D01*
X172889562Y-115099500D01*
X170559092Y-115099500D01*
X170491693Y-115117559D01*
X170482661Y-115119980D01*
X170429802Y-115150499D01*
X170414146Y-115159537D01*
X170414141Y-115159541D01*
X169859541Y-115714141D01*
X169859535Y-115714149D01*
X169857599Y-115717503D01*
X169855225Y-115719766D01*
X169854590Y-115720594D01*
X169854460Y-115720494D01*
X169807031Y-115765717D01*
X169750214Y-115779500D01*
X167940247Y-115779500D01*
X167881770Y-115791131D01*
X167881769Y-115791132D01*
X167815447Y-115835447D01*
X167771132Y-115901769D01*
X167771131Y-115901770D01*
X167759500Y-115960247D01*
X167759500Y-117999752D01*
X167771131Y-118058229D01*
X167771132Y-118058230D01*
X167815447Y-118124552D01*
X167881769Y-118168867D01*
X167881770Y-118168868D01*
X167940247Y-118180499D01*
X167940250Y-118180500D01*
X167940252Y-118180500D01*
X168655500Y-118180500D01*
X168722539Y-118200185D01*
X168768294Y-118252989D01*
X168779500Y-118304500D01*
X168779500Y-118396853D01*
X168759815Y-118463892D01*
X168707011Y-118509647D01*
X168667079Y-118520311D01*
X168645300Y-118522353D01*
X168645298Y-118522353D01*
X168517119Y-118567206D01*
X168517117Y-118567207D01*
X168407850Y-118647850D01*
X168327207Y-118757117D01*
X168327206Y-118757119D01*
X168282353Y-118885298D01*
X168282353Y-118885300D01*
X168279500Y-118915730D01*
X168279500Y-119924269D01*
X168282353Y-119954699D01*
X168282353Y-119954701D01*
X168327206Y-120082880D01*
X168327207Y-120082882D01*
X168407850Y-120192150D01*
X168517118Y-120272793D01*
X168531096Y-120277684D01*
X168645299Y-120317646D01*
X168675730Y-120320500D01*
X168675734Y-120320500D01*
X169254167Y-120320500D01*
X169321206Y-120340185D01*
X169341848Y-120356819D01*
X169542848Y-120557819D01*
X169576333Y-120619142D01*
X169571349Y-120688834D01*
X169529477Y-120744767D01*
X169464013Y-120769184D01*
X169455167Y-120769500D01*
X168675730Y-120769500D01*
X168645301Y-120772353D01*
X168533292Y-120811547D01*
X168463513Y-120815108D01*
X168404657Y-120782186D01*
X167287041Y-119664570D01*
X167253556Y-119603247D01*
X167253579Y-119562366D01*
X167251942Y-119562213D01*
X167255500Y-119524269D01*
X167255500Y-118740730D01*
X167252646Y-118710300D01*
X167252646Y-118710298D01*
X167218889Y-118613828D01*
X167207793Y-118582118D01*
X167127150Y-118472850D01*
X167127148Y-118472849D01*
X167127148Y-118472848D01*
X167034227Y-118404270D01*
X166991976Y-118348623D01*
X166986517Y-118278967D01*
X167019584Y-118217417D01*
X167080678Y-118183516D01*
X167107860Y-118180500D01*
X167219750Y-118180500D01*
X167219751Y-118180499D01*
X167234568Y-118177552D01*
X167278229Y-118168868D01*
X167278229Y-118168867D01*
X167278231Y-118168867D01*
X167344552Y-118124552D01*
X167388867Y-118058231D01*
X167388867Y-118058229D01*
X167388868Y-118058229D01*
X167400499Y-117999752D01*
X167400500Y-117999750D01*
X167400500Y-115960249D01*
X167400499Y-115960247D01*
X167388868Y-115901770D01*
X167388867Y-115901769D01*
X167344552Y-115835447D01*
X167278230Y-115791132D01*
X167278229Y-115791131D01*
X167219752Y-115779500D01*
X167219748Y-115779500D01*
X166734500Y-115779500D01*
X166667461Y-115759815D01*
X166621706Y-115707011D01*
X166610500Y-115655500D01*
X166610500Y-114615833D01*
X166630185Y-114548794D01*
X166646819Y-114528152D01*
X167864478Y-113310493D01*
X169090460Y-112084511D01*
X169130021Y-112015989D01*
X169150500Y-111939562D01*
X169150500Y-110684500D01*
X169170185Y-110617461D01*
X169222989Y-110571706D01*
X169274500Y-110560500D01*
X169759750Y-110560500D01*
X169759751Y-110560499D01*
X169779418Y-110556587D01*
X169818228Y-110548868D01*
X169818228Y-110548867D01*
X169818231Y-110548867D01*
X169862887Y-110519027D01*
X169929561Y-110498150D01*
X169996941Y-110516633D01*
X170043633Y-110568611D01*
X170047959Y-110578796D01*
X170056646Y-110602088D01*
X170056649Y-110602093D01*
X170142809Y-110717187D01*
X170142812Y-110717190D01*
X170257906Y-110803350D01*
X170257913Y-110803354D01*
X170392620Y-110853596D01*
X170392627Y-110853598D01*
X170452155Y-110859999D01*
X170452172Y-110860000D01*
X171140000Y-110860000D01*
X171640000Y-110860000D01*
X172327828Y-110860000D01*
X172327844Y-110859999D01*
X172387372Y-110853598D01*
X172387379Y-110853596D01*
X172522086Y-110803354D01*
X172522093Y-110803350D01*
X172637187Y-110717190D01*
X172637190Y-110717187D01*
X172723350Y-110602093D01*
X172723354Y-110602086D01*
X172773596Y-110467379D01*
X172773598Y-110467372D01*
X172779999Y-110407844D01*
X172780000Y-110407827D01*
X172780000Y-109610000D01*
X171640000Y-109610000D01*
X171640000Y-110860000D01*
X171140000Y-110860000D01*
X171140000Y-109234000D01*
X171159685Y-109166961D01*
X171212489Y-109121206D01*
X171264000Y-109110000D01*
X172780000Y-109110000D01*
X172780000Y-108312172D01*
X172779999Y-108312155D01*
X172773598Y-108252627D01*
X172773596Y-108252620D01*
X172723324Y-108117833D01*
X172718340Y-108048142D01*
X172751825Y-107986819D01*
X172813148Y-107953334D01*
X172839506Y-107950500D01*
X173639560Y-107950500D01*
X173639562Y-107950500D01*
X173715989Y-107930021D01*
X173784511Y-107890460D01*
X173840460Y-107834511D01*
X174590460Y-107084511D01*
X174630021Y-107015989D01*
X174650500Y-106939562D01*
X174650500Y-102500013D01*
X175825000Y-102500013D01*
X175825000Y-102900000D01*
X176895854Y-102900000D01*
X176857370Y-102966657D01*
X176825000Y-103087465D01*
X176825000Y-103212535D01*
X176857370Y-103333343D01*
X176895854Y-103400000D01*
X175825001Y-103400000D01*
X175825001Y-103799986D01*
X175835494Y-103902697D01*
X175890641Y-104069119D01*
X175890643Y-104069124D01*
X175982684Y-104218345D01*
X176106654Y-104342315D01*
X176255875Y-104434356D01*
X176255880Y-104434358D01*
X176422302Y-104489505D01*
X176422309Y-104489506D01*
X176525019Y-104499999D01*
X176596471Y-104499999D01*
X176663511Y-104519683D01*
X176709267Y-104572486D01*
X176719211Y-104641644D01*
X176690187Y-104705200D01*
X176665364Y-104727101D01*
X176505345Y-104834022D01*
X176505341Y-104834025D01*
X176359024Y-104980342D01*
X176244058Y-105152403D01*
X176164870Y-105343579D01*
X176164868Y-105343587D01*
X176124500Y-105546530D01*
X176124500Y-105753469D01*
X176164868Y-105956412D01*
X176164870Y-105956420D01*
X176244058Y-106147596D01*
X176359024Y-106319657D01*
X176505342Y-106465975D01*
X176505345Y-106465977D01*
X176677402Y-106580941D01*
X176868580Y-106660130D01*
X177071530Y-106700499D01*
X177071534Y-106700500D01*
X177071535Y-106700500D01*
X177528466Y-106700500D01*
X177528467Y-106700499D01*
X177731420Y-106660130D01*
X177922598Y-106580941D01*
X178094655Y-106465977D01*
X178240977Y-106319655D01*
X178355941Y-106147598D01*
X178435130Y-105956420D01*
X178475500Y-105753465D01*
X178475500Y-105546535D01*
X178435130Y-105343580D01*
X178355941Y-105152402D01*
X178240977Y-104980345D01*
X178240975Y-104980342D01*
X178094657Y-104834024D01*
X178049618Y-104803930D01*
X177934632Y-104727100D01*
X177889829Y-104673490D01*
X177881121Y-104604165D01*
X177911275Y-104541137D01*
X177970718Y-104504417D01*
X178003524Y-104499999D01*
X178074971Y-104499999D01*
X178074987Y-104499998D01*
X178177697Y-104489505D01*
X178344119Y-104434358D01*
X178344124Y-104434356D01*
X178493345Y-104342315D01*
X178617315Y-104218345D01*
X178709356Y-104069124D01*
X178709358Y-104069119D01*
X178764505Y-103902697D01*
X178764506Y-103902690D01*
X178774999Y-103799986D01*
X178775000Y-103799973D01*
X178775000Y-103400000D01*
X177704146Y-103400000D01*
X177742630Y-103333343D01*
X177775000Y-103212535D01*
X177775000Y-103087465D01*
X177742630Y-102966657D01*
X177704146Y-102900000D01*
X178774999Y-102900000D01*
X178774999Y-102500028D01*
X178774998Y-102500013D01*
X183625000Y-102500013D01*
X183625000Y-102900000D01*
X184695854Y-102900000D01*
X184657370Y-102966657D01*
X184625000Y-103087465D01*
X184625000Y-103212535D01*
X184657370Y-103333343D01*
X184695854Y-103400000D01*
X183625001Y-103400000D01*
X183625001Y-103799986D01*
X183635494Y-103902697D01*
X183690641Y-104069119D01*
X183690643Y-104069124D01*
X183782684Y-104218345D01*
X183906654Y-104342315D01*
X184055875Y-104434356D01*
X184055880Y-104434358D01*
X184222302Y-104489505D01*
X184222309Y-104489506D01*
X184325019Y-104499999D01*
X184396471Y-104499999D01*
X184463511Y-104519683D01*
X184509267Y-104572486D01*
X184519211Y-104641644D01*
X184490187Y-104705200D01*
X184465364Y-104727101D01*
X184305345Y-104834022D01*
X184305341Y-104834025D01*
X184159024Y-104980342D01*
X184044058Y-105152403D01*
X183964870Y-105343579D01*
X183964868Y-105343587D01*
X183924500Y-105546530D01*
X183924500Y-105753469D01*
X183964868Y-105956412D01*
X183964870Y-105956420D01*
X184044058Y-106147596D01*
X184159024Y-106319657D01*
X184305342Y-106465975D01*
X184305345Y-106465977D01*
X184477402Y-106580941D01*
X184668580Y-106660130D01*
X184871530Y-106700499D01*
X184871534Y-106700500D01*
X184871535Y-106700500D01*
X185328466Y-106700500D01*
X185328467Y-106700499D01*
X185531420Y-106660130D01*
X185722598Y-106580941D01*
X185894655Y-106465977D01*
X186040977Y-106319655D01*
X186155941Y-106147598D01*
X186235130Y-105956420D01*
X186275500Y-105753465D01*
X186275500Y-105546535D01*
X186235130Y-105343580D01*
X186155941Y-105152402D01*
X186040977Y-104980345D01*
X186040975Y-104980342D01*
X185894657Y-104834024D01*
X185849618Y-104803930D01*
X185734632Y-104727100D01*
X185689829Y-104673490D01*
X185681121Y-104604165D01*
X185711275Y-104541137D01*
X185770718Y-104504417D01*
X185803524Y-104499999D01*
X185874971Y-104499999D01*
X185874987Y-104499998D01*
X185977697Y-104489505D01*
X186144119Y-104434358D01*
X186144124Y-104434356D01*
X186293345Y-104342315D01*
X186417315Y-104218345D01*
X186509356Y-104069124D01*
X186509358Y-104069119D01*
X186564505Y-103902697D01*
X186564506Y-103902690D01*
X186574999Y-103799986D01*
X186575000Y-103799973D01*
X186575000Y-103400000D01*
X185504146Y-103400000D01*
X185542630Y-103333343D01*
X185575000Y-103212535D01*
X185575000Y-103087465D01*
X185542630Y-102966657D01*
X185504146Y-102900000D01*
X186574999Y-102900000D01*
X186574999Y-102500028D01*
X186574998Y-102500013D01*
X186564505Y-102397302D01*
X186509358Y-102230880D01*
X186509356Y-102230875D01*
X186417315Y-102081654D01*
X186293345Y-101957684D01*
X186144124Y-101865643D01*
X186144119Y-101865641D01*
X185977697Y-101810494D01*
X185977690Y-101810493D01*
X185874986Y-101800000D01*
X185350000Y-101800000D01*
X185350000Y-102745854D01*
X185283343Y-102707370D01*
X185162535Y-102675000D01*
X185037465Y-102675000D01*
X184916657Y-102707370D01*
X184850000Y-102745854D01*
X184850000Y-101800000D01*
X184325028Y-101800000D01*
X184325012Y-101800001D01*
X184222302Y-101810494D01*
X184055880Y-101865641D01*
X184055875Y-101865643D01*
X183906654Y-101957684D01*
X183782684Y-102081654D01*
X183690643Y-102230875D01*
X183690641Y-102230880D01*
X183635494Y-102397302D01*
X183635493Y-102397309D01*
X183625000Y-102500013D01*
X178774998Y-102500013D01*
X178764505Y-102397302D01*
X178709358Y-102230880D01*
X178709356Y-102230875D01*
X178617315Y-102081654D01*
X178493345Y-101957684D01*
X178344124Y-101865643D01*
X178344119Y-101865641D01*
X178177697Y-101810494D01*
X178177690Y-101810493D01*
X178074986Y-101800000D01*
X177550000Y-101800000D01*
X177550000Y-102745854D01*
X177483343Y-102707370D01*
X177362535Y-102675000D01*
X177237465Y-102675000D01*
X177116657Y-102707370D01*
X177050000Y-102745854D01*
X177050000Y-101800000D01*
X176525028Y-101800000D01*
X176525012Y-101800001D01*
X176422302Y-101810494D01*
X176255880Y-101865641D01*
X176255875Y-101865643D01*
X176106654Y-101957684D01*
X175982684Y-102081654D01*
X175890643Y-102230875D01*
X175890641Y-102230880D01*
X175835494Y-102397302D01*
X175835493Y-102397309D01*
X175825000Y-102500013D01*
X174650500Y-102500013D01*
X174650500Y-97575833D01*
X174670185Y-97508794D01*
X174686819Y-97488152D01*
X175188152Y-96986819D01*
X175249475Y-96953334D01*
X175275833Y-96950500D01*
X176129564Y-96950500D01*
X176196603Y-96970185D01*
X176242358Y-97022989D01*
X176244121Y-97027039D01*
X176294059Y-97147598D01*
X176339421Y-97215487D01*
X176409024Y-97319657D01*
X176555342Y-97465975D01*
X176555345Y-97465977D01*
X176727402Y-97580941D01*
X176918580Y-97660130D01*
X177121530Y-97700499D01*
X177121534Y-97700500D01*
X177121535Y-97700500D01*
X177578466Y-97700500D01*
X177578467Y-97700499D01*
X177781420Y-97660130D01*
X177972598Y-97580941D01*
X178144655Y-97465977D01*
X178290977Y-97319655D01*
X178405941Y-97147598D01*
X178455875Y-97027046D01*
X178499716Y-96972644D01*
X178566010Y-96950579D01*
X178570436Y-96950500D01*
X183879564Y-96950500D01*
X183946603Y-96970185D01*
X183992358Y-97022989D01*
X183994121Y-97027039D01*
X184044059Y-97147598D01*
X184089421Y-97215487D01*
X184159024Y-97319657D01*
X184305342Y-97465975D01*
X184305345Y-97465977D01*
X184477402Y-97580941D01*
X184668580Y-97660130D01*
X184871530Y-97700499D01*
X184871534Y-97700500D01*
X184871535Y-97700500D01*
X185328466Y-97700500D01*
X185328467Y-97700499D01*
X185531420Y-97660130D01*
X185722598Y-97580941D01*
X185894655Y-97465977D01*
X186040977Y-97319655D01*
X186155941Y-97147598D01*
X186235130Y-96956420D01*
X186275500Y-96753465D01*
X186275500Y-96546535D01*
X186235130Y-96343580D01*
X186155941Y-96152402D01*
X186040977Y-95980345D01*
X186040975Y-95980342D01*
X185894657Y-95834024D01*
X185744649Y-95733793D01*
X185722598Y-95719059D01*
X185531420Y-95639870D01*
X185531412Y-95639868D01*
X185328469Y-95599500D01*
X185328465Y-95599500D01*
X184871535Y-95599500D01*
X184871530Y-95599500D01*
X184668587Y-95639868D01*
X184668579Y-95639870D01*
X184477403Y-95719058D01*
X184305342Y-95834024D01*
X184159024Y-95980342D01*
X184044058Y-96152403D01*
X183994125Y-96272953D01*
X183950284Y-96327356D01*
X183883990Y-96349421D01*
X183879564Y-96349500D01*
X178570436Y-96349500D01*
X178503397Y-96329815D01*
X178457642Y-96277011D01*
X178455875Y-96272953D01*
X178405941Y-96152403D01*
X178405941Y-96152402D01*
X178290977Y-95980345D01*
X178290975Y-95980342D01*
X178144657Y-95834024D01*
X177994649Y-95733793D01*
X177972598Y-95719059D01*
X177781420Y-95639870D01*
X177781412Y-95639868D01*
X177578469Y-95599500D01*
X177578465Y-95599500D01*
X177121535Y-95599500D01*
X177121530Y-95599500D01*
X176918587Y-95639868D01*
X176918579Y-95639870D01*
X176727403Y-95719058D01*
X176555342Y-95834024D01*
X176409024Y-95980342D01*
X176294058Y-96152403D01*
X176244125Y-96272953D01*
X176200284Y-96327356D01*
X176133990Y-96349421D01*
X176129564Y-96349500D01*
X175060438Y-96349500D01*
X175022224Y-96359739D01*
X174984009Y-96369979D01*
X174984004Y-96369982D01*
X174915495Y-96409535D01*
X174915487Y-96409541D01*
X174109541Y-97215487D01*
X174109535Y-97215495D01*
X174069982Y-97284004D01*
X174069979Y-97284009D01*
X174049500Y-97360439D01*
X174049500Y-106724167D01*
X174029815Y-106791206D01*
X174013181Y-106811848D01*
X173511848Y-107313181D01*
X173450525Y-107346666D01*
X173424167Y-107349500D01*
X166309562Y-107349500D01*
X153060438Y-107349500D01*
X153029867Y-107357691D01*
X152984008Y-107369979D01*
X152984005Y-107369981D01*
X152949371Y-107389978D01*
X152949370Y-107389979D01*
X152939303Y-107395790D01*
X152915489Y-107409539D01*
X152109541Y-108215487D01*
X152109535Y-108215495D01*
X152069982Y-108284004D01*
X152069979Y-108284009D01*
X152049500Y-108360439D01*
X152049500Y-109428988D01*
X152029815Y-109496027D01*
X151977011Y-109541782D01*
X151907853Y-109551726D01*
X151886498Y-109546694D01*
X151852704Y-109535496D01*
X151852690Y-109535493D01*
X151749986Y-109525000D01*
X151612500Y-109525000D01*
X151612500Y-111920911D01*
X151592815Y-111987950D01*
X151576181Y-112008592D01*
X150868855Y-112715917D01*
X150868849Y-112715925D01*
X150829296Y-112784434D01*
X150829293Y-112784439D01*
X150808814Y-112860869D01*
X150808814Y-116464853D01*
X150789129Y-116531892D01*
X150772495Y-116552534D01*
X150736681Y-116588348D01*
X150675358Y-116621833D01*
X150605666Y-116616849D01*
X150549733Y-116574977D01*
X150525316Y-116509513D01*
X150525000Y-116500667D01*
X150525000Y-115000000D01*
X138725001Y-115000000D01*
X138725001Y-116824989D01*
X138731428Y-116887899D01*
X138718658Y-116956592D01*
X138670777Y-117007476D01*
X138608070Y-117024500D01*
X135823372Y-117024500D01*
X135756333Y-117004815D01*
X135710578Y-116952011D01*
X135700634Y-116882853D01*
X135729659Y-116819297D01*
X135739834Y-116808863D01*
X135790979Y-116762238D01*
X135795179Y-116756677D01*
X135925058Y-116584689D01*
X136024229Y-116385528D01*
X136085115Y-116171536D01*
X136105643Y-115950000D01*
X136085115Y-115728464D01*
X136024229Y-115514472D01*
X136024224Y-115514461D01*
X135925061Y-115315316D01*
X135925056Y-115315308D01*
X135790979Y-115137761D01*
X135626562Y-114987876D01*
X135626560Y-114987874D01*
X135437404Y-114870754D01*
X135437398Y-114870752D01*
X135229940Y-114790382D01*
X135011243Y-114749500D01*
X134788757Y-114749500D01*
X134570060Y-114790382D01*
X134468272Y-114829815D01*
X134362601Y-114870752D01*
X134362595Y-114870754D01*
X134173439Y-114987874D01*
X134173437Y-114987876D01*
X134009020Y-115137761D01*
X133874943Y-115315308D01*
X133874938Y-115315316D01*
X133775775Y-115514461D01*
X133775769Y-115514476D01*
X133714885Y-115728462D01*
X133714884Y-115728464D01*
X133694357Y-115949999D01*
X133694357Y-115950000D01*
X133714884Y-116171535D01*
X133714885Y-116171537D01*
X133775769Y-116385523D01*
X133775775Y-116385538D01*
X133874938Y-116584683D01*
X133874943Y-116584691D01*
X134009020Y-116762238D01*
X134060166Y-116808863D01*
X134096448Y-116868574D01*
X134094687Y-116938421D01*
X134055444Y-116996229D01*
X133991177Y-117023644D01*
X133976628Y-117024500D01*
X130200833Y-117024500D01*
X130133794Y-117004815D01*
X130113152Y-116988181D01*
X128834513Y-115709542D01*
X128834511Y-115709540D01*
X128813910Y-115697646D01*
X128765991Y-115669980D01*
X128765990Y-115669979D01*
X128740513Y-115663152D01*
X128689562Y-115649500D01*
X128689560Y-115649500D01*
X128624500Y-115649500D01*
X128557461Y-115629815D01*
X128511706Y-115577011D01*
X128500500Y-115525500D01*
X128500500Y-114930249D01*
X128500499Y-114930247D01*
X128488868Y-114871770D01*
X128488867Y-114871769D01*
X128444552Y-114805447D01*
X128378230Y-114761132D01*
X128378229Y-114761131D01*
X128319752Y-114749500D01*
X128319748Y-114749500D01*
X126280252Y-114749500D01*
X126274500Y-114749500D01*
X126207461Y-114729815D01*
X126161706Y-114677011D01*
X126150500Y-114625500D01*
X126150500Y-114500000D01*
X138725000Y-114500000D01*
X141600000Y-114500000D01*
X142100000Y-114500000D01*
X147150000Y-114500000D01*
X147650000Y-114500000D01*
X150524999Y-114500000D01*
X150524999Y-112575000D01*
X147650000Y-112575000D01*
X147650000Y-114500000D01*
X147150000Y-114500000D01*
X147150000Y-112575000D01*
X142100000Y-112575000D01*
X142100000Y-114500000D01*
X141600000Y-114500000D01*
X141600000Y-112575000D01*
X138725000Y-112575000D01*
X138725000Y-114500000D01*
X126150500Y-114500000D01*
X126150500Y-112075000D01*
X138725000Y-112075000D01*
X141600000Y-112075000D01*
X142100000Y-112075000D01*
X144375000Y-112075000D01*
X144875000Y-112075000D01*
X147150000Y-112075000D01*
X147650000Y-112075000D01*
X150524999Y-112075000D01*
X150524999Y-112019653D01*
X150544684Y-111952614D01*
X150597488Y-111906859D01*
X150666646Y-111896915D01*
X150701406Y-111907272D01*
X150705878Y-111909357D01*
X150872302Y-111964505D01*
X150872309Y-111964506D01*
X150975019Y-111974999D01*
X151112499Y-111974999D01*
X151112500Y-111974998D01*
X151112500Y-109525000D01*
X150975027Y-109525000D01*
X150975012Y-109525001D01*
X150872302Y-109535494D01*
X150705876Y-109590642D01*
X150701398Y-109592731D01*
X150632320Y-109603219D01*
X150568537Y-109574696D01*
X150530301Y-109516217D01*
X150524999Y-109480346D01*
X150524999Y-107825028D01*
X150524998Y-107825013D01*
X150514505Y-107722302D01*
X150459358Y-107555880D01*
X150459356Y-107555875D01*
X150367315Y-107406654D01*
X150243345Y-107282684D01*
X150094124Y-107190643D01*
X150094119Y-107190641D01*
X149927697Y-107135494D01*
X149927690Y-107135493D01*
X149824986Y-107125000D01*
X147650000Y-107125000D01*
X147650000Y-112075000D01*
X147150000Y-112075000D01*
X147150000Y-110150000D01*
X144875000Y-110150000D01*
X144875000Y-112075000D01*
X144375000Y-112075000D01*
X144375000Y-110150000D01*
X142100000Y-110150000D01*
X142100000Y-112075000D01*
X141600000Y-112075000D01*
X141600000Y-110150000D01*
X138725000Y-110150000D01*
X138725000Y-112075000D01*
X126150500Y-112075000D01*
X126150500Y-107825015D01*
X138725000Y-107825015D01*
X138725000Y-109650000D01*
X141600000Y-109650000D01*
X142100000Y-109650000D01*
X144375000Y-109650000D01*
X144875000Y-109650000D01*
X147150000Y-109650000D01*
X147150000Y-107125000D01*
X144875000Y-107125000D01*
X144875000Y-109650000D01*
X144375000Y-109650000D01*
X144375000Y-107125000D01*
X142100000Y-107125000D01*
X142100000Y-109650000D01*
X141600000Y-109650000D01*
X141600000Y-107125000D01*
X139425028Y-107125000D01*
X139425012Y-107125001D01*
X139322302Y-107135494D01*
X139155880Y-107190641D01*
X139155875Y-107190643D01*
X139006654Y-107282684D01*
X138882684Y-107406654D01*
X138790643Y-107555875D01*
X138790641Y-107555880D01*
X138735494Y-107722301D01*
X138735023Y-107725221D01*
X138734852Y-107728589D01*
X138725000Y-107825015D01*
X126150500Y-107825015D01*
X126150500Y-103245730D01*
X126399500Y-103245730D01*
X126399500Y-104554269D01*
X126402353Y-104584699D01*
X126402353Y-104584701D01*
X126444519Y-104705200D01*
X126447207Y-104712882D01*
X126527850Y-104822150D01*
X126637118Y-104902793D01*
X126679845Y-104917744D01*
X126765299Y-104947646D01*
X126795730Y-104950500D01*
X126795734Y-104950500D01*
X128354270Y-104950500D01*
X128384699Y-104947646D01*
X128384701Y-104947646D01*
X128448790Y-104925219D01*
X128512882Y-104902793D01*
X128622150Y-104822150D01*
X128702793Y-104712882D01*
X128742467Y-104599500D01*
X128747646Y-104584701D01*
X128747646Y-104584699D01*
X128750500Y-104554269D01*
X128750500Y-103245730D01*
X128747646Y-103215300D01*
X128747646Y-103215298D01*
X128702793Y-103087119D01*
X128702792Y-103087117D01*
X128622150Y-102977850D01*
X128512882Y-102897207D01*
X128512880Y-102897206D01*
X128384700Y-102852353D01*
X128354270Y-102849500D01*
X128354266Y-102849500D01*
X126795734Y-102849500D01*
X126795730Y-102849500D01*
X126765300Y-102852353D01*
X126765298Y-102852353D01*
X126637119Y-102897206D01*
X126637117Y-102897207D01*
X126527850Y-102977850D01*
X126447207Y-103087117D01*
X126447206Y-103087119D01*
X126402353Y-103215298D01*
X126402353Y-103215300D01*
X126399500Y-103245730D01*
X126150500Y-103245730D01*
X126150500Y-101296530D01*
X126399500Y-101296530D01*
X126399500Y-101503469D01*
X126415983Y-101586333D01*
X126439870Y-101706420D01*
X126519059Y-101897598D01*
X126559207Y-101957684D01*
X126634024Y-102069657D01*
X126780342Y-102215975D01*
X126780345Y-102215977D01*
X126952402Y-102330941D01*
X127143580Y-102410130D01*
X127346530Y-102450499D01*
X127346534Y-102450500D01*
X127346535Y-102450500D01*
X127803466Y-102450500D01*
X127803467Y-102450499D01*
X128006420Y-102410130D01*
X128197598Y-102330941D01*
X128369655Y-102215977D01*
X128515977Y-102069655D01*
X128630941Y-101897598D01*
X128680875Y-101777046D01*
X128724716Y-101722644D01*
X128791010Y-101700579D01*
X128795436Y-101700500D01*
X169858537Y-101700500D01*
X169925576Y-101720185D01*
X169967895Y-101766047D01*
X170055862Y-101930623D01*
X170055864Y-101930626D01*
X170174642Y-102075357D01*
X170319373Y-102194135D01*
X170319376Y-102194137D01*
X170484497Y-102282395D01*
X170484499Y-102282396D01*
X170663666Y-102336746D01*
X170663668Y-102336747D01*
X170680374Y-102338392D01*
X170850000Y-102355099D01*
X171036331Y-102336747D01*
X171215501Y-102282396D01*
X171380625Y-102194136D01*
X171525357Y-102075357D01*
X171644136Y-101930625D01*
X171732396Y-101765501D01*
X171786747Y-101586331D01*
X171805099Y-101400000D01*
X171786747Y-101213669D01*
X171732396Y-101034499D01*
X171661790Y-100902403D01*
X171644137Y-100869376D01*
X171644135Y-100869373D01*
X171525357Y-100724642D01*
X171380626Y-100605864D01*
X171380623Y-100605862D01*
X171215502Y-100517604D01*
X171036333Y-100463253D01*
X171036331Y-100463252D01*
X170850000Y-100444901D01*
X170663668Y-100463252D01*
X170663666Y-100463253D01*
X170484497Y-100517604D01*
X170319376Y-100605862D01*
X170319373Y-100605864D01*
X170174642Y-100724642D01*
X170055864Y-100869373D01*
X170055862Y-100869376D01*
X169967895Y-101033953D01*
X169918933Y-101083797D01*
X169858537Y-101099500D01*
X128795436Y-101099500D01*
X128728397Y-101079815D01*
X128682642Y-101027011D01*
X128680875Y-101022953D01*
X128630941Y-100902403D01*
X128630941Y-100902402D01*
X128515977Y-100730345D01*
X128515975Y-100730342D01*
X128369657Y-100584024D01*
X128270251Y-100517604D01*
X128197598Y-100469059D01*
X128183581Y-100463253D01*
X128006420Y-100389870D01*
X128006412Y-100389868D01*
X127803469Y-100349500D01*
X127803465Y-100349500D01*
X127346535Y-100349500D01*
X127346530Y-100349500D01*
X127143587Y-100389868D01*
X127143579Y-100389870D01*
X126952403Y-100469058D01*
X126780342Y-100584024D01*
X126634024Y-100730342D01*
X126519058Y-100902403D01*
X126439870Y-101093579D01*
X126439868Y-101093587D01*
X126399500Y-101296530D01*
X126150500Y-101296530D01*
X126150500Y-96296530D01*
X126399500Y-96296530D01*
X126399500Y-96503469D01*
X126439868Y-96706412D01*
X126439870Y-96706420D01*
X126519058Y-96897596D01*
X126634024Y-97069657D01*
X126780342Y-97215975D01*
X126780345Y-97215977D01*
X126952402Y-97330941D01*
X127143580Y-97410130D01*
X127346530Y-97450499D01*
X127346534Y-97450500D01*
X127346535Y-97450500D01*
X127803466Y-97450500D01*
X127803467Y-97450499D01*
X128006420Y-97410130D01*
X128197598Y-97330941D01*
X128369655Y-97215977D01*
X128515977Y-97069655D01*
X128630941Y-96897598D01*
X128680875Y-96777046D01*
X128724716Y-96722644D01*
X128791010Y-96700579D01*
X128795436Y-96700500D01*
X170889560Y-96700500D01*
X170889562Y-96700500D01*
X170965989Y-96680021D01*
X171034511Y-96640460D01*
X171090460Y-96584511D01*
X172090460Y-95584511D01*
X172130022Y-95515988D01*
X172150500Y-95439562D01*
X172150500Y-95360438D01*
X172150500Y-86192633D01*
X172162890Y-86150437D01*
X172152672Y-86130471D01*
X172150500Y-86107366D01*
X172150500Y-85825833D01*
X172170185Y-85758794D01*
X172186813Y-85738157D01*
X172260008Y-85664962D01*
X172321327Y-85631480D01*
X172391019Y-85636464D01*
X172446953Y-85678335D01*
X172471370Y-85743799D01*
X172466347Y-85788641D01*
X172413252Y-85963670D01*
X172397903Y-86119520D01*
X172386727Y-86147195D01*
X172393477Y-86157698D01*
X172397903Y-86180479D01*
X172413252Y-86336331D01*
X172413253Y-86336333D01*
X172467604Y-86515502D01*
X172555862Y-86680623D01*
X172555864Y-86680626D01*
X172674642Y-86825357D01*
X172819371Y-86944133D01*
X172819375Y-86944136D01*
X172983955Y-87032105D01*
X173033797Y-87081066D01*
X173049500Y-87141462D01*
X173049500Y-97724167D01*
X173029815Y-97791206D01*
X173013181Y-97811848D01*
X172261848Y-98563181D01*
X172200525Y-98596666D01*
X172174167Y-98599500D01*
X128795436Y-98599500D01*
X128728397Y-98579815D01*
X128682642Y-98527011D01*
X128680875Y-98522953D01*
X128630941Y-98402403D01*
X128630941Y-98402402D01*
X128515977Y-98230345D01*
X128515975Y-98230342D01*
X128369657Y-98084024D01*
X128267833Y-98015988D01*
X128197598Y-97969059D01*
X128126386Y-97939562D01*
X128006420Y-97889870D01*
X128006412Y-97889868D01*
X127803469Y-97849500D01*
X127803465Y-97849500D01*
X127346535Y-97849500D01*
X127346530Y-97849500D01*
X127143587Y-97889868D01*
X127143579Y-97889870D01*
X126952403Y-97969058D01*
X126780342Y-98084024D01*
X126634024Y-98230342D01*
X126519058Y-98402403D01*
X126439870Y-98593579D01*
X126439868Y-98593587D01*
X126399500Y-98796530D01*
X126399500Y-99003469D01*
X126439868Y-99206412D01*
X126439870Y-99206420D01*
X126519058Y-99397596D01*
X126634024Y-99569657D01*
X126780342Y-99715975D01*
X126780345Y-99715977D01*
X126952402Y-99830941D01*
X127143580Y-99910130D01*
X127346530Y-99950499D01*
X127346534Y-99950500D01*
X127346535Y-99950500D01*
X127803466Y-99950500D01*
X127803467Y-99950499D01*
X128006420Y-99910130D01*
X128197598Y-99830941D01*
X128369655Y-99715977D01*
X128515977Y-99569655D01*
X128630941Y-99397598D01*
X128680875Y-99277046D01*
X128724716Y-99222644D01*
X128791010Y-99200579D01*
X128795436Y-99200500D01*
X172389560Y-99200500D01*
X172389562Y-99200500D01*
X172465989Y-99180021D01*
X172534511Y-99140460D01*
X172590460Y-99084511D01*
X173590460Y-98084511D01*
X173630022Y-98015988D01*
X173650500Y-97939562D01*
X173650500Y-97860438D01*
X173650500Y-91000013D01*
X175875000Y-91000013D01*
X175875000Y-91400000D01*
X176945854Y-91400000D01*
X176907370Y-91466657D01*
X176875000Y-91587465D01*
X176875000Y-91712535D01*
X176907370Y-91833343D01*
X176945854Y-91900000D01*
X175875001Y-91900000D01*
X175875001Y-92299986D01*
X175885494Y-92402697D01*
X175940641Y-92569119D01*
X175940643Y-92569124D01*
X176032684Y-92718345D01*
X176156654Y-92842315D01*
X176305875Y-92934356D01*
X176305880Y-92934358D01*
X176472302Y-92989505D01*
X176472309Y-92989506D01*
X176575019Y-92999999D01*
X176646471Y-92999999D01*
X176713511Y-93019683D01*
X176759267Y-93072486D01*
X176769211Y-93141644D01*
X176740187Y-93205200D01*
X176715364Y-93227101D01*
X176555345Y-93334022D01*
X176555341Y-93334025D01*
X176409024Y-93480342D01*
X176294058Y-93652403D01*
X176214870Y-93843579D01*
X176214868Y-93843587D01*
X176174500Y-94046530D01*
X176174500Y-94253469D01*
X176214868Y-94456412D01*
X176214870Y-94456420D01*
X176294058Y-94647596D01*
X176409024Y-94819657D01*
X176555342Y-94965975D01*
X176555345Y-94965977D01*
X176727402Y-95080941D01*
X176918580Y-95160130D01*
X177121530Y-95200499D01*
X177121534Y-95200500D01*
X177121535Y-95200500D01*
X177578466Y-95200500D01*
X177578467Y-95200499D01*
X177781420Y-95160130D01*
X177972598Y-95080941D01*
X178144655Y-94965977D01*
X178290977Y-94819655D01*
X178405941Y-94647598D01*
X178485130Y-94456420D01*
X178525500Y-94253465D01*
X178525500Y-94046535D01*
X178485130Y-93843580D01*
X178405941Y-93652402D01*
X178290977Y-93480345D01*
X178290975Y-93480342D01*
X178144657Y-93334024D01*
X178099618Y-93303930D01*
X177984632Y-93227100D01*
X177939829Y-93173490D01*
X177931121Y-93104165D01*
X177961275Y-93041137D01*
X178020718Y-93004417D01*
X178053524Y-92999999D01*
X178124971Y-92999999D01*
X178124987Y-92999998D01*
X178227697Y-92989505D01*
X178394119Y-92934358D01*
X178394124Y-92934356D01*
X178543345Y-92842315D01*
X178667315Y-92718345D01*
X178759356Y-92569124D01*
X178759358Y-92569119D01*
X178814505Y-92402697D01*
X178814506Y-92402690D01*
X178824999Y-92299986D01*
X178825000Y-92299973D01*
X178825000Y-91900000D01*
X177754146Y-91900000D01*
X177792630Y-91833343D01*
X177825000Y-91712535D01*
X177825000Y-91587465D01*
X177792630Y-91466657D01*
X177754146Y-91400000D01*
X178824999Y-91400000D01*
X178824999Y-91000028D01*
X178824998Y-91000013D01*
X183625000Y-91000013D01*
X183625000Y-91400000D01*
X184695854Y-91400000D01*
X184657370Y-91466657D01*
X184625000Y-91587465D01*
X184625000Y-91712535D01*
X184657370Y-91833343D01*
X184695854Y-91900000D01*
X183625001Y-91900000D01*
X183625001Y-92299986D01*
X183635494Y-92402697D01*
X183690641Y-92569119D01*
X183690643Y-92569124D01*
X183782684Y-92718345D01*
X183906654Y-92842315D01*
X184055875Y-92934356D01*
X184055880Y-92934358D01*
X184222302Y-92989505D01*
X184222309Y-92989506D01*
X184325019Y-92999999D01*
X184396471Y-92999999D01*
X184463511Y-93019683D01*
X184509267Y-93072486D01*
X184519211Y-93141644D01*
X184490187Y-93205200D01*
X184465364Y-93227101D01*
X184305345Y-93334022D01*
X184305341Y-93334025D01*
X184159024Y-93480342D01*
X184044058Y-93652403D01*
X183964870Y-93843579D01*
X183964868Y-93843587D01*
X183924500Y-94046530D01*
X183924500Y-94253469D01*
X183964868Y-94456412D01*
X183964870Y-94456420D01*
X184044058Y-94647596D01*
X184159024Y-94819657D01*
X184305342Y-94965975D01*
X184305345Y-94965977D01*
X184477402Y-95080941D01*
X184668580Y-95160130D01*
X184871530Y-95200499D01*
X184871534Y-95200500D01*
X184871535Y-95200500D01*
X185328466Y-95200500D01*
X185328467Y-95200499D01*
X185531420Y-95160130D01*
X185722598Y-95080941D01*
X185894655Y-94965977D01*
X186040977Y-94819655D01*
X186155941Y-94647598D01*
X186235130Y-94456420D01*
X186275500Y-94253465D01*
X186275500Y-94046535D01*
X186235130Y-93843580D01*
X186155941Y-93652402D01*
X186040977Y-93480345D01*
X186040975Y-93480342D01*
X185894657Y-93334024D01*
X185849618Y-93303930D01*
X185734632Y-93227100D01*
X185689829Y-93173490D01*
X185681121Y-93104165D01*
X185711275Y-93041137D01*
X185770718Y-93004417D01*
X185803524Y-92999999D01*
X185874971Y-92999999D01*
X185874987Y-92999998D01*
X185977697Y-92989505D01*
X186144119Y-92934358D01*
X186144124Y-92934356D01*
X186293345Y-92842315D01*
X186417315Y-92718345D01*
X186509356Y-92569124D01*
X186509358Y-92569119D01*
X186564505Y-92402697D01*
X186564506Y-92402690D01*
X186574999Y-92299986D01*
X186575000Y-92299973D01*
X186575000Y-91900000D01*
X185504146Y-91900000D01*
X185542630Y-91833343D01*
X185575000Y-91712535D01*
X185575000Y-91587465D01*
X185542630Y-91466657D01*
X185504146Y-91400000D01*
X186574999Y-91400000D01*
X186574999Y-91000028D01*
X186574998Y-91000013D01*
X186564505Y-90897302D01*
X186509358Y-90730880D01*
X186509356Y-90730875D01*
X186417315Y-90581654D01*
X186293345Y-90457684D01*
X186144124Y-90365643D01*
X186144119Y-90365641D01*
X185977697Y-90310494D01*
X185977690Y-90310493D01*
X185874986Y-90300000D01*
X185350000Y-90300000D01*
X185350000Y-91245854D01*
X185283343Y-91207370D01*
X185162535Y-91175000D01*
X185037465Y-91175000D01*
X184916657Y-91207370D01*
X184850000Y-91245854D01*
X184850000Y-90300000D01*
X184325028Y-90300000D01*
X184325012Y-90300001D01*
X184222302Y-90310494D01*
X184055880Y-90365641D01*
X184055875Y-90365643D01*
X183906654Y-90457684D01*
X183782684Y-90581654D01*
X183690643Y-90730875D01*
X183690641Y-90730880D01*
X183635494Y-90897302D01*
X183635493Y-90897309D01*
X183625000Y-91000013D01*
X178824998Y-91000013D01*
X178814505Y-90897302D01*
X178759358Y-90730880D01*
X178759356Y-90730875D01*
X178667315Y-90581654D01*
X178543345Y-90457684D01*
X178394124Y-90365643D01*
X178394119Y-90365641D01*
X178227697Y-90310494D01*
X178227690Y-90310493D01*
X178124986Y-90300000D01*
X177600000Y-90300000D01*
X177600000Y-91245854D01*
X177533343Y-91207370D01*
X177412535Y-91175000D01*
X177287465Y-91175000D01*
X177166657Y-91207370D01*
X177100000Y-91245854D01*
X177100000Y-90300000D01*
X176575028Y-90300000D01*
X176575012Y-90300001D01*
X176472302Y-90310494D01*
X176305880Y-90365641D01*
X176305875Y-90365643D01*
X176156654Y-90457684D01*
X176032684Y-90581654D01*
X175940643Y-90730875D01*
X175940641Y-90730880D01*
X175885494Y-90897302D01*
X175885493Y-90897309D01*
X175875000Y-91000013D01*
X173650500Y-91000013D01*
X173650500Y-87141462D01*
X173670185Y-87074423D01*
X173716044Y-87032105D01*
X173880625Y-86944136D01*
X174025357Y-86825357D01*
X174144136Y-86680625D01*
X174232396Y-86515501D01*
X174286747Y-86336331D01*
X174305099Y-86150000D01*
X174286747Y-85963669D01*
X174232396Y-85784499D01*
X174227036Y-85774471D01*
X174144137Y-85619376D01*
X174144135Y-85619373D01*
X174025357Y-85474642D01*
X173880626Y-85355864D01*
X173880623Y-85355862D01*
X173715502Y-85267604D01*
X173536333Y-85213253D01*
X173536331Y-85213252D01*
X173380480Y-85197903D01*
X173352803Y-85186727D01*
X173342301Y-85193477D01*
X173319520Y-85197903D01*
X173163670Y-85213252D01*
X172988641Y-85266347D01*
X172918774Y-85266970D01*
X172859661Y-85229722D01*
X172830070Y-85166428D01*
X172839396Y-85097183D01*
X172864960Y-85060010D01*
X172938154Y-84986816D01*
X172999476Y-84953334D01*
X173025833Y-84950500D01*
X173307366Y-84950500D01*
X173349562Y-84962890D01*
X173369529Y-84952672D01*
X173392634Y-84950500D01*
X179424167Y-84950500D01*
X179491206Y-84970185D01*
X179511848Y-84986819D01*
X180186444Y-85661415D01*
X180219929Y-85722738D01*
X180217424Y-85785091D01*
X180163252Y-85963670D01*
X180144901Y-86150000D01*
X180163252Y-86336331D01*
X180163253Y-86336333D01*
X180217604Y-86515502D01*
X180305862Y-86680623D01*
X180305864Y-86680626D01*
X180424642Y-86825357D01*
X180569373Y-86944135D01*
X180569376Y-86944137D01*
X180733951Y-87032103D01*
X180734499Y-87032396D01*
X180913666Y-87086746D01*
X180913668Y-87086747D01*
X180930374Y-87088392D01*
X181100000Y-87105099D01*
X181286331Y-87086747D01*
X181465501Y-87032396D01*
X181630625Y-86944136D01*
X181775357Y-86825357D01*
X181894136Y-86680625D01*
X181982396Y-86515501D01*
X182036747Y-86336331D01*
X182055099Y-86150000D01*
X182036747Y-85963669D01*
X181982396Y-85784499D01*
X181977036Y-85774471D01*
X181894137Y-85619376D01*
X181894135Y-85619373D01*
X181775357Y-85474642D01*
X181630626Y-85355864D01*
X181630623Y-85355862D01*
X181465502Y-85267604D01*
X181286333Y-85213253D01*
X181286331Y-85213252D01*
X181100000Y-85194901D01*
X180913670Y-85213252D01*
X180735091Y-85267424D01*
X180665224Y-85268047D01*
X180611415Y-85236444D01*
X179784512Y-84409541D01*
X179784504Y-84409535D01*
X179715995Y-84369982D01*
X179715990Y-84369979D01*
X179690513Y-84363152D01*
X179639562Y-84349500D01*
X172889562Y-84349500D01*
X172810438Y-84349500D01*
X172734010Y-84369978D01*
X172665489Y-84409540D01*
X172665486Y-84409542D01*
X171609541Y-85465487D01*
X171609535Y-85465495D01*
X171569982Y-85534004D01*
X171569979Y-85534009D01*
X171549500Y-85610439D01*
X171549500Y-95224167D01*
X171529815Y-95291206D01*
X171513181Y-95311848D01*
X170761848Y-96063181D01*
X170700525Y-96096666D01*
X170674167Y-96099500D01*
X128795436Y-96099500D01*
X128728397Y-96079815D01*
X128682642Y-96027011D01*
X128680875Y-96022953D01*
X128630941Y-95902403D01*
X128630941Y-95902402D01*
X128515977Y-95730345D01*
X128515975Y-95730342D01*
X128369657Y-95584024D01*
X128257380Y-95509004D01*
X128197598Y-95469059D01*
X128128624Y-95440489D01*
X128006420Y-95389870D01*
X128006412Y-95389868D01*
X127803469Y-95349500D01*
X127803465Y-95349500D01*
X127346535Y-95349500D01*
X127346530Y-95349500D01*
X127143587Y-95389868D01*
X127143579Y-95389870D01*
X126952403Y-95469058D01*
X126780342Y-95584024D01*
X126634024Y-95730342D01*
X126519058Y-95902403D01*
X126439870Y-96093579D01*
X126439868Y-96093587D01*
X126399500Y-96296530D01*
X126150500Y-96296530D01*
X126150500Y-95800832D01*
X126170185Y-95733793D01*
X126186815Y-95713155D01*
X126976284Y-94923685D01*
X127037605Y-94890202D01*
X127107296Y-94895186D01*
X127111416Y-94896807D01*
X127143580Y-94910130D01*
X127346530Y-94950499D01*
X127346534Y-94950500D01*
X127346535Y-94950500D01*
X127803466Y-94950500D01*
X127803467Y-94950499D01*
X128006420Y-94910130D01*
X128197598Y-94830941D01*
X128369655Y-94715977D01*
X128515977Y-94569655D01*
X128630941Y-94397598D01*
X128710130Y-94206420D01*
X128750500Y-94003465D01*
X128750500Y-93796535D01*
X128710130Y-93593580D01*
X128630941Y-93402402D01*
X128515977Y-93230345D01*
X128515975Y-93230342D01*
X128369657Y-93084024D01*
X128228199Y-92989506D01*
X128197598Y-92969059D01*
X128006420Y-92889870D01*
X128006412Y-92889868D01*
X127803469Y-92849500D01*
X127803465Y-92849500D01*
X127346535Y-92849500D01*
X127346530Y-92849500D01*
X127143587Y-92889868D01*
X127143579Y-92889870D01*
X126952403Y-92969058D01*
X126780342Y-93084024D01*
X126634024Y-93230342D01*
X126519058Y-93402403D01*
X126439870Y-93593579D01*
X126439868Y-93593587D01*
X126399500Y-93796530D01*
X126399500Y-94003469D01*
X126439868Y-94206412D01*
X126439870Y-94206420D01*
X126519057Y-94397595D01*
X126521932Y-94402973D01*
X126519491Y-94404277D01*
X126536820Y-94459599D01*
X126518342Y-94526981D01*
X126500521Y-94549506D01*
X125665489Y-95384540D01*
X125609541Y-95440487D01*
X125609535Y-95440495D01*
X125569982Y-95509004D01*
X125569979Y-95509009D01*
X125568109Y-95515988D01*
X125549500Y-95585438D01*
X124150500Y-95585438D01*
X124150500Y-91296530D01*
X126399500Y-91296530D01*
X126399500Y-91503469D01*
X126439868Y-91706412D01*
X126439870Y-91706420D01*
X126519058Y-91897596D01*
X126634024Y-92069657D01*
X126780342Y-92215975D01*
X126780345Y-92215977D01*
X126952402Y-92330941D01*
X127143580Y-92410130D01*
X127346530Y-92450499D01*
X127346534Y-92450500D01*
X127346535Y-92450500D01*
X127803466Y-92450500D01*
X127803467Y-92450499D01*
X128006420Y-92410130D01*
X128197598Y-92330941D01*
X128369655Y-92215977D01*
X128515977Y-92069655D01*
X128630941Y-91897598D01*
X128710130Y-91706420D01*
X128750500Y-91503465D01*
X128750500Y-91296535D01*
X128710130Y-91093580D01*
X128630941Y-90902402D01*
X128630938Y-90902398D01*
X128628072Y-90897035D01*
X128630497Y-90895738D01*
X128613177Y-90840328D01*
X128631693Y-90772956D01*
X128649473Y-90750496D01*
X133900460Y-85499511D01*
X133940022Y-85430988D01*
X133960500Y-85354562D01*
X133960500Y-85275438D01*
X133960500Y-83113982D01*
X133980185Y-83046943D01*
X134032989Y-83001188D01*
X134102147Y-82991244D01*
X134163165Y-83018129D01*
X134215504Y-83061082D01*
X134223550Y-83067685D01*
X134406046Y-83165232D01*
X134604066Y-83225300D01*
X134604065Y-83225300D01*
X134607142Y-83225603D01*
X134810000Y-83245583D01*
X135015934Y-83225300D01*
X135213954Y-83165232D01*
X135396450Y-83067685D01*
X135556410Y-82936410D01*
X135687685Y-82776450D01*
X135785232Y-82593954D01*
X135845300Y-82395934D01*
X135865583Y-82190000D01*
X135845300Y-81984066D01*
X135785232Y-81786046D01*
X135687685Y-81603550D01*
X135612897Y-81512420D01*
X135556410Y-81443589D01*
X135406115Y-81320247D01*
X135396450Y-81312315D01*
X135213954Y-81214768D01*
X135015934Y-81154700D01*
X135015932Y-81154699D01*
X135015934Y-81154699D01*
X134810000Y-81134417D01*
X134604067Y-81154699D01*
X134469736Y-81195448D01*
X134406050Y-81214767D01*
X134406043Y-81214769D01*
X134223546Y-81312317D01*
X134163164Y-81361871D01*
X134098853Y-81389183D01*
X134029986Y-81377391D01*
X133978426Y-81330238D01*
X133960500Y-81266017D01*
X133960500Y-80975832D01*
X133980185Y-80908793D01*
X133996815Y-80888155D01*
X134245672Y-80639297D01*
X134306995Y-80605813D01*
X134376687Y-80610797D01*
X134391805Y-80617620D01*
X134406046Y-80625232D01*
X134604066Y-80685300D01*
X134604065Y-80685300D01*
X134622529Y-80687118D01*
X134810000Y-80705583D01*
X135015934Y-80685300D01*
X135213954Y-80625232D01*
X135396450Y-80527685D01*
X135556410Y-80396410D01*
X135687685Y-80236450D01*
X135785232Y-80053954D01*
X135805406Y-79987446D01*
X135843702Y-79929010D01*
X135907514Y-79900553D01*
X135976581Y-79911112D01*
X136028975Y-79957336D01*
X136043841Y-79991349D01*
X136076567Y-80113486D01*
X136076570Y-80113492D01*
X136176399Y-80327578D01*
X136311894Y-80521082D01*
X136478917Y-80688105D01*
X136672421Y-80823600D01*
X136886507Y-80923429D01*
X136886516Y-80923433D01*
X137008649Y-80956158D01*
X137068310Y-80992523D01*
X137098839Y-81055369D01*
X137090545Y-81124745D01*
X137046059Y-81178623D01*
X137012552Y-81194593D01*
X136946046Y-81214767D01*
X136815358Y-81284622D01*
X136763550Y-81312315D01*
X136763548Y-81312316D01*
X136763547Y-81312317D01*
X136603589Y-81443589D01*
X136483640Y-81589750D01*
X136472315Y-81603550D01*
X136469483Y-81608849D01*
X136374769Y-81786043D01*
X136314699Y-81984067D01*
X136294417Y-82190000D01*
X136314699Y-82395932D01*
X136314700Y-82395934D01*
X136374768Y-82593954D01*
X136472315Y-82776450D01*
X136472317Y-82776452D01*
X136603589Y-82936410D01*
X136670406Y-82991244D01*
X136763550Y-83067685D01*
X136946046Y-83165232D01*
X137144066Y-83225300D01*
X137144065Y-83225300D01*
X137147142Y-83225603D01*
X137350000Y-83245583D01*
X137555934Y-83225300D01*
X137753954Y-83165232D01*
X137936450Y-83067685D01*
X138096410Y-82936410D01*
X138227685Y-82776450D01*
X138325232Y-82593954D01*
X138385300Y-82395934D01*
X138405583Y-82190000D01*
X138834417Y-82190000D01*
X138854699Y-82395932D01*
X138854700Y-82395934D01*
X138914768Y-82593954D01*
X139012315Y-82776450D01*
X139012317Y-82776452D01*
X139143589Y-82936410D01*
X139210406Y-82991244D01*
X139303550Y-83067685D01*
X139486046Y-83165232D01*
X139684066Y-83225300D01*
X139684065Y-83225300D01*
X139687142Y-83225603D01*
X139890000Y-83245583D01*
X140095934Y-83225300D01*
X140293954Y-83165232D01*
X140476450Y-83067685D01*
X140636410Y-82936410D01*
X140767685Y-82776450D01*
X140865232Y-82593954D01*
X140885406Y-82527446D01*
X140923702Y-82469010D01*
X140987514Y-82440553D01*
X141056581Y-82451112D01*
X141108975Y-82497336D01*
X141123841Y-82531349D01*
X141156567Y-82653486D01*
X141156570Y-82653492D01*
X141256399Y-82867578D01*
X141391894Y-83061082D01*
X141558917Y-83228105D01*
X141752421Y-83363600D01*
X141966507Y-83463429D01*
X141966516Y-83463433D01*
X142180000Y-83520634D01*
X142180000Y-82623012D01*
X142237007Y-82655925D01*
X142364174Y-82690000D01*
X142495826Y-82690000D01*
X142622993Y-82655925D01*
X142680000Y-82623012D01*
X142680000Y-83520633D01*
X142893483Y-83463433D01*
X142893492Y-83463429D01*
X143107578Y-83363600D01*
X143301082Y-83228105D01*
X143468105Y-83061082D01*
X143603600Y-82867578D01*
X143703429Y-82653492D01*
X143703433Y-82653483D01*
X143736158Y-82531350D01*
X143772522Y-82471690D01*
X143835369Y-82441160D01*
X143904745Y-82449454D01*
X143958623Y-82493939D01*
X143974593Y-82527447D01*
X143994768Y-82593954D01*
X144092315Y-82776450D01*
X144092317Y-82776452D01*
X144223589Y-82936410D01*
X144290406Y-82991244D01*
X144383550Y-83067685D01*
X144566046Y-83165232D01*
X144764066Y-83225300D01*
X144764065Y-83225300D01*
X144767142Y-83225603D01*
X144970000Y-83245583D01*
X145175934Y-83225300D01*
X145373954Y-83165232D01*
X145556450Y-83067685D01*
X145716410Y-82936410D01*
X145847685Y-82776450D01*
X145945232Y-82593954D01*
X146005300Y-82395934D01*
X146025583Y-82190000D01*
X146005300Y-81984066D01*
X145945232Y-81786046D01*
X145847685Y-81603550D01*
X145772897Y-81512420D01*
X145716410Y-81443589D01*
X145566115Y-81320247D01*
X145556450Y-81312315D01*
X145373954Y-81214768D01*
X145175934Y-81154700D01*
X145175932Y-81154699D01*
X145175934Y-81154699D01*
X144970000Y-81134417D01*
X144764067Y-81154699D01*
X144629736Y-81195448D01*
X144566050Y-81214767D01*
X144566043Y-81214769D01*
X144478114Y-81261769D01*
X144383550Y-81312315D01*
X144383548Y-81312316D01*
X144383547Y-81312317D01*
X144223589Y-81443589D01*
X144092317Y-81603547D01*
X143994767Y-81786046D01*
X143974593Y-81852552D01*
X143936296Y-81910990D01*
X143872483Y-81939447D01*
X143803416Y-81928886D01*
X143751023Y-81882661D01*
X143736158Y-81848649D01*
X143703433Y-81726516D01*
X143703429Y-81726507D01*
X143603600Y-81512422D01*
X143603599Y-81512420D01*
X143468113Y-81318926D01*
X143468108Y-81318920D01*
X143301082Y-81151894D01*
X143107578Y-81016399D01*
X142893492Y-80916570D01*
X142893486Y-80916567D01*
X142771349Y-80883841D01*
X142711689Y-80847476D01*
X142681160Y-80784629D01*
X142689455Y-80715253D01*
X142733940Y-80661375D01*
X142767444Y-80645407D01*
X142833954Y-80625232D01*
X143016450Y-80527685D01*
X143176410Y-80396410D01*
X143307685Y-80236450D01*
X143405232Y-80053954D01*
X143465300Y-79855934D01*
X143485583Y-79650000D01*
X143914417Y-79650000D01*
X143934699Y-79855932D01*
X143950935Y-79909454D01*
X143994768Y-80053954D01*
X144092315Y-80236450D01*
X144092317Y-80236452D01*
X144223589Y-80396410D01*
X144320209Y-80475702D01*
X144383550Y-80527685D01*
X144566046Y-80625232D01*
X144764066Y-80685300D01*
X144764065Y-80685300D01*
X144782529Y-80687118D01*
X144970000Y-80705583D01*
X145175934Y-80685300D01*
X145373954Y-80625232D01*
X145556450Y-80527685D01*
X145716410Y-80396410D01*
X145847685Y-80236450D01*
X145945232Y-80053954D01*
X145965406Y-79987446D01*
X146003702Y-79929010D01*
X146067514Y-79900553D01*
X146136581Y-79911112D01*
X146188975Y-79957336D01*
X146203841Y-79991349D01*
X146236567Y-80113486D01*
X146236570Y-80113492D01*
X146336399Y-80327578D01*
X146471894Y-80521082D01*
X146638917Y-80688105D01*
X146832421Y-80823600D01*
X147046507Y-80923429D01*
X147046516Y-80923433D01*
X147168649Y-80956158D01*
X147228310Y-80992523D01*
X147258839Y-81055369D01*
X147250545Y-81124745D01*
X147206059Y-81178623D01*
X147172552Y-81194593D01*
X147106046Y-81214767D01*
X146975358Y-81284622D01*
X146923550Y-81312315D01*
X146923548Y-81312316D01*
X146923547Y-81312317D01*
X146763589Y-81443589D01*
X146643640Y-81589750D01*
X146632315Y-81603550D01*
X146629483Y-81608849D01*
X146534769Y-81786043D01*
X146474699Y-81984067D01*
X146454417Y-82190000D01*
X146474699Y-82395932D01*
X146474700Y-82395934D01*
X146534768Y-82593954D01*
X146632315Y-82776450D01*
X146632317Y-82776452D01*
X146763589Y-82936410D01*
X146830406Y-82991244D01*
X146923550Y-83067685D01*
X147106046Y-83165232D01*
X147304066Y-83225300D01*
X147304065Y-83225300D01*
X147307142Y-83225603D01*
X147510000Y-83245583D01*
X147715934Y-83225300D01*
X147913954Y-83165232D01*
X148096450Y-83067685D01*
X148256410Y-82936410D01*
X148387685Y-82776450D01*
X148485232Y-82593954D01*
X148545300Y-82395934D01*
X148565583Y-82190000D01*
X148994417Y-82190000D01*
X149014699Y-82395932D01*
X149014700Y-82395934D01*
X149074768Y-82593954D01*
X149172315Y-82776450D01*
X149172317Y-82776452D01*
X149303589Y-82936410D01*
X149370406Y-82991244D01*
X149463550Y-83067685D01*
X149646046Y-83165232D01*
X149844066Y-83225300D01*
X149844065Y-83225300D01*
X149847142Y-83225603D01*
X150050000Y-83245583D01*
X150255934Y-83225300D01*
X150453954Y-83165232D01*
X150636450Y-83067685D01*
X150796410Y-82936410D01*
X150927685Y-82776450D01*
X151025232Y-82593954D01*
X151085300Y-82395934D01*
X151105583Y-82190000D01*
X151534417Y-82190000D01*
X151554699Y-82395932D01*
X151554700Y-82395934D01*
X151614768Y-82593954D01*
X151712315Y-82776450D01*
X151712317Y-82776452D01*
X151843589Y-82936410D01*
X151910406Y-82991244D01*
X152003550Y-83067685D01*
X152186046Y-83165232D01*
X152384066Y-83225300D01*
X152384065Y-83225300D01*
X152387142Y-83225603D01*
X152590000Y-83245583D01*
X152795934Y-83225300D01*
X152993954Y-83165232D01*
X153176450Y-83067685D01*
X153336410Y-82936410D01*
X153467685Y-82776450D01*
X153565232Y-82593954D01*
X153625300Y-82395934D01*
X153645583Y-82190000D01*
X153625300Y-81984066D01*
X153565232Y-81786046D01*
X153467685Y-81603550D01*
X153392897Y-81512420D01*
X153336410Y-81443589D01*
X153186115Y-81320247D01*
X153176450Y-81312315D01*
X152993954Y-81214768D01*
X152795934Y-81154700D01*
X152795932Y-81154699D01*
X152795934Y-81154699D01*
X152590000Y-81134417D01*
X152384067Y-81154699D01*
X152249736Y-81195448D01*
X152186050Y-81214767D01*
X152186043Y-81214769D01*
X152098114Y-81261769D01*
X152003550Y-81312315D01*
X152003548Y-81312316D01*
X152003547Y-81312317D01*
X151843589Y-81443589D01*
X151723640Y-81589750D01*
X151712315Y-81603550D01*
X151709483Y-81608849D01*
X151614769Y-81786043D01*
X151554699Y-81984067D01*
X151534417Y-82190000D01*
X151105583Y-82190000D01*
X151085300Y-81984066D01*
X151025232Y-81786046D01*
X150927685Y-81603550D01*
X150852897Y-81512420D01*
X150796410Y-81443589D01*
X150646115Y-81320247D01*
X150636450Y-81312315D01*
X150453954Y-81214768D01*
X150255934Y-81154700D01*
X150255932Y-81154699D01*
X150255934Y-81154699D01*
X150050000Y-81134417D01*
X149844067Y-81154699D01*
X149709736Y-81195448D01*
X149646050Y-81214767D01*
X149646043Y-81214769D01*
X149558114Y-81261769D01*
X149463550Y-81312315D01*
X149463548Y-81312316D01*
X149463547Y-81312317D01*
X149303589Y-81443589D01*
X149183640Y-81589750D01*
X149172315Y-81603550D01*
X149169483Y-81608849D01*
X149074769Y-81786043D01*
X149014699Y-81984067D01*
X148994417Y-82190000D01*
X148565583Y-82190000D01*
X148545300Y-81984066D01*
X148485232Y-81786046D01*
X148387685Y-81603550D01*
X148312897Y-81512420D01*
X148256410Y-81443589D01*
X148106115Y-81320247D01*
X148096450Y-81312315D01*
X147913954Y-81214768D01*
X147847447Y-81194593D01*
X147789009Y-81156296D01*
X147760553Y-81092484D01*
X147771113Y-81023417D01*
X147817337Y-80971023D01*
X147851350Y-80956158D01*
X147973483Y-80923433D01*
X147973492Y-80923429D01*
X148187578Y-80823600D01*
X148381082Y-80688105D01*
X148548105Y-80521082D01*
X148683600Y-80327578D01*
X148783429Y-80113492D01*
X148783433Y-80113483D01*
X148816158Y-79991350D01*
X148852522Y-79931690D01*
X148915369Y-79901160D01*
X148984745Y-79909454D01*
X149038623Y-79953939D01*
X149054593Y-79987447D01*
X149074768Y-80053954D01*
X149172315Y-80236450D01*
X149172317Y-80236452D01*
X149303589Y-80396410D01*
X149400209Y-80475702D01*
X149463550Y-80527685D01*
X149646046Y-80625232D01*
X149844066Y-80685300D01*
X149844065Y-80685300D01*
X149862529Y-80687118D01*
X150050000Y-80705583D01*
X150255934Y-80685300D01*
X150453954Y-80625232D01*
X150636450Y-80527685D01*
X150796410Y-80396410D01*
X150927685Y-80236450D01*
X151025232Y-80053954D01*
X151085300Y-79855934D01*
X151105583Y-79650000D01*
X151534417Y-79650000D01*
X151554699Y-79855932D01*
X151570935Y-79909454D01*
X151614768Y-80053954D01*
X151712315Y-80236450D01*
X151712317Y-80236452D01*
X151843589Y-80396410D01*
X151940209Y-80475702D01*
X152003550Y-80527685D01*
X152186046Y-80625232D01*
X152384066Y-80685300D01*
X152384065Y-80685300D01*
X152402529Y-80687118D01*
X152590000Y-80705583D01*
X152795934Y-80685300D01*
X152993954Y-80625232D01*
X153176450Y-80527685D01*
X153336410Y-80396410D01*
X153467685Y-80236450D01*
X153565232Y-80053954D01*
X153585406Y-79987446D01*
X153623702Y-79929010D01*
X153687514Y-79900553D01*
X153756581Y-79911112D01*
X153808975Y-79957336D01*
X153823841Y-79991349D01*
X153856567Y-80113486D01*
X153856570Y-80113492D01*
X153956399Y-80327578D01*
X154091894Y-80521082D01*
X154258917Y-80688105D01*
X154452421Y-80823600D01*
X154666507Y-80923429D01*
X154666516Y-80923433D01*
X154788649Y-80956158D01*
X154848310Y-80992523D01*
X154878839Y-81055369D01*
X154870545Y-81124745D01*
X154826059Y-81178623D01*
X154792552Y-81194593D01*
X154726046Y-81214767D01*
X154595358Y-81284622D01*
X154543550Y-81312315D01*
X154543548Y-81312316D01*
X154543547Y-81312317D01*
X154383589Y-81443589D01*
X154263640Y-81589750D01*
X154252315Y-81603550D01*
X154249483Y-81608849D01*
X154154769Y-81786043D01*
X154094699Y-81984067D01*
X154074417Y-82190000D01*
X154094699Y-82395932D01*
X154094700Y-82395934D01*
X154154768Y-82593954D01*
X154252315Y-82776450D01*
X154252317Y-82776452D01*
X154383589Y-82936410D01*
X154450406Y-82991244D01*
X154543550Y-83067685D01*
X154726046Y-83165232D01*
X154924066Y-83225300D01*
X154924065Y-83225300D01*
X154927142Y-83225603D01*
X155130000Y-83245583D01*
X155335934Y-83225300D01*
X155533954Y-83165232D01*
X155716450Y-83067685D01*
X155876410Y-82936410D01*
X156007685Y-82776450D01*
X156105232Y-82593954D01*
X156165300Y-82395934D01*
X156185583Y-82190000D01*
X156614417Y-82190000D01*
X156634699Y-82395932D01*
X156634700Y-82395934D01*
X156694768Y-82593954D01*
X156792315Y-82776450D01*
X156792317Y-82776452D01*
X156923589Y-82936410D01*
X156990406Y-82991244D01*
X157083550Y-83067685D01*
X157266046Y-83165232D01*
X157464066Y-83225300D01*
X157464065Y-83225300D01*
X157467142Y-83225603D01*
X157670000Y-83245583D01*
X157875934Y-83225300D01*
X158073954Y-83165232D01*
X158256450Y-83067685D01*
X158416410Y-82936410D01*
X158547685Y-82776450D01*
X158645232Y-82593954D01*
X158705300Y-82395934D01*
X158725583Y-82190000D01*
X159154417Y-82190000D01*
X159174699Y-82395932D01*
X159174700Y-82395934D01*
X159234768Y-82593954D01*
X159332315Y-82776450D01*
X159332317Y-82776452D01*
X159463589Y-82936410D01*
X159530406Y-82991244D01*
X159623550Y-83067685D01*
X159806046Y-83165232D01*
X160004066Y-83225300D01*
X160004065Y-83225300D01*
X160007142Y-83225603D01*
X160210000Y-83245583D01*
X160415934Y-83225300D01*
X160613954Y-83165232D01*
X160796450Y-83067685D01*
X160956410Y-82936410D01*
X161087685Y-82776450D01*
X161185232Y-82593954D01*
X161205406Y-82527446D01*
X161243702Y-82469010D01*
X161307514Y-82440553D01*
X161376581Y-82451112D01*
X161428975Y-82497336D01*
X161443841Y-82531349D01*
X161476567Y-82653486D01*
X161476570Y-82653492D01*
X161576399Y-82867578D01*
X161711894Y-83061082D01*
X161878917Y-83228105D01*
X162072421Y-83363600D01*
X162286507Y-83463429D01*
X162286516Y-83463433D01*
X162500000Y-83520634D01*
X162500000Y-82623012D01*
X162557007Y-82655925D01*
X162684174Y-82690000D01*
X162815826Y-82690000D01*
X162942993Y-82655925D01*
X163000000Y-82623012D01*
X163000000Y-83520633D01*
X163213483Y-83463433D01*
X163213492Y-83463429D01*
X163427578Y-83363600D01*
X163621082Y-83228105D01*
X163788105Y-83061082D01*
X163923600Y-82867578D01*
X164023429Y-82653492D01*
X164023433Y-82653483D01*
X164056158Y-82531350D01*
X164092522Y-82471690D01*
X164155369Y-82441160D01*
X164224745Y-82449454D01*
X164278623Y-82493939D01*
X164294593Y-82527447D01*
X164314768Y-82593954D01*
X164412315Y-82776450D01*
X164412317Y-82776452D01*
X164543589Y-82936410D01*
X164610406Y-82991244D01*
X164703550Y-83067685D01*
X164886046Y-83165232D01*
X165084066Y-83225300D01*
X165084065Y-83225300D01*
X165087142Y-83225603D01*
X165290000Y-83245583D01*
X165495934Y-83225300D01*
X165693954Y-83165232D01*
X165876450Y-83067685D01*
X166036410Y-82936410D01*
X166167685Y-82776450D01*
X166265232Y-82593954D01*
X166325300Y-82395934D01*
X166345583Y-82190000D01*
X166325300Y-81984066D01*
X166265232Y-81786046D01*
X166167685Y-81603550D01*
X166092897Y-81512420D01*
X166036410Y-81443589D01*
X165886115Y-81320247D01*
X165876450Y-81312315D01*
X165693954Y-81214768D01*
X165495934Y-81154700D01*
X165495932Y-81154699D01*
X165495934Y-81154699D01*
X165290000Y-81134417D01*
X165084067Y-81154699D01*
X164949736Y-81195448D01*
X164886050Y-81214767D01*
X164886043Y-81214769D01*
X164798114Y-81261769D01*
X164703550Y-81312315D01*
X164703548Y-81312316D01*
X164703547Y-81312317D01*
X164543589Y-81443589D01*
X164412317Y-81603547D01*
X164314767Y-81786046D01*
X164294593Y-81852552D01*
X164256296Y-81910990D01*
X164192483Y-81939447D01*
X164123416Y-81928886D01*
X164071023Y-81882661D01*
X164056158Y-81848649D01*
X164023433Y-81726516D01*
X164023429Y-81726507D01*
X163923600Y-81512422D01*
X163923599Y-81512420D01*
X163788113Y-81318926D01*
X163788108Y-81318920D01*
X163621082Y-81151894D01*
X163427578Y-81016399D01*
X163213492Y-80916570D01*
X163213486Y-80916567D01*
X163091349Y-80883841D01*
X163031689Y-80847476D01*
X163001160Y-80784629D01*
X163009455Y-80715253D01*
X163053940Y-80661375D01*
X163087444Y-80645407D01*
X163153954Y-80625232D01*
X163336450Y-80527685D01*
X163496410Y-80396410D01*
X163627685Y-80236450D01*
X163725232Y-80053954D01*
X163785300Y-79855934D01*
X163805583Y-79650000D01*
X164234417Y-79650000D01*
X164254699Y-79855932D01*
X164270935Y-79909454D01*
X164314768Y-80053954D01*
X164412315Y-80236450D01*
X164412317Y-80236452D01*
X164543589Y-80396410D01*
X164640209Y-80475702D01*
X164703550Y-80527685D01*
X164886046Y-80625232D01*
X165084066Y-80685300D01*
X165084065Y-80685300D01*
X165102529Y-80687118D01*
X165290000Y-80705583D01*
X165495934Y-80685300D01*
X165693954Y-80625232D01*
X165876450Y-80527685D01*
X166036410Y-80396410D01*
X166167685Y-80236450D01*
X166265232Y-80053954D01*
X166285406Y-79987446D01*
X166323702Y-79929010D01*
X166387514Y-79900553D01*
X166456581Y-79911112D01*
X166508975Y-79957336D01*
X166523841Y-79991349D01*
X166556567Y-80113486D01*
X166556570Y-80113492D01*
X166656399Y-80327578D01*
X166791894Y-80521082D01*
X166958917Y-80688105D01*
X167152421Y-80823600D01*
X167366507Y-80923429D01*
X167366516Y-80923433D01*
X167488649Y-80956158D01*
X167548310Y-80992523D01*
X167578839Y-81055369D01*
X167570545Y-81124745D01*
X167526059Y-81178623D01*
X167492552Y-81194593D01*
X167426046Y-81214767D01*
X167295358Y-81284622D01*
X167243550Y-81312315D01*
X167243548Y-81312316D01*
X167243547Y-81312317D01*
X167083589Y-81443589D01*
X166963640Y-81589750D01*
X166952315Y-81603550D01*
X166949483Y-81608849D01*
X166854769Y-81786043D01*
X166794699Y-81984067D01*
X166774417Y-82190000D01*
X166794699Y-82395932D01*
X166794700Y-82395934D01*
X166854768Y-82593954D01*
X166952315Y-82776450D01*
X166952317Y-82776452D01*
X167083589Y-82936410D01*
X167150406Y-82991244D01*
X167243550Y-83067685D01*
X167426046Y-83165232D01*
X167624066Y-83225300D01*
X167624065Y-83225300D01*
X167627142Y-83225603D01*
X167830000Y-83245583D01*
X168035934Y-83225300D01*
X168233954Y-83165232D01*
X168416450Y-83067685D01*
X168576410Y-82936410D01*
X168707685Y-82776450D01*
X168805232Y-82593954D01*
X168865300Y-82395934D01*
X168885583Y-82190000D01*
X169314417Y-82190000D01*
X169334699Y-82395932D01*
X169334700Y-82395934D01*
X169394768Y-82593954D01*
X169492315Y-82776450D01*
X169492317Y-82776452D01*
X169623589Y-82936410D01*
X169690406Y-82991244D01*
X169783550Y-83067685D01*
X169966046Y-83165232D01*
X170164066Y-83225300D01*
X170164065Y-83225300D01*
X170167142Y-83225603D01*
X170370000Y-83245583D01*
X170575934Y-83225300D01*
X170773954Y-83165232D01*
X170956450Y-83067685D01*
X171116410Y-82936410D01*
X171247685Y-82776450D01*
X171345232Y-82593954D01*
X171405300Y-82395934D01*
X171425583Y-82190000D01*
X171405300Y-81984066D01*
X171345232Y-81786046D01*
X171247685Y-81603550D01*
X171172897Y-81512420D01*
X171116410Y-81443589D01*
X170966115Y-81320247D01*
X170956450Y-81312315D01*
X170773954Y-81214768D01*
X170575934Y-81154700D01*
X170575932Y-81154699D01*
X170575934Y-81154699D01*
X170370000Y-81134417D01*
X170164067Y-81154699D01*
X170029736Y-81195448D01*
X169966050Y-81214767D01*
X169966043Y-81214769D01*
X169878114Y-81261769D01*
X169783550Y-81312315D01*
X169783548Y-81312316D01*
X169783547Y-81312317D01*
X169623589Y-81443589D01*
X169503640Y-81589750D01*
X169492315Y-81603550D01*
X169489483Y-81608849D01*
X169394769Y-81786043D01*
X169334699Y-81984067D01*
X169314417Y-82190000D01*
X168885583Y-82190000D01*
X168865300Y-81984066D01*
X168805232Y-81786046D01*
X168707685Y-81603550D01*
X168632897Y-81512420D01*
X168576410Y-81443589D01*
X168426115Y-81320247D01*
X168416450Y-81312315D01*
X168233954Y-81214768D01*
X168167447Y-81194593D01*
X168109009Y-81156296D01*
X168080553Y-81092484D01*
X168091113Y-81023417D01*
X168137337Y-80971023D01*
X168171350Y-80956158D01*
X168293483Y-80923433D01*
X168293492Y-80923429D01*
X168507578Y-80823600D01*
X168701082Y-80688105D01*
X168868105Y-80521082D01*
X169003600Y-80327578D01*
X169103429Y-80113492D01*
X169103433Y-80113483D01*
X169136158Y-79991350D01*
X169172522Y-79931690D01*
X169235369Y-79901160D01*
X169304745Y-79909454D01*
X169358623Y-79953939D01*
X169374593Y-79987447D01*
X169394768Y-80053954D01*
X169492315Y-80236450D01*
X169492317Y-80236452D01*
X169623589Y-80396410D01*
X169720209Y-80475702D01*
X169783550Y-80527685D01*
X169966046Y-80625232D01*
X170164066Y-80685300D01*
X170164065Y-80685300D01*
X170182529Y-80687118D01*
X170370000Y-80705583D01*
X170575934Y-80685300D01*
X170773954Y-80625232D01*
X170956450Y-80527685D01*
X171116410Y-80396410D01*
X171247685Y-80236450D01*
X171345232Y-80053954D01*
X171365406Y-79987446D01*
X171403702Y-79929010D01*
X171467514Y-79900553D01*
X171536581Y-79911112D01*
X171588975Y-79957336D01*
X171603841Y-79991349D01*
X171636567Y-80113486D01*
X171636570Y-80113492D01*
X171736399Y-80327578D01*
X171871894Y-80521082D01*
X172038917Y-80688105D01*
X172232421Y-80823600D01*
X172446507Y-80923429D01*
X172446516Y-80923433D01*
X172568649Y-80956158D01*
X172628310Y-80992523D01*
X172658839Y-81055369D01*
X172650545Y-81124745D01*
X172606059Y-81178623D01*
X172572552Y-81194593D01*
X172506046Y-81214767D01*
X172375358Y-81284622D01*
X172323550Y-81312315D01*
X172323548Y-81312316D01*
X172323547Y-81312317D01*
X172163589Y-81443589D01*
X172043640Y-81589750D01*
X172032315Y-81603550D01*
X172029483Y-81608849D01*
X171934769Y-81786043D01*
X171874699Y-81984067D01*
X171854417Y-82190000D01*
X171874699Y-82395932D01*
X171874700Y-82395934D01*
X171934768Y-82593954D01*
X172032315Y-82776450D01*
X172032317Y-82776452D01*
X172163589Y-82936410D01*
X172230406Y-82991244D01*
X172323550Y-83067685D01*
X172506046Y-83165232D01*
X172704066Y-83225300D01*
X172704065Y-83225300D01*
X172707142Y-83225603D01*
X172910000Y-83245583D01*
X173115934Y-83225300D01*
X173313954Y-83165232D01*
X173496450Y-83067685D01*
X173656410Y-82936410D01*
X173787685Y-82776450D01*
X173885232Y-82593954D01*
X173945300Y-82395934D01*
X173965583Y-82190000D01*
X174394417Y-82190000D01*
X174414699Y-82395932D01*
X174414700Y-82395934D01*
X174474768Y-82593954D01*
X174572315Y-82776450D01*
X174572317Y-82776452D01*
X174703589Y-82936410D01*
X174770406Y-82991244D01*
X174863550Y-83067685D01*
X175046046Y-83165232D01*
X175244066Y-83225300D01*
X175244065Y-83225300D01*
X175247142Y-83225603D01*
X175450000Y-83245583D01*
X175655934Y-83225300D01*
X175853954Y-83165232D01*
X176036450Y-83067685D01*
X176196410Y-82936410D01*
X176327685Y-82776450D01*
X176425232Y-82593954D01*
X176485300Y-82395934D01*
X176505583Y-82190000D01*
X176934417Y-82190000D01*
X176954699Y-82395932D01*
X176954700Y-82395934D01*
X177014768Y-82593954D01*
X177112315Y-82776450D01*
X177112317Y-82776452D01*
X177243589Y-82936410D01*
X177310406Y-82991244D01*
X177403550Y-83067685D01*
X177586046Y-83165232D01*
X177784066Y-83225300D01*
X177784065Y-83225300D01*
X177787142Y-83225603D01*
X177990000Y-83245583D01*
X178195934Y-83225300D01*
X178393954Y-83165232D01*
X178576450Y-83067685D01*
X178736410Y-82936410D01*
X178867685Y-82776450D01*
X178965232Y-82593954D01*
X178985406Y-82527446D01*
X179023702Y-82469010D01*
X179087514Y-82440553D01*
X179156581Y-82451112D01*
X179208975Y-82497336D01*
X179223841Y-82531349D01*
X179256567Y-82653486D01*
X179256570Y-82653492D01*
X179356399Y-82867578D01*
X179491894Y-83061082D01*
X179658917Y-83228105D01*
X179852421Y-83363600D01*
X180066507Y-83463429D01*
X180066516Y-83463433D01*
X180280000Y-83520634D01*
X180280000Y-82623012D01*
X180337007Y-82655925D01*
X180464174Y-82690000D01*
X180595826Y-82690000D01*
X180722993Y-82655925D01*
X180780000Y-82623012D01*
X180780000Y-83520633D01*
X180993483Y-83463433D01*
X180993492Y-83463429D01*
X181207578Y-83363600D01*
X181401082Y-83228105D01*
X181568105Y-83061082D01*
X181703600Y-82867578D01*
X181803429Y-82653492D01*
X181803432Y-82653486D01*
X181860636Y-82440000D01*
X180963012Y-82440000D01*
X180995925Y-82382993D01*
X181030000Y-82255826D01*
X181030000Y-82124174D01*
X180995925Y-81997007D01*
X180963012Y-81940000D01*
X181860636Y-81940000D01*
X181860635Y-81939999D01*
X181803432Y-81726513D01*
X181803429Y-81726507D01*
X181703600Y-81512422D01*
X181703599Y-81512420D01*
X181568113Y-81318926D01*
X181568108Y-81318920D01*
X181401082Y-81151894D01*
X181207578Y-81016399D01*
X181043723Y-80939993D01*
X183994700Y-80939993D01*
X183994700Y-80940006D01*
X184013864Y-81171297D01*
X184013866Y-81171308D01*
X184070842Y-81396300D01*
X184164075Y-81608848D01*
X184291016Y-81803147D01*
X184291019Y-81803151D01*
X184291021Y-81803153D01*
X184448216Y-81973913D01*
X184448219Y-81973915D01*
X184448222Y-81973918D01*
X184631365Y-82116464D01*
X184631371Y-82116468D01*
X184631374Y-82116470D01*
X184719087Y-82163938D01*
X184817044Y-82216950D01*
X184835497Y-82226936D01*
X184872095Y-82239500D01*
X185055015Y-82302297D01*
X185055017Y-82302297D01*
X185055019Y-82302298D01*
X185283951Y-82340500D01*
X185283952Y-82340500D01*
X185516048Y-82340500D01*
X185516049Y-82340500D01*
X185744981Y-82302298D01*
X185964503Y-82226936D01*
X186168626Y-82116470D01*
X186351784Y-81973913D01*
X186508979Y-81803153D01*
X186635924Y-81608849D01*
X186729157Y-81396300D01*
X186786134Y-81171305D01*
X186787378Y-81156296D01*
X186805300Y-80940006D01*
X186805300Y-80939993D01*
X186786135Y-80708702D01*
X186786133Y-80708691D01*
X186729157Y-80483699D01*
X186635924Y-80271151D01*
X186508983Y-80076852D01*
X186508980Y-80076849D01*
X186508979Y-80076847D01*
X186351784Y-79906087D01*
X186351779Y-79906083D01*
X186351777Y-79906081D01*
X186168634Y-79763535D01*
X186168628Y-79763531D01*
X185964504Y-79653064D01*
X185964495Y-79653061D01*
X185744984Y-79577702D01*
X185573282Y-79549050D01*
X185516049Y-79539500D01*
X185283951Y-79539500D01*
X185238164Y-79547140D01*
X185055015Y-79577702D01*
X184835504Y-79653061D01*
X184835495Y-79653064D01*
X184631371Y-79763531D01*
X184631365Y-79763535D01*
X184448222Y-79906081D01*
X184448219Y-79906084D01*
X184448216Y-79906086D01*
X184448216Y-79906087D01*
X184405767Y-79952199D01*
X184291016Y-80076852D01*
X184164075Y-80271151D01*
X184070842Y-80483699D01*
X184013866Y-80708691D01*
X184013864Y-80708702D01*
X183994700Y-80939993D01*
X181043723Y-80939993D01*
X180993492Y-80916570D01*
X180993486Y-80916567D01*
X180871349Y-80883841D01*
X180811689Y-80847476D01*
X180781160Y-80784629D01*
X180789455Y-80715253D01*
X180833940Y-80661375D01*
X180867444Y-80645407D01*
X180933954Y-80625232D01*
X181116450Y-80527685D01*
X181276410Y-80396410D01*
X181407685Y-80236450D01*
X181505232Y-80053954D01*
X181565300Y-79855934D01*
X181585583Y-79650000D01*
X181565300Y-79444066D01*
X181505232Y-79246046D01*
X181407685Y-79063550D01*
X181332897Y-78972420D01*
X181276410Y-78903589D01*
X181158677Y-78806969D01*
X181116450Y-78772315D01*
X180933954Y-78674768D01*
X180735934Y-78614700D01*
X180735932Y-78614699D01*
X180735934Y-78614699D01*
X180530000Y-78594417D01*
X180324067Y-78614699D01*
X180126043Y-78674769D01*
X180045036Y-78718069D01*
X179943550Y-78772315D01*
X179943548Y-78772316D01*
X179943547Y-78772317D01*
X179783589Y-78903589D01*
X179652317Y-79063547D01*
X179652315Y-79063550D01*
X179618922Y-79126023D01*
X179554769Y-79246043D01*
X179494699Y-79444067D01*
X179474417Y-79650000D01*
X179494699Y-79855932D01*
X179510935Y-79909454D01*
X179554768Y-80053954D01*
X179652315Y-80236450D01*
X179652317Y-80236452D01*
X179783589Y-80396410D01*
X179880209Y-80475702D01*
X179943550Y-80527685D01*
X180126046Y-80625232D01*
X180192551Y-80645405D01*
X180250989Y-80683702D01*
X180279446Y-80747514D01*
X180268887Y-80816581D01*
X180222663Y-80868975D01*
X180188650Y-80883841D01*
X180066514Y-80916567D01*
X180066507Y-80916570D01*
X179852422Y-81016399D01*
X179852420Y-81016400D01*
X179658926Y-81151886D01*
X179658920Y-81151891D01*
X179491891Y-81318920D01*
X179491886Y-81318926D01*
X179356400Y-81512420D01*
X179356399Y-81512422D01*
X179256570Y-81726507D01*
X179256567Y-81726514D01*
X179223841Y-81848650D01*
X179187476Y-81908310D01*
X179124629Y-81938839D01*
X179055253Y-81930544D01*
X179001375Y-81886059D01*
X178985406Y-81852552D01*
X178965232Y-81786046D01*
X178867685Y-81603550D01*
X178792897Y-81512420D01*
X178736410Y-81443589D01*
X178586115Y-81320247D01*
X178576450Y-81312315D01*
X178393954Y-81214768D01*
X178195934Y-81154700D01*
X178195932Y-81154699D01*
X178195934Y-81154699D01*
X177990000Y-81134417D01*
X177784067Y-81154699D01*
X177649736Y-81195448D01*
X177586050Y-81214767D01*
X177586043Y-81214769D01*
X177498114Y-81261769D01*
X177403550Y-81312315D01*
X177403548Y-81312316D01*
X177403547Y-81312317D01*
X177243589Y-81443589D01*
X177123640Y-81589750D01*
X177112315Y-81603550D01*
X177109483Y-81608849D01*
X177014769Y-81786043D01*
X176954699Y-81984067D01*
X176934417Y-82190000D01*
X176505583Y-82190000D01*
X176485300Y-81984066D01*
X176425232Y-81786046D01*
X176327685Y-81603550D01*
X176252897Y-81512420D01*
X176196410Y-81443589D01*
X176046115Y-81320247D01*
X176036450Y-81312315D01*
X175853954Y-81214768D01*
X175655934Y-81154700D01*
X175655932Y-81154699D01*
X175655934Y-81154699D01*
X175450000Y-81134417D01*
X175244067Y-81154699D01*
X175109736Y-81195448D01*
X175046050Y-81214767D01*
X175046043Y-81214769D01*
X174958114Y-81261769D01*
X174863550Y-81312315D01*
X174863548Y-81312316D01*
X174863547Y-81312317D01*
X174703589Y-81443589D01*
X174583640Y-81589750D01*
X174572315Y-81603550D01*
X174569483Y-81608849D01*
X174474769Y-81786043D01*
X174414699Y-81984067D01*
X174394417Y-82190000D01*
X173965583Y-82190000D01*
X173945300Y-81984066D01*
X173885232Y-81786046D01*
X173787685Y-81603550D01*
X173712897Y-81512420D01*
X173656410Y-81443589D01*
X173506115Y-81320247D01*
X173496450Y-81312315D01*
X173313954Y-81214768D01*
X173247447Y-81194593D01*
X173189009Y-81156296D01*
X173160553Y-81092484D01*
X173171113Y-81023417D01*
X173217337Y-80971023D01*
X173251350Y-80956158D01*
X173373483Y-80923433D01*
X173373492Y-80923429D01*
X173587578Y-80823600D01*
X173781082Y-80688105D01*
X173948105Y-80521082D01*
X174083600Y-80327578D01*
X174183429Y-80113492D01*
X174183433Y-80113483D01*
X174216158Y-79991350D01*
X174252522Y-79931690D01*
X174315369Y-79901160D01*
X174384745Y-79909454D01*
X174438623Y-79953939D01*
X174454593Y-79987447D01*
X174474768Y-80053954D01*
X174572315Y-80236450D01*
X174572317Y-80236452D01*
X174703589Y-80396410D01*
X174800209Y-80475702D01*
X174863550Y-80527685D01*
X175046046Y-80625232D01*
X175244066Y-80685300D01*
X175244065Y-80685300D01*
X175262529Y-80687118D01*
X175450000Y-80705583D01*
X175655934Y-80685300D01*
X175853954Y-80625232D01*
X176036450Y-80527685D01*
X176196410Y-80396410D01*
X176327685Y-80236450D01*
X176425232Y-80053954D01*
X176485300Y-79855934D01*
X176505583Y-79650000D01*
X176934417Y-79650000D01*
X176954699Y-79855932D01*
X176970935Y-79909454D01*
X177014768Y-80053954D01*
X177112315Y-80236450D01*
X177112317Y-80236452D01*
X177243589Y-80396410D01*
X177340209Y-80475702D01*
X177403550Y-80527685D01*
X177586046Y-80625232D01*
X177784066Y-80685300D01*
X177784065Y-80685300D01*
X177802529Y-80687118D01*
X177990000Y-80705583D01*
X178195934Y-80685300D01*
X178393954Y-80625232D01*
X178576450Y-80527685D01*
X178736410Y-80396410D01*
X178867685Y-80236450D01*
X178965232Y-80053954D01*
X179025300Y-79855934D01*
X179045583Y-79650000D01*
X179025300Y-79444066D01*
X178965232Y-79246046D01*
X178867685Y-79063550D01*
X178792897Y-78972420D01*
X178736410Y-78903589D01*
X178618677Y-78806969D01*
X178576450Y-78772315D01*
X178393954Y-78674768D01*
X178195934Y-78614700D01*
X178195932Y-78614699D01*
X178195934Y-78614699D01*
X177990000Y-78594417D01*
X177784067Y-78614699D01*
X177586043Y-78674769D01*
X177505036Y-78718069D01*
X177403550Y-78772315D01*
X177403548Y-78772316D01*
X177403547Y-78772317D01*
X177243589Y-78903589D01*
X177112317Y-79063547D01*
X177112315Y-79063550D01*
X177078922Y-79126023D01*
X177014769Y-79246043D01*
X176954699Y-79444067D01*
X176934417Y-79650000D01*
X176505583Y-79650000D01*
X176485300Y-79444066D01*
X176425232Y-79246046D01*
X176327685Y-79063550D01*
X176252897Y-78972420D01*
X176196410Y-78903589D01*
X176078677Y-78806969D01*
X176036450Y-78772315D01*
X175853954Y-78674768D01*
X175655934Y-78614700D01*
X175655932Y-78614699D01*
X175655934Y-78614699D01*
X175450000Y-78594417D01*
X175244067Y-78614699D01*
X175046043Y-78674769D01*
X174965036Y-78718069D01*
X174863550Y-78772315D01*
X174863548Y-78772316D01*
X174863547Y-78772317D01*
X174703589Y-78903589D01*
X174572317Y-79063547D01*
X174572315Y-79063550D01*
X174544622Y-79115358D01*
X174474767Y-79246046D01*
X174454593Y-79312552D01*
X174416296Y-79370990D01*
X174352483Y-79399447D01*
X174283416Y-79388886D01*
X174231023Y-79342661D01*
X174216158Y-79308649D01*
X174183433Y-79186516D01*
X174183429Y-79186507D01*
X174083600Y-78972422D01*
X174083599Y-78972420D01*
X173948113Y-78778926D01*
X173948108Y-78778920D01*
X173781082Y-78611894D01*
X173587578Y-78476399D01*
X173373492Y-78376570D01*
X173373486Y-78376567D01*
X173160000Y-78319364D01*
X173160000Y-79216988D01*
X173102993Y-79184075D01*
X172975826Y-79150000D01*
X172844174Y-79150000D01*
X172717007Y-79184075D01*
X172660000Y-79216988D01*
X172660000Y-78319364D01*
X172659999Y-78319364D01*
X172446513Y-78376567D01*
X172446507Y-78376570D01*
X172232422Y-78476399D01*
X172232420Y-78476400D01*
X172038926Y-78611886D01*
X172038920Y-78611891D01*
X171871891Y-78778920D01*
X171871886Y-78778926D01*
X171736400Y-78972420D01*
X171736399Y-78972422D01*
X171636570Y-79186507D01*
X171636567Y-79186514D01*
X171603841Y-79308650D01*
X171567476Y-79368310D01*
X171504629Y-79398839D01*
X171435253Y-79390544D01*
X171381375Y-79346059D01*
X171365406Y-79312552D01*
X171345232Y-79246046D01*
X171247685Y-79063550D01*
X171172897Y-78972420D01*
X171116410Y-78903589D01*
X170998677Y-78806969D01*
X170956450Y-78772315D01*
X170773954Y-78674768D01*
X170575934Y-78614700D01*
X170575932Y-78614699D01*
X170575934Y-78614699D01*
X170370000Y-78594417D01*
X170164067Y-78614699D01*
X169966043Y-78674769D01*
X169885036Y-78718069D01*
X169783550Y-78772315D01*
X169783548Y-78772316D01*
X169783547Y-78772317D01*
X169623589Y-78903589D01*
X169492317Y-79063547D01*
X169492315Y-79063550D01*
X169464622Y-79115358D01*
X169394767Y-79246046D01*
X169374593Y-79312552D01*
X169336296Y-79370990D01*
X169272483Y-79399447D01*
X169203416Y-79388886D01*
X169151023Y-79342661D01*
X169136158Y-79308649D01*
X169103433Y-79186516D01*
X169103429Y-79186507D01*
X169003600Y-78972422D01*
X169003599Y-78972420D01*
X168868113Y-78778926D01*
X168868108Y-78778920D01*
X168701082Y-78611894D01*
X168507578Y-78476399D01*
X168293492Y-78376570D01*
X168293486Y-78376567D01*
X168080000Y-78319364D01*
X168080000Y-79216988D01*
X168022993Y-79184075D01*
X167895826Y-79150000D01*
X167764174Y-79150000D01*
X167637007Y-79184075D01*
X167580000Y-79216988D01*
X167580000Y-78319364D01*
X167579999Y-78319364D01*
X167366513Y-78376567D01*
X167366507Y-78376570D01*
X167152422Y-78476399D01*
X167152420Y-78476400D01*
X166958926Y-78611886D01*
X166958920Y-78611891D01*
X166791891Y-78778920D01*
X166791886Y-78778926D01*
X166656400Y-78972420D01*
X166656399Y-78972422D01*
X166556570Y-79186507D01*
X166556567Y-79186514D01*
X166523841Y-79308650D01*
X166487476Y-79368310D01*
X166424629Y-79398839D01*
X166355253Y-79390544D01*
X166301375Y-79346059D01*
X166285406Y-79312552D01*
X166265232Y-79246046D01*
X166167685Y-79063550D01*
X166092897Y-78972420D01*
X166036410Y-78903589D01*
X165918677Y-78806969D01*
X165876450Y-78772315D01*
X165693954Y-78674768D01*
X165495934Y-78614700D01*
X165495932Y-78614699D01*
X165495934Y-78614699D01*
X165290000Y-78594417D01*
X165084067Y-78614699D01*
X164886043Y-78674769D01*
X164805036Y-78718069D01*
X164703550Y-78772315D01*
X164703548Y-78772316D01*
X164703547Y-78772317D01*
X164543589Y-78903589D01*
X164412317Y-79063547D01*
X164412315Y-79063550D01*
X164378922Y-79126023D01*
X164314769Y-79246043D01*
X164254699Y-79444067D01*
X164234417Y-79650000D01*
X163805583Y-79650000D01*
X163785300Y-79444066D01*
X163725232Y-79246046D01*
X163627685Y-79063550D01*
X163552897Y-78972420D01*
X163496410Y-78903589D01*
X163378677Y-78806969D01*
X163336450Y-78772315D01*
X163153954Y-78674768D01*
X162955934Y-78614700D01*
X162955932Y-78614699D01*
X162955934Y-78614699D01*
X162750000Y-78594417D01*
X162544067Y-78614699D01*
X162346043Y-78674769D01*
X162265036Y-78718069D01*
X162163550Y-78772315D01*
X162163548Y-78772316D01*
X162163547Y-78772317D01*
X162003589Y-78903589D01*
X161872317Y-79063547D01*
X161872315Y-79063550D01*
X161838922Y-79126023D01*
X161774769Y-79246043D01*
X161714699Y-79444067D01*
X161694417Y-79650000D01*
X161714699Y-79855932D01*
X161730935Y-79909454D01*
X161774768Y-80053954D01*
X161872315Y-80236450D01*
X161872317Y-80236452D01*
X162003589Y-80396410D01*
X162100209Y-80475702D01*
X162163550Y-80527685D01*
X162346046Y-80625232D01*
X162412551Y-80645405D01*
X162470989Y-80683702D01*
X162499446Y-80747514D01*
X162488887Y-80816581D01*
X162442663Y-80868975D01*
X162408650Y-80883841D01*
X162286514Y-80916567D01*
X162286507Y-80916570D01*
X162072422Y-81016399D01*
X162072420Y-81016400D01*
X161878926Y-81151886D01*
X161878920Y-81151891D01*
X161711891Y-81318920D01*
X161711886Y-81318926D01*
X161576400Y-81512420D01*
X161576399Y-81512422D01*
X161476570Y-81726507D01*
X161476567Y-81726514D01*
X161443841Y-81848650D01*
X161407476Y-81908310D01*
X161344629Y-81938839D01*
X161275253Y-81930544D01*
X161221375Y-81886059D01*
X161205406Y-81852552D01*
X161185232Y-81786046D01*
X161087685Y-81603550D01*
X161012897Y-81512420D01*
X160956410Y-81443589D01*
X160806115Y-81320247D01*
X160796450Y-81312315D01*
X160613954Y-81214768D01*
X160415934Y-81154700D01*
X160415932Y-81154699D01*
X160415934Y-81154699D01*
X160210000Y-81134417D01*
X160004067Y-81154699D01*
X159869736Y-81195448D01*
X159806050Y-81214767D01*
X159806043Y-81214769D01*
X159718114Y-81261769D01*
X159623550Y-81312315D01*
X159623548Y-81312316D01*
X159623547Y-81312317D01*
X159463589Y-81443589D01*
X159343640Y-81589750D01*
X159332315Y-81603550D01*
X159329483Y-81608849D01*
X159234769Y-81786043D01*
X159174699Y-81984067D01*
X159154417Y-82190000D01*
X158725583Y-82190000D01*
X158705300Y-81984066D01*
X158645232Y-81786046D01*
X158547685Y-81603550D01*
X158472897Y-81512420D01*
X158416410Y-81443589D01*
X158266115Y-81320247D01*
X158256450Y-81312315D01*
X158073954Y-81214768D01*
X157875934Y-81154700D01*
X157875932Y-81154699D01*
X157875934Y-81154699D01*
X157670000Y-81134417D01*
X157464067Y-81154699D01*
X157329736Y-81195448D01*
X157266050Y-81214767D01*
X157266043Y-81214769D01*
X157178114Y-81261769D01*
X157083550Y-81312315D01*
X157083548Y-81312316D01*
X157083547Y-81312317D01*
X156923589Y-81443589D01*
X156803640Y-81589750D01*
X156792315Y-81603550D01*
X156789483Y-81608849D01*
X156694769Y-81786043D01*
X156634699Y-81984067D01*
X156614417Y-82190000D01*
X156185583Y-82190000D01*
X156165300Y-81984066D01*
X156105232Y-81786046D01*
X156007685Y-81603550D01*
X155932897Y-81512420D01*
X155876410Y-81443589D01*
X155726115Y-81320247D01*
X155716450Y-81312315D01*
X155533954Y-81214768D01*
X155467447Y-81194593D01*
X155409009Y-81156296D01*
X155380553Y-81092484D01*
X155391113Y-81023417D01*
X155437337Y-80971023D01*
X155471350Y-80956158D01*
X155593483Y-80923433D01*
X155593492Y-80923429D01*
X155807578Y-80823600D01*
X156001082Y-80688105D01*
X156168105Y-80521082D01*
X156303600Y-80327578D01*
X156403429Y-80113492D01*
X156403433Y-80113483D01*
X156436158Y-79991350D01*
X156472522Y-79931690D01*
X156535369Y-79901160D01*
X156604745Y-79909454D01*
X156658623Y-79953939D01*
X156674593Y-79987447D01*
X156694768Y-80053954D01*
X156792315Y-80236450D01*
X156792317Y-80236452D01*
X156923589Y-80396410D01*
X157020209Y-80475702D01*
X157083550Y-80527685D01*
X157266046Y-80625232D01*
X157464066Y-80685300D01*
X157464065Y-80685300D01*
X157482529Y-80687118D01*
X157670000Y-80705583D01*
X157875934Y-80685300D01*
X158073954Y-80625232D01*
X158256450Y-80527685D01*
X158416410Y-80396410D01*
X158547685Y-80236450D01*
X158645232Y-80053954D01*
X158705300Y-79855934D01*
X158725583Y-79650000D01*
X159154417Y-79650000D01*
X159174699Y-79855932D01*
X159190935Y-79909454D01*
X159234768Y-80053954D01*
X159332315Y-80236450D01*
X159332317Y-80236452D01*
X159463589Y-80396410D01*
X159560209Y-80475702D01*
X159623550Y-80527685D01*
X159806046Y-80625232D01*
X160004066Y-80685300D01*
X160004065Y-80685300D01*
X160022529Y-80687118D01*
X160210000Y-80705583D01*
X160415934Y-80685300D01*
X160613954Y-80625232D01*
X160796450Y-80527685D01*
X160956410Y-80396410D01*
X161087685Y-80236450D01*
X161185232Y-80053954D01*
X161245300Y-79855934D01*
X161265583Y-79650000D01*
X161245300Y-79444066D01*
X161185232Y-79246046D01*
X161087685Y-79063550D01*
X161012897Y-78972420D01*
X160956410Y-78903589D01*
X160838677Y-78806969D01*
X160796450Y-78772315D01*
X160613954Y-78674768D01*
X160415934Y-78614700D01*
X160415932Y-78614699D01*
X160415934Y-78614699D01*
X160210000Y-78594417D01*
X160004067Y-78614699D01*
X159806043Y-78674769D01*
X159725036Y-78718069D01*
X159623550Y-78772315D01*
X159623548Y-78772316D01*
X159623547Y-78772317D01*
X159463589Y-78903589D01*
X159332317Y-79063547D01*
X159332315Y-79063550D01*
X159298922Y-79126023D01*
X159234769Y-79246043D01*
X159174699Y-79444067D01*
X159154417Y-79650000D01*
X158725583Y-79650000D01*
X158705300Y-79444066D01*
X158645232Y-79246046D01*
X158547685Y-79063550D01*
X158472897Y-78972420D01*
X158416410Y-78903589D01*
X158298677Y-78806969D01*
X158256450Y-78772315D01*
X158073954Y-78674768D01*
X157875934Y-78614700D01*
X157875932Y-78614699D01*
X157875934Y-78614699D01*
X157670000Y-78594417D01*
X157464067Y-78614699D01*
X157266043Y-78674769D01*
X157185036Y-78718069D01*
X157083550Y-78772315D01*
X157083548Y-78772316D01*
X157083547Y-78772317D01*
X156923589Y-78903589D01*
X156792317Y-79063547D01*
X156792315Y-79063550D01*
X156764622Y-79115358D01*
X156694767Y-79246046D01*
X156674593Y-79312552D01*
X156636296Y-79370990D01*
X156572483Y-79399447D01*
X156503416Y-79388886D01*
X156451023Y-79342661D01*
X156436158Y-79308649D01*
X156403433Y-79186516D01*
X156403429Y-79186507D01*
X156303600Y-78972422D01*
X156303599Y-78972420D01*
X156168113Y-78778926D01*
X156168108Y-78778920D01*
X156001082Y-78611894D01*
X155807578Y-78476399D01*
X155593492Y-78376570D01*
X155593486Y-78376567D01*
X155380000Y-78319364D01*
X155380000Y-79216988D01*
X155322993Y-79184075D01*
X155195826Y-79150000D01*
X155064174Y-79150000D01*
X154937007Y-79184075D01*
X154880000Y-79216988D01*
X154880000Y-78319364D01*
X154879999Y-78319364D01*
X154666513Y-78376567D01*
X154666507Y-78376570D01*
X154452422Y-78476399D01*
X154452420Y-78476400D01*
X154258926Y-78611886D01*
X154258920Y-78611891D01*
X154091891Y-78778920D01*
X154091886Y-78778926D01*
X153956400Y-78972420D01*
X153956399Y-78972422D01*
X153856570Y-79186507D01*
X153856567Y-79186514D01*
X153823841Y-79308650D01*
X153787476Y-79368310D01*
X153724629Y-79398839D01*
X153655253Y-79390544D01*
X153601375Y-79346059D01*
X153585406Y-79312552D01*
X153565232Y-79246046D01*
X153467685Y-79063550D01*
X153392897Y-78972420D01*
X153336410Y-78903589D01*
X153218677Y-78806969D01*
X153176450Y-78772315D01*
X152993954Y-78674768D01*
X152795934Y-78614700D01*
X152795932Y-78614699D01*
X152795934Y-78614699D01*
X152590000Y-78594417D01*
X152384067Y-78614699D01*
X152186043Y-78674769D01*
X152105036Y-78718069D01*
X152003550Y-78772315D01*
X152003548Y-78772316D01*
X152003547Y-78772317D01*
X151843589Y-78903589D01*
X151712317Y-79063547D01*
X151712315Y-79063550D01*
X151678922Y-79126023D01*
X151614769Y-79246043D01*
X151554699Y-79444067D01*
X151534417Y-79650000D01*
X151105583Y-79650000D01*
X151085300Y-79444066D01*
X151025232Y-79246046D01*
X150927685Y-79063550D01*
X150852897Y-78972420D01*
X150796410Y-78903589D01*
X150678677Y-78806969D01*
X150636450Y-78772315D01*
X150453954Y-78674768D01*
X150255934Y-78614700D01*
X150255932Y-78614699D01*
X150255934Y-78614699D01*
X150050000Y-78594417D01*
X149844067Y-78614699D01*
X149646043Y-78674769D01*
X149565036Y-78718069D01*
X149463550Y-78772315D01*
X149463548Y-78772316D01*
X149463547Y-78772317D01*
X149303589Y-78903589D01*
X149172317Y-79063547D01*
X149172315Y-79063550D01*
X149144622Y-79115358D01*
X149074767Y-79246046D01*
X149054593Y-79312552D01*
X149016296Y-79370990D01*
X148952483Y-79399447D01*
X148883416Y-79388886D01*
X148831023Y-79342661D01*
X148816158Y-79308649D01*
X148783433Y-79186516D01*
X148783429Y-79186507D01*
X148683600Y-78972422D01*
X148683599Y-78972420D01*
X148548113Y-78778926D01*
X148548108Y-78778920D01*
X148381082Y-78611894D01*
X148187578Y-78476399D01*
X147973492Y-78376570D01*
X147973486Y-78376567D01*
X147760000Y-78319364D01*
X147760000Y-79216988D01*
X147702993Y-79184075D01*
X147575826Y-79150000D01*
X147444174Y-79150000D01*
X147317007Y-79184075D01*
X147260000Y-79216988D01*
X147260000Y-78319364D01*
X147259999Y-78319364D01*
X147046513Y-78376567D01*
X147046507Y-78376570D01*
X146832422Y-78476399D01*
X146832420Y-78476400D01*
X146638926Y-78611886D01*
X146638920Y-78611891D01*
X146471891Y-78778920D01*
X146471886Y-78778926D01*
X146336400Y-78972420D01*
X146336399Y-78972422D01*
X146236570Y-79186507D01*
X146236567Y-79186514D01*
X146203841Y-79308650D01*
X146167476Y-79368310D01*
X146104629Y-79398839D01*
X146035253Y-79390544D01*
X145981375Y-79346059D01*
X145965406Y-79312552D01*
X145945232Y-79246046D01*
X145847685Y-79063550D01*
X145772897Y-78972420D01*
X145716410Y-78903589D01*
X145598677Y-78806969D01*
X145556450Y-78772315D01*
X145373954Y-78674768D01*
X145175934Y-78614700D01*
X145175932Y-78614699D01*
X145175934Y-78614699D01*
X144970000Y-78594417D01*
X144764067Y-78614699D01*
X144566043Y-78674769D01*
X144485036Y-78718069D01*
X144383550Y-78772315D01*
X144383548Y-78772316D01*
X144383547Y-78772317D01*
X144223589Y-78903589D01*
X144092317Y-79063547D01*
X144092315Y-79063550D01*
X144058922Y-79126023D01*
X143994769Y-79246043D01*
X143934699Y-79444067D01*
X143914417Y-79650000D01*
X143485583Y-79650000D01*
X143465300Y-79444066D01*
X143405232Y-79246046D01*
X143307685Y-79063550D01*
X143232897Y-78972420D01*
X143176410Y-78903589D01*
X143058677Y-78806969D01*
X143016450Y-78772315D01*
X142833954Y-78674768D01*
X142635934Y-78614700D01*
X142635932Y-78614699D01*
X142635934Y-78614699D01*
X142430000Y-78594417D01*
X142224067Y-78614699D01*
X142026043Y-78674769D01*
X141945036Y-78718069D01*
X141843550Y-78772315D01*
X141843548Y-78772316D01*
X141843547Y-78772317D01*
X141683589Y-78903589D01*
X141552317Y-79063547D01*
X141552315Y-79063550D01*
X141518922Y-79126023D01*
X141454769Y-79246043D01*
X141394699Y-79444067D01*
X141374417Y-79650000D01*
X141394699Y-79855932D01*
X141410935Y-79909454D01*
X141454768Y-80053954D01*
X141552315Y-80236450D01*
X141552317Y-80236452D01*
X141683589Y-80396410D01*
X141780209Y-80475702D01*
X141843550Y-80527685D01*
X142026046Y-80625232D01*
X142092551Y-80645405D01*
X142150989Y-80683702D01*
X142179446Y-80747514D01*
X142168887Y-80816581D01*
X142122663Y-80868975D01*
X142088650Y-80883841D01*
X141966514Y-80916567D01*
X141966507Y-80916570D01*
X141752422Y-81016399D01*
X141752420Y-81016400D01*
X141558926Y-81151886D01*
X141558920Y-81151891D01*
X141391891Y-81318920D01*
X141391886Y-81318926D01*
X141256400Y-81512420D01*
X141256399Y-81512422D01*
X141156570Y-81726507D01*
X141156567Y-81726514D01*
X141123841Y-81848650D01*
X141087476Y-81908310D01*
X141024629Y-81938839D01*
X140955253Y-81930544D01*
X140901375Y-81886059D01*
X140885406Y-81852552D01*
X140865232Y-81786046D01*
X140767685Y-81603550D01*
X140692897Y-81512420D01*
X140636410Y-81443589D01*
X140486115Y-81320247D01*
X140476450Y-81312315D01*
X140293954Y-81214768D01*
X140095934Y-81154700D01*
X140095932Y-81154699D01*
X140095934Y-81154699D01*
X139890000Y-81134417D01*
X139684067Y-81154699D01*
X139549736Y-81195448D01*
X139486050Y-81214767D01*
X139486043Y-81214769D01*
X139398114Y-81261769D01*
X139303550Y-81312315D01*
X139303548Y-81312316D01*
X139303547Y-81312317D01*
X139143589Y-81443589D01*
X139023640Y-81589750D01*
X139012315Y-81603550D01*
X139009483Y-81608849D01*
X138914769Y-81786043D01*
X138854699Y-81984067D01*
X138834417Y-82190000D01*
X138405583Y-82190000D01*
X138385300Y-81984066D01*
X138325232Y-81786046D01*
X138227685Y-81603550D01*
X138152897Y-81512420D01*
X138096410Y-81443589D01*
X137946115Y-81320247D01*
X137936450Y-81312315D01*
X137753954Y-81214768D01*
X137687447Y-81194593D01*
X137629009Y-81156296D01*
X137600553Y-81092484D01*
X137611113Y-81023417D01*
X137657337Y-80971023D01*
X137691350Y-80956158D01*
X137813483Y-80923433D01*
X137813492Y-80923429D01*
X138027578Y-80823600D01*
X138221082Y-80688105D01*
X138388105Y-80521082D01*
X138523600Y-80327578D01*
X138623429Y-80113492D01*
X138623433Y-80113483D01*
X138656158Y-79991350D01*
X138692522Y-79931690D01*
X138755369Y-79901160D01*
X138824745Y-79909454D01*
X138878623Y-79953939D01*
X138894593Y-79987447D01*
X138914768Y-80053954D01*
X139012315Y-80236450D01*
X139012317Y-80236452D01*
X139143589Y-80396410D01*
X139240209Y-80475702D01*
X139303550Y-80527685D01*
X139486046Y-80625232D01*
X139684066Y-80685300D01*
X139684065Y-80685300D01*
X139702529Y-80687118D01*
X139890000Y-80705583D01*
X140095934Y-80685300D01*
X140293954Y-80625232D01*
X140476450Y-80527685D01*
X140636410Y-80396410D01*
X140767685Y-80236450D01*
X140865232Y-80053954D01*
X140925300Y-79855934D01*
X140945583Y-79650000D01*
X140925300Y-79444066D01*
X140865232Y-79246046D01*
X140767685Y-79063550D01*
X140692897Y-78972420D01*
X140636410Y-78903589D01*
X140518677Y-78806969D01*
X140476450Y-78772315D01*
X140293954Y-78674768D01*
X140095934Y-78614700D01*
X140095932Y-78614699D01*
X140095934Y-78614699D01*
X139890000Y-78594417D01*
X139684067Y-78614699D01*
X139486043Y-78674769D01*
X139405036Y-78718069D01*
X139303550Y-78772315D01*
X139303548Y-78772316D01*
X139303547Y-78772317D01*
X139143589Y-78903589D01*
X139012317Y-79063547D01*
X139012315Y-79063550D01*
X138984622Y-79115358D01*
X138914767Y-79246046D01*
X138894593Y-79312552D01*
X138856296Y-79370990D01*
X138792483Y-79399447D01*
X138723416Y-79388886D01*
X138671023Y-79342661D01*
X138656158Y-79308649D01*
X138623433Y-79186516D01*
X138623429Y-79186507D01*
X138523600Y-78972422D01*
X138523599Y-78972420D01*
X138388113Y-78778926D01*
X138388108Y-78778920D01*
X138221082Y-78611894D01*
X138027578Y-78476399D01*
X137813492Y-78376570D01*
X137813486Y-78376567D01*
X137600000Y-78319364D01*
X137600000Y-79216988D01*
X137542993Y-79184075D01*
X137415826Y-79150000D01*
X137284174Y-79150000D01*
X137157007Y-79184075D01*
X137100000Y-79216988D01*
X137100000Y-78319364D01*
X137099999Y-78319364D01*
X136886513Y-78376567D01*
X136886507Y-78376570D01*
X136672422Y-78476399D01*
X136672420Y-78476400D01*
X136478926Y-78611886D01*
X136478920Y-78611891D01*
X136311891Y-78778920D01*
X136311886Y-78778926D01*
X136176400Y-78972420D01*
X136176399Y-78972422D01*
X136076570Y-79186507D01*
X136076567Y-79186514D01*
X136043841Y-79308650D01*
X136007476Y-79368310D01*
X135944629Y-79398839D01*
X135875253Y-79390544D01*
X135821375Y-79346059D01*
X135805406Y-79312552D01*
X135785232Y-79246046D01*
X135687685Y-79063550D01*
X135612897Y-78972420D01*
X135556410Y-78903589D01*
X135438677Y-78806969D01*
X135396450Y-78772315D01*
X135213954Y-78674768D01*
X135015934Y-78614700D01*
X135015932Y-78614699D01*
X135015934Y-78614699D01*
X134810000Y-78594417D01*
X134604067Y-78614699D01*
X134406043Y-78674769D01*
X134325036Y-78718069D01*
X134223550Y-78772315D01*
X134223548Y-78772316D01*
X134223547Y-78772317D01*
X134063589Y-78903589D01*
X133932317Y-79063547D01*
X133932315Y-79063550D01*
X133898922Y-79126023D01*
X133834769Y-79246043D01*
X133774699Y-79444067D01*
X133754417Y-79650000D01*
X133774699Y-79855932D01*
X133834769Y-80053956D01*
X133842379Y-80068193D01*
X133856620Y-80136596D01*
X133831619Y-80201840D01*
X133820701Y-80214326D01*
X133475489Y-80559540D01*
X133419541Y-80615487D01*
X133419535Y-80615495D01*
X133379982Y-80684004D01*
X133379979Y-80684009D01*
X133359500Y-80760439D01*
X133359500Y-81032353D01*
X133339815Y-81099392D01*
X133287011Y-81145147D01*
X133217853Y-81155091D01*
X133210308Y-81153021D01*
X133210210Y-81153515D01*
X133139752Y-81139500D01*
X133139748Y-81139500D01*
X131400252Y-81139500D01*
X131400247Y-81139500D01*
X131341770Y-81151131D01*
X131341769Y-81151132D01*
X131275447Y-81195447D01*
X131231132Y-81261769D01*
X131231131Y-81261770D01*
X131219500Y-81320247D01*
X131219500Y-83059752D01*
X131231131Y-83118229D01*
X131231132Y-83118230D01*
X131275447Y-83184552D01*
X131341769Y-83228867D01*
X131341770Y-83228868D01*
X131400247Y-83240499D01*
X131400250Y-83240500D01*
X131400252Y-83240500D01*
X133139750Y-83240500D01*
X133139751Y-83240499D01*
X133154485Y-83237568D01*
X133210210Y-83226485D01*
X133211032Y-83230621D01*
X133257443Y-83225603D01*
X133319941Y-83256840D01*
X133355630Y-83316907D01*
X133359500Y-83347646D01*
X133359500Y-85139166D01*
X133339815Y-85206205D01*
X133323181Y-85226847D01*
X128173715Y-90376312D01*
X128112392Y-90409797D01*
X128042700Y-90404813D01*
X128038600Y-90403199D01*
X128006420Y-90389870D01*
X128006412Y-90389868D01*
X127803469Y-90349500D01*
X127803465Y-90349500D01*
X127346535Y-90349500D01*
X127346530Y-90349500D01*
X127143587Y-90389868D01*
X127143579Y-90389870D01*
X126952403Y-90469058D01*
X126780342Y-90584024D01*
X126634024Y-90730342D01*
X126519058Y-90902403D01*
X126439870Y-91093579D01*
X126439868Y-91093587D01*
X126399500Y-91296530D01*
X124150500Y-91296530D01*
X124150500Y-80939993D01*
X125984700Y-80939993D01*
X125984700Y-80940006D01*
X126003864Y-81171297D01*
X126003866Y-81171308D01*
X126060842Y-81396300D01*
X126154075Y-81608848D01*
X126281016Y-81803147D01*
X126281019Y-81803151D01*
X126281021Y-81803153D01*
X126438216Y-81973913D01*
X126438219Y-81973915D01*
X126438222Y-81973918D01*
X126621365Y-82116464D01*
X126621371Y-82116468D01*
X126621374Y-82116470D01*
X126709087Y-82163938D01*
X126807044Y-82216950D01*
X126825497Y-82226936D01*
X126862095Y-82239500D01*
X127045015Y-82302297D01*
X127045017Y-82302297D01*
X127045019Y-82302298D01*
X127273951Y-82340500D01*
X127273952Y-82340500D01*
X127506048Y-82340500D01*
X127506049Y-82340500D01*
X127734981Y-82302298D01*
X127954503Y-82226936D01*
X128158626Y-82116470D01*
X128341784Y-81973913D01*
X128498979Y-81803153D01*
X128625924Y-81608849D01*
X128719157Y-81396300D01*
X128776134Y-81171305D01*
X128777378Y-81156296D01*
X128795300Y-80940006D01*
X128795300Y-80939993D01*
X128776135Y-80708702D01*
X128776133Y-80708691D01*
X128719157Y-80483699D01*
X128625924Y-80271151D01*
X128498983Y-80076852D01*
X128498980Y-80076849D01*
X128498979Y-80076847D01*
X128341784Y-79906087D01*
X128341779Y-79906083D01*
X128341777Y-79906081D01*
X128158634Y-79763535D01*
X128158628Y-79763531D01*
X127954504Y-79653064D01*
X127954495Y-79653061D01*
X127945579Y-79650000D01*
X131214417Y-79650000D01*
X131234699Y-79855932D01*
X131250935Y-79909454D01*
X131294768Y-80053954D01*
X131392315Y-80236450D01*
X131392317Y-80236452D01*
X131523589Y-80396410D01*
X131620209Y-80475702D01*
X131683550Y-80527685D01*
X131866046Y-80625232D01*
X132064066Y-80685300D01*
X132064065Y-80685300D01*
X132082529Y-80687118D01*
X132270000Y-80705583D01*
X132475934Y-80685300D01*
X132673954Y-80625232D01*
X132856450Y-80527685D01*
X133016410Y-80396410D01*
X133147685Y-80236450D01*
X133245232Y-80053954D01*
X133305300Y-79855934D01*
X133325583Y-79650000D01*
X133305300Y-79444066D01*
X133245232Y-79246046D01*
X133147685Y-79063550D01*
X133072897Y-78972420D01*
X133016410Y-78903589D01*
X132898677Y-78806969D01*
X132856450Y-78772315D01*
X132673954Y-78674768D01*
X132475934Y-78614700D01*
X132475932Y-78614699D01*
X132475934Y-78614699D01*
X132270000Y-78594417D01*
X132064067Y-78614699D01*
X131866043Y-78674769D01*
X131785036Y-78718069D01*
X131683550Y-78772315D01*
X131683548Y-78772316D01*
X131683547Y-78772317D01*
X131523589Y-78903589D01*
X131392317Y-79063547D01*
X131392315Y-79063550D01*
X131358922Y-79126023D01*
X131294769Y-79246043D01*
X131234699Y-79444067D01*
X131214417Y-79650000D01*
X127945579Y-79650000D01*
X127734984Y-79577702D01*
X127563282Y-79549050D01*
X127506049Y-79539500D01*
X127273951Y-79539500D01*
X127228164Y-79547140D01*
X127045015Y-79577702D01*
X126825504Y-79653061D01*
X126825495Y-79653064D01*
X126621371Y-79763531D01*
X126621365Y-79763535D01*
X126438222Y-79906081D01*
X126438219Y-79906084D01*
X126438216Y-79906086D01*
X126438216Y-79906087D01*
X126395767Y-79952199D01*
X126281016Y-80076852D01*
X126154075Y-80271151D01*
X126060842Y-80483699D01*
X126003866Y-80708691D01*
X126003864Y-80708702D01*
X125984700Y-80939993D01*
X124150500Y-80939993D01*
X124150500Y-79379670D01*
X124159939Y-79332218D01*
X124187787Y-79264985D01*
X124236246Y-79147994D01*
X124242268Y-79135487D01*
X124395543Y-78858158D01*
X124402922Y-78846415D01*
X124586289Y-78587984D01*
X124594927Y-78577152D01*
X124806074Y-78340878D01*
X124815886Y-78331066D01*
X125052158Y-78119921D01*
X125062995Y-78111280D01*
X125321423Y-77927917D01*
X125333178Y-77920531D01*
X125610488Y-77767270D01*
X125623011Y-77761239D01*
X125746862Y-77709938D01*
X125794314Y-77700500D01*
X187005090Y-77700500D01*
X187052544Y-77709939D01*
G37*
G04 #@! TD.AperFunction*
M02*
