G04 #@! TF.GenerationSoftware,KiCad,Pcbnew,8.0.5*
G04 #@! TF.CreationDate,2025-01-09T22:31:05-06:00*
G04 #@! TF.ProjectId,auxkit_HAT,6175786b-6974-45f4-9841-542e6b696361,rev?*
G04 #@! TF.SameCoordinates,Original*
G04 #@! TF.FileFunction,Legend,Bot*
G04 #@! TF.FilePolarity,Positive*
%FSLAX46Y46*%
G04 Gerber Fmt 4.6, Leading zero omitted, Abs format (unit mm)*
G04 Created by KiCad (PCBNEW 8.0.5) date 2025-01-09 22:31:05*
%MOMM*%
%LPD*%
G01*
G04 APERTURE LIST*
%ADD10C,0.150000*%
%ADD11C,0.120000*%
G04 APERTURE END LIST*
D10*
X134904819Y-118507142D02*
X134428628Y-118173809D01*
X134904819Y-117935714D02*
X133904819Y-117935714D01*
X133904819Y-117935714D02*
X133904819Y-118316666D01*
X133904819Y-118316666D02*
X133952438Y-118411904D01*
X133952438Y-118411904D02*
X134000057Y-118459523D01*
X134000057Y-118459523D02*
X134095295Y-118507142D01*
X134095295Y-118507142D02*
X134238152Y-118507142D01*
X134238152Y-118507142D02*
X134333390Y-118459523D01*
X134333390Y-118459523D02*
X134381009Y-118411904D01*
X134381009Y-118411904D02*
X134428628Y-118316666D01*
X134428628Y-118316666D02*
X134428628Y-117935714D01*
X134000057Y-118888095D02*
X133952438Y-118935714D01*
X133952438Y-118935714D02*
X133904819Y-119030952D01*
X133904819Y-119030952D02*
X133904819Y-119269047D01*
X133904819Y-119269047D02*
X133952438Y-119364285D01*
X133952438Y-119364285D02*
X134000057Y-119411904D01*
X134000057Y-119411904D02*
X134095295Y-119459523D01*
X134095295Y-119459523D02*
X134190533Y-119459523D01*
X134190533Y-119459523D02*
X134333390Y-119411904D01*
X134333390Y-119411904D02*
X134904819Y-118840476D01*
X134904819Y-118840476D02*
X134904819Y-119459523D01*
X133904819Y-120078571D02*
X133904819Y-120173809D01*
X133904819Y-120173809D02*
X133952438Y-120269047D01*
X133952438Y-120269047D02*
X134000057Y-120316666D01*
X134000057Y-120316666D02*
X134095295Y-120364285D01*
X134095295Y-120364285D02*
X134285771Y-120411904D01*
X134285771Y-120411904D02*
X134523866Y-120411904D01*
X134523866Y-120411904D02*
X134714342Y-120364285D01*
X134714342Y-120364285D02*
X134809580Y-120316666D01*
X134809580Y-120316666D02*
X134857200Y-120269047D01*
X134857200Y-120269047D02*
X134904819Y-120173809D01*
X134904819Y-120173809D02*
X134904819Y-120078571D01*
X134904819Y-120078571D02*
X134857200Y-119983333D01*
X134857200Y-119983333D02*
X134809580Y-119935714D01*
X134809580Y-119935714D02*
X134714342Y-119888095D01*
X134714342Y-119888095D02*
X134523866Y-119840476D01*
X134523866Y-119840476D02*
X134285771Y-119840476D01*
X134285771Y-119840476D02*
X134095295Y-119888095D01*
X134095295Y-119888095D02*
X134000057Y-119935714D01*
X134000057Y-119935714D02*
X133952438Y-119983333D01*
X133952438Y-119983333D02*
X133904819Y-120078571D01*
X177150057Y-109804761D02*
X177102438Y-109709523D01*
X177102438Y-109709523D02*
X177007200Y-109614285D01*
X177007200Y-109614285D02*
X176864342Y-109471428D01*
X176864342Y-109471428D02*
X176816723Y-109376190D01*
X176816723Y-109376190D02*
X176816723Y-109280952D01*
X177054819Y-109328571D02*
X177007200Y-109233333D01*
X177007200Y-109233333D02*
X176911961Y-109138095D01*
X176911961Y-109138095D02*
X176721485Y-109090476D01*
X176721485Y-109090476D02*
X176388152Y-109090476D01*
X176388152Y-109090476D02*
X176197676Y-109138095D01*
X176197676Y-109138095D02*
X176102438Y-109233333D01*
X176102438Y-109233333D02*
X176054819Y-109328571D01*
X176054819Y-109328571D02*
X176054819Y-109519047D01*
X176054819Y-109519047D02*
X176102438Y-109614285D01*
X176102438Y-109614285D02*
X176197676Y-109709523D01*
X176197676Y-109709523D02*
X176388152Y-109757142D01*
X176388152Y-109757142D02*
X176721485Y-109757142D01*
X176721485Y-109757142D02*
X176911961Y-109709523D01*
X176911961Y-109709523D02*
X177007200Y-109614285D01*
X177007200Y-109614285D02*
X177054819Y-109519047D01*
X177054819Y-109519047D02*
X177054819Y-109328571D01*
X176054819Y-110614285D02*
X176054819Y-110423809D01*
X176054819Y-110423809D02*
X176102438Y-110328571D01*
X176102438Y-110328571D02*
X176150057Y-110280952D01*
X176150057Y-110280952D02*
X176292914Y-110185714D01*
X176292914Y-110185714D02*
X176483390Y-110138095D01*
X176483390Y-110138095D02*
X176864342Y-110138095D01*
X176864342Y-110138095D02*
X176959580Y-110185714D01*
X176959580Y-110185714D02*
X177007200Y-110233333D01*
X177007200Y-110233333D02*
X177054819Y-110328571D01*
X177054819Y-110328571D02*
X177054819Y-110519047D01*
X177054819Y-110519047D02*
X177007200Y-110614285D01*
X177007200Y-110614285D02*
X176959580Y-110661904D01*
X176959580Y-110661904D02*
X176864342Y-110709523D01*
X176864342Y-110709523D02*
X176626247Y-110709523D01*
X176626247Y-110709523D02*
X176531009Y-110661904D01*
X176531009Y-110661904D02*
X176483390Y-110614285D01*
X176483390Y-110614285D02*
X176435771Y-110519047D01*
X176435771Y-110519047D02*
X176435771Y-110328571D01*
X176435771Y-110328571D02*
X176483390Y-110233333D01*
X176483390Y-110233333D02*
X176531009Y-110185714D01*
X176531009Y-110185714D02*
X176626247Y-110138095D01*
X174992857Y-90754819D02*
X175326190Y-90278628D01*
X175564285Y-90754819D02*
X175564285Y-89754819D01*
X175564285Y-89754819D02*
X175183333Y-89754819D01*
X175183333Y-89754819D02*
X175088095Y-89802438D01*
X175088095Y-89802438D02*
X175040476Y-89850057D01*
X175040476Y-89850057D02*
X174992857Y-89945295D01*
X174992857Y-89945295D02*
X174992857Y-90088152D01*
X174992857Y-90088152D02*
X175040476Y-90183390D01*
X175040476Y-90183390D02*
X175088095Y-90231009D01*
X175088095Y-90231009D02*
X175183333Y-90278628D01*
X175183333Y-90278628D02*
X175564285Y-90278628D01*
X174040476Y-90754819D02*
X174611904Y-90754819D01*
X174326190Y-90754819D02*
X174326190Y-89754819D01*
X174326190Y-89754819D02*
X174421428Y-89897676D01*
X174421428Y-89897676D02*
X174516666Y-89992914D01*
X174516666Y-89992914D02*
X174611904Y-90040533D01*
X173707142Y-89754819D02*
X173040476Y-89754819D01*
X173040476Y-89754819D02*
X173469047Y-90754819D01*
X131408334Y-102654819D02*
X131408334Y-103369104D01*
X131408334Y-103369104D02*
X131455953Y-103511961D01*
X131455953Y-103511961D02*
X131551191Y-103607200D01*
X131551191Y-103607200D02*
X131694048Y-103654819D01*
X131694048Y-103654819D02*
X131789286Y-103654819D01*
X130932143Y-103654819D02*
X130932143Y-102654819D01*
X130932143Y-102654819D02*
X130551191Y-102654819D01*
X130551191Y-102654819D02*
X130455953Y-102702438D01*
X130455953Y-102702438D02*
X130408334Y-102750057D01*
X130408334Y-102750057D02*
X130360715Y-102845295D01*
X130360715Y-102845295D02*
X130360715Y-102988152D01*
X130360715Y-102988152D02*
X130408334Y-103083390D01*
X130408334Y-103083390D02*
X130455953Y-103131009D01*
X130455953Y-103131009D02*
X130551191Y-103178628D01*
X130551191Y-103178628D02*
X130932143Y-103178628D01*
X130027381Y-102654819D02*
X129360715Y-102654819D01*
X129360715Y-102654819D02*
X129789286Y-103654819D01*
X174016666Y-104454819D02*
X174349999Y-103978628D01*
X174588094Y-104454819D02*
X174588094Y-103454819D01*
X174588094Y-103454819D02*
X174207142Y-103454819D01*
X174207142Y-103454819D02*
X174111904Y-103502438D01*
X174111904Y-103502438D02*
X174064285Y-103550057D01*
X174064285Y-103550057D02*
X174016666Y-103645295D01*
X174016666Y-103645295D02*
X174016666Y-103788152D01*
X174016666Y-103788152D02*
X174064285Y-103883390D01*
X174064285Y-103883390D02*
X174111904Y-103931009D01*
X174111904Y-103931009D02*
X174207142Y-103978628D01*
X174207142Y-103978628D02*
X174588094Y-103978628D01*
X173683332Y-103454819D02*
X173016666Y-103454819D01*
X173016666Y-103454819D02*
X173445237Y-104454819D01*
X131408333Y-100154819D02*
X131408333Y-100869104D01*
X131408333Y-100869104D02*
X131455952Y-101011961D01*
X131455952Y-101011961D02*
X131551190Y-101107200D01*
X131551190Y-101107200D02*
X131694047Y-101154819D01*
X131694047Y-101154819D02*
X131789285Y-101154819D01*
X130932142Y-101154819D02*
X130932142Y-100154819D01*
X130932142Y-100154819D02*
X130551190Y-100154819D01*
X130551190Y-100154819D02*
X130455952Y-100202438D01*
X130455952Y-100202438D02*
X130408333Y-100250057D01*
X130408333Y-100250057D02*
X130360714Y-100345295D01*
X130360714Y-100345295D02*
X130360714Y-100488152D01*
X130360714Y-100488152D02*
X130408333Y-100583390D01*
X130408333Y-100583390D02*
X130455952Y-100631009D01*
X130455952Y-100631009D02*
X130551190Y-100678628D01*
X130551190Y-100678628D02*
X130932142Y-100678628D01*
X129503571Y-100154819D02*
X129694047Y-100154819D01*
X129694047Y-100154819D02*
X129789285Y-100202438D01*
X129789285Y-100202438D02*
X129836904Y-100250057D01*
X129836904Y-100250057D02*
X129932142Y-100392914D01*
X129932142Y-100392914D02*
X129979761Y-100583390D01*
X129979761Y-100583390D02*
X129979761Y-100964342D01*
X129979761Y-100964342D02*
X129932142Y-101059580D01*
X129932142Y-101059580D02*
X129884523Y-101107200D01*
X129884523Y-101107200D02*
X129789285Y-101154819D01*
X129789285Y-101154819D02*
X129598809Y-101154819D01*
X129598809Y-101154819D02*
X129503571Y-101107200D01*
X129503571Y-101107200D02*
X129455952Y-101059580D01*
X129455952Y-101059580D02*
X129408333Y-100964342D01*
X129408333Y-100964342D02*
X129408333Y-100726247D01*
X129408333Y-100726247D02*
X129455952Y-100631009D01*
X129455952Y-100631009D02*
X129503571Y-100583390D01*
X129503571Y-100583390D02*
X129598809Y-100535771D01*
X129598809Y-100535771D02*
X129789285Y-100535771D01*
X129789285Y-100535771D02*
X129884523Y-100583390D01*
X129884523Y-100583390D02*
X129932142Y-100631009D01*
X129932142Y-100631009D02*
X129979761Y-100726247D01*
X146226189Y-112194819D02*
X146226189Y-111194819D01*
X145178571Y-112099580D02*
X145226190Y-112147200D01*
X145226190Y-112147200D02*
X145369047Y-112194819D01*
X145369047Y-112194819D02*
X145464285Y-112194819D01*
X145464285Y-112194819D02*
X145607142Y-112147200D01*
X145607142Y-112147200D02*
X145702380Y-112051961D01*
X145702380Y-112051961D02*
X145749999Y-111956723D01*
X145749999Y-111956723D02*
X145797618Y-111766247D01*
X145797618Y-111766247D02*
X145797618Y-111623390D01*
X145797618Y-111623390D02*
X145749999Y-111432914D01*
X145749999Y-111432914D02*
X145702380Y-111337676D01*
X145702380Y-111337676D02*
X145607142Y-111242438D01*
X145607142Y-111242438D02*
X145464285Y-111194819D01*
X145464285Y-111194819D02*
X145369047Y-111194819D01*
X145369047Y-111194819D02*
X145226190Y-111242438D01*
X145226190Y-111242438D02*
X145178571Y-111290057D01*
X144226190Y-112194819D02*
X144797618Y-112194819D01*
X144511904Y-112194819D02*
X144511904Y-111194819D01*
X144511904Y-111194819D02*
X144607142Y-111337676D01*
X144607142Y-111337676D02*
X144702380Y-111432914D01*
X144702380Y-111432914D02*
X144797618Y-111480533D01*
X174492857Y-105254819D02*
X174826190Y-104778628D01*
X175064285Y-105254819D02*
X175064285Y-104254819D01*
X175064285Y-104254819D02*
X174683333Y-104254819D01*
X174683333Y-104254819D02*
X174588095Y-104302438D01*
X174588095Y-104302438D02*
X174540476Y-104350057D01*
X174540476Y-104350057D02*
X174492857Y-104445295D01*
X174492857Y-104445295D02*
X174492857Y-104588152D01*
X174492857Y-104588152D02*
X174540476Y-104683390D01*
X174540476Y-104683390D02*
X174588095Y-104731009D01*
X174588095Y-104731009D02*
X174683333Y-104778628D01*
X174683333Y-104778628D02*
X175064285Y-104778628D01*
X173540476Y-105254819D02*
X174111904Y-105254819D01*
X173826190Y-105254819D02*
X173826190Y-104254819D01*
X173826190Y-104254819D02*
X173921428Y-104397676D01*
X173921428Y-104397676D02*
X174016666Y-104492914D01*
X174016666Y-104492914D02*
X174111904Y-104540533D01*
X172921428Y-104254819D02*
X172826190Y-104254819D01*
X172826190Y-104254819D02*
X172730952Y-104302438D01*
X172730952Y-104302438D02*
X172683333Y-104350057D01*
X172683333Y-104350057D02*
X172635714Y-104445295D01*
X172635714Y-104445295D02*
X172588095Y-104635771D01*
X172588095Y-104635771D02*
X172588095Y-104873866D01*
X172588095Y-104873866D02*
X172635714Y-105064342D01*
X172635714Y-105064342D02*
X172683333Y-105159580D01*
X172683333Y-105159580D02*
X172730952Y-105207200D01*
X172730952Y-105207200D02*
X172826190Y-105254819D01*
X172826190Y-105254819D02*
X172921428Y-105254819D01*
X172921428Y-105254819D02*
X173016666Y-105207200D01*
X173016666Y-105207200D02*
X173064285Y-105159580D01*
X173064285Y-105159580D02*
X173111904Y-105064342D01*
X173111904Y-105064342D02*
X173159523Y-104873866D01*
X173159523Y-104873866D02*
X173159523Y-104635771D01*
X173159523Y-104635771D02*
X173111904Y-104445295D01*
X173111904Y-104445295D02*
X173064285Y-104350057D01*
X173064285Y-104350057D02*
X173016666Y-104302438D01*
X173016666Y-104302438D02*
X172921428Y-104254819D01*
X145412476Y-128322927D02*
X145745809Y-127846736D01*
X145983904Y-128322927D02*
X145983904Y-127322927D01*
X145983904Y-127322927D02*
X145602952Y-127322927D01*
X145602952Y-127322927D02*
X145507714Y-127370546D01*
X145507714Y-127370546D02*
X145460095Y-127418165D01*
X145460095Y-127418165D02*
X145412476Y-127513403D01*
X145412476Y-127513403D02*
X145412476Y-127656260D01*
X145412476Y-127656260D02*
X145460095Y-127751498D01*
X145460095Y-127751498D02*
X145507714Y-127799117D01*
X145507714Y-127799117D02*
X145602952Y-127846736D01*
X145602952Y-127846736D02*
X145983904Y-127846736D01*
X144460095Y-128322927D02*
X145031523Y-128322927D01*
X144745809Y-128322927D02*
X144745809Y-127322927D01*
X144745809Y-127322927D02*
X144841047Y-127465784D01*
X144841047Y-127465784D02*
X144936285Y-127561022D01*
X144936285Y-127561022D02*
X145031523Y-127608641D01*
X143983904Y-128322927D02*
X143793428Y-128322927D01*
X143793428Y-128322927D02*
X143698190Y-128275308D01*
X143698190Y-128275308D02*
X143650571Y-128227688D01*
X143650571Y-128227688D02*
X143555333Y-128084831D01*
X143555333Y-128084831D02*
X143507714Y-127894355D01*
X143507714Y-127894355D02*
X143507714Y-127513403D01*
X143507714Y-127513403D02*
X143555333Y-127418165D01*
X143555333Y-127418165D02*
X143602952Y-127370546D01*
X143602952Y-127370546D02*
X143698190Y-127322927D01*
X143698190Y-127322927D02*
X143888666Y-127322927D01*
X143888666Y-127322927D02*
X143983904Y-127370546D01*
X143983904Y-127370546D02*
X144031523Y-127418165D01*
X144031523Y-127418165D02*
X144079142Y-127513403D01*
X144079142Y-127513403D02*
X144079142Y-127751498D01*
X144079142Y-127751498D02*
X144031523Y-127846736D01*
X144031523Y-127846736D02*
X143983904Y-127894355D01*
X143983904Y-127894355D02*
X143888666Y-127941974D01*
X143888666Y-127941974D02*
X143698190Y-127941974D01*
X143698190Y-127941974D02*
X143602952Y-127894355D01*
X143602952Y-127894355D02*
X143555333Y-127846736D01*
X143555333Y-127846736D02*
X143507714Y-127751498D01*
X138516666Y-89454819D02*
X138849999Y-88978628D01*
X139088094Y-89454819D02*
X139088094Y-88454819D01*
X139088094Y-88454819D02*
X138707142Y-88454819D01*
X138707142Y-88454819D02*
X138611904Y-88502438D01*
X138611904Y-88502438D02*
X138564285Y-88550057D01*
X138564285Y-88550057D02*
X138516666Y-88645295D01*
X138516666Y-88645295D02*
X138516666Y-88788152D01*
X138516666Y-88788152D02*
X138564285Y-88883390D01*
X138564285Y-88883390D02*
X138611904Y-88931009D01*
X138611904Y-88931009D02*
X138707142Y-88978628D01*
X138707142Y-88978628D02*
X139088094Y-88978628D01*
X138135713Y-88550057D02*
X138088094Y-88502438D01*
X138088094Y-88502438D02*
X137992856Y-88454819D01*
X137992856Y-88454819D02*
X137754761Y-88454819D01*
X137754761Y-88454819D02*
X137659523Y-88502438D01*
X137659523Y-88502438D02*
X137611904Y-88550057D01*
X137611904Y-88550057D02*
X137564285Y-88645295D01*
X137564285Y-88645295D02*
X137564285Y-88740533D01*
X137564285Y-88740533D02*
X137611904Y-88883390D01*
X137611904Y-88883390D02*
X138183332Y-89454819D01*
X138183332Y-89454819D02*
X137564285Y-89454819D01*
X156761904Y-123474819D02*
X156761904Y-124284342D01*
X156761904Y-124284342D02*
X156714285Y-124379580D01*
X156714285Y-124379580D02*
X156666666Y-124427200D01*
X156666666Y-124427200D02*
X156571428Y-124474819D01*
X156571428Y-124474819D02*
X156380952Y-124474819D01*
X156380952Y-124474819D02*
X156285714Y-124427200D01*
X156285714Y-124427200D02*
X156238095Y-124379580D01*
X156238095Y-124379580D02*
X156190476Y-124284342D01*
X156190476Y-124284342D02*
X156190476Y-123474819D01*
X155761904Y-123570057D02*
X155714285Y-123522438D01*
X155714285Y-123522438D02*
X155619047Y-123474819D01*
X155619047Y-123474819D02*
X155380952Y-123474819D01*
X155380952Y-123474819D02*
X155285714Y-123522438D01*
X155285714Y-123522438D02*
X155238095Y-123570057D01*
X155238095Y-123570057D02*
X155190476Y-123665295D01*
X155190476Y-123665295D02*
X155190476Y-123760533D01*
X155190476Y-123760533D02*
X155238095Y-123903390D01*
X155238095Y-123903390D02*
X155809523Y-124474819D01*
X155809523Y-124474819D02*
X155190476Y-124474819D01*
X182016666Y-105254819D02*
X182349999Y-104778628D01*
X182588094Y-105254819D02*
X182588094Y-104254819D01*
X182588094Y-104254819D02*
X182207142Y-104254819D01*
X182207142Y-104254819D02*
X182111904Y-104302438D01*
X182111904Y-104302438D02*
X182064285Y-104350057D01*
X182064285Y-104350057D02*
X182016666Y-104445295D01*
X182016666Y-104445295D02*
X182016666Y-104588152D01*
X182016666Y-104588152D02*
X182064285Y-104683390D01*
X182064285Y-104683390D02*
X182111904Y-104731009D01*
X182111904Y-104731009D02*
X182207142Y-104778628D01*
X182207142Y-104778628D02*
X182588094Y-104778628D01*
X181111904Y-104254819D02*
X181588094Y-104254819D01*
X181588094Y-104254819D02*
X181635713Y-104731009D01*
X181635713Y-104731009D02*
X181588094Y-104683390D01*
X181588094Y-104683390D02*
X181492856Y-104635771D01*
X181492856Y-104635771D02*
X181254761Y-104635771D01*
X181254761Y-104635771D02*
X181159523Y-104683390D01*
X181159523Y-104683390D02*
X181111904Y-104731009D01*
X181111904Y-104731009D02*
X181064285Y-104826247D01*
X181064285Y-104826247D02*
X181064285Y-105064342D01*
X181064285Y-105064342D02*
X181111904Y-105159580D01*
X181111904Y-105159580D02*
X181159523Y-105207200D01*
X181159523Y-105207200D02*
X181254761Y-105254819D01*
X181254761Y-105254819D02*
X181492856Y-105254819D01*
X181492856Y-105254819D02*
X181588094Y-105207200D01*
X181588094Y-105207200D02*
X181635713Y-105159580D01*
X174933333Y-89054819D02*
X174933333Y-89769104D01*
X174933333Y-89769104D02*
X174980952Y-89911961D01*
X174980952Y-89911961D02*
X175076190Y-90007200D01*
X175076190Y-90007200D02*
X175219047Y-90054819D01*
X175219047Y-90054819D02*
X175314285Y-90054819D01*
X174457142Y-90054819D02*
X174457142Y-89054819D01*
X174457142Y-89054819D02*
X174076190Y-89054819D01*
X174076190Y-89054819D02*
X173980952Y-89102438D01*
X173980952Y-89102438D02*
X173933333Y-89150057D01*
X173933333Y-89150057D02*
X173885714Y-89245295D01*
X173885714Y-89245295D02*
X173885714Y-89388152D01*
X173885714Y-89388152D02*
X173933333Y-89483390D01*
X173933333Y-89483390D02*
X173980952Y-89531009D01*
X173980952Y-89531009D02*
X174076190Y-89578628D01*
X174076190Y-89578628D02*
X174457142Y-89578628D01*
X173409523Y-90054819D02*
X173219047Y-90054819D01*
X173219047Y-90054819D02*
X173123809Y-90007200D01*
X173123809Y-90007200D02*
X173076190Y-89959580D01*
X173076190Y-89959580D02*
X172980952Y-89816723D01*
X172980952Y-89816723D02*
X172933333Y-89626247D01*
X172933333Y-89626247D02*
X172933333Y-89245295D01*
X172933333Y-89245295D02*
X172980952Y-89150057D01*
X172980952Y-89150057D02*
X173028571Y-89102438D01*
X173028571Y-89102438D02*
X173123809Y-89054819D01*
X173123809Y-89054819D02*
X173314285Y-89054819D01*
X173314285Y-89054819D02*
X173409523Y-89102438D01*
X173409523Y-89102438D02*
X173457142Y-89150057D01*
X173457142Y-89150057D02*
X173504761Y-89245295D01*
X173504761Y-89245295D02*
X173504761Y-89483390D01*
X173504761Y-89483390D02*
X173457142Y-89578628D01*
X173457142Y-89578628D02*
X173409523Y-89626247D01*
X173409523Y-89626247D02*
X173314285Y-89673866D01*
X173314285Y-89673866D02*
X173123809Y-89673866D01*
X173123809Y-89673866D02*
X173028571Y-89626247D01*
X173028571Y-89626247D02*
X172980952Y-89578628D01*
X172980952Y-89578628D02*
X172933333Y-89483390D01*
X183159523Y-95404819D02*
X183159523Y-96119104D01*
X183159523Y-96119104D02*
X183207142Y-96261961D01*
X183207142Y-96261961D02*
X183302380Y-96357200D01*
X183302380Y-96357200D02*
X183445237Y-96404819D01*
X183445237Y-96404819D02*
X183540475Y-96404819D01*
X182683332Y-96404819D02*
X182683332Y-95404819D01*
X182683332Y-95404819D02*
X182302380Y-95404819D01*
X182302380Y-95404819D02*
X182207142Y-95452438D01*
X182207142Y-95452438D02*
X182159523Y-95500057D01*
X182159523Y-95500057D02*
X182111904Y-95595295D01*
X182111904Y-95595295D02*
X182111904Y-95738152D01*
X182111904Y-95738152D02*
X182159523Y-95833390D01*
X182159523Y-95833390D02*
X182207142Y-95881009D01*
X182207142Y-95881009D02*
X182302380Y-95928628D01*
X182302380Y-95928628D02*
X182683332Y-95928628D01*
X181159523Y-96404819D02*
X181730951Y-96404819D01*
X181445237Y-96404819D02*
X181445237Y-95404819D01*
X181445237Y-95404819D02*
X181540475Y-95547676D01*
X181540475Y-95547676D02*
X181635713Y-95642914D01*
X181635713Y-95642914D02*
X181730951Y-95690533D01*
X180540475Y-95404819D02*
X180445237Y-95404819D01*
X180445237Y-95404819D02*
X180349999Y-95452438D01*
X180349999Y-95452438D02*
X180302380Y-95500057D01*
X180302380Y-95500057D02*
X180254761Y-95595295D01*
X180254761Y-95595295D02*
X180207142Y-95785771D01*
X180207142Y-95785771D02*
X180207142Y-96023866D01*
X180207142Y-96023866D02*
X180254761Y-96214342D01*
X180254761Y-96214342D02*
X180302380Y-96309580D01*
X180302380Y-96309580D02*
X180349999Y-96357200D01*
X180349999Y-96357200D02*
X180445237Y-96404819D01*
X180445237Y-96404819D02*
X180540475Y-96404819D01*
X180540475Y-96404819D02*
X180635713Y-96357200D01*
X180635713Y-96357200D02*
X180683332Y-96309580D01*
X180683332Y-96309580D02*
X180730951Y-96214342D01*
X180730951Y-96214342D02*
X180778570Y-96023866D01*
X180778570Y-96023866D02*
X180778570Y-95785771D01*
X180778570Y-95785771D02*
X180730951Y-95595295D01*
X180730951Y-95595295D02*
X180683332Y-95500057D01*
X180683332Y-95500057D02*
X180635713Y-95452438D01*
X180635713Y-95452438D02*
X180540475Y-95404819D01*
X184150057Y-109804761D02*
X184102438Y-109709523D01*
X184102438Y-109709523D02*
X184007200Y-109614285D01*
X184007200Y-109614285D02*
X183864342Y-109471428D01*
X183864342Y-109471428D02*
X183816723Y-109376190D01*
X183816723Y-109376190D02*
X183816723Y-109280952D01*
X184054819Y-109328571D02*
X184007200Y-109233333D01*
X184007200Y-109233333D02*
X183911961Y-109138095D01*
X183911961Y-109138095D02*
X183721485Y-109090476D01*
X183721485Y-109090476D02*
X183388152Y-109090476D01*
X183388152Y-109090476D02*
X183197676Y-109138095D01*
X183197676Y-109138095D02*
X183102438Y-109233333D01*
X183102438Y-109233333D02*
X183054819Y-109328571D01*
X183054819Y-109328571D02*
X183054819Y-109519047D01*
X183054819Y-109519047D02*
X183102438Y-109614285D01*
X183102438Y-109614285D02*
X183197676Y-109709523D01*
X183197676Y-109709523D02*
X183388152Y-109757142D01*
X183388152Y-109757142D02*
X183721485Y-109757142D01*
X183721485Y-109757142D02*
X183911961Y-109709523D01*
X183911961Y-109709523D02*
X184007200Y-109614285D01*
X184007200Y-109614285D02*
X184054819Y-109519047D01*
X184054819Y-109519047D02*
X184054819Y-109328571D01*
X183483390Y-110328571D02*
X183435771Y-110233333D01*
X183435771Y-110233333D02*
X183388152Y-110185714D01*
X183388152Y-110185714D02*
X183292914Y-110138095D01*
X183292914Y-110138095D02*
X183245295Y-110138095D01*
X183245295Y-110138095D02*
X183150057Y-110185714D01*
X183150057Y-110185714D02*
X183102438Y-110233333D01*
X183102438Y-110233333D02*
X183054819Y-110328571D01*
X183054819Y-110328571D02*
X183054819Y-110519047D01*
X183054819Y-110519047D02*
X183102438Y-110614285D01*
X183102438Y-110614285D02*
X183150057Y-110661904D01*
X183150057Y-110661904D02*
X183245295Y-110709523D01*
X183245295Y-110709523D02*
X183292914Y-110709523D01*
X183292914Y-110709523D02*
X183388152Y-110661904D01*
X183388152Y-110661904D02*
X183435771Y-110614285D01*
X183435771Y-110614285D02*
X183483390Y-110519047D01*
X183483390Y-110519047D02*
X183483390Y-110328571D01*
X183483390Y-110328571D02*
X183531009Y-110233333D01*
X183531009Y-110233333D02*
X183578628Y-110185714D01*
X183578628Y-110185714D02*
X183673866Y-110138095D01*
X183673866Y-110138095D02*
X183864342Y-110138095D01*
X183864342Y-110138095D02*
X183959580Y-110185714D01*
X183959580Y-110185714D02*
X184007200Y-110233333D01*
X184007200Y-110233333D02*
X184054819Y-110328571D01*
X184054819Y-110328571D02*
X184054819Y-110519047D01*
X184054819Y-110519047D02*
X184007200Y-110614285D01*
X184007200Y-110614285D02*
X183959580Y-110661904D01*
X183959580Y-110661904D02*
X183864342Y-110709523D01*
X183864342Y-110709523D02*
X183673866Y-110709523D01*
X183673866Y-110709523D02*
X183578628Y-110661904D01*
X183578628Y-110661904D02*
X183531009Y-110614285D01*
X183531009Y-110614285D02*
X183483390Y-110519047D01*
X131195238Y-114750057D02*
X131290476Y-114702438D01*
X131290476Y-114702438D02*
X131385714Y-114607200D01*
X131385714Y-114607200D02*
X131528571Y-114464342D01*
X131528571Y-114464342D02*
X131623809Y-114416723D01*
X131623809Y-114416723D02*
X131719047Y-114416723D01*
X131671428Y-114654819D02*
X131766666Y-114607200D01*
X131766666Y-114607200D02*
X131861904Y-114511961D01*
X131861904Y-114511961D02*
X131909523Y-114321485D01*
X131909523Y-114321485D02*
X131909523Y-113988152D01*
X131909523Y-113988152D02*
X131861904Y-113797676D01*
X131861904Y-113797676D02*
X131766666Y-113702438D01*
X131766666Y-113702438D02*
X131671428Y-113654819D01*
X131671428Y-113654819D02*
X131480952Y-113654819D01*
X131480952Y-113654819D02*
X131385714Y-113702438D01*
X131385714Y-113702438D02*
X131290476Y-113797676D01*
X131290476Y-113797676D02*
X131242857Y-113988152D01*
X131242857Y-113988152D02*
X131242857Y-114321485D01*
X131242857Y-114321485D02*
X131290476Y-114511961D01*
X131290476Y-114511961D02*
X131385714Y-114607200D01*
X131385714Y-114607200D02*
X131480952Y-114654819D01*
X131480952Y-114654819D02*
X131671428Y-114654819D01*
X130909523Y-113654819D02*
X130290476Y-113654819D01*
X130290476Y-113654819D02*
X130623809Y-114035771D01*
X130623809Y-114035771D02*
X130480952Y-114035771D01*
X130480952Y-114035771D02*
X130385714Y-114083390D01*
X130385714Y-114083390D02*
X130338095Y-114131009D01*
X130338095Y-114131009D02*
X130290476Y-114226247D01*
X130290476Y-114226247D02*
X130290476Y-114464342D01*
X130290476Y-114464342D02*
X130338095Y-114559580D01*
X130338095Y-114559580D02*
X130385714Y-114607200D01*
X130385714Y-114607200D02*
X130480952Y-114654819D01*
X130480952Y-114654819D02*
X130766666Y-114654819D01*
X130766666Y-114654819D02*
X130861904Y-114607200D01*
X130861904Y-114607200D02*
X130909523Y-114559580D01*
X174933333Y-99154819D02*
X174933333Y-99869104D01*
X174933333Y-99869104D02*
X174980952Y-100011961D01*
X174980952Y-100011961D02*
X175076190Y-100107200D01*
X175076190Y-100107200D02*
X175219047Y-100154819D01*
X175219047Y-100154819D02*
X175314285Y-100154819D01*
X174457142Y-100154819D02*
X174457142Y-99154819D01*
X174457142Y-99154819D02*
X174076190Y-99154819D01*
X174076190Y-99154819D02*
X173980952Y-99202438D01*
X173980952Y-99202438D02*
X173933333Y-99250057D01*
X173933333Y-99250057D02*
X173885714Y-99345295D01*
X173885714Y-99345295D02*
X173885714Y-99488152D01*
X173885714Y-99488152D02*
X173933333Y-99583390D01*
X173933333Y-99583390D02*
X173980952Y-99631009D01*
X173980952Y-99631009D02*
X174076190Y-99678628D01*
X174076190Y-99678628D02*
X174457142Y-99678628D01*
X173552380Y-99154819D02*
X172933333Y-99154819D01*
X172933333Y-99154819D02*
X173266666Y-99535771D01*
X173266666Y-99535771D02*
X173123809Y-99535771D01*
X173123809Y-99535771D02*
X173028571Y-99583390D01*
X173028571Y-99583390D02*
X172980952Y-99631009D01*
X172980952Y-99631009D02*
X172933333Y-99726247D01*
X172933333Y-99726247D02*
X172933333Y-99964342D01*
X172933333Y-99964342D02*
X172980952Y-100059580D01*
X172980952Y-100059580D02*
X173028571Y-100107200D01*
X173028571Y-100107200D02*
X173123809Y-100154819D01*
X173123809Y-100154819D02*
X173409523Y-100154819D01*
X173409523Y-100154819D02*
X173504761Y-100107200D01*
X173504761Y-100107200D02*
X173552380Y-100059580D01*
X129559819Y-87113095D02*
X130369342Y-87113095D01*
X130369342Y-87113095D02*
X130464580Y-87160714D01*
X130464580Y-87160714D02*
X130512200Y-87208333D01*
X130512200Y-87208333D02*
X130559819Y-87303571D01*
X130559819Y-87303571D02*
X130559819Y-87494047D01*
X130559819Y-87494047D02*
X130512200Y-87589285D01*
X130512200Y-87589285D02*
X130464580Y-87636904D01*
X130464580Y-87636904D02*
X130369342Y-87684523D01*
X130369342Y-87684523D02*
X129559819Y-87684523D01*
X130559819Y-88684523D02*
X130559819Y-88113095D01*
X130559819Y-88398809D02*
X129559819Y-88398809D01*
X129559819Y-88398809D02*
X129702676Y-88303571D01*
X129702676Y-88303571D02*
X129797914Y-88208333D01*
X129797914Y-88208333D02*
X129845533Y-88113095D01*
X176704819Y-115983333D02*
X176228628Y-115650000D01*
X176704819Y-115411905D02*
X175704819Y-115411905D01*
X175704819Y-115411905D02*
X175704819Y-115792857D01*
X175704819Y-115792857D02*
X175752438Y-115888095D01*
X175752438Y-115888095D02*
X175800057Y-115935714D01*
X175800057Y-115935714D02*
X175895295Y-115983333D01*
X175895295Y-115983333D02*
X176038152Y-115983333D01*
X176038152Y-115983333D02*
X176133390Y-115935714D01*
X176133390Y-115935714D02*
X176181009Y-115888095D01*
X176181009Y-115888095D02*
X176228628Y-115792857D01*
X176228628Y-115792857D02*
X176228628Y-115411905D01*
X176704819Y-116459524D02*
X176704819Y-116650000D01*
X176704819Y-116650000D02*
X176657200Y-116745238D01*
X176657200Y-116745238D02*
X176609580Y-116792857D01*
X176609580Y-116792857D02*
X176466723Y-116888095D01*
X176466723Y-116888095D02*
X176276247Y-116935714D01*
X176276247Y-116935714D02*
X175895295Y-116935714D01*
X175895295Y-116935714D02*
X175800057Y-116888095D01*
X175800057Y-116888095D02*
X175752438Y-116840476D01*
X175752438Y-116840476D02*
X175704819Y-116745238D01*
X175704819Y-116745238D02*
X175704819Y-116554762D01*
X175704819Y-116554762D02*
X175752438Y-116459524D01*
X175752438Y-116459524D02*
X175800057Y-116411905D01*
X175800057Y-116411905D02*
X175895295Y-116364286D01*
X175895295Y-116364286D02*
X176133390Y-116364286D01*
X176133390Y-116364286D02*
X176228628Y-116411905D01*
X176228628Y-116411905D02*
X176276247Y-116459524D01*
X176276247Y-116459524D02*
X176323866Y-116554762D01*
X176323866Y-116554762D02*
X176323866Y-116745238D01*
X176323866Y-116745238D02*
X176276247Y-116840476D01*
X176276247Y-116840476D02*
X176228628Y-116888095D01*
X176228628Y-116888095D02*
X176133390Y-116935714D01*
X132254819Y-111315476D02*
X132969104Y-111315476D01*
X132969104Y-111315476D02*
X133111961Y-111267857D01*
X133111961Y-111267857D02*
X133207200Y-111172619D01*
X133207200Y-111172619D02*
X133254819Y-111029762D01*
X133254819Y-111029762D02*
X133254819Y-110934524D01*
X133254819Y-111791667D02*
X132254819Y-111791667D01*
X132254819Y-111791667D02*
X132254819Y-112172619D01*
X132254819Y-112172619D02*
X132302438Y-112267857D01*
X132302438Y-112267857D02*
X132350057Y-112315476D01*
X132350057Y-112315476D02*
X132445295Y-112363095D01*
X132445295Y-112363095D02*
X132588152Y-112363095D01*
X132588152Y-112363095D02*
X132683390Y-112315476D01*
X132683390Y-112315476D02*
X132731009Y-112267857D01*
X132731009Y-112267857D02*
X132778628Y-112172619D01*
X132778628Y-112172619D02*
X132778628Y-111791667D01*
X133254819Y-113315476D02*
X133254819Y-112744048D01*
X133254819Y-113029762D02*
X132254819Y-113029762D01*
X132254819Y-113029762D02*
X132397676Y-112934524D01*
X132397676Y-112934524D02*
X132492914Y-112839286D01*
X132492914Y-112839286D02*
X132540533Y-112744048D01*
X132254819Y-114220238D02*
X132254819Y-113744048D01*
X132254819Y-113744048D02*
X132731009Y-113696429D01*
X132731009Y-113696429D02*
X132683390Y-113744048D01*
X132683390Y-113744048D02*
X132635771Y-113839286D01*
X132635771Y-113839286D02*
X132635771Y-114077381D01*
X132635771Y-114077381D02*
X132683390Y-114172619D01*
X132683390Y-114172619D02*
X132731009Y-114220238D01*
X132731009Y-114220238D02*
X132826247Y-114267857D01*
X132826247Y-114267857D02*
X133064342Y-114267857D01*
X133064342Y-114267857D02*
X133159580Y-114220238D01*
X133159580Y-114220238D02*
X133207200Y-114172619D01*
X133207200Y-114172619D02*
X133254819Y-114077381D01*
X133254819Y-114077381D02*
X133254819Y-113839286D01*
X133254819Y-113839286D02*
X133207200Y-113744048D01*
X133207200Y-113744048D02*
X133159580Y-113696429D01*
X149634523Y-126904819D02*
X149634523Y-127619104D01*
X149634523Y-127619104D02*
X149682142Y-127761961D01*
X149682142Y-127761961D02*
X149777380Y-127857200D01*
X149777380Y-127857200D02*
X149920237Y-127904819D01*
X149920237Y-127904819D02*
X150015475Y-127904819D01*
X149158332Y-127904819D02*
X149158332Y-126904819D01*
X149158332Y-126904819D02*
X148777380Y-126904819D01*
X148777380Y-126904819D02*
X148682142Y-126952438D01*
X148682142Y-126952438D02*
X148634523Y-127000057D01*
X148634523Y-127000057D02*
X148586904Y-127095295D01*
X148586904Y-127095295D02*
X148586904Y-127238152D01*
X148586904Y-127238152D02*
X148634523Y-127333390D01*
X148634523Y-127333390D02*
X148682142Y-127381009D01*
X148682142Y-127381009D02*
X148777380Y-127428628D01*
X148777380Y-127428628D02*
X149158332Y-127428628D01*
X147634523Y-127904819D02*
X148205951Y-127904819D01*
X147920237Y-127904819D02*
X147920237Y-126904819D01*
X147920237Y-126904819D02*
X148015475Y-127047676D01*
X148015475Y-127047676D02*
X148110713Y-127142914D01*
X148110713Y-127142914D02*
X148205951Y-127190533D01*
X147253570Y-127000057D02*
X147205951Y-126952438D01*
X147205951Y-126952438D02*
X147110713Y-126904819D01*
X147110713Y-126904819D02*
X146872618Y-126904819D01*
X146872618Y-126904819D02*
X146777380Y-126952438D01*
X146777380Y-126952438D02*
X146729761Y-127000057D01*
X146729761Y-127000057D02*
X146682142Y-127095295D01*
X146682142Y-127095295D02*
X146682142Y-127190533D01*
X146682142Y-127190533D02*
X146729761Y-127333390D01*
X146729761Y-127333390D02*
X147301189Y-127904819D01*
X147301189Y-127904819D02*
X146682142Y-127904819D01*
X130317319Y-87566666D02*
X131031604Y-87566666D01*
X131031604Y-87566666D02*
X131174461Y-87519047D01*
X131174461Y-87519047D02*
X131269700Y-87423809D01*
X131269700Y-87423809D02*
X131317319Y-87280952D01*
X131317319Y-87280952D02*
X131317319Y-87185714D01*
X131317319Y-88042857D02*
X130317319Y-88042857D01*
X130317319Y-88042857D02*
X130317319Y-88423809D01*
X130317319Y-88423809D02*
X130364938Y-88519047D01*
X130364938Y-88519047D02*
X130412557Y-88566666D01*
X130412557Y-88566666D02*
X130507795Y-88614285D01*
X130507795Y-88614285D02*
X130650652Y-88614285D01*
X130650652Y-88614285D02*
X130745890Y-88566666D01*
X130745890Y-88566666D02*
X130793509Y-88519047D01*
X130793509Y-88519047D02*
X130841128Y-88423809D01*
X130841128Y-88423809D02*
X130841128Y-88042857D01*
X131317319Y-89566666D02*
X131317319Y-88995238D01*
X131317319Y-89280952D02*
X130317319Y-89280952D01*
X130317319Y-89280952D02*
X130460176Y-89185714D01*
X130460176Y-89185714D02*
X130555414Y-89090476D01*
X130555414Y-89090476D02*
X130603033Y-88995238D01*
X178650057Y-98554761D02*
X178602438Y-98459523D01*
X178602438Y-98459523D02*
X178507200Y-98364285D01*
X178507200Y-98364285D02*
X178364342Y-98221428D01*
X178364342Y-98221428D02*
X178316723Y-98126190D01*
X178316723Y-98126190D02*
X178316723Y-98030952D01*
X178554819Y-98078571D02*
X178507200Y-97983333D01*
X178507200Y-97983333D02*
X178411961Y-97888095D01*
X178411961Y-97888095D02*
X178221485Y-97840476D01*
X178221485Y-97840476D02*
X177888152Y-97840476D01*
X177888152Y-97840476D02*
X177697676Y-97888095D01*
X177697676Y-97888095D02*
X177602438Y-97983333D01*
X177602438Y-97983333D02*
X177554819Y-98078571D01*
X177554819Y-98078571D02*
X177554819Y-98269047D01*
X177554819Y-98269047D02*
X177602438Y-98364285D01*
X177602438Y-98364285D02*
X177697676Y-98459523D01*
X177697676Y-98459523D02*
X177888152Y-98507142D01*
X177888152Y-98507142D02*
X178221485Y-98507142D01*
X178221485Y-98507142D02*
X178411961Y-98459523D01*
X178411961Y-98459523D02*
X178507200Y-98364285D01*
X178507200Y-98364285D02*
X178554819Y-98269047D01*
X178554819Y-98269047D02*
X178554819Y-98078571D01*
X178554819Y-99459523D02*
X178554819Y-98888095D01*
X178554819Y-99173809D02*
X177554819Y-99173809D01*
X177554819Y-99173809D02*
X177697676Y-99078571D01*
X177697676Y-99078571D02*
X177792914Y-98983333D01*
X177792914Y-98983333D02*
X177840533Y-98888095D01*
X131433333Y-95154819D02*
X131433333Y-95869104D01*
X131433333Y-95869104D02*
X131480952Y-96011961D01*
X131480952Y-96011961D02*
X131576190Y-96107200D01*
X131576190Y-96107200D02*
X131719047Y-96154819D01*
X131719047Y-96154819D02*
X131814285Y-96154819D01*
X130957142Y-96154819D02*
X130957142Y-95154819D01*
X130957142Y-95154819D02*
X130576190Y-95154819D01*
X130576190Y-95154819D02*
X130480952Y-95202438D01*
X130480952Y-95202438D02*
X130433333Y-95250057D01*
X130433333Y-95250057D02*
X130385714Y-95345295D01*
X130385714Y-95345295D02*
X130385714Y-95488152D01*
X130385714Y-95488152D02*
X130433333Y-95583390D01*
X130433333Y-95583390D02*
X130480952Y-95631009D01*
X130480952Y-95631009D02*
X130576190Y-95678628D01*
X130576190Y-95678628D02*
X130957142Y-95678628D01*
X129528571Y-95488152D02*
X129528571Y-96154819D01*
X129766666Y-95107200D02*
X130004761Y-95821485D01*
X130004761Y-95821485D02*
X129385714Y-95821485D01*
X145412476Y-129622927D02*
X145745809Y-129146736D01*
X145983904Y-129622927D02*
X145983904Y-128622927D01*
X145983904Y-128622927D02*
X145602952Y-128622927D01*
X145602952Y-128622927D02*
X145507714Y-128670546D01*
X145507714Y-128670546D02*
X145460095Y-128718165D01*
X145460095Y-128718165D02*
X145412476Y-128813403D01*
X145412476Y-128813403D02*
X145412476Y-128956260D01*
X145412476Y-128956260D02*
X145460095Y-129051498D01*
X145460095Y-129051498D02*
X145507714Y-129099117D01*
X145507714Y-129099117D02*
X145602952Y-129146736D01*
X145602952Y-129146736D02*
X145983904Y-129146736D01*
X144460095Y-129622927D02*
X145031523Y-129622927D01*
X144745809Y-129622927D02*
X144745809Y-128622927D01*
X144745809Y-128622927D02*
X144841047Y-128765784D01*
X144841047Y-128765784D02*
X144936285Y-128861022D01*
X144936285Y-128861022D02*
X145031523Y-128908641D01*
X144079142Y-128718165D02*
X144031523Y-128670546D01*
X144031523Y-128670546D02*
X143936285Y-128622927D01*
X143936285Y-128622927D02*
X143698190Y-128622927D01*
X143698190Y-128622927D02*
X143602952Y-128670546D01*
X143602952Y-128670546D02*
X143555333Y-128718165D01*
X143555333Y-128718165D02*
X143507714Y-128813403D01*
X143507714Y-128813403D02*
X143507714Y-128908641D01*
X143507714Y-128908641D02*
X143555333Y-129051498D01*
X143555333Y-129051498D02*
X144126761Y-129622927D01*
X144126761Y-129622927D02*
X143507714Y-129622927D01*
X183159523Y-89054819D02*
X183159523Y-89769104D01*
X183159523Y-89769104D02*
X183207142Y-89911961D01*
X183207142Y-89911961D02*
X183302380Y-90007200D01*
X183302380Y-90007200D02*
X183445237Y-90054819D01*
X183445237Y-90054819D02*
X183540475Y-90054819D01*
X182683332Y-90054819D02*
X182683332Y-89054819D01*
X182683332Y-89054819D02*
X182302380Y-89054819D01*
X182302380Y-89054819D02*
X182207142Y-89102438D01*
X182207142Y-89102438D02*
X182159523Y-89150057D01*
X182159523Y-89150057D02*
X182111904Y-89245295D01*
X182111904Y-89245295D02*
X182111904Y-89388152D01*
X182111904Y-89388152D02*
X182159523Y-89483390D01*
X182159523Y-89483390D02*
X182207142Y-89531009D01*
X182207142Y-89531009D02*
X182302380Y-89578628D01*
X182302380Y-89578628D02*
X182683332Y-89578628D01*
X181159523Y-90054819D02*
X181730951Y-90054819D01*
X181445237Y-90054819D02*
X181445237Y-89054819D01*
X181445237Y-89054819D02*
X181540475Y-89197676D01*
X181540475Y-89197676D02*
X181635713Y-89292914D01*
X181635713Y-89292914D02*
X181730951Y-89340533D01*
X180207142Y-90054819D02*
X180778570Y-90054819D01*
X180492856Y-90054819D02*
X180492856Y-89054819D01*
X180492856Y-89054819D02*
X180588094Y-89197676D01*
X180588094Y-89197676D02*
X180683332Y-89292914D01*
X180683332Y-89292914D02*
X180778570Y-89340533D01*
X161279580Y-120483333D02*
X161327200Y-120435714D01*
X161327200Y-120435714D02*
X161374819Y-120292857D01*
X161374819Y-120292857D02*
X161374819Y-120197619D01*
X161374819Y-120197619D02*
X161327200Y-120054762D01*
X161327200Y-120054762D02*
X161231961Y-119959524D01*
X161231961Y-119959524D02*
X161136723Y-119911905D01*
X161136723Y-119911905D02*
X160946247Y-119864286D01*
X160946247Y-119864286D02*
X160803390Y-119864286D01*
X160803390Y-119864286D02*
X160612914Y-119911905D01*
X160612914Y-119911905D02*
X160517676Y-119959524D01*
X160517676Y-119959524D02*
X160422438Y-120054762D01*
X160422438Y-120054762D02*
X160374819Y-120197619D01*
X160374819Y-120197619D02*
X160374819Y-120292857D01*
X160374819Y-120292857D02*
X160422438Y-120435714D01*
X160422438Y-120435714D02*
X160470057Y-120483333D01*
X160708152Y-121340476D02*
X161374819Y-121340476D01*
X160327200Y-121102381D02*
X161041485Y-120864286D01*
X161041485Y-120864286D02*
X161041485Y-121483333D01*
X131242857Y-112504819D02*
X131576190Y-112028628D01*
X131814285Y-112504819D02*
X131814285Y-111504819D01*
X131814285Y-111504819D02*
X131433333Y-111504819D01*
X131433333Y-111504819D02*
X131338095Y-111552438D01*
X131338095Y-111552438D02*
X131290476Y-111600057D01*
X131290476Y-111600057D02*
X131242857Y-111695295D01*
X131242857Y-111695295D02*
X131242857Y-111838152D01*
X131242857Y-111838152D02*
X131290476Y-111933390D01*
X131290476Y-111933390D02*
X131338095Y-111981009D01*
X131338095Y-111981009D02*
X131433333Y-112028628D01*
X131433333Y-112028628D02*
X131814285Y-112028628D01*
X130290476Y-112504819D02*
X130861904Y-112504819D01*
X130576190Y-112504819D02*
X130576190Y-111504819D01*
X130576190Y-111504819D02*
X130671428Y-111647676D01*
X130671428Y-111647676D02*
X130766666Y-111742914D01*
X130766666Y-111742914D02*
X130861904Y-111790533D01*
X129957142Y-111504819D02*
X129338095Y-111504819D01*
X129338095Y-111504819D02*
X129671428Y-111885771D01*
X129671428Y-111885771D02*
X129528571Y-111885771D01*
X129528571Y-111885771D02*
X129433333Y-111933390D01*
X129433333Y-111933390D02*
X129385714Y-111981009D01*
X129385714Y-111981009D02*
X129338095Y-112076247D01*
X129338095Y-112076247D02*
X129338095Y-112314342D01*
X129338095Y-112314342D02*
X129385714Y-112409580D01*
X129385714Y-112409580D02*
X129433333Y-112457200D01*
X129433333Y-112457200D02*
X129528571Y-112504819D01*
X129528571Y-112504819D02*
X129814285Y-112504819D01*
X129814285Y-112504819D02*
X129909523Y-112457200D01*
X129909523Y-112457200D02*
X129957142Y-112409580D01*
X174933333Y-91804819D02*
X174933333Y-92519104D01*
X174933333Y-92519104D02*
X174980952Y-92661961D01*
X174980952Y-92661961D02*
X175076190Y-92757200D01*
X175076190Y-92757200D02*
X175219047Y-92804819D01*
X175219047Y-92804819D02*
X175314285Y-92804819D01*
X174457142Y-92804819D02*
X174457142Y-91804819D01*
X174457142Y-91804819D02*
X174076190Y-91804819D01*
X174076190Y-91804819D02*
X173980952Y-91852438D01*
X173980952Y-91852438D02*
X173933333Y-91900057D01*
X173933333Y-91900057D02*
X173885714Y-91995295D01*
X173885714Y-91995295D02*
X173885714Y-92138152D01*
X173885714Y-92138152D02*
X173933333Y-92233390D01*
X173933333Y-92233390D02*
X173980952Y-92281009D01*
X173980952Y-92281009D02*
X174076190Y-92328628D01*
X174076190Y-92328628D02*
X174457142Y-92328628D01*
X173314285Y-92233390D02*
X173409523Y-92185771D01*
X173409523Y-92185771D02*
X173457142Y-92138152D01*
X173457142Y-92138152D02*
X173504761Y-92042914D01*
X173504761Y-92042914D02*
X173504761Y-91995295D01*
X173504761Y-91995295D02*
X173457142Y-91900057D01*
X173457142Y-91900057D02*
X173409523Y-91852438D01*
X173409523Y-91852438D02*
X173314285Y-91804819D01*
X173314285Y-91804819D02*
X173123809Y-91804819D01*
X173123809Y-91804819D02*
X173028571Y-91852438D01*
X173028571Y-91852438D02*
X172980952Y-91900057D01*
X172980952Y-91900057D02*
X172933333Y-91995295D01*
X172933333Y-91995295D02*
X172933333Y-92042914D01*
X172933333Y-92042914D02*
X172980952Y-92138152D01*
X172980952Y-92138152D02*
X173028571Y-92185771D01*
X173028571Y-92185771D02*
X173123809Y-92233390D01*
X173123809Y-92233390D02*
X173314285Y-92233390D01*
X173314285Y-92233390D02*
X173409523Y-92281009D01*
X173409523Y-92281009D02*
X173457142Y-92328628D01*
X173457142Y-92328628D02*
X173504761Y-92423866D01*
X173504761Y-92423866D02*
X173504761Y-92614342D01*
X173504761Y-92614342D02*
X173457142Y-92709580D01*
X173457142Y-92709580D02*
X173409523Y-92757200D01*
X173409523Y-92757200D02*
X173314285Y-92804819D01*
X173314285Y-92804819D02*
X173123809Y-92804819D01*
X173123809Y-92804819D02*
X173028571Y-92757200D01*
X173028571Y-92757200D02*
X172980952Y-92709580D01*
X172980952Y-92709580D02*
X172933333Y-92614342D01*
X172933333Y-92614342D02*
X172933333Y-92423866D01*
X172933333Y-92423866D02*
X172980952Y-92328628D01*
X172980952Y-92328628D02*
X173028571Y-92281009D01*
X173028571Y-92281009D02*
X173123809Y-92233390D01*
X174933333Y-101904819D02*
X174933333Y-102619104D01*
X174933333Y-102619104D02*
X174980952Y-102761961D01*
X174980952Y-102761961D02*
X175076190Y-102857200D01*
X175076190Y-102857200D02*
X175219047Y-102904819D01*
X175219047Y-102904819D02*
X175314285Y-102904819D01*
X174457142Y-102904819D02*
X174457142Y-101904819D01*
X174457142Y-101904819D02*
X174076190Y-101904819D01*
X174076190Y-101904819D02*
X173980952Y-101952438D01*
X173980952Y-101952438D02*
X173933333Y-102000057D01*
X173933333Y-102000057D02*
X173885714Y-102095295D01*
X173885714Y-102095295D02*
X173885714Y-102238152D01*
X173885714Y-102238152D02*
X173933333Y-102333390D01*
X173933333Y-102333390D02*
X173980952Y-102381009D01*
X173980952Y-102381009D02*
X174076190Y-102428628D01*
X174076190Y-102428628D02*
X174457142Y-102428628D01*
X173504761Y-102000057D02*
X173457142Y-101952438D01*
X173457142Y-101952438D02*
X173361904Y-101904819D01*
X173361904Y-101904819D02*
X173123809Y-101904819D01*
X173123809Y-101904819D02*
X173028571Y-101952438D01*
X173028571Y-101952438D02*
X172980952Y-102000057D01*
X172980952Y-102000057D02*
X172933333Y-102095295D01*
X172933333Y-102095295D02*
X172933333Y-102190533D01*
X172933333Y-102190533D02*
X172980952Y-102333390D01*
X172980952Y-102333390D02*
X173552380Y-102904819D01*
X173552380Y-102904819D02*
X172933333Y-102904819D01*
X135254819Y-111315476D02*
X135969104Y-111315476D01*
X135969104Y-111315476D02*
X136111961Y-111267857D01*
X136111961Y-111267857D02*
X136207200Y-111172619D01*
X136207200Y-111172619D02*
X136254819Y-111029762D01*
X136254819Y-111029762D02*
X136254819Y-110934524D01*
X136254819Y-111791667D02*
X135254819Y-111791667D01*
X135254819Y-111791667D02*
X135254819Y-112172619D01*
X135254819Y-112172619D02*
X135302438Y-112267857D01*
X135302438Y-112267857D02*
X135350057Y-112315476D01*
X135350057Y-112315476D02*
X135445295Y-112363095D01*
X135445295Y-112363095D02*
X135588152Y-112363095D01*
X135588152Y-112363095D02*
X135683390Y-112315476D01*
X135683390Y-112315476D02*
X135731009Y-112267857D01*
X135731009Y-112267857D02*
X135778628Y-112172619D01*
X135778628Y-112172619D02*
X135778628Y-111791667D01*
X136254819Y-113315476D02*
X136254819Y-112744048D01*
X136254819Y-113029762D02*
X135254819Y-113029762D01*
X135254819Y-113029762D02*
X135397676Y-112934524D01*
X135397676Y-112934524D02*
X135492914Y-112839286D01*
X135492914Y-112839286D02*
X135540533Y-112744048D01*
X135254819Y-114172619D02*
X135254819Y-113982143D01*
X135254819Y-113982143D02*
X135302438Y-113886905D01*
X135302438Y-113886905D02*
X135350057Y-113839286D01*
X135350057Y-113839286D02*
X135492914Y-113744048D01*
X135492914Y-113744048D02*
X135683390Y-113696429D01*
X135683390Y-113696429D02*
X136064342Y-113696429D01*
X136064342Y-113696429D02*
X136159580Y-113744048D01*
X136159580Y-113744048D02*
X136207200Y-113791667D01*
X136207200Y-113791667D02*
X136254819Y-113886905D01*
X136254819Y-113886905D02*
X136254819Y-114077381D01*
X136254819Y-114077381D02*
X136207200Y-114172619D01*
X136207200Y-114172619D02*
X136159580Y-114220238D01*
X136159580Y-114220238D02*
X136064342Y-114267857D01*
X136064342Y-114267857D02*
X135826247Y-114267857D01*
X135826247Y-114267857D02*
X135731009Y-114220238D01*
X135731009Y-114220238D02*
X135683390Y-114172619D01*
X135683390Y-114172619D02*
X135635771Y-114077381D01*
X135635771Y-114077381D02*
X135635771Y-113886905D01*
X135635771Y-113886905D02*
X135683390Y-113791667D01*
X135683390Y-113791667D02*
X135731009Y-113744048D01*
X135731009Y-113744048D02*
X135826247Y-113696429D01*
X131242857Y-110254819D02*
X131576190Y-109778628D01*
X131814285Y-110254819D02*
X131814285Y-109254819D01*
X131814285Y-109254819D02*
X131433333Y-109254819D01*
X131433333Y-109254819D02*
X131338095Y-109302438D01*
X131338095Y-109302438D02*
X131290476Y-109350057D01*
X131290476Y-109350057D02*
X131242857Y-109445295D01*
X131242857Y-109445295D02*
X131242857Y-109588152D01*
X131242857Y-109588152D02*
X131290476Y-109683390D01*
X131290476Y-109683390D02*
X131338095Y-109731009D01*
X131338095Y-109731009D02*
X131433333Y-109778628D01*
X131433333Y-109778628D02*
X131814285Y-109778628D01*
X130290476Y-110254819D02*
X130861904Y-110254819D01*
X130576190Y-110254819D02*
X130576190Y-109254819D01*
X130576190Y-109254819D02*
X130671428Y-109397676D01*
X130671428Y-109397676D02*
X130766666Y-109492914D01*
X130766666Y-109492914D02*
X130861904Y-109540533D01*
X129338095Y-110254819D02*
X129909523Y-110254819D01*
X129623809Y-110254819D02*
X129623809Y-109254819D01*
X129623809Y-109254819D02*
X129719047Y-109397676D01*
X129719047Y-109397676D02*
X129814285Y-109492914D01*
X129814285Y-109492914D02*
X129909523Y-109540533D01*
X140454819Y-118507142D02*
X139978628Y-118173809D01*
X140454819Y-117935714D02*
X139454819Y-117935714D01*
X139454819Y-117935714D02*
X139454819Y-118316666D01*
X139454819Y-118316666D02*
X139502438Y-118411904D01*
X139502438Y-118411904D02*
X139550057Y-118459523D01*
X139550057Y-118459523D02*
X139645295Y-118507142D01*
X139645295Y-118507142D02*
X139788152Y-118507142D01*
X139788152Y-118507142D02*
X139883390Y-118459523D01*
X139883390Y-118459523D02*
X139931009Y-118411904D01*
X139931009Y-118411904D02*
X139978628Y-118316666D01*
X139978628Y-118316666D02*
X139978628Y-117935714D01*
X140454819Y-119459523D02*
X140454819Y-118888095D01*
X140454819Y-119173809D02*
X139454819Y-119173809D01*
X139454819Y-119173809D02*
X139597676Y-119078571D01*
X139597676Y-119078571D02*
X139692914Y-118983333D01*
X139692914Y-118983333D02*
X139740533Y-118888095D01*
X139883390Y-120030952D02*
X139835771Y-119935714D01*
X139835771Y-119935714D02*
X139788152Y-119888095D01*
X139788152Y-119888095D02*
X139692914Y-119840476D01*
X139692914Y-119840476D02*
X139645295Y-119840476D01*
X139645295Y-119840476D02*
X139550057Y-119888095D01*
X139550057Y-119888095D02*
X139502438Y-119935714D01*
X139502438Y-119935714D02*
X139454819Y-120030952D01*
X139454819Y-120030952D02*
X139454819Y-120221428D01*
X139454819Y-120221428D02*
X139502438Y-120316666D01*
X139502438Y-120316666D02*
X139550057Y-120364285D01*
X139550057Y-120364285D02*
X139645295Y-120411904D01*
X139645295Y-120411904D02*
X139692914Y-120411904D01*
X139692914Y-120411904D02*
X139788152Y-120364285D01*
X139788152Y-120364285D02*
X139835771Y-120316666D01*
X139835771Y-120316666D02*
X139883390Y-120221428D01*
X139883390Y-120221428D02*
X139883390Y-120030952D01*
X139883390Y-120030952D02*
X139931009Y-119935714D01*
X139931009Y-119935714D02*
X139978628Y-119888095D01*
X139978628Y-119888095D02*
X140073866Y-119840476D01*
X140073866Y-119840476D02*
X140264342Y-119840476D01*
X140264342Y-119840476D02*
X140359580Y-119888095D01*
X140359580Y-119888095D02*
X140407200Y-119935714D01*
X140407200Y-119935714D02*
X140454819Y-120030952D01*
X140454819Y-120030952D02*
X140454819Y-120221428D01*
X140454819Y-120221428D02*
X140407200Y-120316666D01*
X140407200Y-120316666D02*
X140359580Y-120364285D01*
X140359580Y-120364285D02*
X140264342Y-120411904D01*
X140264342Y-120411904D02*
X140073866Y-120411904D01*
X140073866Y-120411904D02*
X139978628Y-120364285D01*
X139978628Y-120364285D02*
X139931009Y-120316666D01*
X139931009Y-120316666D02*
X139883390Y-120221428D01*
X138516666Y-87204819D02*
X138849999Y-86728628D01*
X139088094Y-87204819D02*
X139088094Y-86204819D01*
X139088094Y-86204819D02*
X138707142Y-86204819D01*
X138707142Y-86204819D02*
X138611904Y-86252438D01*
X138611904Y-86252438D02*
X138564285Y-86300057D01*
X138564285Y-86300057D02*
X138516666Y-86395295D01*
X138516666Y-86395295D02*
X138516666Y-86538152D01*
X138516666Y-86538152D02*
X138564285Y-86633390D01*
X138564285Y-86633390D02*
X138611904Y-86681009D01*
X138611904Y-86681009D02*
X138707142Y-86728628D01*
X138707142Y-86728628D02*
X139088094Y-86728628D01*
X137564285Y-87204819D02*
X138135713Y-87204819D01*
X137849999Y-87204819D02*
X137849999Y-86204819D01*
X137849999Y-86204819D02*
X137945237Y-86347676D01*
X137945237Y-86347676D02*
X138040475Y-86442914D01*
X138040475Y-86442914D02*
X138135713Y-86490533D01*
X179454819Y-99733333D02*
X178978628Y-99400000D01*
X179454819Y-99161905D02*
X178454819Y-99161905D01*
X178454819Y-99161905D02*
X178454819Y-99542857D01*
X178454819Y-99542857D02*
X178502438Y-99638095D01*
X178502438Y-99638095D02*
X178550057Y-99685714D01*
X178550057Y-99685714D02*
X178645295Y-99733333D01*
X178645295Y-99733333D02*
X178788152Y-99733333D01*
X178788152Y-99733333D02*
X178883390Y-99685714D01*
X178883390Y-99685714D02*
X178931009Y-99638095D01*
X178931009Y-99638095D02*
X178978628Y-99542857D01*
X178978628Y-99542857D02*
X178978628Y-99161905D01*
X178454819Y-100590476D02*
X178454819Y-100400000D01*
X178454819Y-100400000D02*
X178502438Y-100304762D01*
X178502438Y-100304762D02*
X178550057Y-100257143D01*
X178550057Y-100257143D02*
X178692914Y-100161905D01*
X178692914Y-100161905D02*
X178883390Y-100114286D01*
X178883390Y-100114286D02*
X179264342Y-100114286D01*
X179264342Y-100114286D02*
X179359580Y-100161905D01*
X179359580Y-100161905D02*
X179407200Y-100209524D01*
X179407200Y-100209524D02*
X179454819Y-100304762D01*
X179454819Y-100304762D02*
X179454819Y-100495238D01*
X179454819Y-100495238D02*
X179407200Y-100590476D01*
X179407200Y-100590476D02*
X179359580Y-100638095D01*
X179359580Y-100638095D02*
X179264342Y-100685714D01*
X179264342Y-100685714D02*
X179026247Y-100685714D01*
X179026247Y-100685714D02*
X178931009Y-100638095D01*
X178931009Y-100638095D02*
X178883390Y-100590476D01*
X178883390Y-100590476D02*
X178835771Y-100495238D01*
X178835771Y-100495238D02*
X178835771Y-100304762D01*
X178835771Y-100304762D02*
X178883390Y-100209524D01*
X178883390Y-100209524D02*
X178931009Y-100161905D01*
X178931009Y-100161905D02*
X179026247Y-100114286D01*
X185492857Y-102254819D02*
X185826190Y-101778628D01*
X186064285Y-102254819D02*
X186064285Y-101254819D01*
X186064285Y-101254819D02*
X185683333Y-101254819D01*
X185683333Y-101254819D02*
X185588095Y-101302438D01*
X185588095Y-101302438D02*
X185540476Y-101350057D01*
X185540476Y-101350057D02*
X185492857Y-101445295D01*
X185492857Y-101445295D02*
X185492857Y-101588152D01*
X185492857Y-101588152D02*
X185540476Y-101683390D01*
X185540476Y-101683390D02*
X185588095Y-101731009D01*
X185588095Y-101731009D02*
X185683333Y-101778628D01*
X185683333Y-101778628D02*
X186064285Y-101778628D01*
X184540476Y-102254819D02*
X185111904Y-102254819D01*
X184826190Y-102254819D02*
X184826190Y-101254819D01*
X184826190Y-101254819D02*
X184921428Y-101397676D01*
X184921428Y-101397676D02*
X185016666Y-101492914D01*
X185016666Y-101492914D02*
X185111904Y-101540533D01*
X183683333Y-101254819D02*
X183873809Y-101254819D01*
X183873809Y-101254819D02*
X183969047Y-101302438D01*
X183969047Y-101302438D02*
X184016666Y-101350057D01*
X184016666Y-101350057D02*
X184111904Y-101492914D01*
X184111904Y-101492914D02*
X184159523Y-101683390D01*
X184159523Y-101683390D02*
X184159523Y-102064342D01*
X184159523Y-102064342D02*
X184111904Y-102159580D01*
X184111904Y-102159580D02*
X184064285Y-102207200D01*
X184064285Y-102207200D02*
X183969047Y-102254819D01*
X183969047Y-102254819D02*
X183778571Y-102254819D01*
X183778571Y-102254819D02*
X183683333Y-102207200D01*
X183683333Y-102207200D02*
X183635714Y-102159580D01*
X183635714Y-102159580D02*
X183588095Y-102064342D01*
X183588095Y-102064342D02*
X183588095Y-101826247D01*
X183588095Y-101826247D02*
X183635714Y-101731009D01*
X183635714Y-101731009D02*
X183683333Y-101683390D01*
X183683333Y-101683390D02*
X183778571Y-101635771D01*
X183778571Y-101635771D02*
X183969047Y-101635771D01*
X183969047Y-101635771D02*
X184064285Y-101683390D01*
X184064285Y-101683390D02*
X184111904Y-101731009D01*
X184111904Y-101731009D02*
X184159523Y-101826247D01*
X128229166Y-84079580D02*
X128276785Y-84127200D01*
X128276785Y-84127200D02*
X128419642Y-84174819D01*
X128419642Y-84174819D02*
X128514880Y-84174819D01*
X128514880Y-84174819D02*
X128657737Y-84127200D01*
X128657737Y-84127200D02*
X128752975Y-84031961D01*
X128752975Y-84031961D02*
X128800594Y-83936723D01*
X128800594Y-83936723D02*
X128848213Y-83746247D01*
X128848213Y-83746247D02*
X128848213Y-83603390D01*
X128848213Y-83603390D02*
X128800594Y-83412914D01*
X128800594Y-83412914D02*
X128752975Y-83317676D01*
X128752975Y-83317676D02*
X128657737Y-83222438D01*
X128657737Y-83222438D02*
X128514880Y-83174819D01*
X128514880Y-83174819D02*
X128419642Y-83174819D01*
X128419642Y-83174819D02*
X128276785Y-83222438D01*
X128276785Y-83222438D02*
X128229166Y-83270057D01*
X127276785Y-84174819D02*
X127848213Y-84174819D01*
X127562499Y-84174819D02*
X127562499Y-83174819D01*
X127562499Y-83174819D02*
X127657737Y-83317676D01*
X127657737Y-83317676D02*
X127752975Y-83412914D01*
X127752975Y-83412914D02*
X127848213Y-83460533D01*
X131408333Y-97654819D02*
X131408333Y-98369104D01*
X131408333Y-98369104D02*
X131455952Y-98511961D01*
X131455952Y-98511961D02*
X131551190Y-98607200D01*
X131551190Y-98607200D02*
X131694047Y-98654819D01*
X131694047Y-98654819D02*
X131789285Y-98654819D01*
X130932142Y-98654819D02*
X130932142Y-97654819D01*
X130932142Y-97654819D02*
X130551190Y-97654819D01*
X130551190Y-97654819D02*
X130455952Y-97702438D01*
X130455952Y-97702438D02*
X130408333Y-97750057D01*
X130408333Y-97750057D02*
X130360714Y-97845295D01*
X130360714Y-97845295D02*
X130360714Y-97988152D01*
X130360714Y-97988152D02*
X130408333Y-98083390D01*
X130408333Y-98083390D02*
X130455952Y-98131009D01*
X130455952Y-98131009D02*
X130551190Y-98178628D01*
X130551190Y-98178628D02*
X130932142Y-98178628D01*
X129455952Y-97654819D02*
X129932142Y-97654819D01*
X129932142Y-97654819D02*
X129979761Y-98131009D01*
X129979761Y-98131009D02*
X129932142Y-98083390D01*
X129932142Y-98083390D02*
X129836904Y-98035771D01*
X129836904Y-98035771D02*
X129598809Y-98035771D01*
X129598809Y-98035771D02*
X129503571Y-98083390D01*
X129503571Y-98083390D02*
X129455952Y-98131009D01*
X129455952Y-98131009D02*
X129408333Y-98226247D01*
X129408333Y-98226247D02*
X129408333Y-98464342D01*
X129408333Y-98464342D02*
X129455952Y-98559580D01*
X129455952Y-98559580D02*
X129503571Y-98607200D01*
X129503571Y-98607200D02*
X129598809Y-98654819D01*
X129598809Y-98654819D02*
X129836904Y-98654819D01*
X129836904Y-98654819D02*
X129932142Y-98607200D01*
X129932142Y-98607200D02*
X129979761Y-98559580D01*
X182742857Y-90754819D02*
X183076190Y-90278628D01*
X183314285Y-90754819D02*
X183314285Y-89754819D01*
X183314285Y-89754819D02*
X182933333Y-89754819D01*
X182933333Y-89754819D02*
X182838095Y-89802438D01*
X182838095Y-89802438D02*
X182790476Y-89850057D01*
X182790476Y-89850057D02*
X182742857Y-89945295D01*
X182742857Y-89945295D02*
X182742857Y-90088152D01*
X182742857Y-90088152D02*
X182790476Y-90183390D01*
X182790476Y-90183390D02*
X182838095Y-90231009D01*
X182838095Y-90231009D02*
X182933333Y-90278628D01*
X182933333Y-90278628D02*
X183314285Y-90278628D01*
X181790476Y-90754819D02*
X182361904Y-90754819D01*
X182076190Y-90754819D02*
X182076190Y-89754819D01*
X182076190Y-89754819D02*
X182171428Y-89897676D01*
X182171428Y-89897676D02*
X182266666Y-89992914D01*
X182266666Y-89992914D02*
X182361904Y-90040533D01*
X180885714Y-89754819D02*
X181361904Y-89754819D01*
X181361904Y-89754819D02*
X181409523Y-90231009D01*
X181409523Y-90231009D02*
X181361904Y-90183390D01*
X181361904Y-90183390D02*
X181266666Y-90135771D01*
X181266666Y-90135771D02*
X181028571Y-90135771D01*
X181028571Y-90135771D02*
X180933333Y-90183390D01*
X180933333Y-90183390D02*
X180885714Y-90231009D01*
X180885714Y-90231009D02*
X180838095Y-90326247D01*
X180838095Y-90326247D02*
X180838095Y-90564342D01*
X180838095Y-90564342D02*
X180885714Y-90659580D01*
X180885714Y-90659580D02*
X180933333Y-90707200D01*
X180933333Y-90707200D02*
X181028571Y-90754819D01*
X181028571Y-90754819D02*
X181266666Y-90754819D01*
X181266666Y-90754819D02*
X181361904Y-90707200D01*
X181361904Y-90707200D02*
X181409523Y-90659580D01*
X182016666Y-104454819D02*
X182349999Y-103978628D01*
X182588094Y-104454819D02*
X182588094Y-103454819D01*
X182588094Y-103454819D02*
X182207142Y-103454819D01*
X182207142Y-103454819D02*
X182111904Y-103502438D01*
X182111904Y-103502438D02*
X182064285Y-103550057D01*
X182064285Y-103550057D02*
X182016666Y-103645295D01*
X182016666Y-103645295D02*
X182016666Y-103788152D01*
X182016666Y-103788152D02*
X182064285Y-103883390D01*
X182064285Y-103883390D02*
X182111904Y-103931009D01*
X182111904Y-103931009D02*
X182207142Y-103978628D01*
X182207142Y-103978628D02*
X182588094Y-103978628D01*
X181445237Y-103883390D02*
X181540475Y-103835771D01*
X181540475Y-103835771D02*
X181588094Y-103788152D01*
X181588094Y-103788152D02*
X181635713Y-103692914D01*
X181635713Y-103692914D02*
X181635713Y-103645295D01*
X181635713Y-103645295D02*
X181588094Y-103550057D01*
X181588094Y-103550057D02*
X181540475Y-103502438D01*
X181540475Y-103502438D02*
X181445237Y-103454819D01*
X181445237Y-103454819D02*
X181254761Y-103454819D01*
X181254761Y-103454819D02*
X181159523Y-103502438D01*
X181159523Y-103502438D02*
X181111904Y-103550057D01*
X181111904Y-103550057D02*
X181064285Y-103645295D01*
X181064285Y-103645295D02*
X181064285Y-103692914D01*
X181064285Y-103692914D02*
X181111904Y-103788152D01*
X181111904Y-103788152D02*
X181159523Y-103835771D01*
X181159523Y-103835771D02*
X181254761Y-103883390D01*
X181254761Y-103883390D02*
X181445237Y-103883390D01*
X181445237Y-103883390D02*
X181540475Y-103931009D01*
X181540475Y-103931009D02*
X181588094Y-103978628D01*
X181588094Y-103978628D02*
X181635713Y-104073866D01*
X181635713Y-104073866D02*
X181635713Y-104264342D01*
X181635713Y-104264342D02*
X181588094Y-104359580D01*
X181588094Y-104359580D02*
X181540475Y-104407200D01*
X181540475Y-104407200D02*
X181445237Y-104454819D01*
X181445237Y-104454819D02*
X181254761Y-104454819D01*
X181254761Y-104454819D02*
X181159523Y-104407200D01*
X181159523Y-104407200D02*
X181111904Y-104359580D01*
X181111904Y-104359580D02*
X181064285Y-104264342D01*
X181064285Y-104264342D02*
X181064285Y-104073866D01*
X181064285Y-104073866D02*
X181111904Y-103978628D01*
X181111904Y-103978628D02*
X181159523Y-103931009D01*
X181159523Y-103931009D02*
X181254761Y-103883390D01*
D11*
X135365000Y-119377064D02*
X135365000Y-118922936D01*
X136835000Y-119377064D02*
X136835000Y-118922936D01*
X172270000Y-110600000D02*
X172270000Y-109140000D01*
X173200000Y-109140000D02*
X172270000Y-109140000D01*
X174500000Y-109140000D02*
X175430000Y-109140000D01*
X175430000Y-109140000D02*
X175430000Y-109940000D01*
X175430000Y-110740000D02*
X175430000Y-109940000D01*
X175790000Y-111480000D02*
X175460000Y-111240000D01*
X175790000Y-111000000D01*
X175790000Y-111480000D01*
G36*
X175790000Y-111480000D02*
G01*
X175460000Y-111240000D01*
X175790000Y-111000000D01*
X175790000Y-111480000D01*
G37*
X174577064Y-87915000D02*
X174122936Y-87915000D01*
X174577064Y-89385000D02*
X174122936Y-89385000D01*
X129175001Y-100400000D02*
X131975001Y-100400000D01*
X129175001Y-102400000D02*
X129175001Y-100400000D01*
X131975001Y-100400000D02*
X131975001Y-102400000D01*
X131975001Y-102400000D02*
X129175001Y-102400000D01*
X173622936Y-104915000D02*
X174077064Y-104915000D01*
X173622936Y-106385000D02*
X174077064Y-106385000D01*
X129175000Y-97900000D02*
X131975000Y-97900000D01*
X129175000Y-99900000D02*
X129175000Y-97900000D01*
X131975000Y-97900000D02*
X131975000Y-99900000D01*
X131975000Y-99900000D02*
X129175000Y-99900000D01*
X142800000Y-112740000D02*
X142800000Y-123020000D01*
X142800000Y-123020000D02*
X147700000Y-123020000D01*
X144250000Y-112740000D02*
X142800000Y-112740000D01*
X147700000Y-112740000D02*
X146250000Y-112740000D01*
X147700000Y-123020000D02*
X147700000Y-112740000D01*
X146250000Y-112740000D02*
G75*
G02*
X144250000Y-112740000I-1000000J0D01*
G01*
X174077064Y-102415000D02*
X173622936Y-102415000D01*
X174077064Y-103885000D02*
X173622936Y-103885000D01*
X144542555Y-128783108D02*
X144996683Y-128783108D01*
X144542555Y-130253108D02*
X144996683Y-130253108D01*
X138122936Y-89915000D02*
X138577064Y-89915000D01*
X138122936Y-91385000D02*
X138577064Y-91385000D01*
X153550000Y-112740000D02*
X153550000Y-123020000D01*
X153550000Y-123020000D02*
X155000000Y-123020000D01*
X157000000Y-123020000D02*
X158450000Y-123020000D01*
X158450000Y-112740000D02*
X153550000Y-112740000D01*
X158450000Y-123020000D02*
X158450000Y-112740000D01*
X155000000Y-123020000D02*
G75*
G02*
X157000000Y-123020000I1000000J0D01*
G01*
X182077064Y-102415000D02*
X181622936Y-102415000D01*
X182077064Y-103885000D02*
X181622936Y-103885000D01*
X172700000Y-90400000D02*
X175500000Y-90400000D01*
X172700000Y-92400000D02*
X172700000Y-90400000D01*
X175500000Y-90400000D02*
X175500000Y-92400000D01*
X175500000Y-92400000D02*
X172700000Y-92400000D01*
X180450000Y-93150000D02*
X183250000Y-93150000D01*
X180450000Y-95150000D02*
X180450000Y-93150000D01*
X183250000Y-93150000D02*
X183250000Y-95150000D01*
X183250000Y-95150000D02*
X180450000Y-95150000D01*
X179270000Y-110600000D02*
X179270000Y-109140000D01*
X180200000Y-109140000D02*
X179270000Y-109140000D01*
X181500000Y-109140000D02*
X182430000Y-109140000D01*
X182430000Y-109140000D02*
X182430000Y-109940000D01*
X182430000Y-110740000D02*
X182430000Y-109940000D01*
X182790000Y-111480000D02*
X182460000Y-111240000D01*
X182790000Y-111000000D01*
X182790000Y-111480000D01*
G36*
X182790000Y-111480000D02*
G01*
X182460000Y-111240000D01*
X182790000Y-111000000D01*
X182790000Y-111480000D01*
G37*
X130340000Y-115370000D02*
X131140000Y-115370000D01*
X130340000Y-116300000D02*
X130340000Y-115370000D01*
X130340000Y-117600000D02*
X130340000Y-118530000D01*
X131800000Y-118530000D02*
X130340000Y-118530000D01*
X131940000Y-115370000D02*
X131140000Y-115370000D01*
X132440000Y-115340000D02*
X132200000Y-115010000D01*
X132680000Y-115010000D01*
X132440000Y-115340000D01*
G36*
X132440000Y-115340000D02*
G01*
X132200000Y-115010000D01*
X132680000Y-115010000D01*
X132440000Y-115340000D01*
G37*
X172700000Y-96900000D02*
X175500000Y-96900000D01*
X172700000Y-98900000D02*
X172700000Y-96900000D01*
X175500000Y-96900000D02*
X175500000Y-98900000D01*
X175500000Y-98900000D02*
X172700000Y-98900000D01*
X130945000Y-85925000D02*
X130945000Y-87875000D01*
X130945000Y-89825000D02*
X130945000Y-87875000D01*
X136065000Y-85925000D02*
X136065000Y-87875000D01*
X136065000Y-89825000D02*
X136065000Y-87875000D01*
X131040000Y-85175000D02*
X130710000Y-85415000D01*
X130710000Y-84935000D01*
X131040000Y-85175000D01*
G36*
X131040000Y-85175000D02*
G01*
X130710000Y-85415000D01*
X130710000Y-84935000D01*
X131040000Y-85175000D01*
G37*
X173865000Y-115922936D02*
X173865000Y-116377064D01*
X175335000Y-115922936D02*
X175335000Y-116377064D01*
X133600000Y-111225000D02*
X135600000Y-111225000D01*
X133600000Y-114025000D02*
X133600000Y-111225000D01*
X135600000Y-111225000D02*
X135600000Y-114025000D01*
X135600000Y-114025000D02*
X133600000Y-114025000D01*
X146925000Y-124650000D02*
X149725000Y-124650000D01*
X146925000Y-126650000D02*
X146925000Y-124650000D01*
X149725000Y-124650000D02*
X149725000Y-126650000D01*
X149725000Y-126650000D02*
X146925000Y-126650000D01*
X128062500Y-87000000D02*
X130062500Y-87000000D01*
X128062500Y-89800000D02*
X128062500Y-87000000D01*
X130062500Y-87000000D02*
X130062500Y-89800000D01*
X130062500Y-89800000D02*
X128062500Y-89800000D01*
X179270000Y-97810000D02*
X179270000Y-98610000D01*
X179270000Y-99410000D02*
X179270000Y-98610000D01*
X180200000Y-99410000D02*
X179270000Y-99410000D01*
X181500000Y-99410000D02*
X182430000Y-99410000D01*
X182430000Y-97950000D02*
X182430000Y-99410000D01*
X179240000Y-97310000D02*
X178910000Y-97550000D01*
X178910000Y-97070000D01*
X179240000Y-97310000D01*
G36*
X179240000Y-97310000D02*
G01*
X178910000Y-97550000D01*
X178910000Y-97070000D01*
X179240000Y-97310000D01*
G37*
X129200000Y-92900000D02*
X132000000Y-92900000D01*
X129200000Y-94900000D02*
X129200000Y-92900000D01*
X132000000Y-92900000D02*
X132000000Y-94900000D01*
X132000000Y-94900000D02*
X129200000Y-94900000D01*
X144996683Y-126783108D02*
X144542555Y-126783108D01*
X144996683Y-128253108D02*
X144542555Y-128253108D01*
X180450000Y-90400000D02*
X183250000Y-90400000D01*
X180450000Y-92400000D02*
X180450000Y-90400000D01*
X183250000Y-90400000D02*
X183250000Y-92400000D01*
X183250000Y-92400000D02*
X180450000Y-92400000D01*
X161865000Y-120911252D02*
X161865000Y-120388748D01*
X163335000Y-120911252D02*
X163335000Y-120388748D01*
X130372936Y-112965000D02*
X130827064Y-112965000D01*
X130372936Y-114435000D02*
X130827064Y-114435000D01*
X172700000Y-93150000D02*
X175500000Y-93150000D01*
X172700000Y-95150000D02*
X172700000Y-93150000D01*
X175500000Y-93150000D02*
X175500000Y-95150000D01*
X175500000Y-95150000D02*
X172700000Y-95150000D01*
X172700000Y-99650000D02*
X175500000Y-99650000D01*
X172700000Y-101650000D02*
X172700000Y-99650000D01*
X175500000Y-99650000D02*
X175500000Y-101650000D01*
X175500000Y-101650000D02*
X172700000Y-101650000D01*
X136600000Y-111225000D02*
X138600000Y-111225000D01*
X136600000Y-114025000D02*
X136600000Y-111225000D01*
X138600000Y-111225000D02*
X138600000Y-114025000D01*
X138600000Y-114025000D02*
X136600000Y-114025000D01*
X130372936Y-110715000D02*
X130827064Y-110715000D01*
X130372936Y-112185000D02*
X130827064Y-112185000D01*
X137615000Y-118922936D02*
X137615000Y-119377064D01*
X139085000Y-118922936D02*
X139085000Y-119377064D01*
X138122936Y-87665000D02*
X138577064Y-87665000D01*
X138122936Y-89135000D02*
X138577064Y-89135000D01*
X176615000Y-99672936D02*
X176615000Y-100127064D01*
X178085000Y-99672936D02*
X178085000Y-100127064D01*
X185077064Y-99415000D02*
X184622936Y-99415000D01*
X185077064Y-100885000D02*
X184622936Y-100885000D01*
X127801248Y-84665000D02*
X128323752Y-84665000D01*
X127801248Y-86135000D02*
X128323752Y-86135000D01*
X129175000Y-95400000D02*
X131975000Y-95400000D01*
X129175000Y-97400000D02*
X129175000Y-95400000D01*
X131975000Y-95400000D02*
X131975000Y-97400000D01*
X131975000Y-97400000D02*
X129175000Y-97400000D01*
X182327064Y-87915000D02*
X181872936Y-87915000D01*
X182327064Y-89385000D02*
X181872936Y-89385000D01*
X181622936Y-104915000D02*
X182077064Y-104915000D01*
X181622936Y-106385000D02*
X182077064Y-106385000D01*
M02*
