M48
; DRILL file {KiCad 8.0.5} date 2025-01-09T22:30:53-0600
; FORMAT={-:-/ absolute / inch / decimal}
; #@! TF.CreationDate,2025-01-09T22:30:53-06:00
; #@! TF.GenerationSoftware,Kicad,Pcbnew,8.0.5
; #@! TF.FileFunction,Plated,1,2,PTH
FMAT,2
INCH
; #@! TA.AperFunction,Plated,PTH,ComponentDrill
T1C0.0276
; #@! TA.AperFunction,Plated,PTH,ComponentDrill
T2C0.0374
; #@! TA.AperFunction,Plated,PTH,ComponentDrill
T3C0.0394
; #@! TA.AperFunction,Plated,PTH,ComponentDrill
T4C0.0598
%
G90
G05
T1
X6.5098Y-4.4547
X6.7264Y-3.9921
X6.8248Y-3.3917
X7.1299Y-3.3917
T2
X5.0226Y-3.5984
X5.0226Y-3.6969
X5.0226Y-3.7953
X5.0226Y-3.8937
X5.0226Y-3.9921
X5.0226Y-4.0906
X6.9803Y-4.061
X6.9803Y-4.1594
X6.9803Y-4.2579
X6.9813Y-4.5138
X6.9813Y-4.6122
X6.9813Y-4.7106
X6.9823Y-3.6083
X6.9823Y-3.7067
X6.9823Y-3.8051
X7.2874Y-3.6083
X7.2874Y-3.7067
X7.2874Y-3.8051
X7.2874Y-4.061
X7.2874Y-4.1594
X7.2874Y-4.2579
X7.2884Y-4.5138
X7.2884Y-4.6122
X7.2884Y-4.7106
T3
X5.0118Y-4.565
X5.2075Y-3.1358
X5.2075Y-3.2358
X5.3075Y-3.1358
X5.3075Y-3.2358
X5.311Y-4.565
X5.4075Y-3.1358
X5.4075Y-3.2358
X5.5075Y-3.1358
X5.5075Y-3.2358
X5.6075Y-3.1358
X5.6075Y-3.2358
X5.7075Y-3.1358
X5.7075Y-3.2358
X5.8075Y-3.1358
X5.8075Y-3.2358
X5.9075Y-3.1358
X5.9075Y-3.2358
X6.0075Y-3.1358
X6.0075Y-3.2358
X6.1075Y-3.1358
X6.1075Y-3.2358
X6.2075Y-3.1358
X6.2075Y-3.2358
X6.3075Y-3.1358
X6.3075Y-3.2358
X6.4075Y-3.1358
X6.4075Y-3.2358
X6.5075Y-3.1358
X6.5075Y-3.2358
X6.6075Y-3.1358
X6.6075Y-3.2358
X6.7075Y-3.1358
X6.7075Y-3.2358
X6.8075Y-3.1358
X6.8075Y-3.2358
X6.9075Y-3.1358
X6.9075Y-3.2358
X7.0075Y-3.1358
X7.0075Y-3.2358
X7.1075Y-3.1358
X7.1075Y-3.2358
T4
X5.365Y-5.065
X5.565Y-5.065
X5.8374Y-5.065
X6.0374Y-5.065
X6.3016Y-5.065
X6.5016Y-5.065
X6.7724Y-5.0634
X6.9724Y-5.0634
M30
