%TF.GenerationSoftware,KiCad,Pcbnew,8.0.5*%
%TF.CreationDate,2024-12-15T17:31:05-06:00*%
%TF.ProjectId,Hall_Effect.V1,48616c6c-5f45-4666-9665-63742e56312e,rev?*%
%TF.SameCoordinates,Original*%
%TF.FileFunction,Legend,Top*%
%TF.FilePolarity,Positive*%
%FSLAX46Y46*%
G04 Gerber Fmt 4.6, Leading zero omitted, Abs format (unit mm)*
G04 Created by KiCad (PCBNEW 8.0.5) date 2024-12-15 17:31:05*
%MOMM*%
%LPD*%
G01*
G04 APERTURE LIST*
%ADD10C,0.300000*%
%ADD11C,0.150000*%
%ADD12C,0.120000*%
G04 APERTURE END LIST*
D10*
X117739638Y-83326441D02*
X116406304Y-83326441D01*
X116787257Y-83326441D02*
X116596780Y-83231203D01*
X116596780Y-83231203D02*
X116501542Y-83135965D01*
X116501542Y-83135965D02*
X116406304Y-82945489D01*
X116406304Y-82945489D02*
X116406304Y-82755012D01*
X117644400Y-81326441D02*
X117739638Y-81516917D01*
X117739638Y-81516917D02*
X117739638Y-81897870D01*
X117739638Y-81897870D02*
X117644400Y-82088346D01*
X117644400Y-82088346D02*
X117453923Y-82183584D01*
X117453923Y-82183584D02*
X116692019Y-82183584D01*
X116692019Y-82183584D02*
X116501542Y-82088346D01*
X116501542Y-82088346D02*
X116406304Y-81897870D01*
X116406304Y-81897870D02*
X116406304Y-81516917D01*
X116406304Y-81516917D02*
X116501542Y-81326441D01*
X116501542Y-81326441D02*
X116692019Y-81231203D01*
X116692019Y-81231203D02*
X116882495Y-81231203D01*
X116882495Y-81231203D02*
X117072971Y-82183584D01*
X116406304Y-80564536D02*
X117739638Y-80088346D01*
X117739638Y-80088346D02*
X116406304Y-79612155D01*
X117549161Y-78850250D02*
X117644400Y-78755012D01*
X117644400Y-78755012D02*
X117739638Y-78850250D01*
X117739638Y-78850250D02*
X117644400Y-78945488D01*
X117644400Y-78945488D02*
X117549161Y-78850250D01*
X117549161Y-78850250D02*
X117739638Y-78850250D01*
X115739638Y-77516917D02*
X115739638Y-77326440D01*
X115739638Y-77326440D02*
X115834876Y-77135964D01*
X115834876Y-77135964D02*
X115930114Y-77040726D01*
X115930114Y-77040726D02*
X116120590Y-76945488D01*
X116120590Y-76945488D02*
X116501542Y-76850250D01*
X116501542Y-76850250D02*
X116977733Y-76850250D01*
X116977733Y-76850250D02*
X117358685Y-76945488D01*
X117358685Y-76945488D02*
X117549161Y-77040726D01*
X117549161Y-77040726D02*
X117644400Y-77135964D01*
X117644400Y-77135964D02*
X117739638Y-77326440D01*
X117739638Y-77326440D02*
X117739638Y-77516917D01*
X117739638Y-77516917D02*
X117644400Y-77707393D01*
X117644400Y-77707393D02*
X117549161Y-77802631D01*
X117549161Y-77802631D02*
X117358685Y-77897869D01*
X117358685Y-77897869D02*
X116977733Y-77993107D01*
X116977733Y-77993107D02*
X116501542Y-77993107D01*
X116501542Y-77993107D02*
X116120590Y-77897869D01*
X116120590Y-77897869D02*
X115930114Y-77802631D01*
X115930114Y-77802631D02*
X115834876Y-77707393D01*
X115834876Y-77707393D02*
X115739638Y-77516917D01*
X117739638Y-74945488D02*
X117739638Y-76088345D01*
X117739638Y-75516917D02*
X115739638Y-75516917D01*
X115739638Y-75516917D02*
X116025352Y-75707393D01*
X116025352Y-75707393D02*
X116215828Y-75897869D01*
X116215828Y-75897869D02*
X116311066Y-76088345D01*
D11*
X103204819Y-80726189D02*
X102204819Y-80726189D01*
X103109580Y-79678571D02*
X103157200Y-79726190D01*
X103157200Y-79726190D02*
X103204819Y-79869047D01*
X103204819Y-79869047D02*
X103204819Y-79964285D01*
X103204819Y-79964285D02*
X103157200Y-80107142D01*
X103157200Y-80107142D02*
X103061961Y-80202380D01*
X103061961Y-80202380D02*
X102966723Y-80249999D01*
X102966723Y-80249999D02*
X102776247Y-80297618D01*
X102776247Y-80297618D02*
X102633390Y-80297618D01*
X102633390Y-80297618D02*
X102442914Y-80249999D01*
X102442914Y-80249999D02*
X102347676Y-80202380D01*
X102347676Y-80202380D02*
X102252438Y-80107142D01*
X102252438Y-80107142D02*
X102204819Y-79964285D01*
X102204819Y-79964285D02*
X102204819Y-79869047D01*
X102204819Y-79869047D02*
X102252438Y-79726190D01*
X102252438Y-79726190D02*
X102300057Y-79678571D01*
X103204819Y-78726190D02*
X103204819Y-79297618D01*
X103204819Y-79011904D02*
X102204819Y-79011904D01*
X102204819Y-79011904D02*
X102347676Y-79107142D01*
X102347676Y-79107142D02*
X102442914Y-79202380D01*
X102442914Y-79202380D02*
X102490533Y-79297618D01*
X109583333Y-83954819D02*
X109250000Y-83478628D01*
X109011905Y-83954819D02*
X109011905Y-82954819D01*
X109011905Y-82954819D02*
X109392857Y-82954819D01*
X109392857Y-82954819D02*
X109488095Y-83002438D01*
X109488095Y-83002438D02*
X109535714Y-83050057D01*
X109535714Y-83050057D02*
X109583333Y-83145295D01*
X109583333Y-83145295D02*
X109583333Y-83288152D01*
X109583333Y-83288152D02*
X109535714Y-83383390D01*
X109535714Y-83383390D02*
X109488095Y-83431009D01*
X109488095Y-83431009D02*
X109392857Y-83478628D01*
X109392857Y-83478628D02*
X109011905Y-83478628D01*
X110535714Y-83954819D02*
X109964286Y-83954819D01*
X110250000Y-83954819D02*
X110250000Y-82954819D01*
X110250000Y-82954819D02*
X110154762Y-83097676D01*
X110154762Y-83097676D02*
X110059524Y-83192914D01*
X110059524Y-83192914D02*
X109964286Y-83240533D01*
X109416666Y-74954819D02*
X109416666Y-75669104D01*
X109416666Y-75669104D02*
X109369047Y-75811961D01*
X109369047Y-75811961D02*
X109273809Y-75907200D01*
X109273809Y-75907200D02*
X109130952Y-75954819D01*
X109130952Y-75954819D02*
X109035714Y-75954819D01*
X110321428Y-75288152D02*
X110321428Y-75954819D01*
X110083333Y-74907200D02*
X109845238Y-75621485D01*
X109845238Y-75621485D02*
X110464285Y-75621485D01*
D12*
%TO.C,IC1*%
X99640000Y-77490000D02*
X100750000Y-77490000D01*
X99640000Y-78250000D02*
X99640000Y-77490000D01*
X99640000Y-79010000D02*
X99640000Y-81485000D01*
X99640000Y-79010000D02*
X100186529Y-79010000D01*
X99640000Y-81485000D02*
X100442470Y-81485000D01*
X101057530Y-81485000D02*
X101860000Y-81485000D01*
X101313471Y-79010000D02*
X101860000Y-79010000D01*
X101860000Y-79010000D02*
X101860000Y-81485000D01*
%TO.C,R1*%
X105710000Y-83500000D02*
X106480000Y-83500000D01*
X106480000Y-82130000D02*
X106480000Y-84870000D01*
X106480000Y-84870000D02*
X113020000Y-84870000D01*
X113020000Y-82130000D02*
X106480000Y-82130000D01*
X113020000Y-84870000D02*
X113020000Y-82130000D01*
X113790000Y-83500000D02*
X113020000Y-83500000D01*
%TO.C,J4*%
X104690000Y-74765000D02*
X104690000Y-80735000D01*
X104690000Y-80735000D02*
X114810000Y-80735000D01*
X104700000Y-78475000D02*
X105450000Y-78475000D01*
X104700000Y-79975000D02*
X104700000Y-80725000D01*
X104700000Y-80725000D02*
X106500000Y-80725000D01*
X105450000Y-75525000D02*
X109750000Y-75525000D01*
X105450000Y-78475000D02*
X105450000Y-75525000D01*
X106500000Y-79975000D02*
X104700000Y-79975000D01*
X106500000Y-80725000D02*
X106500000Y-79975000D01*
X108000000Y-79975000D02*
X108000000Y-80725000D01*
X108000000Y-80725000D02*
X111500000Y-80725000D01*
X111500000Y-79975000D02*
X108000000Y-79975000D01*
X111500000Y-80725000D02*
X111500000Y-79975000D01*
X113000000Y-79975000D02*
X113000000Y-80725000D01*
X113000000Y-80725000D02*
X114800000Y-80725000D01*
X113850000Y-81025000D02*
X115100000Y-81025000D01*
X114050000Y-75525000D02*
X109750000Y-75525000D01*
X114050000Y-78475000D02*
X114050000Y-75525000D01*
X114800000Y-78475000D02*
X114050000Y-78475000D01*
X114800000Y-79975000D02*
X113000000Y-79975000D01*
X114800000Y-80725000D02*
X114800000Y-79975000D01*
X114810000Y-74765000D02*
X104690000Y-74765000D01*
X114810000Y-80735000D02*
X114810000Y-74765000D01*
X115100000Y-81025000D02*
X115100000Y-79775000D01*
%TD*%
M02*
