%TF.GenerationSoftware,KiCad,Pcbnew,8.0.5*%
%TF.CreationDate,2024-12-15T17:36:27-06:00*%
%TF.ProjectId,Relay_Boards.V1,52656c61-795f-4426-9f61-7264732e5631,rev?*%
%TF.SameCoordinates,Original*%
%TF.FileFunction,Copper,L1,Top*%
%TF.FilePolarity,Positive*%
%FSLAX46Y46*%
G04 Gerber Fmt 4.6, Leading zero omitted, Abs format (unit mm)*
G04 Created by KiCad (PCBNEW 8.0.5) date 2024-12-15 17:36:27*
%MOMM*%
%LPD*%
G01*
G04 APERTURE LIST*
G04 Aperture macros list*
%AMRoundRect*
0 Rectangle with rounded corners*
0 $1 Rounding radius*
0 $2 $3 $4 $5 $6 $7 $8 $9 X,Y pos of 4 corners*
0 Add a 4 corners polygon primitive as box body*
4,1,4,$2,$3,$4,$5,$6,$7,$8,$9,$2,$3,0*
0 Add four circle primitives for the rounded corners*
1,1,$1+$1,$2,$3*
1,1,$1+$1,$4,$5*
1,1,$1+$1,$6,$7*
1,1,$1+$1,$8,$9*
0 Add four rect primitives between the rounded corners*
20,1,$1+$1,$2,$3,$4,$5,0*
20,1,$1+$1,$4,$5,$6,$7,0*
20,1,$1+$1,$6,$7,$8,$9,0*
20,1,$1+$1,$8,$9,$2,$3,0*%
G04 Aperture macros list end*
%TA.AperFunction,ComponentPad*%
%ADD10R,1.800000X1.800000*%
%TD*%
%TA.AperFunction,ComponentPad*%
%ADD11O,1.800000X1.800000*%
%TD*%
%TA.AperFunction,ComponentPad*%
%ADD12RoundRect,0.250000X-0.725000X0.600000X-0.725000X-0.600000X0.725000X-0.600000X0.725000X0.600000X0*%
%TD*%
%TA.AperFunction,ComponentPad*%
%ADD13O,1.950000X1.700000*%
%TD*%
%TA.AperFunction,ComponentPad*%
%ADD14C,3.000000*%
%TD*%
%TA.AperFunction,ComponentPad*%
%ADD15C,2.500000*%
%TD*%
%TA.AperFunction,ComponentPad*%
%ADD16R,1.400000X1.400000*%
%TD*%
%TA.AperFunction,ComponentPad*%
%ADD17C,1.400000*%
%TD*%
%TA.AperFunction,ComponentPad*%
%ADD18C,1.600000*%
%TD*%
%TA.AperFunction,ComponentPad*%
%ADD19O,1.600000X1.600000*%
%TD*%
%TA.AperFunction,ComponentPad*%
%ADD20R,3.000000X3.000000*%
%TD*%
%TA.AperFunction,ComponentPad*%
%ADD21R,1.700000X1.700000*%
%TD*%
%TA.AperFunction,ComponentPad*%
%ADD22O,1.700000X1.700000*%
%TD*%
%TA.AperFunction,Conductor*%
%ADD23C,0.200000*%
%TD*%
%TA.AperFunction,Conductor*%
%ADD24C,1.500000*%
%TD*%
G04 APERTURE END LIST*
D10*
%TO.P,D4,1,K*%
%TO.N,Net-(D4-K)*%
X107750000Y-86440000D03*
D11*
%TO.P,D4,2,A*%
%TO.N,Net-(D4-A)*%
X107750000Y-94060000D03*
%TD*%
D12*
%TO.P,J9,1,Pin_1*%
%TO.N,GNDREF*%
X89500000Y-87750000D03*
D13*
%TO.P,J9,2,Pin_2*%
%TO.N,Net-(D4-K)*%
X89500000Y-90250000D03*
%TO.P,J9,3,Pin_3*%
%TO.N,Net-(J9-Pin_3)*%
X89500000Y-92750000D03*
%TD*%
D14*
%TO.P,K2,1*%
%TO.N,Net-(J1-RIGHT_LIGHT_OUTPUT2-Pin_2)*%
X111500000Y-90250000D03*
D15*
%TO.P,K2,2*%
%TO.N,Net-(D4-A)*%
X113450000Y-96300000D03*
D14*
%TO.P,K2,3*%
%TO.N,Net-(J1-RIGHT_LIGHT_OUTPUT2-Pin_1)*%
X125650000Y-96300000D03*
%TO.P,K2,4*%
%TO.N,N/C*%
X125700000Y-84250000D03*
D15*
%TO.P,K2,5*%
%TO.N,Net-(D4-K)*%
X113450000Y-84300000D03*
%TD*%
D16*
%TO.P,U2,1,A*%
%TO.N,Net-(U2-A)*%
X100290000Y-91250000D03*
D17*
%TO.P,U2,2,K*%
%TO.N,GNDREF*%
X100290000Y-88710000D03*
%TO.P,U2,3,R*%
%TO.N,Net-(R8-Pad2)*%
X95210000Y-88710000D03*
%TO.P,U2,4,R*%
%TO.N,Net-(J9-Pin_3)*%
X95210000Y-91250000D03*
%TD*%
D18*
%TO.P,R8,1*%
%TO.N,Net-(Q7-B)*%
X106830000Y-98250000D03*
D19*
%TO.P,R8,2*%
%TO.N,Net-(R8-Pad2)*%
X96670000Y-98250000D03*
%TD*%
D20*
%TO.P,J1-RIGHT_LIGHT_OUTPUT2,1,Pin_1*%
%TO.N,Net-(J1-RIGHT_LIGHT_OUTPUT2-Pin_1)*%
X135250000Y-92790000D03*
D14*
%TO.P,J1-RIGHT_LIGHT_OUTPUT2,2,Pin_2*%
%TO.N,Net-(J1-RIGHT_LIGHT_OUTPUT2-Pin_2)*%
X135250000Y-87710000D03*
%TD*%
D21*
%TO.P,Q7,1,C*%
%TO.N,Net-(D4-A)*%
X104000000Y-92790000D03*
D22*
%TO.P,Q7,2,B*%
%TO.N,Net-(Q7-B)*%
X104000000Y-90250000D03*
%TO.P,Q7,3,E*%
%TO.N,GNDREF*%
X104000000Y-87710000D03*
%TD*%
D18*
%TO.P,R4,1*%
%TO.N,Net-(U2-A)*%
X96670000Y-82250000D03*
D19*
%TO.P,R4,2*%
%TO.N,Net-(D4-K)*%
X106830000Y-82250000D03*
%TD*%
D23*
%TO.N,Net-(D4-K)*%
X105080000Y-80500000D02*
X94750000Y-80500000D01*
X107750000Y-86440000D02*
X109560000Y-86440000D01*
X93500000Y-81750000D02*
X93500000Y-89000000D01*
X107750000Y-86440000D02*
X107750000Y-83170000D01*
X94750000Y-80500000D02*
X93500000Y-81750000D01*
X107750000Y-83170000D02*
X106830000Y-82250000D01*
X106830000Y-82250000D02*
X105080000Y-80500000D01*
X93500000Y-89000000D02*
X92250000Y-90250000D01*
X109560000Y-86440000D02*
X111700000Y-84300000D01*
X111700000Y-84300000D02*
X113450000Y-84300000D01*
X92250000Y-90250000D02*
X89500000Y-90250000D01*
%TO.N,Net-(D4-A)*%
X111800000Y-96300000D02*
X109560000Y-94060000D01*
X109560000Y-94060000D02*
X107750000Y-94060000D01*
X113450000Y-96300000D02*
X111800000Y-96300000D01*
D24*
%TO.N,Net-(J1-RIGHT_LIGHT_OUTPUT2-Pin_1)*%
X129160000Y-92790000D02*
X125650000Y-96300000D01*
X135250000Y-92790000D02*
X129160000Y-92790000D01*
%TO.N,Net-(J1-RIGHT_LIGHT_OUTPUT2-Pin_2)*%
X126000000Y-90250000D02*
X128540000Y-87710000D01*
X128540000Y-87710000D02*
X135250000Y-87710000D01*
X111500000Y-90250000D02*
X126000000Y-90250000D01*
D23*
%TO.N,Net-(J9-Pin_3)*%
X93750000Y-91250000D02*
X92250000Y-92750000D01*
X95210000Y-91250000D02*
X93750000Y-91250000D01*
X92250000Y-92750000D02*
X89500000Y-92750000D01*
%TO.N,Net-(Q7-B)*%
X105750000Y-92000000D02*
X104000000Y-90250000D01*
X106830000Y-98250000D02*
X105750000Y-97170000D01*
X105750000Y-97170000D02*
X105750000Y-92000000D01*
%TO.N,Net-(U2-A)*%
X100290000Y-91250000D02*
X96670000Y-87630000D01*
X96670000Y-87630000D02*
X96670000Y-82250000D01*
%TO.N,Net-(R8-Pad2)*%
X96670000Y-90170000D02*
X96670000Y-98250000D01*
X95210000Y-88710000D02*
X96670000Y-90170000D01*
%TD*%
%TA.AperFunction,Conductor*%
%TO.N,GNDREF*%
G36*
X136503033Y-76750649D02*
G01*
X136523389Y-76751649D01*
X136589382Y-76774600D01*
X136632491Y-76829585D01*
X136639029Y-76899148D01*
X136606921Y-76961203D01*
X136546360Y-76996048D01*
X136517305Y-76999500D01*
X136323761Y-76999500D01*
X135973356Y-77037608D01*
X135629119Y-77113381D01*
X135295093Y-77225928D01*
X135295088Y-77225929D01*
X134975210Y-77373921D01*
X134975197Y-77373928D01*
X134673184Y-77555644D01*
X134392589Y-77768946D01*
X134392580Y-77768954D01*
X134136685Y-78011350D01*
X133908505Y-78279983D01*
X133908498Y-78279993D01*
X133710695Y-78571730D01*
X133545597Y-78883137D01*
X133545588Y-78883155D01*
X133415127Y-79210589D01*
X133415126Y-79210591D01*
X133320834Y-79550203D01*
X133320833Y-79550206D01*
X133263808Y-79898045D01*
X133244726Y-80249997D01*
X133244726Y-80250002D01*
X133263808Y-80601954D01*
X133300250Y-80824242D01*
X133319970Y-80944532D01*
X133320833Y-80949793D01*
X133320834Y-80949796D01*
X133415126Y-81289408D01*
X133415127Y-81289410D01*
X133545588Y-81616844D01*
X133545597Y-81616862D01*
X133663392Y-81839046D01*
X133710695Y-81928269D01*
X133893661Y-82198124D01*
X133908498Y-82220006D01*
X133908505Y-82220016D01*
X134126527Y-82476690D01*
X134136686Y-82488650D01*
X134392580Y-82731046D01*
X134673182Y-82944354D01*
X134975202Y-83126074D01*
X134975206Y-83126075D01*
X134975210Y-83126078D01*
X135295088Y-83274070D01*
X135295092Y-83274070D01*
X135295099Y-83274074D01*
X135629122Y-83386619D01*
X135973355Y-83462391D01*
X136323763Y-83500500D01*
X136323769Y-83500500D01*
X136676231Y-83500500D01*
X136676237Y-83500500D01*
X137026645Y-83462391D01*
X137370878Y-83386619D01*
X137704901Y-83274074D01*
X137704908Y-83274070D01*
X137704911Y-83274070D01*
X138024789Y-83126078D01*
X138024798Y-83126074D01*
X138326818Y-82944354D01*
X138607420Y-82731046D01*
X138863314Y-82488650D01*
X139091501Y-82220008D01*
X139289305Y-81928269D01*
X139454407Y-81616854D01*
X139584871Y-81289414D01*
X139595828Y-81249953D01*
X139632066Y-81119432D01*
X139679168Y-80949788D01*
X139736191Y-80601957D01*
X139751682Y-80316250D01*
X139774967Y-80250374D01*
X139830171Y-80207545D01*
X139899766Y-80201361D01*
X139961657Y-80233784D01*
X139996194Y-80294521D01*
X139999500Y-80322963D01*
X139999500Y-100177036D01*
X139979815Y-100244075D01*
X139927011Y-100289830D01*
X139857853Y-100299774D01*
X139794297Y-100270749D01*
X139756523Y-100211971D01*
X139751682Y-100183749D01*
X139739354Y-99956381D01*
X139736191Y-99898043D01*
X139679168Y-99550212D01*
X139632066Y-99380567D01*
X139584873Y-99210591D01*
X139584872Y-99210589D01*
X139454411Y-98883155D01*
X139454402Y-98883137D01*
X139453052Y-98880591D01*
X139289305Y-98571731D01*
X139091501Y-98279992D01*
X139091497Y-98279987D01*
X139091494Y-98279983D01*
X138863314Y-98011350D01*
X138837847Y-97987226D01*
X138607420Y-97768954D01*
X138607413Y-97768948D01*
X138607410Y-97768946D01*
X138402799Y-97613405D01*
X138326818Y-97555646D01*
X138298682Y-97538717D01*
X138024802Y-97373928D01*
X138024789Y-97373921D01*
X137704911Y-97225929D01*
X137704906Y-97225928D01*
X137704903Y-97225927D01*
X137704901Y-97225926D01*
X137598432Y-97190052D01*
X137370880Y-97113381D01*
X137026643Y-97037608D01*
X136676238Y-96999500D01*
X136676237Y-96999500D01*
X136323763Y-96999500D01*
X136323761Y-96999500D01*
X135973356Y-97037608D01*
X135629119Y-97113381D01*
X135295093Y-97225928D01*
X135295088Y-97225929D01*
X134975210Y-97373921D01*
X134975197Y-97373928D01*
X134673184Y-97555644D01*
X134392589Y-97768946D01*
X134392580Y-97768954D01*
X134136685Y-98011350D01*
X133908505Y-98279983D01*
X133908498Y-98279993D01*
X133710695Y-98571730D01*
X133545597Y-98883137D01*
X133545588Y-98883155D01*
X133415127Y-99210589D01*
X133415126Y-99210591D01*
X133320834Y-99550203D01*
X133320833Y-99550206D01*
X133263808Y-99898045D01*
X133244726Y-100249997D01*
X133244726Y-100250002D01*
X133263808Y-100601954D01*
X133320833Y-100949793D01*
X133320834Y-100949796D01*
X133415126Y-101289408D01*
X133415127Y-101289410D01*
X133545588Y-101616844D01*
X133545597Y-101616862D01*
X133664235Y-101840637D01*
X133710695Y-101928269D01*
X133893661Y-102198124D01*
X133908498Y-102220006D01*
X133908505Y-102220016D01*
X134128207Y-102478668D01*
X134136686Y-102488650D01*
X134392580Y-102731046D01*
X134673182Y-102944354D01*
X134975202Y-103126074D01*
X134975206Y-103126075D01*
X134975210Y-103126078D01*
X135295088Y-103274070D01*
X135295092Y-103274070D01*
X135295099Y-103274074D01*
X135629122Y-103386619D01*
X135973355Y-103462391D01*
X136323763Y-103500500D01*
X136323769Y-103500500D01*
X136517305Y-103500500D01*
X136584344Y-103520185D01*
X136630099Y-103572989D01*
X136640043Y-103642147D01*
X136611018Y-103705703D01*
X136552240Y-103743477D01*
X136523389Y-103748351D01*
X136503033Y-103749351D01*
X136496949Y-103749500D01*
X87003051Y-103749500D01*
X86996967Y-103749351D01*
X86976611Y-103748351D01*
X86910618Y-103725400D01*
X86867509Y-103670415D01*
X86860971Y-103600852D01*
X86893079Y-103538797D01*
X86953640Y-103503952D01*
X86982695Y-103500500D01*
X87176231Y-103500500D01*
X87176237Y-103500500D01*
X87526645Y-103462391D01*
X87870878Y-103386619D01*
X88204901Y-103274074D01*
X88204908Y-103274070D01*
X88204911Y-103274070D01*
X88524789Y-103126078D01*
X88524798Y-103126074D01*
X88826818Y-102944354D01*
X89107420Y-102731046D01*
X89363314Y-102488650D01*
X89591501Y-102220008D01*
X89789305Y-101928269D01*
X89954407Y-101616854D01*
X90084871Y-101289414D01*
X90091414Y-101265851D01*
X90136588Y-101103147D01*
X90179168Y-100949788D01*
X90236191Y-100601957D01*
X90252972Y-100292454D01*
X90255274Y-100250002D01*
X90255274Y-100249997D01*
X90239354Y-99956381D01*
X90236191Y-99898043D01*
X90179168Y-99550212D01*
X90132066Y-99380567D01*
X90084873Y-99210591D01*
X90084872Y-99210589D01*
X89954411Y-98883155D01*
X89954402Y-98883137D01*
X89953052Y-98880591D01*
X89789305Y-98571731D01*
X89591501Y-98279992D01*
X89591497Y-98279987D01*
X89591494Y-98279983D01*
X89363314Y-98011350D01*
X89337847Y-97987226D01*
X89107420Y-97768954D01*
X89107413Y-97768948D01*
X89107410Y-97768946D01*
X88902799Y-97613405D01*
X88826818Y-97555646D01*
X88798682Y-97538717D01*
X88524802Y-97373928D01*
X88524789Y-97373921D01*
X88204911Y-97225929D01*
X88204906Y-97225928D01*
X88204903Y-97225927D01*
X88204901Y-97225926D01*
X88098432Y-97190052D01*
X87870880Y-97113381D01*
X87526643Y-97037608D01*
X87176238Y-96999500D01*
X87176237Y-96999500D01*
X86823763Y-96999500D01*
X86823761Y-96999500D01*
X86473356Y-97037608D01*
X86129119Y-97113381D01*
X85795093Y-97225928D01*
X85795088Y-97225929D01*
X85475210Y-97373921D01*
X85475197Y-97373928D01*
X85173184Y-97555644D01*
X84892589Y-97768946D01*
X84892580Y-97768954D01*
X84636685Y-98011350D01*
X84408505Y-98279983D01*
X84408498Y-98279993D01*
X84210695Y-98571730D01*
X84045597Y-98883137D01*
X84045588Y-98883155D01*
X83915127Y-99210589D01*
X83915126Y-99210591D01*
X83820834Y-99550203D01*
X83820833Y-99550206D01*
X83763808Y-99898045D01*
X83748318Y-100183749D01*
X83725033Y-100249625D01*
X83669829Y-100292454D01*
X83600234Y-100298638D01*
X83538343Y-100266215D01*
X83503806Y-100205478D01*
X83502248Y-100192077D01*
X83501561Y-100192168D01*
X83500500Y-100184113D01*
X83500500Y-100184108D01*
X83479725Y-100106572D01*
X83475500Y-100074480D01*
X83475500Y-90143713D01*
X88024500Y-90143713D01*
X88024500Y-90356286D01*
X88044951Y-90485412D01*
X88057754Y-90566243D01*
X88112109Y-90733531D01*
X88123444Y-90768414D01*
X88219951Y-90957820D01*
X88344890Y-91129786D01*
X88495209Y-91280105D01*
X88495214Y-91280109D01*
X88659793Y-91399682D01*
X88702459Y-91455011D01*
X88708438Y-91524625D01*
X88675833Y-91586420D01*
X88659793Y-91600318D01*
X88495214Y-91719890D01*
X88495209Y-91719894D01*
X88344890Y-91870213D01*
X88219951Y-92042179D01*
X88123444Y-92231585D01*
X88057753Y-92433760D01*
X88056117Y-92444091D01*
X88024500Y-92643713D01*
X88024500Y-92856287D01*
X88057754Y-93066243D01*
X88111130Y-93230518D01*
X88123444Y-93268414D01*
X88219951Y-93457820D01*
X88344890Y-93629786D01*
X88495213Y-93780109D01*
X88667179Y-93905048D01*
X88667181Y-93905049D01*
X88667184Y-93905051D01*
X88856588Y-94001557D01*
X89058757Y-94067246D01*
X89268713Y-94100500D01*
X89268714Y-94100500D01*
X89731286Y-94100500D01*
X89731287Y-94100500D01*
X89941243Y-94067246D01*
X90143412Y-94001557D01*
X90332816Y-93905051D01*
X90437912Y-93828695D01*
X90504786Y-93780109D01*
X90504788Y-93780106D01*
X90504792Y-93780104D01*
X90655104Y-93629792D01*
X90655106Y-93629788D01*
X90655109Y-93629786D01*
X90713661Y-93549193D01*
X90780051Y-93457816D01*
X90789223Y-93439815D01*
X90800235Y-93418205D01*
X90848209Y-93367409D01*
X90910719Y-93350500D01*
X92163331Y-93350500D01*
X92163347Y-93350501D01*
X92170943Y-93350501D01*
X92329054Y-93350501D01*
X92329057Y-93350501D01*
X92481785Y-93309577D01*
X92550289Y-93270026D01*
X92618716Y-93230520D01*
X92730520Y-93118716D01*
X92730520Y-93118714D01*
X92740724Y-93108511D01*
X92740727Y-93108506D01*
X93962416Y-91886819D01*
X94023739Y-91853334D01*
X94050097Y-91850500D01*
X94097379Y-91850500D01*
X94164418Y-91870185D01*
X94196333Y-91899773D01*
X94319020Y-92062238D01*
X94483437Y-92212123D01*
X94483439Y-92212125D01*
X94672595Y-92329245D01*
X94672596Y-92329245D01*
X94672599Y-92329247D01*
X94880060Y-92409618D01*
X95098757Y-92450500D01*
X95098759Y-92450500D01*
X95321241Y-92450500D01*
X95321243Y-92450500D01*
X95539940Y-92409618D01*
X95747401Y-92329247D01*
X95880225Y-92247006D01*
X95947583Y-92228451D01*
X96014282Y-92249259D01*
X96059144Y-92302825D01*
X96069500Y-92352434D01*
X96069500Y-97018306D01*
X96049815Y-97085345D01*
X96016623Y-97119881D01*
X95830859Y-97249953D01*
X95669954Y-97410858D01*
X95539432Y-97597265D01*
X95539431Y-97597267D01*
X95443261Y-97803502D01*
X95443258Y-97803511D01*
X95384366Y-98023302D01*
X95384364Y-98023313D01*
X95364532Y-98249998D01*
X95364532Y-98250001D01*
X95384364Y-98476686D01*
X95384366Y-98476697D01*
X95443258Y-98696488D01*
X95443261Y-98696497D01*
X95539431Y-98902732D01*
X95539432Y-98902734D01*
X95669954Y-99089141D01*
X95830858Y-99250045D01*
X95830861Y-99250047D01*
X96017266Y-99380568D01*
X96223504Y-99476739D01*
X96443308Y-99535635D01*
X96605230Y-99549801D01*
X96669998Y-99555468D01*
X96670000Y-99555468D01*
X96670002Y-99555468D01*
X96730179Y-99550203D01*
X96896692Y-99535635D01*
X97116496Y-99476739D01*
X97322734Y-99380568D01*
X97509139Y-99250047D01*
X97670047Y-99089139D01*
X97800568Y-98902734D01*
X97896739Y-98696496D01*
X97955635Y-98476692D01*
X97975468Y-98250000D01*
X97955635Y-98023308D01*
X97896739Y-97803504D01*
X97800568Y-97597266D01*
X97670047Y-97410861D01*
X97670045Y-97410858D01*
X97509140Y-97249953D01*
X97323377Y-97119881D01*
X97279752Y-97065304D01*
X97270500Y-97018306D01*
X97270500Y-90259060D01*
X97270501Y-90259047D01*
X97270501Y-90090945D01*
X97270501Y-90090943D01*
X97229577Y-89938215D01*
X97150520Y-89801284D01*
X96421313Y-89072078D01*
X96387829Y-89010756D01*
X96389730Y-88950460D01*
X96395115Y-88931536D01*
X96415643Y-88710000D01*
X96397786Y-88517293D01*
X96411201Y-88448726D01*
X96459558Y-88398294D01*
X96527504Y-88382011D01*
X96593466Y-88405048D01*
X96608938Y-88418173D01*
X99053181Y-90862416D01*
X99086666Y-90923739D01*
X99089500Y-90950097D01*
X99089500Y-91997870D01*
X99089501Y-91997876D01*
X99095908Y-92057483D01*
X99146202Y-92192328D01*
X99146206Y-92192335D01*
X99232452Y-92307544D01*
X99232455Y-92307547D01*
X99347664Y-92393793D01*
X99347671Y-92393797D01*
X99482517Y-92444091D01*
X99482516Y-92444091D01*
X99489444Y-92444835D01*
X99542127Y-92450500D01*
X101037872Y-92450499D01*
X101097483Y-92444091D01*
X101232331Y-92393796D01*
X101347546Y-92307546D01*
X101433796Y-92192331D01*
X101484091Y-92057483D01*
X101490500Y-91997873D01*
X101490499Y-90502128D01*
X101484091Y-90442517D01*
X101482318Y-90437764D01*
X101433797Y-90307671D01*
X101433793Y-90307664D01*
X101390625Y-90249999D01*
X102644341Y-90249999D01*
X102644341Y-90250000D01*
X102664936Y-90485403D01*
X102664938Y-90485413D01*
X102726094Y-90713655D01*
X102726096Y-90713659D01*
X102726097Y-90713663D01*
X102789906Y-90850501D01*
X102825965Y-90927830D01*
X102825967Y-90927834D01*
X102961501Y-91121395D01*
X102961506Y-91121402D01*
X103083430Y-91243326D01*
X103116915Y-91304649D01*
X103111931Y-91374341D01*
X103070059Y-91430274D01*
X103039083Y-91447189D01*
X102907669Y-91496203D01*
X102907664Y-91496206D01*
X102792455Y-91582452D01*
X102792452Y-91582455D01*
X102706206Y-91697664D01*
X102706202Y-91697671D01*
X102655908Y-91832517D01*
X102649501Y-91892116D01*
X102649500Y-91892135D01*
X102649500Y-93687870D01*
X102649501Y-93687876D01*
X102655908Y-93747483D01*
X102706202Y-93882328D01*
X102706206Y-93882335D01*
X102792452Y-93997544D01*
X102792455Y-93997547D01*
X102907664Y-94083793D01*
X102907671Y-94083797D01*
X103042517Y-94134091D01*
X103042516Y-94134091D01*
X103049444Y-94134835D01*
X103102127Y-94140500D01*
X104897872Y-94140499D01*
X104957483Y-94134091D01*
X104982165Y-94124884D01*
X105051856Y-94119899D01*
X105113180Y-94153384D01*
X105146666Y-94214706D01*
X105149500Y-94241066D01*
X105149500Y-97083330D01*
X105149499Y-97083348D01*
X105149499Y-97249054D01*
X105149498Y-97249054D01*
X105190423Y-97401787D01*
X105190424Y-97401788D01*
X105202191Y-97422168D01*
X105202193Y-97422171D01*
X105269477Y-97538712D01*
X105269481Y-97538717D01*
X105388349Y-97657585D01*
X105388355Y-97657590D01*
X105538058Y-97807293D01*
X105571543Y-97868616D01*
X105570152Y-97927067D01*
X105544366Y-98023302D01*
X105544364Y-98023313D01*
X105524532Y-98249998D01*
X105524532Y-98250001D01*
X105544364Y-98476686D01*
X105544366Y-98476697D01*
X105603258Y-98696488D01*
X105603261Y-98696497D01*
X105699431Y-98902732D01*
X105699432Y-98902734D01*
X105829954Y-99089141D01*
X105990858Y-99250045D01*
X105990861Y-99250047D01*
X106177266Y-99380568D01*
X106383504Y-99476739D01*
X106603308Y-99535635D01*
X106765230Y-99549801D01*
X106829998Y-99555468D01*
X106830000Y-99555468D01*
X106830002Y-99555468D01*
X106890179Y-99550203D01*
X107056692Y-99535635D01*
X107276496Y-99476739D01*
X107482734Y-99380568D01*
X107669139Y-99250047D01*
X107830047Y-99089139D01*
X107960568Y-98902734D01*
X108056739Y-98696496D01*
X108115635Y-98476692D01*
X108135468Y-98250000D01*
X108115635Y-98023308D01*
X108056739Y-97803504D01*
X107960568Y-97597266D01*
X107830047Y-97410861D01*
X107830045Y-97410858D01*
X107669141Y-97249954D01*
X107482734Y-97119432D01*
X107482732Y-97119431D01*
X107276497Y-97023261D01*
X107276488Y-97023258D01*
X107056697Y-96964366D01*
X107056693Y-96964365D01*
X107056692Y-96964365D01*
X107056691Y-96964364D01*
X107056686Y-96964364D01*
X106830002Y-96944532D01*
X106829998Y-96944532D01*
X106603313Y-96964364D01*
X106603299Y-96964367D01*
X106507067Y-96990151D01*
X106437217Y-96988488D01*
X106387294Y-96958057D01*
X106386819Y-96957582D01*
X106353334Y-96896259D01*
X106350500Y-96869901D01*
X106350500Y-94894986D01*
X106370185Y-94827947D01*
X106422989Y-94782192D01*
X106492147Y-94772248D01*
X106555703Y-94801273D01*
X106578309Y-94827165D01*
X106641016Y-94923147D01*
X106641019Y-94923151D01*
X106641021Y-94923153D01*
X106798216Y-95093913D01*
X106798219Y-95093915D01*
X106798222Y-95093918D01*
X106981365Y-95236464D01*
X106981371Y-95236468D01*
X106981374Y-95236470D01*
X107185497Y-95346936D01*
X107299487Y-95386068D01*
X107405015Y-95422297D01*
X107405017Y-95422297D01*
X107405019Y-95422298D01*
X107633951Y-95460500D01*
X107633952Y-95460500D01*
X107866048Y-95460500D01*
X107866049Y-95460500D01*
X108094981Y-95422298D01*
X108314503Y-95346936D01*
X108518626Y-95236470D01*
X108701784Y-95093913D01*
X108858979Y-94923153D01*
X108985924Y-94728849D01*
X108985926Y-94728843D01*
X108987747Y-94725481D01*
X109036967Y-94675891D01*
X109096801Y-94660500D01*
X109259903Y-94660500D01*
X109326942Y-94680185D01*
X109347584Y-94696819D01*
X111315139Y-96664374D01*
X111315149Y-96664385D01*
X111319479Y-96668715D01*
X111319480Y-96668716D01*
X111431284Y-96780520D01*
X111431286Y-96780521D01*
X111431290Y-96780524D01*
X111568209Y-96859573D01*
X111568216Y-96859577D01*
X111680019Y-96889534D01*
X111720942Y-96900500D01*
X111720943Y-96900500D01*
X111720946Y-96900500D01*
X111729000Y-96901561D01*
X111728823Y-96902900D01*
X111787686Y-96920185D01*
X111833441Y-96972989D01*
X111836058Y-96979157D01*
X111868432Y-97061643D01*
X111868434Y-97061646D01*
X111868435Y-97061649D01*
X111880953Y-97083330D01*
X111999614Y-97288857D01*
X112131736Y-97454533D01*
X112163198Y-97493985D01*
X112331904Y-97650520D01*
X112355521Y-97672433D01*
X112572296Y-97820228D01*
X112572301Y-97820230D01*
X112572302Y-97820231D01*
X112572303Y-97820232D01*
X112650556Y-97857916D01*
X112808673Y-97934061D01*
X112808674Y-97934061D01*
X112808677Y-97934063D01*
X113059385Y-98011396D01*
X113318818Y-98050500D01*
X113581182Y-98050500D01*
X113840615Y-98011396D01*
X114091323Y-97934063D01*
X114327704Y-97820228D01*
X114544479Y-97672433D01*
X114736805Y-97493981D01*
X114900386Y-97288857D01*
X115031568Y-97061643D01*
X115127420Y-96817416D01*
X115185802Y-96561630D01*
X115205408Y-96300000D01*
X115205408Y-96299998D01*
X123644390Y-96299998D01*
X123644390Y-96300001D01*
X123664804Y-96585433D01*
X123725628Y-96865037D01*
X123725630Y-96865043D01*
X123725631Y-96865046D01*
X123820512Y-97119431D01*
X123825635Y-97133166D01*
X123962770Y-97384309D01*
X123962775Y-97384317D01*
X124134254Y-97613387D01*
X124134270Y-97613405D01*
X124336594Y-97815729D01*
X124336612Y-97815745D01*
X124565682Y-97987224D01*
X124565690Y-97987229D01*
X124816833Y-98124364D01*
X124816832Y-98124364D01*
X124816836Y-98124365D01*
X124816839Y-98124367D01*
X125084954Y-98224369D01*
X125084960Y-98224370D01*
X125084962Y-98224371D01*
X125364566Y-98285195D01*
X125364568Y-98285195D01*
X125364572Y-98285196D01*
X125618220Y-98303337D01*
X125649999Y-98305610D01*
X125650000Y-98305610D01*
X125650001Y-98305610D01*
X125678595Y-98303564D01*
X125935428Y-98285196D01*
X125959351Y-98279992D01*
X126215037Y-98224371D01*
X126215037Y-98224370D01*
X126215046Y-98224369D01*
X126483161Y-98124367D01*
X126734315Y-97987226D01*
X126963395Y-97815739D01*
X127165739Y-97613395D01*
X127337226Y-97384315D01*
X127474367Y-97133161D01*
X127574369Y-96865046D01*
X127592756Y-96780521D01*
X127635195Y-96585433D01*
X127635195Y-96585432D01*
X127635196Y-96585428D01*
X127655610Y-96300000D01*
X127643821Y-96135175D01*
X127658673Y-96066902D01*
X127679820Y-96038652D01*
X129641655Y-94076819D01*
X129702978Y-94043334D01*
X129729336Y-94040500D01*
X133125501Y-94040500D01*
X133192540Y-94060185D01*
X133238295Y-94112989D01*
X133249501Y-94164500D01*
X133249501Y-94337876D01*
X133255908Y-94397483D01*
X133306202Y-94532328D01*
X133306206Y-94532335D01*
X133392452Y-94647544D01*
X133392455Y-94647547D01*
X133507664Y-94733793D01*
X133507671Y-94733797D01*
X133642517Y-94784091D01*
X133642516Y-94784091D01*
X133649444Y-94784835D01*
X133702127Y-94790500D01*
X136797872Y-94790499D01*
X136857483Y-94784091D01*
X136992331Y-94733796D01*
X137107546Y-94647546D01*
X137193796Y-94532331D01*
X137244091Y-94397483D01*
X137250500Y-94337873D01*
X137250499Y-91242128D01*
X137244091Y-91182517D01*
X137221296Y-91121401D01*
X137193797Y-91047671D01*
X137193793Y-91047664D01*
X137107547Y-90932455D01*
X137107544Y-90932452D01*
X136992335Y-90846206D01*
X136992328Y-90846202D01*
X136857482Y-90795908D01*
X136857483Y-90795908D01*
X136797883Y-90789501D01*
X136797881Y-90789500D01*
X136797873Y-90789500D01*
X136797864Y-90789500D01*
X133702129Y-90789500D01*
X133702123Y-90789501D01*
X133642516Y-90795908D01*
X133507671Y-90846202D01*
X133507664Y-90846206D01*
X133392455Y-90932452D01*
X133392452Y-90932455D01*
X133306206Y-91047664D01*
X133306202Y-91047671D01*
X133255908Y-91182517D01*
X133249501Y-91242116D01*
X133249501Y-91242123D01*
X133249500Y-91242135D01*
X133249500Y-91415500D01*
X133229815Y-91482539D01*
X133177011Y-91528294D01*
X133125500Y-91539500D01*
X129061578Y-91539500D01*
X128928759Y-91560537D01*
X128928758Y-91560537D01*
X128867174Y-91570290D01*
X128867173Y-91570290D01*
X128679969Y-91631117D01*
X128504594Y-91720476D01*
X128413742Y-91786484D01*
X128345355Y-91836171D01*
X128345353Y-91836173D01*
X128345352Y-91836173D01*
X125911349Y-94270175D01*
X125850026Y-94303660D01*
X125814822Y-94306178D01*
X125650001Y-94294390D01*
X125649999Y-94294390D01*
X125364566Y-94314804D01*
X125084962Y-94375628D01*
X124816833Y-94475635D01*
X124565690Y-94612770D01*
X124565682Y-94612775D01*
X124336612Y-94784254D01*
X124336594Y-94784270D01*
X124134270Y-94986594D01*
X124134254Y-94986612D01*
X123962775Y-95215682D01*
X123962770Y-95215690D01*
X123825635Y-95466833D01*
X123725628Y-95734962D01*
X123664804Y-96014566D01*
X123644390Y-96299998D01*
X115205408Y-96299998D01*
X115193056Y-96135175D01*
X115185803Y-96038379D01*
X115185802Y-96038374D01*
X115185802Y-96038370D01*
X115127420Y-95782584D01*
X115031568Y-95538357D01*
X114900386Y-95311143D01*
X114736805Y-95106019D01*
X114736804Y-95106018D01*
X114736801Y-95106014D01*
X114544479Y-94927567D01*
X114537996Y-94923147D01*
X114327704Y-94779772D01*
X114327700Y-94779770D01*
X114327697Y-94779768D01*
X114327696Y-94779767D01*
X114091325Y-94665938D01*
X114091327Y-94665938D01*
X113840623Y-94588606D01*
X113840619Y-94588605D01*
X113840615Y-94588604D01*
X113715823Y-94569794D01*
X113581187Y-94549500D01*
X113581182Y-94549500D01*
X113318818Y-94549500D01*
X113318812Y-94549500D01*
X113157247Y-94573853D01*
X113059385Y-94588604D01*
X113059382Y-94588605D01*
X113059376Y-94588606D01*
X112808673Y-94665938D01*
X112572303Y-94779767D01*
X112572302Y-94779768D01*
X112355520Y-94927567D01*
X112163198Y-95106014D01*
X111999612Y-95311145D01*
X111956243Y-95386261D01*
X111905676Y-95434476D01*
X111837068Y-95447698D01*
X111772204Y-95421730D01*
X111761176Y-95411941D01*
X110047590Y-93698355D01*
X110047588Y-93698352D01*
X109928717Y-93579481D01*
X109928716Y-93579480D01*
X109841904Y-93529360D01*
X109841904Y-93529359D01*
X109841900Y-93529358D01*
X109791785Y-93500423D01*
X109639057Y-93459499D01*
X109480943Y-93459499D01*
X109473347Y-93459499D01*
X109473331Y-93459500D01*
X109096801Y-93459500D01*
X109029762Y-93439815D01*
X108987747Y-93394519D01*
X108985924Y-93391151D01*
X108858983Y-93196852D01*
X108858980Y-93196849D01*
X108858979Y-93196847D01*
X108701784Y-93026087D01*
X108701779Y-93026083D01*
X108701777Y-93026081D01*
X108518634Y-92883535D01*
X108518628Y-92883531D01*
X108314504Y-92773064D01*
X108314495Y-92773061D01*
X108094984Y-92697702D01*
X107923282Y-92669050D01*
X107866049Y-92659500D01*
X107633951Y-92659500D01*
X107588164Y-92667140D01*
X107405015Y-92697702D01*
X107185504Y-92773061D01*
X107185495Y-92773064D01*
X106981371Y-92883531D01*
X106981365Y-92883535D01*
X106798222Y-93026081D01*
X106798219Y-93026084D01*
X106641018Y-93196850D01*
X106578309Y-93292835D01*
X106525162Y-93338191D01*
X106455931Y-93347615D01*
X106392595Y-93318113D01*
X106355264Y-93259053D01*
X106350500Y-93225013D01*
X106350500Y-92089060D01*
X106350501Y-92089047D01*
X106350501Y-91920944D01*
X106344828Y-91899773D01*
X106309577Y-91768216D01*
X106268844Y-91697664D01*
X106230524Y-91631290D01*
X106230518Y-91631282D01*
X105332766Y-90733531D01*
X105299281Y-90672208D01*
X105300672Y-90613757D01*
X105313404Y-90566239D01*
X105335063Y-90485408D01*
X105355659Y-90250000D01*
X105355659Y-90249998D01*
X109494390Y-90249998D01*
X109494390Y-90250001D01*
X109514804Y-90535433D01*
X109575628Y-90815037D01*
X109575630Y-90815043D01*
X109575631Y-90815046D01*
X109626003Y-90950097D01*
X109675635Y-91083166D01*
X109812770Y-91334309D01*
X109812775Y-91334317D01*
X109984254Y-91563387D01*
X109984270Y-91563405D01*
X110186594Y-91765729D01*
X110186612Y-91765745D01*
X110415682Y-91937224D01*
X110415690Y-91937229D01*
X110666833Y-92074364D01*
X110666832Y-92074364D01*
X110666836Y-92074365D01*
X110666839Y-92074367D01*
X110934954Y-92174369D01*
X110934960Y-92174370D01*
X110934962Y-92174371D01*
X111214566Y-92235195D01*
X111214568Y-92235195D01*
X111214572Y-92235196D01*
X111468220Y-92253337D01*
X111499999Y-92255610D01*
X111500000Y-92255610D01*
X111500001Y-92255610D01*
X111528595Y-92253564D01*
X111785428Y-92235196D01*
X111816435Y-92228451D01*
X112065037Y-92174371D01*
X112065037Y-92174370D01*
X112065046Y-92174369D01*
X112333161Y-92074367D01*
X112584315Y-91937226D01*
X112813395Y-91765739D01*
X113015739Y-91563395D01*
X113025626Y-91550188D01*
X113081560Y-91508318D01*
X113124892Y-91500500D01*
X126098422Y-91500500D01*
X126292826Y-91469709D01*
X126480026Y-91408884D01*
X126655405Y-91319524D01*
X126814646Y-91203828D01*
X129021655Y-88996819D01*
X129082978Y-88963334D01*
X129109336Y-88960500D01*
X133625108Y-88960500D01*
X133692147Y-88980185D01*
X133724374Y-89010188D01*
X133734257Y-89023390D01*
X133734270Y-89023405D01*
X133936594Y-89225729D01*
X133936612Y-89225745D01*
X134165682Y-89397224D01*
X134165690Y-89397229D01*
X134416833Y-89534364D01*
X134416832Y-89534364D01*
X134416836Y-89534365D01*
X134416839Y-89534367D01*
X134684954Y-89634369D01*
X134684960Y-89634370D01*
X134684962Y-89634371D01*
X134964566Y-89695195D01*
X134964568Y-89695195D01*
X134964572Y-89695196D01*
X135218220Y-89713337D01*
X135249999Y-89715610D01*
X135250000Y-89715610D01*
X135250001Y-89715610D01*
X135278595Y-89713564D01*
X135535428Y-89695196D01*
X135758518Y-89646666D01*
X135815037Y-89634371D01*
X135815037Y-89634370D01*
X135815046Y-89634369D01*
X136083161Y-89534367D01*
X136334315Y-89397226D01*
X136563395Y-89225739D01*
X136765739Y-89023395D01*
X136937226Y-88794315D01*
X137074367Y-88543161D01*
X137174369Y-88275046D01*
X137188519Y-88210000D01*
X137235195Y-87995433D01*
X137235195Y-87995432D01*
X137235196Y-87995428D01*
X137255610Y-87710000D01*
X137235196Y-87424572D01*
X137227213Y-87387876D01*
X137174371Y-87144962D01*
X137174370Y-87144960D01*
X137174369Y-87144954D01*
X137074367Y-86876839D01*
X137049271Y-86830880D01*
X136937229Y-86625690D01*
X136937224Y-86625682D01*
X136765745Y-86396612D01*
X136765729Y-86396594D01*
X136563405Y-86194270D01*
X136563387Y-86194254D01*
X136334317Y-86022775D01*
X136334309Y-86022770D01*
X136083166Y-85885635D01*
X136083167Y-85885635D01*
X135959474Y-85839500D01*
X135815046Y-85785631D01*
X135815043Y-85785630D01*
X135815037Y-85785628D01*
X135535433Y-85724804D01*
X135250001Y-85704390D01*
X135249999Y-85704390D01*
X134964566Y-85724804D01*
X134684962Y-85785628D01*
X134416833Y-85885635D01*
X134165690Y-86022770D01*
X134165682Y-86022775D01*
X133936612Y-86194254D01*
X133936594Y-86194270D01*
X133734270Y-86396594D01*
X133734257Y-86396609D01*
X133724374Y-86409812D01*
X133668440Y-86451682D01*
X133625108Y-86459500D01*
X128441578Y-86459500D01*
X128247172Y-86490291D01*
X128186348Y-86510053D01*
X128186348Y-86510054D01*
X128143103Y-86524105D01*
X128059970Y-86551117D01*
X127884591Y-86640478D01*
X127841501Y-86671784D01*
X127841502Y-86671785D01*
X127725352Y-86756173D01*
X127725351Y-86756174D01*
X125518345Y-88963181D01*
X125457022Y-88996666D01*
X125430664Y-88999500D01*
X113124892Y-88999500D01*
X113057853Y-88979815D01*
X113025626Y-88949812D01*
X113015742Y-88936609D01*
X113015729Y-88936594D01*
X112813405Y-88734270D01*
X112813387Y-88734254D01*
X112584317Y-88562775D01*
X112584309Y-88562770D01*
X112333166Y-88425635D01*
X112333167Y-88425635D01*
X112216206Y-88382011D01*
X112065046Y-88325631D01*
X112065043Y-88325630D01*
X112065037Y-88325628D01*
X111785433Y-88264804D01*
X111500001Y-88244390D01*
X111499999Y-88244390D01*
X111214566Y-88264804D01*
X110934962Y-88325628D01*
X110666833Y-88425635D01*
X110415690Y-88562770D01*
X110415682Y-88562775D01*
X110186612Y-88734254D01*
X110186594Y-88734270D01*
X109984270Y-88936594D01*
X109984254Y-88936612D01*
X109812775Y-89165682D01*
X109812770Y-89165690D01*
X109675635Y-89416833D01*
X109575628Y-89684962D01*
X109514804Y-89964566D01*
X109494390Y-90249998D01*
X105355659Y-90249998D01*
X105335063Y-90014592D01*
X105273903Y-89786337D01*
X105174035Y-89572171D01*
X105153035Y-89542179D01*
X105038494Y-89378597D01*
X104871402Y-89211506D01*
X104871401Y-89211505D01*
X104685405Y-89081269D01*
X104641781Y-89026692D01*
X104634588Y-88957193D01*
X104666110Y-88894839D01*
X104685405Y-88878119D01*
X104871082Y-88748105D01*
X105038105Y-88581082D01*
X105173600Y-88387578D01*
X105273429Y-88173492D01*
X105273432Y-88173486D01*
X105330636Y-87960000D01*
X104433012Y-87960000D01*
X104465925Y-87902993D01*
X104500000Y-87775826D01*
X104500000Y-87644174D01*
X104465925Y-87517007D01*
X104433012Y-87460000D01*
X105330636Y-87460000D01*
X105330635Y-87459999D01*
X105273432Y-87246513D01*
X105273429Y-87246507D01*
X105173600Y-87032422D01*
X105173599Y-87032420D01*
X105038113Y-86838926D01*
X105038108Y-86838920D01*
X104871082Y-86671894D01*
X104677578Y-86536399D01*
X104463492Y-86436570D01*
X104463486Y-86436567D01*
X104250000Y-86379364D01*
X104250000Y-87276988D01*
X104192993Y-87244075D01*
X104065826Y-87210000D01*
X103934174Y-87210000D01*
X103807007Y-87244075D01*
X103750000Y-87276988D01*
X103750000Y-86379364D01*
X103749999Y-86379364D01*
X103536513Y-86436567D01*
X103536507Y-86436570D01*
X103322422Y-86536399D01*
X103322420Y-86536400D01*
X103128926Y-86671886D01*
X103128920Y-86671891D01*
X102961891Y-86838920D01*
X102961886Y-86838926D01*
X102826400Y-87032420D01*
X102826399Y-87032422D01*
X102726570Y-87246507D01*
X102726567Y-87246513D01*
X102669364Y-87459999D01*
X102669364Y-87460000D01*
X103566988Y-87460000D01*
X103534075Y-87517007D01*
X103500000Y-87644174D01*
X103500000Y-87775826D01*
X103534075Y-87902993D01*
X103566988Y-87960000D01*
X102669364Y-87960000D01*
X102726567Y-88173486D01*
X102726570Y-88173492D01*
X102826399Y-88387578D01*
X102961894Y-88581082D01*
X103128917Y-88748105D01*
X103314595Y-88878119D01*
X103358219Y-88932696D01*
X103365412Y-89002195D01*
X103333890Y-89064549D01*
X103314595Y-89081269D01*
X103128594Y-89211508D01*
X102961505Y-89378597D01*
X102825965Y-89572169D01*
X102825964Y-89572171D01*
X102726098Y-89786335D01*
X102726094Y-89786344D01*
X102664938Y-90014586D01*
X102664936Y-90014596D01*
X102644341Y-90249999D01*
X101390625Y-90249999D01*
X101347547Y-90192455D01*
X101347544Y-90192452D01*
X101232335Y-90106206D01*
X101232328Y-90106202D01*
X101097482Y-90055908D01*
X101097483Y-90055908D01*
X101037883Y-90049501D01*
X101037881Y-90049500D01*
X101037873Y-90049500D01*
X101037865Y-90049500D01*
X100817569Y-90049500D01*
X100750530Y-90029815D01*
X100704775Y-89977011D01*
X100694831Y-89907853D01*
X100723856Y-89844297D01*
X100772775Y-89809874D01*
X100827168Y-89788801D01*
X100827181Y-89788795D01*
X100943326Y-89716879D01*
X100286447Y-89060000D01*
X100336078Y-89060000D01*
X100425095Y-89036148D01*
X100504905Y-88990070D01*
X100570070Y-88924905D01*
X100616148Y-88845095D01*
X100640000Y-88756078D01*
X100640000Y-88709999D01*
X100643553Y-88709999D01*
X100643553Y-88710000D01*
X101298861Y-89365308D01*
X101314631Y-89344425D01*
X101314633Y-89344422D01*
X101413759Y-89145350D01*
X101474621Y-88931439D01*
X101495141Y-88710000D01*
X101495141Y-88709999D01*
X101474621Y-88488560D01*
X101413759Y-88274649D01*
X101314635Y-88075580D01*
X101314630Y-88075572D01*
X101298860Y-88054690D01*
X100643553Y-88709999D01*
X100640000Y-88709999D01*
X100640000Y-88663922D01*
X100616148Y-88574905D01*
X100570070Y-88495095D01*
X100504905Y-88429930D01*
X100425095Y-88383852D01*
X100336078Y-88360000D01*
X100243922Y-88360000D01*
X100154905Y-88383852D01*
X100075095Y-88429930D01*
X100009930Y-88495095D01*
X99963852Y-88574905D01*
X99940000Y-88663922D01*
X99940000Y-88713553D01*
X99281138Y-88054691D01*
X99281137Y-88054691D01*
X99265368Y-88075574D01*
X99166240Y-88274649D01*
X99105378Y-88488560D01*
X99084859Y-88709999D01*
X99084859Y-88710000D01*
X99102767Y-88903258D01*
X99089352Y-88971827D01*
X99040995Y-89022259D01*
X98973049Y-89038542D01*
X98907086Y-89015505D01*
X98891615Y-89002380D01*
X97592354Y-87703119D01*
X99636671Y-87703119D01*
X100290000Y-88356447D01*
X100290001Y-88356447D01*
X100943327Y-87703119D01*
X100827178Y-87631202D01*
X100827177Y-87631201D01*
X100619804Y-87550865D01*
X100401193Y-87510000D01*
X100178807Y-87510000D01*
X99960195Y-87550865D01*
X99752824Y-87631200D01*
X99752823Y-87631201D01*
X99636671Y-87703119D01*
X97592354Y-87703119D01*
X97306819Y-87417584D01*
X97273334Y-87356261D01*
X97270500Y-87329903D01*
X97270500Y-83481692D01*
X97290185Y-83414653D01*
X97323374Y-83380119D01*
X97509139Y-83250047D01*
X97670047Y-83089139D01*
X97800568Y-82902734D01*
X97896739Y-82696496D01*
X97955635Y-82476692D01*
X97975468Y-82250000D01*
X97955635Y-82023308D01*
X97896739Y-81803504D01*
X97800568Y-81597266D01*
X97670047Y-81410861D01*
X97670045Y-81410858D01*
X97571368Y-81312181D01*
X97537883Y-81250858D01*
X97542867Y-81181166D01*
X97584739Y-81125233D01*
X97650203Y-81100816D01*
X97659049Y-81100500D01*
X104779903Y-81100500D01*
X104846942Y-81120185D01*
X104867584Y-81136819D01*
X105538058Y-81807293D01*
X105571543Y-81868616D01*
X105570152Y-81927067D01*
X105544366Y-82023302D01*
X105544364Y-82023313D01*
X105524532Y-82249998D01*
X105524532Y-82250001D01*
X105544364Y-82476686D01*
X105544366Y-82476697D01*
X105603258Y-82696488D01*
X105603261Y-82696497D01*
X105699431Y-82902732D01*
X105699432Y-82902734D01*
X105829954Y-83089141D01*
X105990858Y-83250045D01*
X105990861Y-83250047D01*
X106177266Y-83380568D01*
X106383504Y-83476739D01*
X106603308Y-83535635D01*
X106765230Y-83549801D01*
X106829998Y-83555468D01*
X106830000Y-83555468D01*
X106830001Y-83555468D01*
X106857352Y-83553075D01*
X107014693Y-83539309D01*
X107083192Y-83553075D01*
X107133375Y-83601691D01*
X107149500Y-83662837D01*
X107149500Y-84915500D01*
X107129815Y-84982539D01*
X107077011Y-85028294D01*
X107025501Y-85039500D01*
X106802130Y-85039500D01*
X106802123Y-85039501D01*
X106742516Y-85045908D01*
X106607671Y-85096202D01*
X106607664Y-85096206D01*
X106492455Y-85182452D01*
X106492452Y-85182455D01*
X106406206Y-85297664D01*
X106406202Y-85297671D01*
X106355908Y-85432517D01*
X106349501Y-85492116D01*
X106349501Y-85492123D01*
X106349500Y-85492135D01*
X106349500Y-87387870D01*
X106349501Y-87387876D01*
X106355908Y-87447483D01*
X106406202Y-87582328D01*
X106406206Y-87582335D01*
X106492452Y-87697544D01*
X106492455Y-87697547D01*
X106607664Y-87783793D01*
X106607671Y-87783797D01*
X106742517Y-87834091D01*
X106742516Y-87834091D01*
X106749444Y-87834835D01*
X106802127Y-87840500D01*
X108697872Y-87840499D01*
X108757483Y-87834091D01*
X108892331Y-87783796D01*
X109007546Y-87697546D01*
X109093796Y-87582331D01*
X109144091Y-87447483D01*
X109150500Y-87387873D01*
X109150500Y-87164500D01*
X109170185Y-87097461D01*
X109222989Y-87051706D01*
X109274500Y-87040500D01*
X109473331Y-87040500D01*
X109473347Y-87040501D01*
X109480943Y-87040501D01*
X109639054Y-87040501D01*
X109639057Y-87040501D01*
X109791785Y-86999577D01*
X109841904Y-86970639D01*
X109928716Y-86920520D01*
X110040520Y-86808716D01*
X110040520Y-86808714D01*
X110050728Y-86798507D01*
X110050730Y-86798504D01*
X111724575Y-85124658D01*
X111785896Y-85091175D01*
X111855588Y-85096159D01*
X111911521Y-85138031D01*
X111919641Y-85150340D01*
X111999614Y-85288857D01*
X112006643Y-85297671D01*
X112163198Y-85493985D01*
X112238016Y-85563405D01*
X112355521Y-85672433D01*
X112572296Y-85820228D01*
X112572301Y-85820230D01*
X112572302Y-85820231D01*
X112572303Y-85820232D01*
X112697843Y-85880688D01*
X112808673Y-85934061D01*
X112808674Y-85934061D01*
X112808677Y-85934063D01*
X113059385Y-86011396D01*
X113318818Y-86050500D01*
X113581182Y-86050500D01*
X113840615Y-86011396D01*
X114091323Y-85934063D01*
X114327704Y-85820228D01*
X114544479Y-85672433D01*
X114736805Y-85493981D01*
X114900386Y-85288857D01*
X115031568Y-85061643D01*
X115127420Y-84817416D01*
X115185802Y-84561630D01*
X115205408Y-84300000D01*
X115201661Y-84250001D01*
X115201661Y-84249998D01*
X123694390Y-84249998D01*
X123694390Y-84250001D01*
X123714804Y-84535433D01*
X123775628Y-84815037D01*
X123775630Y-84815043D01*
X123775631Y-84815046D01*
X123852006Y-85019815D01*
X123875635Y-85083166D01*
X124012770Y-85334309D01*
X124012775Y-85334317D01*
X124184254Y-85563387D01*
X124184270Y-85563405D01*
X124386594Y-85765729D01*
X124386612Y-85765745D01*
X124615682Y-85937224D01*
X124615690Y-85937229D01*
X124866833Y-86074364D01*
X124866832Y-86074364D01*
X124866836Y-86074365D01*
X124866839Y-86074367D01*
X125134954Y-86174369D01*
X125134960Y-86174370D01*
X125134962Y-86174371D01*
X125414566Y-86235195D01*
X125414568Y-86235195D01*
X125414572Y-86235196D01*
X125668220Y-86253337D01*
X125699999Y-86255610D01*
X125700000Y-86255610D01*
X125700001Y-86255610D01*
X125728595Y-86253564D01*
X125985428Y-86235196D01*
X126173563Y-86194270D01*
X126265037Y-86174371D01*
X126265037Y-86174370D01*
X126265046Y-86174369D01*
X126533161Y-86074367D01*
X126784315Y-85937226D01*
X127013395Y-85765739D01*
X127215739Y-85563395D01*
X127387226Y-85334315D01*
X127524367Y-85083161D01*
X127624369Y-84815046D01*
X127685196Y-84535428D01*
X127705610Y-84250000D01*
X127685196Y-83964572D01*
X127653633Y-83819481D01*
X127624371Y-83684962D01*
X127624370Y-83684960D01*
X127624369Y-83684954D01*
X127524367Y-83416839D01*
X127523173Y-83414653D01*
X127387229Y-83165690D01*
X127387224Y-83165682D01*
X127215745Y-82936612D01*
X127215729Y-82936594D01*
X127013405Y-82734270D01*
X127013387Y-82734254D01*
X126784317Y-82562775D01*
X126784309Y-82562770D01*
X126533166Y-82425635D01*
X126533167Y-82425635D01*
X126425915Y-82385632D01*
X126265046Y-82325631D01*
X126265043Y-82325630D01*
X126265037Y-82325628D01*
X125985433Y-82264804D01*
X125700001Y-82244390D01*
X125699999Y-82244390D01*
X125414566Y-82264804D01*
X125134962Y-82325628D01*
X124866833Y-82425635D01*
X124615690Y-82562770D01*
X124615682Y-82562775D01*
X124386612Y-82734254D01*
X124386594Y-82734270D01*
X124184270Y-82936594D01*
X124184254Y-82936612D01*
X124012775Y-83165682D01*
X124012770Y-83165690D01*
X123875635Y-83416833D01*
X123775628Y-83684962D01*
X123714804Y-83964566D01*
X123694390Y-84249998D01*
X115201661Y-84249998D01*
X115185803Y-84038379D01*
X115185802Y-84038374D01*
X115185802Y-84038370D01*
X115127420Y-83782584D01*
X115031568Y-83538357D01*
X114900386Y-83311143D01*
X114736805Y-83106019D01*
X114736804Y-83106018D01*
X114736801Y-83106014D01*
X114544479Y-82927567D01*
X114508053Y-82902732D01*
X114327704Y-82779772D01*
X114327700Y-82779770D01*
X114327697Y-82779768D01*
X114327696Y-82779767D01*
X114091325Y-82665938D01*
X114091327Y-82665938D01*
X113840623Y-82588606D01*
X113840619Y-82588605D01*
X113840615Y-82588604D01*
X113715823Y-82569794D01*
X113581187Y-82549500D01*
X113581182Y-82549500D01*
X113318818Y-82549500D01*
X113318812Y-82549500D01*
X113163386Y-82572928D01*
X113059385Y-82588604D01*
X113059382Y-82588605D01*
X113059376Y-82588606D01*
X112808673Y-82665938D01*
X112572303Y-82779767D01*
X112572302Y-82779768D01*
X112355520Y-82927567D01*
X112163198Y-83106014D01*
X111999614Y-83311143D01*
X111868432Y-83538356D01*
X111836075Y-83620801D01*
X111793259Y-83676015D01*
X111727389Y-83699316D01*
X111720647Y-83699499D01*
X111620943Y-83699499D01*
X111513587Y-83728265D01*
X111468210Y-83740424D01*
X111468209Y-83740425D01*
X111418096Y-83769359D01*
X111418095Y-83769360D01*
X111395168Y-83782597D01*
X111331285Y-83819479D01*
X111331282Y-83819481D01*
X109362180Y-85788584D01*
X109300857Y-85822069D01*
X109231165Y-85817085D01*
X109175232Y-85775213D01*
X109150815Y-85709749D01*
X109150499Y-85700903D01*
X109150499Y-85492129D01*
X109150498Y-85492123D01*
X109150497Y-85492116D01*
X109144091Y-85432517D01*
X109093796Y-85297669D01*
X109093795Y-85297668D01*
X109093793Y-85297664D01*
X109007547Y-85182455D01*
X109007544Y-85182452D01*
X108892335Y-85096206D01*
X108892328Y-85096202D01*
X108757482Y-85045908D01*
X108757483Y-85045908D01*
X108697883Y-85039501D01*
X108697881Y-85039500D01*
X108697873Y-85039500D01*
X108697865Y-85039500D01*
X108474500Y-85039500D01*
X108407461Y-85019815D01*
X108361706Y-84967011D01*
X108350500Y-84915500D01*
X108350500Y-83090945D01*
X108350500Y-83090943D01*
X108309577Y-82938216D01*
X108289092Y-82902734D01*
X108230524Y-82801290D01*
X108230521Y-82801286D01*
X108230520Y-82801284D01*
X108121940Y-82692704D01*
X108088456Y-82631381D01*
X108089846Y-82572933D01*
X108115635Y-82476692D01*
X108135468Y-82250000D01*
X108115635Y-82023308D01*
X108056739Y-81803504D01*
X107960568Y-81597266D01*
X107830047Y-81410861D01*
X107830045Y-81410858D01*
X107669141Y-81249954D01*
X107482734Y-81119432D01*
X107482732Y-81119431D01*
X107276497Y-81023261D01*
X107276488Y-81023258D01*
X107056697Y-80964366D01*
X107056693Y-80964365D01*
X107056692Y-80964365D01*
X107056691Y-80964364D01*
X107056686Y-80964364D01*
X106830002Y-80944532D01*
X106829998Y-80944532D01*
X106603313Y-80964364D01*
X106603302Y-80964366D01*
X106507067Y-80990152D01*
X106437217Y-80988489D01*
X106387293Y-80958058D01*
X105567590Y-80138355D01*
X105567588Y-80138352D01*
X105448717Y-80019481D01*
X105448716Y-80019480D01*
X105361904Y-79969360D01*
X105361904Y-79969359D01*
X105361900Y-79969358D01*
X105311785Y-79940423D01*
X105159057Y-79899499D01*
X105000943Y-79899499D01*
X104993347Y-79899499D01*
X104993331Y-79899500D01*
X94836669Y-79899500D01*
X94836653Y-79899499D01*
X94829057Y-79899499D01*
X94670943Y-79899499D01*
X94563587Y-79928265D01*
X94518210Y-79940424D01*
X94518209Y-79940425D01*
X94468096Y-79969359D01*
X94468095Y-79969360D01*
X94424689Y-79994420D01*
X94381285Y-80019479D01*
X94381282Y-80019481D01*
X93019481Y-81381282D01*
X93019480Y-81381284D01*
X92978660Y-81451987D01*
X92940423Y-81518215D01*
X92899499Y-81670943D01*
X92899499Y-81670945D01*
X92899499Y-81839046D01*
X92899500Y-81839059D01*
X92899500Y-88699903D01*
X92879815Y-88766942D01*
X92863181Y-88787584D01*
X92037584Y-89613181D01*
X91976261Y-89646666D01*
X91949903Y-89649500D01*
X90910719Y-89649500D01*
X90843680Y-89629815D01*
X90800235Y-89581795D01*
X90780052Y-89542185D01*
X90780051Y-89542184D01*
X90655109Y-89370213D01*
X90515931Y-89231035D01*
X90482446Y-89169712D01*
X90487430Y-89100020D01*
X90529302Y-89044087D01*
X90538516Y-89037815D01*
X90693343Y-88942317D01*
X90817315Y-88818345D01*
X90909356Y-88669124D01*
X90909358Y-88669119D01*
X90964505Y-88502697D01*
X90964506Y-88502690D01*
X90974999Y-88399986D01*
X90975000Y-88399973D01*
X90975000Y-88000000D01*
X89904146Y-88000000D01*
X89942630Y-87933343D01*
X89975000Y-87812535D01*
X89975000Y-87687465D01*
X89942630Y-87566657D01*
X89904146Y-87500000D01*
X90974999Y-87500000D01*
X90974999Y-87100028D01*
X90974998Y-87100013D01*
X90964505Y-86997302D01*
X90909358Y-86830880D01*
X90909356Y-86830875D01*
X90817315Y-86681654D01*
X90693345Y-86557684D01*
X90544124Y-86465643D01*
X90544119Y-86465641D01*
X90377697Y-86410494D01*
X90377690Y-86410493D01*
X90274986Y-86400000D01*
X89750000Y-86400000D01*
X89750000Y-87345854D01*
X89683343Y-87307370D01*
X89562535Y-87275000D01*
X89437465Y-87275000D01*
X89316657Y-87307370D01*
X89250000Y-87345854D01*
X89250000Y-86400000D01*
X88725028Y-86400000D01*
X88725012Y-86400001D01*
X88622302Y-86410494D01*
X88455880Y-86465641D01*
X88455875Y-86465643D01*
X88306654Y-86557684D01*
X88182684Y-86681654D01*
X88090643Y-86830875D01*
X88090641Y-86830880D01*
X88035494Y-86997302D01*
X88035493Y-86997309D01*
X88025000Y-87100013D01*
X88025000Y-87500000D01*
X89095854Y-87500000D01*
X89057370Y-87566657D01*
X89025000Y-87687465D01*
X89025000Y-87812535D01*
X89057370Y-87933343D01*
X89095854Y-88000000D01*
X88025001Y-88000000D01*
X88025001Y-88399986D01*
X88035494Y-88502697D01*
X88090641Y-88669119D01*
X88090643Y-88669124D01*
X88182684Y-88818345D01*
X88306654Y-88942315D01*
X88461484Y-89037815D01*
X88508208Y-89089763D01*
X88519431Y-89158726D01*
X88491587Y-89222808D01*
X88484069Y-89231035D01*
X88344889Y-89370215D01*
X88219951Y-89542179D01*
X88123444Y-89731585D01*
X88057753Y-89933760D01*
X88024500Y-90143713D01*
X83475500Y-90143713D01*
X83475500Y-80322963D01*
X83495185Y-80255924D01*
X83547989Y-80210169D01*
X83617147Y-80200225D01*
X83680703Y-80229250D01*
X83718477Y-80288028D01*
X83723318Y-80316250D01*
X83738808Y-80601954D01*
X83775250Y-80824242D01*
X83794970Y-80944532D01*
X83795833Y-80949793D01*
X83795834Y-80949796D01*
X83890126Y-81289408D01*
X83890127Y-81289410D01*
X84020588Y-81616844D01*
X84020597Y-81616862D01*
X84138392Y-81839046D01*
X84185695Y-81928269D01*
X84368661Y-82198124D01*
X84383498Y-82220006D01*
X84383505Y-82220016D01*
X84601527Y-82476690D01*
X84611686Y-82488650D01*
X84867580Y-82731046D01*
X85148182Y-82944354D01*
X85450202Y-83126074D01*
X85450206Y-83126075D01*
X85450210Y-83126078D01*
X85770088Y-83274070D01*
X85770092Y-83274070D01*
X85770099Y-83274074D01*
X86104122Y-83386619D01*
X86448355Y-83462391D01*
X86798763Y-83500500D01*
X86798769Y-83500500D01*
X87151231Y-83500500D01*
X87151237Y-83500500D01*
X87501645Y-83462391D01*
X87845878Y-83386619D01*
X88179901Y-83274074D01*
X88179908Y-83274070D01*
X88179911Y-83274070D01*
X88499789Y-83126078D01*
X88499798Y-83126074D01*
X88801818Y-82944354D01*
X89082420Y-82731046D01*
X89338314Y-82488650D01*
X89566501Y-82220008D01*
X89764305Y-81928269D01*
X89929407Y-81616854D01*
X90059871Y-81289414D01*
X90070828Y-81249953D01*
X90107066Y-81119432D01*
X90154168Y-80949788D01*
X90211191Y-80601957D01*
X90230274Y-80250000D01*
X90228114Y-80210169D01*
X90214354Y-79956381D01*
X90211191Y-79898043D01*
X90154168Y-79550212D01*
X90107427Y-79381867D01*
X90059873Y-79210591D01*
X90059872Y-79210589D01*
X89929411Y-78883155D01*
X89929402Y-78883137D01*
X89928052Y-78880591D01*
X89764305Y-78571731D01*
X89566501Y-78279992D01*
X89566497Y-78279987D01*
X89566494Y-78279983D01*
X89338314Y-78011350D01*
X89326860Y-78000500D01*
X89082420Y-77768954D01*
X89082413Y-77768948D01*
X89082410Y-77768946D01*
X88801815Y-77555644D01*
X88499802Y-77373928D01*
X88499789Y-77373921D01*
X88179911Y-77225929D01*
X88179906Y-77225928D01*
X88179903Y-77225927D01*
X88179901Y-77225926D01*
X87995271Y-77163717D01*
X87845880Y-77113381D01*
X87501643Y-77037608D01*
X87151238Y-76999500D01*
X87151237Y-76999500D01*
X86957695Y-76999500D01*
X86890656Y-76979815D01*
X86844901Y-76927011D01*
X86834957Y-76857853D01*
X86863982Y-76794297D01*
X86922760Y-76756523D01*
X86951611Y-76751649D01*
X86971967Y-76750649D01*
X86978051Y-76750500D01*
X87040892Y-76750500D01*
X136434108Y-76750500D01*
X136496949Y-76750500D01*
X136503033Y-76750649D01*
G37*
%TD.AperFunction*%
%TD*%
M02*
