M48
; DRILL file {KiCad 8.0.5} date 2024-12-15T17:36:29-0600
; FORMAT={-:-/ absolute / inch / decimal}
; #@! TF.CreationDate,2024-12-15T17:36:29-06:00
; #@! TF.GenerationSoftware,Kicad,Pcbnew,8.0.5
; #@! TF.FileFunction,Plated,1,2,PTH
FMAT,2
INCH
; #@! TA.AperFunction,Plated,PTH,ComponentDrill
T1C0.0276
; #@! TA.AperFunction,Plated,PTH,ComponentDrill
T2C0.0315
; #@! TA.AperFunction,Plated,PTH,ComponentDrill
T3C0.0354
; #@! TA.AperFunction,Plated,PTH,ComponentDrill
T4C0.0374
; #@! TA.AperFunction,Plated,PTH,ComponentDrill
T5C0.0394
; #@! TA.AperFunction,Plated,PTH,ComponentDrill
T6C0.0512
; #@! TA.AperFunction,Plated,PTH,ComponentDrill
T7C0.0598
%
G90
G05
T1
X3.7484Y-3.4925
X3.7484Y-3.5925
X3.9484Y-3.4925
X3.9484Y-3.5925
T2
X3.8059Y-3.2382
X3.8059Y-3.8681
X4.2059Y-3.2382
X4.2059Y-3.8681
T3
X4.2421Y-3.4031
X4.2421Y-3.7031
T4
X3.5236Y-3.4547
X3.5236Y-3.5531
X3.5236Y-3.6516
T5
X4.0945Y-3.4531
X4.0945Y-3.5531
X4.0945Y-3.6531
X4.4665Y-3.3189
X4.4665Y-3.7913
T6
X4.3898Y-3.5531
X4.9469Y-3.7913
X4.9488Y-3.3169
T7
X5.3248Y-3.4531
X5.3248Y-3.6531
M30
